<?xml version="1.0" encoding="UTF-8" standalone="no"?>
<!-- Generator: Adobe Illustrator 12.0.1, SVG Export Plug-In . SVG Version: 6.00 Build 51448)  -->
<svg
   xmlns:dc="http://purl.org/dc/elements/1.1/"
   xmlns:cc="http://web.resource.org/cc/"
   xmlns:rdf="http://www.w3.org/1999/02/22-rdf-syntax-ns#"
   xmlns:svg="http://www.w3.org/2000/svg"
   xmlns="http://www.w3.org/2000/svg"
   xmlns:sodipodi="http://sodipodi.sourceforge.net/DTD/sodipodi-0.dtd"
   xmlns:inkscape="http://www.inkscape.org/namespaces/inkscape"
   version="1.0"
   id="Layer_1"
   width="900"
   height="600"
   viewBox="0 0 720 432"
   overflow="visible"
   enable-background="new 0 0 720 432"
   xml:space="preserve"
   sodipodi:version="0.32"
   inkscape:version="0.45.1"
   sodipodi:docname="An Appeal to Heaven Flag.svg"
   inkscape:output_extension="org.inkscape.output.svg.inkscape"
   sodipodi:docbase="C:\Documents and Settings\Owner\Desktop\SVG\Mine\Complete"><metadata
   id="metadata5578"><rdf:RDF><cc:Work
       rdf:about=""><dc:format>image/svg+xml</dc:format><dc:type
         rdf:resource="http://purl.org/dc/dcmitype/StillImage" /><dc:description>This is the Appeal to Heaven flag flown during the American Revolution. Multiple versions of this flag exist given the original was destroyed by the British. The pine tree is a traditional symbol of New England.</dc:description><dc:publisher><cc:Agent><dc:title>Devin Cook (www.devincook.com)</dc:title></cc:Agent></dc:publisher><dc:title>An Appeal to Heaven Flag</dc:title><dc:contributor><cc:Agent><dc:title>Devin Cook,
IMeowbot at en.wikipedia</dc:title></cc:Agent></dc:contributor><dc:subject><rdf:Bag><rdf:li>Maine</rdf:li><rdf:li>flag</rdf:li><rdf:li>1901</rdf:li></rdf:Bag></dc:subject></cc:Work></rdf:RDF></metadata><defs
   id="defs5576">
	
	
	
	
	
	
	
	
	
	
	
	
	
	
	
	
	

	
	
	
	
	
	
	
	
	
	
	
	
	
	
	
	
	

	
	
	
	
	
	
	
	
	
	
	
	
	
	
	
	
	
</defs><sodipodi:namedview
   inkscape:window-height="611"
   inkscape:window-width="977"
   inkscape:pageshadow="2"
   inkscape:pageopacity="0.0"
   guidetolerance="10.0"
   gridtolerance="10000"
   objecttolerance="10.0"
   borderopacity="1.0"
   bordercolor="#666666"
   pagecolor="#ffffff"
   id="base"
   showgrid="true"
   width="900px"
   height="600px"
   inkscape:zoom="0.35442031"
   inkscape:cx="460.5867"
   inkscape:cy="39.224241"
   inkscape:window-x="76"
   inkscape:window-y="51"
   inkscape:current-layer="Layer_1"
   inkscape:grid-points="true"
   showguides="true"
   inkscape:guide-bbox="true" />

<flowRoot
   xml:space="preserve"
   id="flowRoot3371"
   transform="matrix(0.9599999,0,0,0.9601072,754.69122,283.81542)"
   style="fill:#000000"><flowRegion
     id="flowRegion3373"><rect
       id="rect3375"
       width="174.31718"
       height="130.73788"
       x="-474.78494"
       y="144.71104"
       style="fill:#000000" /></flowRegion><flowPara
     id="flowPara3377">Created by Devin Cook</flowPara><flowPara
     id="flowPara3379">http://www.devincook.com</flowPara></flowRoot><rect
   style="opacity:1;fill:#ffffff;fill-opacity:1;fill-rule:nonzero;stroke:none;stroke-width:2;stroke-miterlimit:4;stroke-dasharray:none;stroke-dashoffset:0;stroke-opacity:1"
   id="rect2688"
   width="720"
   height="480"
   x="0"
   y="-24" />
<g
   id="g2252"><path
     id="path2319"
     d="M 314.24194,384 C 309.42217,384 306.0413,387.6974 300.16128,388 C 294.28127,388.3026 289.60081,384.8 282.56049,388 C 275.52016,391.2 273.83219,395.75931 272,400 C 270.16783,404.24069 282.58778,410.98848 293.12097,412.8 C 315.14927,416.58848 341.59413,415.83907 360.00402,416 C 378.41389,415.83907 404.85878,416.58848 426.88707,412.8 C 437.42025,410.98848 449.8402,404.24069 448.00803,400 C 446.17585,395.75931 444.48787,391.2 437.44754,388 C 430.40721,384.8 425.72676,388.3026 419.84674,388 C 413.96672,387.6974 410.58585,384 405.76609,384 C 400.83786,384 396.61368,388 391.68547,388 C 387.06654,388 382.87908,384 377.60481,384 C 372.67659,384 366.80911,388.14485 360.00402,388 C 353.1989,388.14485 347.33144,384 342.40322,384 C 337.12895,384 332.94151,388 328.32257,388 C 323.39435,388 319.17016,384 314.24194,384 z "
     style="fill:#009738;fill-opacity:1" /><path
     style="fill:#8b5c29"
     d="M 370.13454,321.0939 C 370.15825,333.81986 369.32714,346.3134 369.26282,358.87091 C 369.23913,363.32116 369.42194,368.72884 370.16333,373.06181 C 370.7913,376.73589 372.83605,380.41634 372.88853,384.38254 C 375.60358,384.79196 375.28705,388.80506 377.78037,389.15904 C 383.32556,401.89354 370.58649,397.75249 364.01384,397.72476 C 359.61965,397.70556 355.01388,398.7291 350.96669,398.52226 C 346.66392,398.30476 343.61541,398.31116 339.14336,400 C 340.45518,398.15762 342.38483,397.5691 343.63403,395.5796 C 345.8599,392.03774 345.29624,387.09065 345.76003,382.89629 C 346.57252,375.54814 346.62329,368.56678 346.67915,361.09923 C 346.72993,354.23301 347.77261,347.25802 348.39552,340.76926 C 349.03705,334.06721 348.4243,326.76814 348.41584,320"
     id="path2202" /><g
     transform="matrix(1,0,0,0.981087,-0.85664,9.6643444)"
     id="g3452"><path
       id="path2204"
       d="M 352.43,333.7372 C 351.29951,334.84911 348.80009,337.92671 346.73982,338.00026 C 345.57846,338.04064 345.3829,336.89411 344.36906,336.79604 C 342.15097,336.57972 339.30846,336.60712 337.07151,336.6749 C 331.72271,336.83642 326.47856,336.94891 321.13834,336.39368 C 311.84227,335.42598 304.51384,335.18226 295.71354,337.84162 C 291.94296,338.98237 288.04545,339.27513 283.89232,338.93334 C 279.37381,338.5627 274.43501,338.46608 269.99712,337.61087 C 266.49072,336.93593 260.80398,335.24427 264.63803,331.49751 C 268.21647,328.00457 274.77467,330.05678 278.20387,327.20417 C 268.05522,326.37348 258.45209,330.0438 248.6208,328.94487 C 244.80391,328.51943 237.50635,328.35214 240.85664,323.69825 C 242.97866,320.7519 247.78537,318.15311 248.71344,314.63709 C 251.18884,314.30395 253.27312,310.74756 255.52037,309.51739 C 257.94774,308.18915 261.49874,306.90562 264.23318,306.22347 C 265.61412,303.07521 261.94648,302.10896 260.85373,299.76687 C 259.23777,296.2999 263.5693,295.27451 264.5574,292.43344 C 265.03087,292.33681 265.50433,292.24163 265.97952,292.14933 C 266.0893,291.75129 266.20081,291.35037 266.31575,290.95233 C 267.93685,290.83551 270.27159,288.61457 271.42781,287.67427 C 273.07293,286.33738 277.03564,283.49775 277.52626,282.07 C 272.02479,282.14499 276.18477,277.46948 277.88822,276.16287 C 280.67069,274.02557 283.18555,272.99009 286.14472,271.35756 C 287.93566,270.36823 291.61703,267.39592 290.83821,265.29467 C 289.87755,262.70165 285.11201,263.72992 283.90776,261.12392 C 281.9813,256.9546 290.38876,250.07256 292.99282,246.69356 C 294.74259,244.4207 297.08591,242.81845 299.39663,241.00564 C 302.43813,238.61884 304.33371,235.43597 307.24141,232.98428 C 301.60957,233.45299 296.24362,232.05985 290.93771,232.22282 C 288.68531,226.63008 301.45175,221.42673 304.96672,218.47749 C 307.5948,216.27097 309.73569,213.16021 312.53189,210.84697 C 314.94897,208.84668 318.349,205.01771 321.30474,204.1726 C 316.58723,204.10194 312.52674,207.1579 307.66513,206.31855 C 306.53293,203.39816 313.46509,196.86368 315.11536,194.21442 C 317.4724,190.43304 322.34773,186.32574 323.44048,181.95164 C 325.22112,174.82588 317.45868,177.90347 314.86491,173.6707 C 312.31745,169.5158 321.7559,167.75491 323.37529,165.80943 C 324.7631,164.14372 324.85402,160.31331 323.41132,158.67501 C 321.98063,157.05112 319.93065,157.61357 319.80199,155.25562 C 319.57555,151.02718 325.9622,146.9992 327.5044,143.51347 C 328.50794,141.24638 327.20248,139.07735 326.92629,136.90977 C 326.6278,134.58643 327.61419,131.64152 328.78241,129.64844 C 329.57324,128.29857 331.3333,126.92707 332.17902,125.24405 C 332.78972,124.02398 333.30093,122.83419 333.93565,121.60978 C 335.23768,119.09464 336.63406,116.83908 337.93438,114.11482 C 339.57264,110.6839 344.20266,108.998 346.20975,105.81657 C 347.61814,103.58409 346.71066,100.94637 348.19968,98.618701 C 349.32159,96.870791 350.50011,95.829544 351.15541,93.922994 C 350.83805,93.770124 350.67851,93.523513 350.66822,93.180276 L 357.71189,88 C 358.91786,89.531585 359.19061,92.013561 360.12211,93.738396 C 360.96268,95.295941 361.81698,96.847716 362.77764,98.359111 C 364.09511,100.43439 365.38856,102.46786 366.35265,104.41623 C 368.71998,109.20856 370.18841,113.69948 373.05837,118.32596 C 374.35869,120.42144 376.06042,122.18088 377.09828,124.20858 C 378.43462,126.81746 378.45006,129.32395 379.24774,132.0237 C 379.98539,134.52298 381.63394,136.64874 382.33214,139.06293 C 383.04748,141.52904 386.18848,145.4878 385.77334,147.84142 C 384.42328,147.88469 382.90853,147.85873 381.57562,148.10246 C 384.23972,152.77076 390.57319,156.11516 394.29402,160.16477 C 396.11927,162.15497 396.41604,163.6029 397.36469,165.67674 C 398.08347,167.2516 399.31517,168.72982 399.08529,170.46475 C 398.98237,171.24497 398.11263,171.94442 398.06631,172.99432 C 397.57741,173.07508 397.09022,173.15728 396.60303,173.24381 C 395.60806,175.78203 398.24815,178.39092 399.52617,180.52389 C 401.40974,183.66494 400.69954,183.43852 398.85885,186.38776 C 396.9444,189.45958 397.29093,191.49016 398.231,194.58361 C 398.75593,196.31422 398.45572,197.06991 399.95675,198.66495 C 401.00832,199.78119 402.44588,200.42007 402.78039,201.84061 C 403.25214,201.94445 403.72904,202.03386 404.20937,202.11318 C 404.66911,204.78985 409.60276,207.83572 408.82909,210.88591 C 407.91475,214.48412 402.27604,213.35923 407.86329,217.83284 C 411.81399,220.99841 421.91975,225.70709 420.98997,231.4801 C 417.47843,231.64595 414.91897,233.3405 411.53265,233.20061 C 411.96152,235.76335 417.10274,237.17379 419.05493,239.15822 C 421.83054,241.9791 424.12754,245.86287 428.15887,247.56751 C 432.72542,249.49714 447.04434,253.528 436.09286,258.21073 C 433.00332,259.53032 418.53,259.07026 420.62801,263.45302 C 422.38121,267.11469 429.26534,265.89317 422.88212,269.46976 C 418.21951,272.08297 414.52956,272.02096 408.99721,272.61369 C 410.64062,275.19517 416.08891,278.56841 418.79075,279.60245 C 420.79098,280.36968 423.49797,280.03798 425.65945,280.55716 C 431.1146,281.86377 435.70002,284.73802 440.95447,286.45276 C 444.91889,287.74638 449.06515,289.19721 452.61786,290.77206 C 455.9853,292.26615 459.31158,295.46921 462.77508,296.83783 C 458.0713,298.8035 448.42871,302.15078 442.62704,301.96618 C 440.52389,301.8984 439.59239,301.29846 437.30397,301.48594 C 433.88163,301.76716 431.36677,302.86466 427.85866,302.61083 C 433.69465,304.61257 441.68868,303.67948 446.67723,307.02676 C 450.5473,309.62267 450.53186,313.93043 455.90296,315.56585 C 459.49685,316.65902 463.2434,316.65325 467.01398,317.56758 C 470.05206,318.30598 472.76762,318.48192 475.69763,319.09196 C 478.88152,319.75247 479.05821,320.86439 479.99999,323.22234 C 478.39947,324.12658 476.47301,324.43953 474.77471,325.24137 C 471.85672,326.62297 470.32138,329.36165 467.74133,330.67259 C 464.03251,332.55606 457.13638,334.24917 452.79627,333.77037 C 446.53142,333.07957 441.66123,334.30974 435.24199,334.48569 C 431.36849,334.59385 427.85866,335.96968 423.98344,336.08217 C 426.4863,337.99593 428.80731,339.93853 431.62066,341.57828 C 434.47861,343.24399 437.85806,344.19149 440.33347,346.49897 C 438.64546,350.60483 425.46388,348.43724 421.67101,347.72337 C 418.24867,347.07728 415.10252,347.08593 411.50521,347.07295 C 405.87336,347.05132 402.00329,346.05189 396.53098,345.18515 C 379.92363,342.55319 367.89485,330.32358 349.87568,332.36425 C 349.84309,333.50213 350.51726,334.04727 351.54482,334.47559 L 352.43,333.7372 z "
       style="fill:#009738;fill-opacity:1" /><path
       id="path2206"
       d="M 372.24353,120.56709 C 371.58823,118.97638 366.29089,118.86533 364.39703,117.75198 C 362.17036,116.43816 360.00889,114.01964 357.69474,116.88812 C 355.75455,119.29366 357.22642,122.76929 355.42347,125.35798 C 353.30831,128.39664 347.47404,128.07359 346.49108,124.45374"
       style="fill:none;stroke:#006b33;stroke-width:2.42177844" /><path
       id="path2208"
       d="M 354.41478,134.4451 C 354.28269,136.73959 362.2081,144.24898 364.27351,145.21523 C 367.0903,146.53626 369.72695,143.38944 372.67754,144.4379 C 378.20989,146.40069 380.59952,148.63894 384.79039,151.99343"
       style="fill:none;stroke:#006b33;stroke-width:2.42177844" /><path
       id="path2210"
       d="M 349.18264,141.98044 C 348.02299,142.49386 350.344,141.45261 349.18264,141.98044 C 347.20128,142.88036 345.52871,142.73181 343.50447,143.5351 C 339.50745,145.11861 336.91711,148.07938 334.27531,150.8844 C 331.43623,153.89998 328.1597,157.11891 326.08915,160.42436 C 326.48542,160.58733 326.90399,160.62338 327.34143,160.53685"
       style="fill:none;stroke:#006b33;stroke-width:2.42177844" /><path
       id="path2212"
       d="M 351.77298,156.09497 C 351.46248,155.7575 351.19144,155.39984 350.95985,155.01766 C 349.45711,155.25274 348.6011,157.17515 347.44145,158.09093 C 345.61105,159.53598 342.96239,159.79846 341.16287,161.04449 C 339.74247,162.0295 339.29988,163.54233 338.14195,164.73933 C 337.05778,165.85846 336.66494,166.33149 335.79177,167.60204 C 334.28217,169.79703 332.96642,170.78203 330.37951,171.97903 C 328.42388,172.88327 324.83686,173.75578 323.46621,175.12152 C 323.34956,175.45178 323.53998,175.58734 324.03917,175.52389"
       style="fill:none;stroke:#006b33;stroke-width:2.42177844" /><path
       id="path2214"
       d="M 359.03794,157.76067 C 358.40665,159.16679 364.82418,162.95537 366.5465,164.08892 C 368.21907,165.19073 370.14381,165.73011 371.91245,166.67328 C 374.16141,167.87029 376.07929,169.55474 378.2888,170.83251 C 380.83283,172.30352 383.64961,174.42784 386.74429,174.97009 C 389.68459,175.48495 391.75514,174.74944 394.69372,174.97009"
       style="fill:none;stroke:#006b33;stroke-width:2.42177844" /><path
       id="path2216"
       d="M 355.73568,183.85098 C 357.02228,188.24527 325.35836,204.58074 321.30474,204.17116"
       style="fill:none;stroke:#006b33;stroke-width:2.42177844" /><path
       id="path2218"
       d="M 363.65938,196.61851 C 361.63514,200.00185 371.68258,207.14347 374.10995,208.78755 C 376.63853,210.49652 379.04703,210.15473 381.95474,210.97388 C 385.91916,212.08723 387.60888,211.92283 391.77573,211.6416 C 394.69201,211.44403 397.6769,212.25308 400.58632,212.56892 C 402.66545,212.7939 404.99161,212.64103 405.26094,213.83082"
       style="fill:none;stroke:#006b33;stroke-width:2.42177844" /><path
       id="path2220"
       d="M 384.12994,217.15935 C 386.19878,219.06013 389.80982,221.89399 392.82559,223.89573 C 396.12956,226.08927 400.09741,227.41751 403.47515,229.5923 C 405.45822,230.86718 407.54421,232.20263 410.08995,232.59923 C 411.81913,232.87035 410.95454,231.24647 411.53437,233.20061"
       style="fill:none;stroke:#006b33;stroke-width:2.42177844" /><path
       id="path2222"
       d="M 420.63144,263.45446 C 419.78229,261.84356 416.3102,259.28515 414.48153,258.55397 C 408.95261,256.34024 409.95958,255.12737 404.09443,254.50291 C 396.94269,253.74289 392.85818,249.51589 386.56589,247.28773 C 382.10226,245.70711 378.09667,249.3933 373.29339,248.84528 C 369.65319,248.42849 364.5823,242.95689 366.96164,239.91968"
       style="fill:none;stroke:#006b33;stroke-width:2.42177844" /><path
       id="path2224"
       d="M 295.64664,231.0388 C 304.41091,231.02293 314.3863,232.1435 322.82635,230.1634 C 328.36556,228.86256 334.1518,227.24012 339.97921,227.73623 C 343.79267,228.06071 347.34366,229.31829 351.06449,229.81728 C 356.95023,230.60615 358.29343,227.7045 363.04696,225.41722 C 363.03152,225.62633 363.01437,225.83256 363.00065,226.04168"
       style="fill:none;stroke:#006b33;stroke-width:2.42177844" /><path
       id="path2226"
       d="M 290.83821,265.29323 C 291.96527,264.65002 294.85067,257.967 297.54393,257.04834 C 302.34721,255.41148 307.19338,253.99815 311.91775,252.20121 C 312.85439,251.84355 313.80304,251.08497 314.93353,251.0691 C 320.57224,250.99699 315.9182,257.98719 314.26964,259.92691 C 316.00226,260.16487 318.07281,260.73886 319.80886,260.62204 C 322.2774,260.45619 326.07028,258.62175 328.25405,257.97133 C 332.05208,256.83778 335.84495,255.9869 339.73733,255.13747 C 339.81452,254.69328 339.86427,254.2462 339.88486,253.79769"
       style="fill:none;stroke:#006b33;stroke-width:2.42177844" /><path
       id="path2228"
       d="M 264.23318,306.22059 C 264.66376,304.98176 273.54297,300.46777 274.6563,299.62698 C 276.83493,297.98002 278.35483,296.75995 281.07383,295.71437 C 285.01766,294.19289 288.54979,292.38008 292.35811,290.56871 C 295.7307,288.96213 298.83224,286.12538 302.77608,285.51823 C 307.22083,284.83031 311.55236,284.74811 316.03485,283.74292 C 319.74195,282.91079 323.31011,281.60129 327.01892,280.83839 C 331.8548,279.84473 333.57026,281.14701 337.21389,280.32786 C 344.8391,278.61456 352.18812,274.69474 357.29846,269.61974 C 358.99334,267.93817 359.95056,264.60387 362.85655,264.11786 C 362.10346,264.66012 361.26975,265.10719 360.35713,265.4562"
       style="fill:none;stroke:#006b33;stroke-width:2.42177844" /><path
       id="path2230"
       d="M 278.20558,327.20273 C 278.73223,326.35906 286.5084,321.57826 287.94423,321.02591 C 295.89023,317.9613 305.99428,314.60681 311.99666,309.17848 C 315.03474,306.43114 318.46565,304.75102 322.12816,302.62958 C 326.08915,300.33509 329.70705,296.53064 334.06602,294.87936 C 337.27736,293.66361 341.0548,294.57073 344.44283,294.38469 C 346.6369,294.26499 353.34605,293.53381 354.4165,291.5465"
       style="fill:none;stroke:#006b33;stroke-width:2.42177844" /><path
       id="path2232"
       d="M 376.20624,276.00279 C 381.1073,275.92924 383.88119,277.90213 388.14411,279.87213 C 396.23935,283.61168 404.8012,287.61947 411.77453,292.72908 C 414.99102,295.08703 416.37367,297.79543 420.29864,299.33855 C 423.30069,300.5168 426.00425,302.12338 429.49692,301.44556 C 429.34253,301.29269 429.18643,301.13982 429.03204,300.98551"
       style="fill:none;stroke:#006b33;stroke-width:2.42177844" /><path
       id="path2234"
       d="M 423.74843,334.84767 C 422.79463,333.85402 419.42376,333.08534 417.72374,332.63827 C 414.92411,331.89988 412.24114,331.69509 409.75029,330.31637 C 407.2989,328.95496 404.89212,327.0513 402.63801,325.43174 C 397.61686,321.8191 393.45516,317.46952 388.23674,314.09195 C 385.78535,312.50557 376.44983,309.71785 378.84461,305.98119"
       style="fill:none;stroke:#006b33;stroke-width:2.42177844" /></g></g><path
   d="M 78.897657,55.340368 L 70.383009,55.340368 L 66.998305,46.554089 L 51.502703,46.554089 L 48.303102,55.340368 L 40,55.340368 L 55.098954,16.65962 L 63.375611,16.65962 L 78.897657,55.340368 z M 64.48622,40.03694 L 59.144732,25.68338 L 53.909023,40.03694 L 64.48622,40.03694 z M 83.154981,55.340368 L 83.154981,16.65962 L 90.770566,16.65962 L 106.63637,42.490765 L 106.63637,16.65962 L 113.90819,16.65962 L 113.90819,55.340368 L 106.05462,55.340368 L 90.426806,30.116094 L 90.426806,55.340368 L 83.154981,55.340368 z M 172.18857,55.340368 L 163.67393,55.340368 L 160.28922,46.554089 L 144.79362,46.554089 L 141.59402,55.340368 L 133.29091,55.340368 L 148.38986,16.65962 L 156.66652,16.65962 L 172.18857,55.340368 z M 157.77713,40.03694 L 152.43564,25.68338 L 147.19994,40.03694 L 157.77713,40.03694 z M 176.36656,55.340368 L 176.36656,16.65962 L 188.92699,16.65962 C 193.68671,16.65967 196.78935,16.85316 198.23493,17.2401 C 200.45611,17.82062 202.31593,19.08271 203.8144,21.02639 C 205.31281,22.97013 206.06203,25.48112 206.06206,28.559366 C 206.06203,30.93406 205.63013,32.930541 204.76636,34.548813 C 203.90252,36.167125 202.80513,37.438012 201.4742,38.361477 C 200.1432,39.284976 198.79021,39.896233 197.4152,40.19525 C 195.54654,40.564659 192.84054,40.749355 189.2972,40.74934 L 184.1937,40.74934 L 184.1937,55.340368 L 176.36656,55.340368 z M 184.1937,23.20316 L 184.1937,34.179419 L 188.47746,34.179419 C 191.56246,34.17944 193.62502,33.977154 194.66512,33.572558 C 195.7052,33.168008 196.52051,32.534763 197.1111,31.672823 C 197.70163,30.81093 197.99692,29.808293 197.99694,28.664907 C 197.99692,27.25772 197.58265,26.09677 196.75412,25.18206 C 195.92555,24.2674 194.87665,23.69572 193.6074,23.46702 C 192.67307,23.29115 190.79562,23.2032 187.97504,23.20316 L 184.1937,23.20316 z M 212.54059,55.340368 L 212.54059,16.65962 L 225.10102,16.65962 C 229.86074,16.65967 232.96338,16.85316 234.40895,17.2401 C 236.63014,17.82062 238.48996,19.08271 239.98844,21.02639 C 241.48683,22.97013 242.23606,25.48112 242.23609,28.559366 C 242.23606,30.93406 241.80415,32.930541 240.94039,34.548813 C 240.07655,36.167125 238.97916,37.438012 237.64822,38.361477 C 236.31723,39.284976 234.96423,39.896233 233.58922,40.19525 C 231.72057,40.564659 229.01457,40.749355 225.47122,40.74934 L 220.36772,40.74934 L 220.36772,55.340368 L 212.54059,55.340368 z M 220.36772,23.20316 L 220.36772,34.179419 L 224.65149,34.179419 C 227.73649,34.17944 229.79904,33.977154 230.83915,33.572558 C 231.87922,33.168008 232.69454,32.534763 233.28513,31.672823 C 233.87566,30.81093 234.17094,29.808293 234.17097,28.664907 C 234.17094,27.25772 233.75667,26.09677 232.92815,25.18206 C 232.09958,24.2674 231.05068,23.69572 229.78143,23.46702 C 228.84709,23.29115 226.96964,23.2032 224.14907,23.20316 L 220.36772,23.20316 z M 248.71461,55.340368 L 248.71461,16.65962 L 277.45816,16.65962 L 277.45816,23.20316 L 256.54175,23.20316 L 256.54175,31.778363 L 276.0038,31.778363 L 276.0038,38.295514 L 256.54175,38.295514 L 256.54175,48.823219 L 278.19857,48.823219 L 278.19857,55.340368 L 248.71461,55.340368 z M 319.84629,55.340368 L 311.33164,55.340368 L 307.94695,46.554089 L 292.45135,46.554089 L 289.25174,55.340368 L 280.94864,55.340368 L 296.04759,16.65962 L 304.32426,16.65962 L 319.84629,55.340368 z M 305.43486,40.03694 L 300.09338,25.68338 L 294.85766,40.03694 L 305.43486,40.03694 z M 324.23584,55.340368 L 324.23584,16.97625 L 332.06297,16.97625 L 332.06297,48.823219 L 351.52502,48.823219 L 351.52502,55.340368 L 324.23584,55.340368 z M 380.87675,55.340368 L 380.87675,23.20316 L 369.37404,23.20316 L 369.37404,16.65962 L 400.18014,16.65962 L 400.18014,23.20316 L 388.70387,23.20316 L 388.70387,55.340368 L 380.87675,55.340368 z M 403.67062,36.237467 C 403.67062,32.297296 404.26117,28.990351 405.4423,26.31662 C 406.32373,24.34656 407.52688,22.57875 409.05177,21.0132 C 410.57664,19.4477 412.24695,18.28676 414.06272,17.53034 C 416.47783,16.51015 419.26316,16.00003 422.41871,16 C 428.13037,16.00003 432.7006,17.76785 436.1294,21.30344 C 439.55815,24.83908 441.27253,29.755522 441.27257,36.05277 C 441.27253,42.297286 439.57137,47.182945 436.16907,50.709762 C 432.7667,54.236588 428.21851,55.999999 422.52448,56 C 416.75989,55.999999 412.17643,54.245384 408.77412,50.736148 C 405.37178,47.226921 403.67062,42.394032 403.67062,36.237467 L 403.67062,36.237467 z M 411.73573,35.973615 C 411.73572,40.353576 412.74937,43.673714 414.77668,45.934036 C 416.80395,48.194378 419.37774,49.324544 422.49804,49.324538 C 425.61829,49.324544 428.17885,48.203173 430.17973,45.960421 C 432.18055,43.717689 433.18098,40.353576 433.18101,35.868073 C 433.18098,31.435379 432.20699,28.128435 430.25906,25.94723 C 428.31107,23.76608 425.72406,22.6755 422.49804,22.67546 C 419.27196,22.6755 416.67175,23.77927 414.69735,25.98681 C 412.72292,28.194398 411.73572,31.52333 411.73573,35.973615 L 411.73573,35.973615 z M 462.40053,55.340368 L 462.40053,16.65962 L 470.22766,16.65962 L 470.22766,31.883904 L 485.5646,31.883904 L 485.5646,16.65962 L 493.39172,16.65962 L 493.39172,55.340368 L 485.5646,55.340368 L 485.5646,38.427441 L 470.22766,38.427441 L 470.22766,55.340368 L 462.40053,55.340368 z M 501.50973,55.340368 L 501.50973,16.65962 L 530.25328,16.65962 L 530.25328,23.20316 L 509.33686,23.20316 L 509.33686,31.778363 L 528.79891,31.778363 L 528.79891,38.295514 L 509.33686,38.295514 L 509.33686,48.823219 L 530.99368,48.823219 L 530.99368,55.340368 L 501.50973,55.340368 z M 572.64141,55.340368 L 564.12676,55.340368 L 560.74206,46.554089 L 545.24646,46.554089 L 542.04685,55.340368 L 533.74376,55.340368 L 548.84271,16.65962 L 557.11936,16.65962 L 572.64141,55.340368 z M 558.22998,40.03694 L 552.88849,25.68338 L 547.65277,40.03694 L 558.22998,40.03694 z M 586.70909,55.340368 L 572.85295,16.65962 L 581.34116,16.65962 L 591.15152,45.287598 L 600.64455,16.65962 L 608.94765,16.65962 L 595.06507,55.340368 L 586.70909,55.340368 z M 612.99343,55.340368 L 612.99343,16.65962 L 641.73697,16.65962 L 641.73697,23.20316 L 620.82056,23.20316 L 620.82056,31.778363 L 640.28261,31.778363 L 640.28261,38.295514 L 620.82056,38.295514 L 620.82056,48.823219 L 642.47737,48.823219 L 642.47737,55.340368 L 612.99343,55.340368 z M 649.24679,55.340368 L 649.24679,16.65962 L 656.86237,16.65962 L 672.72817,42.490765 L 672.72817,16.65962 L 680,16.65962 L 680,55.340368 L 672.14642,55.340368 L 656.51861,30.116094 L 656.51861,55.340368 L 649.24679,55.340368 z "
   id="flowRoot3611" /></svg>