<svg width="375" height="812" viewBox="0 0 375 812" fill="none" xmlns="http://www.w3.org/2000/svg">
<g clip-path="url(#clip0_233_1515)">
<rect width="375" height="812" fill="#0F0F0F"/>
<g filter="url(#filter0_d_233_1515)">
<rect x="3" y="54" width="370" height="87" rx="16" fill="#D0D0D0"/>
<path d="M331.929 101.967C330.788 105.691 328.503 108.96 325.397 111.309C322.671 113.361 319.427 114.613 316.029 114.924C312.63 115.234 309.213 114.592 306.16 113.067C303.107 111.543 300.539 109.198 298.744 106.295C296.949 103.392 295.999 100.047 296 96.6336C295.988 92.6498 297.283 88.772 299.686 85.5952C302.034 82.4892 305.303 80.2032 309.025 79.0625C309.271 78.987 309.532 78.9797 309.781 79.0416C310.03 79.1035 310.258 79.2321 310.439 79.4137C310.621 79.5953 310.75 79.8229 310.811 80.0721C310.873 80.3213 310.866 80.5827 310.791 80.8281C309.977 83.5214 309.908 86.3851 310.593 89.1141C311.278 91.8431 312.69 94.3351 314.679 96.3247C316.668 98.3142 319.16 99.7267 321.888 100.412C324.617 101.097 327.48 101.028 330.172 100.214C330.418 100.139 330.679 100.131 330.928 100.193C331.177 100.255 331.405 100.384 331.586 100.565C331.768 100.747 331.897 100.975 331.958 101.224C332.02 101.473 332.013 101.734 331.937 101.98L331.929 101.967Z" fill="#252835"/>
<path d="M34.6667 113C33.9111 113 33.2773 112.744 32.7653 112.232C32.2533 111.72 31.9982 111.087 32 110.333C32 109.578 32.256 108.944 32.768 108.432C33.28 107.92 33.9129 107.665 34.6667 107.667H77.3333C78.0889 107.667 78.7227 107.923 79.2347 108.435C79.7467 108.947 80.0018 109.58 80 110.333C80 111.089 79.744 111.723 79.232 112.235C78.72 112.747 78.0871 113.002 77.3333 113H34.6667ZM34.6667 99.6667C33.9111 99.6667 33.2773 99.4107 32.7653 98.8987C32.2533 98.3867 31.9982 97.7538 32 97C32 96.2444 32.256 95.6107 32.768 95.0987C33.28 94.5867 33.9129 94.3316 34.6667 94.3333H77.3333C78.0889 94.3333 78.7227 94.5893 79.2347 95.1013C79.7467 95.6133 80.0018 96.2462 80 97C80 97.7556 79.744 98.3893 79.232 98.9013C78.72 99.4133 78.0871 99.6684 77.3333 99.6667H34.6667ZM34.6667 86.3333C33.9111 86.3333 33.2773 86.0773 32.7653 85.5653C32.2533 85.0533 31.9982 84.4205 32 83.6667C32 82.9111 32.256 82.2773 32.768 81.7653C33.28 81.2533 33.9129 80.9982 34.6667 81H77.3333C78.0889 81 78.7227 81.256 79.2347 81.768C79.7467 82.28 80.0018 82.9129 80 83.6667C80 84.4222 79.744 85.056 79.232 85.568C78.72 86.08 78.0871 86.3351 77.3333 86.3333H34.6667Z" fill="#0F0F0F"/>
<g filter="url(#filter1_d_233_1515)">
<path d="M213.689 97.3785C213.437 97.2319 213.159 97.0915 212.872 96.9543C213.159 96.817 213.437 96.6766 213.689 96.53C215.12 95.7166 216.375 94.6284 217.384 93.3278C218.392 92.0272 219.133 90.5401 219.564 88.952C219.995 87.3638 220.108 85.7061 219.896 84.0742C219.684 82.4423 219.151 80.8685 218.328 79.4434C217.505 78.0183 216.409 76.77 215.102 75.7704C213.794 74.7708 212.302 74.0396 210.711 73.619C209.12 73.1984 207.462 73.0966 205.832 73.3195C204.201 73.5425 202.631 74.0857 201.211 74.9179C200.959 75.0646 200.696 75.2299 200.438 75.4139C200.462 75.102 200.478 74.79 200.478 74.4781C200.478 71.1687 199.163 67.9948 196.823 65.6547C194.483 63.3147 191.309 62 188 62C184.691 62 181.517 63.3147 179.177 65.6547C176.837 67.9948 175.522 71.1687 175.522 74.4781C175.522 74.7713 175.522 75.0833 175.562 75.4139C175.304 75.2361 175.042 75.0646 174.789 74.9179C173.369 74.0857 171.799 73.5425 170.168 73.3195C168.538 73.0966 166.88 73.1984 165.289 73.619C163.698 74.0396 162.206 74.7708 160.898 75.7704C159.591 76.77 158.495 78.0183 157.672 79.4434C156.849 80.8685 156.316 82.4423 156.104 84.0742C155.892 85.7061 156.005 87.3638 156.436 88.952C156.867 90.5401 157.608 92.0272 158.616 93.3278C159.625 94.6284 160.88 95.7166 162.311 96.53C162.563 96.6766 162.841 96.817 163.128 96.9543C162.841 97.0915 162.563 97.2319 162.311 97.3785C160.88 98.1919 159.625 99.2801 158.616 100.581C157.608 101.881 156.867 103.368 156.436 104.957C156.005 106.545 155.892 108.202 156.104 109.834C156.316 111.466 156.849 113.04 157.672 114.465C158.495 115.89 159.591 117.139 160.898 118.138C162.206 119.138 163.698 119.869 165.289 120.29C166.88 120.71 168.538 120.812 170.168 120.589C171.799 120.366 173.369 119.823 174.789 118.991C175.042 118.844 175.304 118.679 175.562 118.495C175.538 118.807 175.522 119.118 175.522 119.415C175.522 122.724 176.837 125.898 179.177 128.238C181.517 130.578 184.691 131.893 188 131.893C191.309 131.893 194.483 130.578 196.823 128.238C199.163 125.898 200.478 122.724 200.478 119.415C200.478 119.122 200.462 118.81 200.438 118.495C200.696 118.672 200.959 118.844 201.211 118.991C203.101 120.086 205.247 120.662 207.432 120.663C208.529 120.661 209.622 120.516 210.682 120.232C213.066 119.593 215.207 118.262 216.834 116.406C218.461 114.55 219.501 112.254 219.823 109.807C220.145 107.36 219.734 104.873 218.642 102.659C217.55 100.446 215.827 98.606 213.689 97.3723V97.3785ZM180.513 96.9543C180.513 95.4735 180.952 94.026 181.775 92.7948C182.598 91.5636 183.767 90.604 185.135 90.0373C186.503 89.4706 188.008 89.3224 189.461 89.6113C190.913 89.9001 192.247 90.6132 193.294 91.6602C194.341 92.7073 195.054 94.0413 195.343 95.4936C195.632 96.946 195.484 98.4513 194.917 99.8194C194.35 101.187 193.391 102.357 192.159 103.179C190.928 104.002 189.481 104.441 188 104.441C186.014 104.441 184.11 103.652 182.706 102.248C181.302 100.844 180.513 98.9399 180.513 96.9543ZM203.707 79.2385C204.558 78.7469 205.498 78.4278 206.473 78.2995C207.448 78.1712 208.438 78.2361 209.388 78.4906C210.338 78.7451 211.228 79.1841 212.008 79.7826C212.788 80.3812 213.443 81.1275 213.934 81.979C214.426 82.8305 214.745 83.7704 214.873 84.7452C215.001 85.72 214.937 86.7105 214.682 87.6602C214.428 88.6099 213.989 89.5002 213.39 90.2802C212.791 91.0603 212.045 91.7147 211.194 92.2063C209.238 93.3387 205.388 94.1186 200.225 94.4493C199.681 91.8081 198.295 89.4145 196.276 87.6269C199.146 83.3157 201.751 80.3709 203.707 79.2385ZM188 67.0068C189.986 67.0068 191.89 67.7956 193.294 69.1997C194.698 70.6037 195.487 72.5081 195.487 74.4937C195.487 76.7522 194.239 80.4801 191.943 85.1188C189.384 84.262 186.616 84.262 184.057 85.1188C181.761 80.4801 180.513 76.7522 180.513 74.4937C180.513 72.5081 181.302 70.6037 182.706 69.1997C184.11 67.7956 186.014 67.0068 188 67.0068ZM162.064 81.9805C162.556 81.1287 163.21 80.3821 163.99 79.7832C164.77 79.1844 165.661 78.7451 166.611 78.4905C167.561 78.2358 168.551 78.1708 169.526 78.2992C170.501 78.4275 171.442 78.7467 172.293 79.2385C174.249 80.3709 176.854 83.3157 179.724 87.6269C177.703 89.417 176.317 91.8141 175.775 94.4586C170.612 94.128 166.762 93.3481 164.806 92.2188C163.953 91.7274 163.206 91.0725 162.606 90.2917C162.006 89.5108 161.566 88.6194 161.312 87.6684C161.057 86.7174 160.992 85.7255 161.122 84.7495C161.251 83.7735 161.571 82.8326 162.064 81.9805ZM172.293 114.67C170.574 115.663 168.53 115.932 166.612 115.418C164.694 114.904 163.059 113.649 162.066 111.93C161.073 110.21 160.804 108.166 161.318 106.248C161.832 104.33 163.087 102.695 164.806 101.702C166.762 100.57 170.612 99.7899 175.775 99.4592C176.319 102.1 177.705 104.494 179.724 106.282C176.854 110.593 174.249 113.538 172.293 114.67ZM188 126.902C186.014 126.902 184.11 126.113 182.706 124.709C181.302 123.305 180.513 121.4 180.513 119.415C180.513 117.156 181.761 113.428 184.057 108.79C186.616 109.647 189.384 109.647 191.943 108.79C194.239 113.428 195.487 117.156 195.487 119.415C195.487 121.4 194.698 123.305 193.294 124.709C191.89 126.113 189.986 126.902 188 126.902ZM213.936 111.928C213.444 112.78 212.79 113.526 212.01 114.125C211.23 114.724 210.339 115.163 209.389 115.418C208.439 115.673 207.449 115.738 206.474 115.609C205.499 115.481 204.558 115.162 203.707 114.67C201.751 113.538 199.146 110.593 196.276 106.282C198.297 104.492 199.683 102.094 200.225 99.4499C205.388 99.7805 209.238 100.56 211.194 101.69C212.047 102.181 212.794 102.836 213.394 103.617C213.994 104.398 214.434 105.289 214.688 106.24C214.943 107.191 215.008 108.183 214.878 109.159C214.749 110.135 214.429 111.076 213.936 111.928Z" fill="#252835"/>
</g>
</g>
<rect width="375" height="44.0051" fill="#0F0F0F"/>
<path fill-rule="evenodd" clip-rule="evenodd" d="M304 20H305C305.552 20 306 20.4477 306 21V27C306 27.5523 305.552 28 305 28H304C303.448 28 303 27.5523 303 27V21C303 20.4477 303.448 20 304 20Z" fill="#D1D1D6"/>
<path fill-rule="evenodd" clip-rule="evenodd" d="M299.5 22H300.5C301.052 22 301.5 22.4477 301.5 23V27C301.5 27.5523 301.052 28 300.5 28H299.5C298.948 28 298.5 27.5523 298.5 27V23C298.5 22.4477 298.948 22 299.5 22Z" fill="#D1D1D6"/>
<path fill-rule="evenodd" clip-rule="evenodd" d="M295 23.5H296C296.552 23.5 297 23.9477 297 24.5V27C297 27.5523 296.552 28 296 28H295C294.448 28 294 27.5523 294 27V24.5C294 23.9477 294.448 23.5 295 23.5Z" fill="#D1D1D6"/>
<path fill-rule="evenodd" clip-rule="evenodd" d="M308.5 18H309.5C310.052 18 310.5 18.4477 310.5 19V27C310.5 27.5523 310.052 28 309.5 28H308.5C307.948 28 307.5 27.5523 307.5 27V19C307.5 18.4477 307.948 18 308.5 18Z" fill="#EBEBF5" fill-opacity="0.3"/>
<path fill-rule="evenodd" clip-rule="evenodd" d="M304 20H305C305.552 20 306 20.4477 306 21V27C306 27.5523 305.552 28 305 28H304C303.448 28 303 27.5523 303 27V21C303 20.4477 303.448 20 304 20Z" fill="white"/>
<path fill-rule="evenodd" clip-rule="evenodd" d="M299.5 22H300.5C301.052 22 301.5 22.4477 301.5 23V27C301.5 27.5523 301.052 28 300.5 28H299.5C298.948 28 298.5 27.5523 298.5 27V23C298.5 22.4477 298.948 22 299.5 22Z" fill="white"/>
<path fill-rule="evenodd" clip-rule="evenodd" d="M295 23.5H296C296.552 23.5 297 23.9477 297 24.5V27C297 27.5523 296.552 28 296 28H295C294.448 28 294 27.5523 294 27V24.5C294 23.9477 294.448 23.5 295 23.5Z" fill="white"/>
<path d="M324.133 24.9396C324.772 24.9396 325.394 25.1076 325.941 25.428L326.163 25.5579C326.331 25.6563 326.361 25.8866 326.223 26.0242L324.329 27.913C324.212 28.029 324.024 28.029 323.907 27.913L322.026 26.0363C321.888 25.8994 321.917 25.6702 322.084 25.5711L322.303 25.4406C322.855 25.1121 323.485 24.9396 324.133 24.9396Z" fill="white"/>
<path d="M324.133 21.4698C325.724 21.4698 327.251 21.9976 328.495 22.9749L328.671 23.113C328.811 23.2232 328.824 23.4306 328.697 23.5565L327.567 24.6841C327.462 24.7884 327.297 24.8004 327.178 24.7123L327.04 24.6098C326.2 23.9852 325.186 23.6502 324.133 23.6502C323.073 23.6502 322.053 23.9894 321.21 24.6211L321.072 24.7245C320.953 24.8134 320.787 24.8017 320.682 24.6971L319.552 23.5699C319.426 23.4443 319.438 23.2373 319.578 23.127L319.753 22.9888C321 22.0027 322.534 21.4698 324.133 21.4698Z" fill="white"/>
<path d="M324.133 18C326.657 18 329.072 18.8906 330.983 20.5229L331.146 20.6623C331.278 20.7749 331.285 20.9756 331.163 21.098L330.036 22.2219C329.926 22.3308 329.752 22.3385 329.634 22.2395L329.494 22.1228C327.989 20.8647 326.104 20.1804 324.133 20.1804C322.155 20.1804 320.263 20.8694 318.756 22.1354L318.617 22.2527C318.498 22.3521 318.324 22.3447 318.214 22.2356L317.087 21.1118C316.965 20.9895 316.972 20.7892 317.104 20.6765L317.266 20.5371C319.18 18.8959 321.601 18 324.133 18Z" fill="white"/>
<path d="M360 21V21C360.552 21 361 21.4477 361 22V24C361 24.5523 360.552 25 360 25V25V21Z" fill="#EBEBF5" fill-opacity="0.3"/>
<path fill-rule="evenodd" clip-rule="evenodd" d="M339 17H356C357.657 17 359 18.3431 359 20V26C359 27.6569 357.657 29 356 29H339C337.343 29 336 27.6569 336 26V20C336 18.3431 337.343 17 339 17ZM339 18C337.895 18 337 18.8954 337 20V26C337 27.1046 337.895 28 339 28H356C357.105 28 358 27.1046 358 26V20C358 18.8954 357.105 18 356 18H339Z" fill="#EBEBF5" fill-opacity="0.3"/>
<rect x="338" y="19" width="19" height="8" rx="1" fill="white"/>
<path d="M37.8672 28.0889C40.5552 28.0889 42.1519 25.9868 42.1519 22.4272C42.1519 21.0869 41.8955 19.959 41.4048 19.0874C40.6943 17.7324 39.4712 17 37.9258 17C35.626 17 34 18.5454 34 20.7134C34 22.7495 35.4648 24.229 37.479 24.229C38.7168 24.229 39.7202 23.6504 40.2183 22.647H40.2402C40.2402 22.647 40.2695 22.647 40.2769 22.647C40.2915 22.647 40.3428 22.647 40.3428 22.647C40.3428 25.064 39.4272 26.5068 37.8818 26.5068C36.9736 26.5068 36.2705 26.0088 36.0288 25.2104H34.1465C34.4614 26.9463 35.9336 28.0889 37.8672 28.0889ZM37.9331 22.7275C36.7173 22.7275 35.853 21.8633 35.853 20.6548C35.853 19.4756 36.7612 18.5747 37.9404 18.5747C39.1196 18.5747 40.0278 19.4902 40.0278 20.6841C40.0278 21.8633 39.1416 22.7275 37.9331 22.7275Z" fill="white"/>
<path d="M45.243 27.9863C45.9388 27.9863 46.4148 27.4883 46.4148 26.8291C46.4148 26.1626 45.9388 25.6719 45.243 25.6719C44.5545 25.6719 44.0711 26.1626 44.0711 26.8291C44.0711 27.4883 44.5545 27.9863 45.243 27.9863ZM45.243 22.4932C45.9388 22.4932 46.4148 22.0024 46.4148 21.3433C46.4148 20.6768 45.9388 20.186 45.243 20.186C44.5545 20.186 44.0711 20.6768 44.0711 21.3433C44.0711 22.0024 44.5545 22.4932 45.243 22.4932Z" fill="white"/>
<path d="M53.2706 27.8325H55.0797V25.8623H56.5079V24.2656H55.0797V17.2637H52.4137C50.546 20.0762 49.0592 22.4272 48.107 24.1777V25.8623H53.2706V27.8325ZM49.8575 24.1997C51.088 22.0317 52.1866 20.2959 53.1974 18.8018H53.2999V24.3096H49.8575V24.1997Z" fill="white"/>
<path d="M60.5365 27.8325H62.4262V17.2637H60.5438L57.7826 19.1973V21.0137L60.412 19.168H60.5365V27.8325Z" fill="white"/>
<g filter="url(#filter2_d_233_1515)">
<path d="M39.076 655.54C37.204 655.54 35.524 655.252 34.036 654.676C32.548 654.1 31.288 653.26 30.256 652.156C29.224 651.028 28.432 649.66 27.88 648.052C27.328 646.444 27.052 644.596 27.052 642.508C27.052 640.42 27.364 638.572 27.988 636.964C28.636 635.356 29.512 634 30.616 632.896C31.72 631.768 33.016 630.916 34.504 630.34C35.992 629.764 37.588 629.476 39.292 629.476C40.324 629.476 41.26 629.56 42.1 629.728C42.94 629.872 43.672 630.04 44.296 630.232C44.92 630.424 45.436 630.628 45.844 630.844C46.252 631.06 46.54 631.216 46.708 631.312L45.376 635.02C44.8 634.66 43.972 634.324 42.892 634.012C41.836 633.676 40.684 633.508 39.436 633.508C38.356 633.508 37.348 633.7 36.412 634.084C35.476 634.444 34.66 634.996 33.964 635.74C33.292 636.484 32.764 637.42 32.38 638.548C31.996 639.676 31.804 640.984 31.804 642.472C31.804 643.792 31.948 645.004 32.236 646.108C32.548 647.212 33.016 648.172 33.64 648.988C34.264 649.78 35.056 650.404 36.016 650.86C36.976 651.292 38.128 651.508 39.472 651.508C41.08 651.508 42.388 651.352 43.396 651.04C44.404 650.704 45.184 650.392 45.736 650.104L46.96 653.812C46.672 654.004 46.276 654.196 45.772 654.388C45.292 654.58 44.716 654.772 44.044 654.964C43.372 655.132 42.616 655.264 41.776 655.36C40.936 655.48 40.036 655.54 39.076 655.54ZM55.121 655H50.765V636.172H55.121V655ZM55.589 630.664C55.589 631.48 55.325 632.128 54.797 632.608C54.269 633.088 53.645 633.328 52.925 633.328C52.181 633.328 51.545 633.088 51.017 632.608C50.489 632.128 50.225 631.48 50.225 630.664C50.225 629.824 50.489 629.164 51.017 628.684C51.545 628.204 52.181 627.964 52.925 627.964C53.645 627.964 54.269 628.204 54.797 628.684C55.325 629.164 55.589 629.824 55.589 630.664ZM65.5023 655C64.3023 652.528 63.0663 649.696 61.7943 646.504C60.5463 643.288 59.4063 639.844 58.3743 636.172H63.0183C63.2823 637.228 63.5823 638.368 63.9183 639.592C64.2783 640.792 64.6503 642.004 65.0343 643.228C65.4423 644.428 65.8503 645.604 66.2583 646.756C66.6903 647.884 67.0863 648.904 67.4463 649.816C67.8063 648.904 68.1903 647.884 68.5983 646.756C69.0063 645.604 69.4023 644.428 69.7863 643.228C70.1943 642.004 70.5783 640.792 70.9383 639.592C71.2983 638.368 71.6103 637.228 71.8743 636.172H76.3743C75.3423 639.844 74.1903 643.288 72.9183 646.504C71.6703 649.696 70.4463 652.528 69.2463 655H65.5023ZM84.0195 655H79.6635V636.172H84.0195V655ZM84.4875 630.664C84.4875 631.48 84.2235 632.128 83.6955 632.608C83.1675 633.088 82.5435 633.328 81.8235 633.328C81.0795 633.328 80.4435 633.088 79.9155 632.608C79.3875 632.128 79.1235 631.48 79.1235 630.664C79.1235 629.824 79.3875 629.164 79.9155 628.684C80.4435 628.204 81.0795 627.964 81.8235 627.964C82.5435 627.964 83.1675 628.204 83.6955 628.684C84.2235 629.164 84.4875 629.824 84.4875 630.664ZM88.5327 645.604C88.5327 644.212 88.7487 642.916 89.1807 641.716C89.6127 640.492 90.2247 639.436 91.0167 638.548C91.8327 637.66 92.8167 636.964 93.9687 636.46C95.1207 635.956 96.4167 635.704 97.8567 635.704C99.6327 635.704 101.313 636.028 102.897 636.676L101.961 640.24C101.457 640.024 100.881 639.844 100.233 639.7C99.6087 639.556 98.9367 639.484 98.2167 639.484C96.5127 639.484 95.2167 640.024 94.3287 641.104C93.4407 642.16 92.9967 643.66 92.9967 645.604C92.9967 647.476 93.4167 648.964 94.2567 650.068C95.0967 651.148 96.5127 651.688 98.5047 651.688C99.2487 651.688 99.9807 651.616 100.701 651.472C101.421 651.328 102.045 651.148 102.573 650.932L103.185 654.532C102.705 654.772 101.973 654.988 100.989 655.18C100.029 655.372 99.0327 655.468 98.0007 655.468C96.3927 655.468 94.9887 655.228 93.7887 654.748C92.6127 654.244 91.6287 653.56 90.8367 652.696C90.0687 651.808 89.4927 650.764 89.1087 649.564C88.7247 648.34 88.5327 647.02 88.5327 645.604ZM115.176 655V630.052H131.195V633.904H119.712V640.06H129.936V643.84H119.712V651.148H132.06V655H115.176ZM136.053 636.784C136.893 636.544 137.985 636.316 139.329 636.1C140.673 635.884 142.161 635.776 143.793 635.776C145.329 635.776 146.613 635.992 147.645 636.424C148.677 636.832 149.493 637.42 150.093 638.188C150.717 638.932 151.149 639.844 151.389 640.924C151.653 641.98 151.785 643.144 151.785 644.416V655H147.429V645.1C147.429 644.092 147.357 643.24 147.213 642.544C147.093 641.824 146.877 641.248 146.565 640.816C146.277 640.36 145.869 640.036 145.341 639.844C144.837 639.628 144.213 639.52 143.469 639.52C142.917 639.52 142.341 639.556 141.741 639.628C141.141 639.7 140.697 639.76 140.409 639.808V655H136.053V636.784ZM160.532 645.1C160.532 646.948 160.928 648.304 161.72 649.168C162.536 650.008 163.58 650.428 164.852 650.428C165.548 650.428 166.196 650.332 166.796 650.14C167.42 649.948 167.924 649.72 168.308 649.456V639.7C167.996 639.628 167.612 639.568 167.156 639.52C166.7 639.448 166.124 639.412 165.428 639.412C163.844 639.412 162.632 639.94 161.792 640.996C160.952 642.028 160.532 643.396 160.532 645.1ZM172.664 653.092C172.664 656.092 171.896 658.288 170.36 659.68C168.848 661.072 166.52 661.768 163.376 661.768C162.224 661.768 161.096 661.672 159.992 661.48C158.912 661.288 157.928 661.036 157.04 660.724L157.832 657.016C158.576 657.328 159.416 657.58 160.352 657.772C161.312 657.964 162.344 658.06 163.448 658.06C165.2 658.06 166.448 657.7 167.192 656.98C167.936 656.26 168.308 655.192 168.308 653.776V653.056C167.876 653.272 167.3 653.488 166.58 653.704C165.884 653.92 165.08 654.028 164.168 654.028C162.968 654.028 161.864 653.836 160.856 653.452C159.872 653.068 159.02 652.504 158.3 651.76C157.604 651.016 157.052 650.092 156.644 648.988C156.26 647.86 156.068 646.564 156.068 645.1C156.068 643.732 156.272 642.472 156.68 641.32C157.112 640.168 157.724 639.184 158.516 638.368C159.332 637.552 160.316 636.916 161.468 636.46C162.62 636.004 163.928 635.776 165.392 635.776C166.808 635.776 168.152 635.884 169.424 636.1C170.696 636.316 171.776 636.544 172.664 636.784V653.092ZM184.83 651.94C186.174 651.94 187.194 651.868 187.89 651.724V646.9C187.65 646.828 187.302 646.756 186.846 646.684C186.39 646.612 185.886 646.576 185.334 646.576C184.854 646.576 184.362 646.612 183.858 646.684C183.378 646.756 182.934 646.888 182.526 647.08C182.142 647.272 181.83 647.548 181.59 647.908C181.35 648.244 181.23 648.676 181.23 649.204C181.23 650.236 181.554 650.956 182.202 651.364C182.85 651.748 183.726 651.94 184.83 651.94ZM184.47 635.704C185.91 635.704 187.122 635.884 188.106 636.244C189.09 636.604 189.87 637.108 190.446 637.756C191.046 638.404 191.466 639.196 191.706 640.132C191.97 641.044 192.102 642.052 192.102 643.156V654.568C191.43 654.712 190.41 654.88 189.042 655.072C187.698 655.288 186.174 655.396 184.47 655.396C183.342 655.396 182.31 655.288 181.374 655.072C180.438 654.856 179.634 654.508 178.962 654.028C178.314 653.548 177.798 652.924 177.414 652.156C177.054 651.388 176.874 650.44 176.874 649.312C176.874 648.232 177.078 647.32 177.486 646.576C177.918 645.832 178.494 645.232 179.214 644.776C179.934 644.296 180.762 643.96 181.698 643.768C182.658 643.552 183.654 643.444 184.686 643.444C185.166 643.444 185.67 643.48 186.198 643.552C186.726 643.6 187.29 643.696 187.89 643.84V643.12C187.89 642.616 187.83 642.136 187.71 641.68C187.59 641.224 187.374 640.828 187.062 640.492C186.774 640.132 186.378 639.856 185.874 639.664C185.394 639.472 184.782 639.376 184.038 639.376C183.03 639.376 182.106 639.448 181.266 639.592C180.426 639.736 179.742 639.904 179.214 640.096L178.674 636.568C179.226 636.376 180.03 636.184 181.086 635.992C182.142 635.8 183.27 635.704 184.47 635.704ZM200.856 645.1C200.856 646.948 201.252 648.304 202.044 649.168C202.86 650.008 203.904 650.428 205.176 650.428C205.872 650.428 206.52 650.332 207.12 650.14C207.744 649.948 208.248 649.72 208.632 649.456V639.7C208.32 639.628 207.936 639.568 207.48 639.52C207.024 639.448 206.448 639.412 205.752 639.412C204.168 639.412 202.956 639.94 202.116 640.996C201.276 642.028 200.856 643.396 200.856 645.1ZM212.988 653.092C212.988 656.092 212.22 658.288 210.684 659.68C209.172 661.072 206.844 661.768 203.7 661.768C202.548 661.768 201.42 661.672 200.316 661.48C199.236 661.288 198.252 661.036 197.364 660.724L198.156 657.016C198.9 657.328 199.74 657.58 200.676 657.772C201.636 657.964 202.668 658.06 203.772 658.06C205.524 658.06 206.772 657.7 207.516 656.98C208.26 656.26 208.632 655.192 208.632 653.776V653.056C208.2 653.272 207.624 653.488 206.904 653.704C206.208 653.92 205.404 654.028 204.492 654.028C203.292 654.028 202.188 653.836 201.18 653.452C200.196 653.068 199.344 652.504 198.624 651.76C197.928 651.016 197.376 650.092 196.968 648.988C196.584 647.86 196.392 646.564 196.392 645.1C196.392 643.732 196.596 642.472 197.004 641.32C197.436 640.168 198.048 639.184 198.84 638.368C199.656 637.552 200.64 636.916 201.792 636.46C202.944 636.004 204.252 635.776 205.716 635.776C207.132 635.776 208.476 635.884 209.748 636.1C211.02 636.316 212.1 636.544 212.988 636.784V653.092ZM217.486 645.676C217.486 644.02 217.726 642.568 218.206 641.32C218.71 640.072 219.37 639.04 220.186 638.224C221.002 637.384 221.938 636.76 222.994 636.352C224.05 635.92 225.13 635.704 226.234 635.704C228.826 635.704 230.842 636.508 232.282 638.116C233.746 639.724 234.478 642.124 234.478 645.316C234.478 645.556 234.466 645.832 234.442 646.144C234.442 646.432 234.43 646.696 234.406 646.936H221.986C222.106 648.448 222.634 649.624 223.57 650.464C224.53 651.28 225.91 651.688 227.71 651.688C228.766 651.688 229.726 651.592 230.59 651.4C231.478 651.208 232.174 651.004 232.678 650.788L233.254 654.352C233.014 654.472 232.678 654.604 232.246 654.748C231.838 654.868 231.358 654.976 230.806 655.072C230.278 655.192 229.702 655.288 229.078 655.36C228.454 655.432 227.818 655.468 227.17 655.468C225.514 655.468 224.074 655.228 222.85 654.748C221.626 654.244 220.618 653.56 219.826 652.696C219.034 651.808 218.446 650.776 218.062 649.6C217.678 648.4 217.486 647.092 217.486 645.676ZM230.122 643.732C230.122 643.132 230.038 642.568 229.87 642.04C229.702 641.488 229.45 641.02 229.114 640.636C228.802 640.228 228.406 639.916 227.926 639.7C227.47 639.46 226.918 639.34 226.27 639.34C225.598 639.34 225.01 639.472 224.506 639.736C224.002 639.976 223.57 640.3 223.21 640.708C222.874 641.116 222.61 641.584 222.418 642.112C222.226 642.64 222.094 643.18 222.022 643.732H230.122ZM249.824 645.1C249.824 643.132 249.572 641.716 249.068 640.852C248.588 639.964 247.676 639.52 246.332 639.52C245.852 639.52 245.324 639.556 244.748 639.628C244.172 639.7 243.74 639.76 243.452 639.808V655H239.096V636.784C239.936 636.544 241.028 636.316 242.372 636.1C243.74 635.884 245.18 635.776 246.692 635.776C247.988 635.776 249.044 635.944 249.86 636.28C250.7 636.616 251.396 637.06 251.948 637.612C252.212 637.42 252.548 637.216 252.956 637C253.364 636.784 253.82 636.592 254.324 636.424C254.828 636.232 255.356 636.076 255.908 635.956C256.484 635.836 257.06 635.776 257.636 635.776C259.1 635.776 260.3 635.992 261.236 636.424C262.196 636.832 262.94 637.42 263.468 638.188C264.02 638.932 264.392 639.844 264.584 640.924C264.8 641.98 264.908 643.144 264.908 644.416V655H260.552V645.1C260.552 643.132 260.312 641.716 259.832 640.852C259.352 639.964 258.428 639.52 257.06 639.52C256.364 639.52 255.704 639.64 255.08 639.88C254.456 640.096 253.988 640.312 253.676 640.528C253.868 641.128 254 641.764 254.072 642.436C254.144 643.108 254.18 643.828 254.18 644.596V655H249.824V645.1ZM269.201 645.676C269.201 644.02 269.441 642.568 269.921 641.32C270.425 640.072 271.085 639.04 271.901 638.224C272.717 637.384 273.653 636.76 274.709 636.352C275.765 635.92 276.845 635.704 277.949 635.704C280.541 635.704 282.557 636.508 283.997 638.116C285.461 639.724 286.193 642.124 286.193 645.316C286.193 645.556 286.181 645.832 286.157 646.144C286.157 646.432 286.145 646.696 286.121 646.936H273.701C273.821 648.448 274.349 649.624 275.285 650.464C276.245 651.28 277.625 651.688 279.425 651.688C280.481 651.688 281.441 651.592 282.305 651.4C283.193 651.208 283.889 651.004 284.393 650.788L284.969 654.352C284.729 654.472 284.393 654.604 283.961 654.748C283.553 654.868 283.073 654.976 282.521 655.072C281.993 655.192 281.417 655.288 280.793 655.36C280.169 655.432 279.533 655.468 278.885 655.468C277.229 655.468 275.789 655.228 274.565 654.748C273.341 654.244 272.333 653.56 271.541 652.696C270.749 651.808 270.161 650.776 269.777 649.6C269.393 648.4 269.201 647.092 269.201 645.676ZM281.837 643.732C281.837 643.132 281.753 642.568 281.585 642.04C281.417 641.488 281.165 641.02 280.829 640.636C280.517 640.228 280.121 639.916 279.641 639.7C279.185 639.46 278.633 639.34 277.985 639.34C277.313 639.34 276.725 639.472 276.221 639.736C275.717 639.976 275.285 640.3 274.925 640.708C274.589 641.116 274.325 641.584 274.133 642.112C273.941 642.64 273.809 643.18 273.737 643.732H281.837ZM290.811 636.784C291.651 636.544 292.743 636.316 294.087 636.1C295.431 635.884 296.919 635.776 298.551 635.776C300.087 635.776 301.371 635.992 302.403 636.424C303.435 636.832 304.251 637.42 304.851 638.188C305.475 638.932 305.907 639.844 306.147 640.924C306.411 641.98 306.543 643.144 306.543 644.416V655H302.187V645.1C302.187 644.092 302.115 643.24 301.971 642.544C301.851 641.824 301.635 641.248 301.323 640.816C301.035 640.36 300.627 640.036 300.099 639.844C299.595 639.628 298.971 639.52 298.227 639.52C297.675 639.52 297.099 639.556 296.499 639.628C295.899 639.7 295.455 639.76 295.167 639.808V655H290.811V636.784ZM311.654 631.204L316.01 630.484V636.172H322.706V639.808H316.01V647.476C316.01 648.988 316.25 650.068 316.73 650.716C317.21 651.364 318.026 651.688 319.178 651.688C319.97 651.688 320.666 651.604 321.266 651.436C321.89 651.268 322.382 651.112 322.742 650.968L323.462 654.424C322.958 654.64 322.298 654.856 321.482 655.072C320.666 655.312 319.706 655.432 318.602 655.432C317.258 655.432 316.13 655.252 315.218 654.892C314.33 654.532 313.622 654.016 313.094 653.344C312.566 652.648 312.194 651.82 311.978 650.86C311.762 649.876 311.654 648.76 311.654 647.512V631.204Z" fill="#D0D0D0"/>
<path d="M339 663H31C22.1634 663 15 670.163 15 679V735C15 743.837 22.1634 751 31 751H339C347.837 751 355 743.837 355 735V679C355 670.163 347.837 663 339 663Z" fill="#D9D9D9"/>
<path d="M310.375 722.458C309.84 721.924 309.573 721.243 309.573 720.417C309.573 719.59 309.84 718.91 310.375 718.375L321.75 707L310.375 695.625C309.84 695.09 309.573 694.41 309.573 693.583C309.573 692.757 309.84 692.076 310.375 691.542C310.91 691.007 311.59 690.74 312.417 690.74C313.243 690.74 313.924 691.007 314.458 691.542L327.875 704.958C328.167 705.25 328.374 705.566 328.496 705.906C328.619 706.247 328.679 706.611 328.677 707C328.677 707.389 328.616 707.753 328.493 708.094C328.371 708.434 328.165 708.75 327.875 709.042L314.458 722.458C313.924 722.993 313.243 723.26 312.417 723.26C311.59 723.26 310.91 722.993 310.375 722.458Z" fill="#FF9341"/>
<g style="mix-blend-mode:multiply">
<path d="M147.215 692.909L155.312 716.602H155.638L163.735 692.909H168.479L158.011 722H152.94L142.471 692.909H147.215ZM179.342 722.44C177.297 722.44 175.512 721.972 173.987 721.034C172.463 720.097 171.279 718.785 170.436 717.099C169.593 715.414 169.172 713.444 169.172 711.19C169.172 708.927 169.593 706.948 170.436 705.253C171.279 703.558 172.463 702.241 173.987 701.304C175.512 700.366 177.297 699.898 179.342 699.898C181.388 699.898 183.173 700.366 184.697 701.304C186.222 702.241 187.406 703.558 188.249 705.253C189.091 706.948 189.513 708.927 189.513 711.19C189.513 713.444 189.091 715.414 188.249 717.099C187.406 718.785 186.222 720.097 184.697 721.034C183.173 721.972 181.388 722.44 179.342 722.44ZM179.357 718.875C180.682 718.875 181.781 718.525 182.652 717.824C183.523 717.123 184.167 716.19 184.584 715.026C185.01 713.861 185.223 712.578 185.223 711.176C185.223 709.784 185.01 708.506 184.584 707.341C184.167 706.167 183.523 705.224 182.652 704.514C181.781 703.804 180.682 703.449 179.357 703.449C178.021 703.449 176.913 703.804 176.033 704.514C175.161 705.224 174.513 706.167 174.087 707.341C173.67 708.506 173.462 709.784 173.462 711.176C173.462 712.578 173.67 713.861 174.087 715.026C174.513 716.19 175.161 717.123 176.033 717.824C176.913 718.525 178.021 718.875 179.357 718.875ZM204.438 700.182V703.591H192.521V700.182H204.438ZM195.717 694.955H199.964V715.594C199.964 716.418 200.087 717.038 200.333 717.455C200.579 717.862 200.897 718.141 201.285 718.293C201.683 718.435 202.113 718.506 202.577 718.506C202.918 718.506 203.217 718.482 203.472 718.435C203.728 718.387 203.927 718.349 204.069 718.321L204.836 721.83C204.59 721.924 204.239 722.019 203.785 722.114C203.33 722.218 202.762 722.275 202.08 722.284C200.963 722.303 199.921 722.104 198.955 721.688C197.989 721.271 197.208 720.627 196.612 719.756C196.015 718.884 195.717 717.791 195.717 716.474V694.955ZM218.305 722.44C216.156 722.44 214.304 721.981 212.751 721.062C211.208 720.134 210.015 718.832 209.172 717.156C208.339 715.471 207.922 713.496 207.922 711.233C207.922 708.998 208.339 707.028 209.172 705.324C210.015 703.619 211.189 702.289 212.695 701.332C214.21 700.376 215.981 699.898 218.007 699.898C219.238 699.898 220.431 700.101 221.587 700.509C222.742 700.916 223.779 701.555 224.697 702.426C225.616 703.297 226.34 704.429 226.871 705.821C227.401 707.204 227.666 708.884 227.666 710.864V712.369H210.322V709.188H223.504C223.504 708.07 223.277 707.08 222.822 706.219C222.368 705.348 221.729 704.661 220.905 704.159C220.09 703.657 219.134 703.406 218.036 703.406C216.842 703.406 215.801 703.7 214.911 704.287C214.03 704.865 213.348 705.622 212.865 706.56C212.392 707.488 212.155 708.496 212.155 709.585V712.071C212.155 713.529 212.411 714.77 212.922 715.793C213.443 716.815 214.167 717.597 215.095 718.136C216.023 718.667 217.107 718.932 218.348 718.932C219.153 718.932 219.887 718.818 220.55 718.591C221.213 718.354 221.786 718.004 222.268 717.54C222.751 717.076 223.121 716.503 223.376 715.821L227.396 716.545C227.074 717.729 226.497 718.766 225.663 719.656C224.839 720.537 223.803 721.223 222.553 721.716C221.312 722.199 219.896 722.44 218.305 722.44Z" fill="#252835"/>
</g>
<path d="M89 709.667H87.1867L81.8533 715H86.9467L91.6667 720.333H54.3333L59.08 715H64.5467L59.2133 709.667H57L49 717.667V728.333C49 729.748 49.5619 731.104 50.5621 732.105C51.5623 733.105 52.9188 733.667 54.3333 733.667H91.6667C93.0812 733.667 94.4377 733.105 95.4379 732.105C96.4381 731.104 97 729.748 97 728.333V717.667L89 709.667ZM86.3333 696.2L73.1333 709.4L63.6667 699.96L76.8933 686.76L86.3333 696.2ZM75.0267 681.107L58.04 698.093C57.7928 698.34 57.5967 698.633 57.4628 698.956C57.329 699.278 57.2601 699.624 57.2601 699.973C57.2601 700.323 57.329 700.668 57.4628 700.991C57.5967 701.314 57.7928 701.607 58.04 701.853L71.24 715C72.28 716.093 73.96 716.093 75 715L91.96 698.093C92.2072 697.847 92.4033 697.554 92.5372 697.231C92.671 696.908 92.7399 696.563 92.7399 696.213C92.7399 695.864 92.671 695.518 92.5372 695.196C92.4033 694.873 92.2072 694.58 91.96 694.333L78.76 681.133C78.5194 680.882 78.2307 680.681 77.911 680.543C77.5913 680.405 77.2472 680.332 76.899 680.33C76.5508 680.327 76.2056 680.395 75.884 680.528C75.5624 680.662 75.2708 680.858 75.0267 681.107Z" fill="#252835"/>
</g>
<g filter="url(#filter3_d_233_1515)">
<path d="M39.36 480.052H43.896V505H39.36V493.948H28.524V505H23.988V480.052H28.524V490.024H39.36V480.052ZM48.603 495.676C48.603 494.02 48.843 492.568 49.323 491.32C49.827 490.072 50.487 489.04 51.303 488.224C52.119 487.384 53.055 486.76 54.111 486.352C55.167 485.92 56.247 485.704 57.351 485.704C59.943 485.704 61.959 486.508 63.399 488.116C64.863 489.724 65.595 492.124 65.595 495.316C65.595 495.556 65.583 495.832 65.559 496.144C65.559 496.432 65.547 496.696 65.523 496.936H53.103C53.223 498.448 53.751 499.624 54.687 500.464C55.647 501.28 57.027 501.688 58.827 501.688C59.883 501.688 60.843 501.592 61.707 501.4C62.595 501.208 63.291 501.004 63.795 500.788L64.371 504.352C64.131 504.472 63.795 504.604 63.363 504.748C62.955 504.868 62.475 504.976 61.923 505.072C61.395 505.192 60.819 505.288 60.195 505.36C59.571 505.432 58.935 505.468 58.287 505.468C56.631 505.468 55.191 505.228 53.967 504.748C52.743 504.244 51.735 503.56 50.943 502.696C50.151 501.808 49.563 500.776 49.179 499.6C48.795 498.4 48.603 497.092 48.603 495.676ZM61.239 493.732C61.239 493.132 61.155 492.568 60.987 492.04C60.819 491.488 60.567 491.02 60.231 490.636C59.919 490.228 59.523 489.916 59.043 489.7C58.587 489.46 58.035 489.34 57.387 489.34C56.715 489.34 56.127 489.472 55.623 489.736C55.119 489.976 54.687 490.3 54.327 490.708C53.991 491.116 53.727 491.584 53.535 492.112C53.343 492.64 53.211 493.18 53.139 493.732H61.239ZM76.8374 501.94C78.1814 501.94 79.2014 501.868 79.8974 501.724V496.9C79.6574 496.828 79.3094 496.756 78.8534 496.684C78.3974 496.612 77.8934 496.576 77.3414 496.576C76.8614 496.576 76.3694 496.612 75.8654 496.684C75.3854 496.756 74.9414 496.888 74.5334 497.08C74.1494 497.272 73.8374 497.548 73.5974 497.908C73.3574 498.244 73.2374 498.676 73.2374 499.204C73.2374 500.236 73.5614 500.956 74.2094 501.364C74.8574 501.748 75.7334 501.94 76.8374 501.94ZM76.4774 485.704C77.9174 485.704 79.1294 485.884 80.1134 486.244C81.0974 486.604 81.8774 487.108 82.4534 487.756C83.0534 488.404 83.4734 489.196 83.7134 490.132C83.9774 491.044 84.1094 492.052 84.1094 493.156V504.568C83.4374 504.712 82.4174 504.88 81.0494 505.072C79.7054 505.288 78.1814 505.396 76.4774 505.396C75.3494 505.396 74.3174 505.288 73.3814 505.072C72.4454 504.856 71.6414 504.508 70.9694 504.028C70.3214 503.548 69.8054 502.924 69.4214 502.156C69.0614 501.388 68.8814 500.44 68.8814 499.312C68.8814 498.232 69.0854 497.32 69.4934 496.576C69.9254 495.832 70.5014 495.232 71.2214 494.776C71.9414 494.296 72.7694 493.96 73.7054 493.768C74.6654 493.552 75.6614 493.444 76.6934 493.444C77.1734 493.444 77.6774 493.48 78.2054 493.552C78.7334 493.6 79.2974 493.696 79.8974 493.84V493.12C79.8974 492.616 79.8374 492.136 79.7174 491.68C79.5974 491.224 79.3814 490.828 79.0694 490.492C78.7814 490.132 78.3854 489.856 77.8814 489.664C77.4014 489.472 76.7894 489.376 76.0454 489.376C75.0374 489.376 74.1134 489.448 73.2734 489.592C72.4334 489.736 71.7494 489.904 71.2214 490.096L70.6814 486.568C71.2334 486.376 72.0374 486.184 73.0934 485.992C74.1494 485.8 75.2774 485.704 76.4774 485.704ZM95.9959 505.36C94.6999 505.336 93.6199 505.192 92.7559 504.928C91.9159 504.664 91.2439 504.292 90.7399 503.812C90.2359 503.308 89.8759 502.696 89.6599 501.976C89.4679 501.232 89.3719 500.392 89.3719 499.456V477.784L93.7279 477.064V498.628C93.7279 499.156 93.7639 499.6 93.8359 499.96C93.9319 500.32 94.0879 500.632 94.3039 500.896C94.5199 501.136 94.8079 501.328 95.1679 501.472C95.5519 501.592 96.0319 501.688 96.6079 501.76L95.9959 505.36ZM99.9154 481.204L104.271 480.484V486.172H110.967V489.808H104.271V497.476C104.271 498.988 104.511 500.068 104.991 500.716C105.471 501.364 106.287 501.688 107.439 501.688C108.231 501.688 108.927 501.604 109.527 501.436C110.151 501.268 110.643 501.112 111.003 500.968L111.723 504.424C111.219 504.64 110.559 504.856 109.743 505.072C108.927 505.312 107.967 505.432 106.863 505.432C105.519 505.432 104.391 505.252 103.479 504.892C102.591 504.532 101.883 504.016 101.355 503.344C100.827 502.648 100.455 501.82 100.239 500.86C100.023 499.876 99.9154 498.76 99.9154 497.512V481.204ZM115.178 505V477.784L119.534 477.064V486.388C120.014 486.22 120.566 486.076 121.19 485.956C121.838 485.836 122.474 485.776 123.098 485.776C124.61 485.776 125.858 485.992 126.842 486.424C127.85 486.832 128.654 487.42 129.254 488.188C129.854 488.932 130.274 489.832 130.514 490.888C130.778 491.944 130.91 493.12 130.91 494.416V505H126.554V495.1C126.554 494.092 126.482 493.24 126.338 492.544C126.218 491.824 126.002 491.248 125.69 490.816C125.402 490.36 125.006 490.036 124.502 489.844C123.998 489.628 123.374 489.52 122.63 489.52C122.054 489.52 121.466 489.58 120.866 489.7C120.266 489.82 119.822 489.928 119.534 490.024V505H115.178ZM151.158 501.94C152.502 501.94 153.522 501.868 154.218 501.724V496.9C153.978 496.828 153.63 496.756 153.174 496.684C152.718 496.612 152.214 496.576 151.662 496.576C151.182 496.576 150.69 496.612 150.186 496.684C149.706 496.756 149.262 496.888 148.854 497.08C148.47 497.272 148.158 497.548 147.918 497.908C147.678 498.244 147.558 498.676 147.558 499.204C147.558 500.236 147.882 500.956 148.53 501.364C149.178 501.748 150.054 501.94 151.158 501.94ZM150.798 485.704C152.238 485.704 153.45 485.884 154.434 486.244C155.418 486.604 156.198 487.108 156.774 487.756C157.374 488.404 157.794 489.196 158.034 490.132C158.298 491.044 158.43 492.052 158.43 493.156V504.568C157.758 504.712 156.738 504.88 155.37 505.072C154.026 505.288 152.502 505.396 150.798 505.396C149.67 505.396 148.638 505.288 147.702 505.072C146.766 504.856 145.962 504.508 145.29 504.028C144.642 503.548 144.126 502.924 143.742 502.156C143.382 501.388 143.202 500.44 143.202 499.312C143.202 498.232 143.406 497.32 143.814 496.576C144.246 495.832 144.822 495.232 145.542 494.776C146.262 494.296 147.09 493.96 148.026 493.768C148.986 493.552 149.982 493.444 151.014 493.444C151.494 493.444 151.998 493.48 152.526 493.552C153.054 493.6 153.618 493.696 154.218 493.84V493.12C154.218 492.616 154.158 492.136 154.038 491.68C153.918 491.224 153.702 490.828 153.39 490.492C153.102 490.132 152.706 489.856 152.202 489.664C151.722 489.472 151.11 489.376 150.366 489.376C149.358 489.376 148.434 489.448 147.594 489.592C146.754 489.736 146.07 489.904 145.542 490.096L145.002 486.568C145.554 486.376 146.358 486.184 147.414 485.992C148.47 485.8 149.598 485.704 150.798 485.704ZM163.764 486.784C164.604 486.544 165.696 486.316 167.04 486.1C168.384 485.884 169.872 485.776 171.504 485.776C173.04 485.776 174.324 485.992 175.356 486.424C176.388 486.832 177.204 487.42 177.804 488.188C178.428 488.932 178.86 489.844 179.1 490.924C179.364 491.98 179.496 493.144 179.496 494.416V505H175.14V495.1C175.14 494.092 175.068 493.24 174.924 492.544C174.804 491.824 174.588 491.248 174.276 490.816C173.988 490.36 173.58 490.036 173.052 489.844C172.548 489.628 171.924 489.52 171.18 489.52C170.628 489.52 170.052 489.556 169.452 489.628C168.852 489.7 168.408 489.76 168.12 489.808V505H163.764V486.784ZM188.243 495.532C188.243 497.452 188.699 498.964 189.611 500.068C190.523 501.148 191.783 501.688 193.391 501.688C194.087 501.688 194.675 501.664 195.155 501.616C195.659 501.544 196.067 501.472 196.379 501.4V490.6C195.995 490.336 195.479 490.096 194.831 489.88C194.207 489.64 193.535 489.52 192.815 489.52C191.231 489.52 190.067 490.06 189.323 491.14C188.603 492.22 188.243 493.684 188.243 495.532ZM200.735 504.424C199.871 504.688 198.779 504.928 197.459 505.144C196.163 505.36 194.795 505.468 193.355 505.468C191.867 505.468 190.535 505.24 189.359 504.784C188.183 504.328 187.175 503.68 186.335 502.84C185.519 501.976 184.883 500.944 184.427 499.744C183.995 498.52 183.779 497.152 183.779 495.64C183.779 494.152 183.959 492.808 184.319 491.608C184.703 490.384 185.255 489.34 185.975 488.476C186.695 487.612 187.571 486.952 188.603 486.496C189.635 486.016 190.823 485.776 192.167 485.776C193.079 485.776 193.883 485.884 194.579 486.1C195.275 486.316 195.875 486.556 196.379 486.82V477.784L200.735 477.064V504.424ZM225.974 505.54C224.102 505.54 222.422 505.252 220.934 504.676C219.446 504.1 218.186 503.26 217.154 502.156C216.122 501.028 215.33 499.66 214.778 498.052C214.226 496.444 213.95 494.596 213.95 492.508C213.95 490.42 214.262 488.572 214.886 486.964C215.534 485.356 216.41 484 217.514 482.896C218.618 481.768 219.914 480.916 221.402 480.34C222.89 479.764 224.486 479.476 226.19 479.476C227.222 479.476 228.158 479.56 228.998 479.728C229.838 479.872 230.57 480.04 231.194 480.232C231.818 480.424 232.334 480.628 232.742 480.844C233.15 481.06 233.438 481.216 233.606 481.312L232.274 485.02C231.698 484.66 230.87 484.324 229.79 484.012C228.734 483.676 227.582 483.508 226.334 483.508C225.254 483.508 224.246 483.7 223.31 484.084C222.374 484.444 221.558 484.996 220.862 485.74C220.19 486.484 219.662 487.42 219.278 488.548C218.894 489.676 218.702 490.984 218.702 492.472C218.702 493.792 218.846 495.004 219.134 496.108C219.446 497.212 219.914 498.172 220.538 498.988C221.162 499.78 221.954 500.404 222.914 500.86C223.874 501.292 225.026 501.508 226.37 501.508C227.978 501.508 229.286 501.352 230.294 501.04C231.302 500.704 232.082 500.392 232.634 500.104L233.858 503.812C233.57 504.004 233.174 504.196 232.67 504.388C232.19 504.58 231.614 504.772 230.942 504.964C230.27 505.132 229.514 505.264 228.674 505.36C227.834 505.48 226.934 505.54 225.974 505.54ZM244.251 501.94C245.595 501.94 246.615 501.868 247.311 501.724V496.9C247.071 496.828 246.723 496.756 246.267 496.684C245.811 496.612 245.307 496.576 244.755 496.576C244.275 496.576 243.783 496.612 243.279 496.684C242.799 496.756 242.355 496.888 241.947 497.08C241.563 497.272 241.251 497.548 241.011 497.908C240.771 498.244 240.651 498.676 240.651 499.204C240.651 500.236 240.975 500.956 241.623 501.364C242.271 501.748 243.147 501.94 244.251 501.94ZM243.891 485.704C245.331 485.704 246.543 485.884 247.527 486.244C248.511 486.604 249.291 487.108 249.867 487.756C250.467 488.404 250.887 489.196 251.127 490.132C251.391 491.044 251.523 492.052 251.523 493.156V504.568C250.851 504.712 249.831 504.88 248.463 505.072C247.119 505.288 245.595 505.396 243.891 505.396C242.763 505.396 241.731 505.288 240.795 505.072C239.859 504.856 239.055 504.508 238.383 504.028C237.735 503.548 237.219 502.924 236.835 502.156C236.475 501.388 236.295 500.44 236.295 499.312C236.295 498.232 236.499 497.32 236.907 496.576C237.339 495.832 237.915 495.232 238.635 494.776C239.355 494.296 240.183 493.96 241.119 493.768C242.079 493.552 243.075 493.444 244.107 493.444C244.587 493.444 245.091 493.48 245.619 493.552C246.147 493.6 246.711 493.696 247.311 493.84V493.12C247.311 492.616 247.251 492.136 247.131 491.68C247.011 491.224 246.795 490.828 246.483 490.492C246.195 490.132 245.799 489.856 245.295 489.664C244.815 489.472 244.203 489.376 243.459 489.376C242.451 489.376 241.527 489.448 240.687 489.592C239.847 489.736 239.163 489.904 238.635 490.096L238.095 486.568C238.647 486.376 239.451 486.184 240.507 485.992C241.563 485.8 242.691 485.704 243.891 485.704ZM267.586 490.096C267.226 489.976 266.722 489.856 266.074 489.736C265.45 489.592 264.718 489.52 263.878 489.52C263.398 489.52 262.882 489.568 262.33 489.664C261.802 489.76 261.43 489.844 261.214 489.916V505H256.858V487.072C257.698 486.76 258.742 486.472 259.99 486.208C261.262 485.92 262.666 485.776 264.202 485.776C264.49 485.776 264.826 485.8 265.21 485.848C265.594 485.872 265.978 485.92 266.362 485.992C266.746 486.04 267.118 486.112 267.478 486.208C267.838 486.28 268.126 486.352 268.342 486.424L267.586 490.096ZM270.333 495.676C270.333 494.02 270.573 492.568 271.053 491.32C271.557 490.072 272.217 489.04 273.033 488.224C273.849 487.384 274.785 486.76 275.841 486.352C276.897 485.92 277.977 485.704 279.081 485.704C281.673 485.704 283.689 486.508 285.129 488.116C286.593 489.724 287.325 492.124 287.325 495.316C287.325 495.556 287.313 495.832 287.289 496.144C287.289 496.432 287.277 496.696 287.253 496.936H274.833C274.953 498.448 275.481 499.624 276.417 500.464C277.377 501.28 278.757 501.688 280.557 501.688C281.613 501.688 282.573 501.592 283.437 501.4C284.325 501.208 285.021 501.004 285.525 500.788L286.101 504.352C285.861 504.472 285.525 504.604 285.093 504.748C284.685 504.868 284.205 504.976 283.653 505.072C283.125 505.192 282.549 505.288 281.925 505.36C281.301 505.432 280.665 505.468 280.017 505.468C278.361 505.468 276.921 505.228 275.697 504.748C274.473 504.244 273.465 503.56 272.673 502.696C271.881 501.808 271.293 500.776 270.909 499.6C270.525 498.4 270.333 497.092 270.333 495.676ZM282.969 493.732C282.969 493.132 282.885 492.568 282.717 492.04C282.549 491.488 282.297 491.02 281.961 490.636C281.649 490.228 281.253 489.916 280.773 489.7C280.317 489.46 279.765 489.34 279.117 489.34C278.445 489.34 277.857 489.472 277.353 489.736C276.849 489.976 276.417 490.3 276.057 490.708C275.721 491.116 275.457 491.584 275.265 492.112C275.073 492.64 274.941 493.18 274.869 493.732H282.969Z" fill="#D0D0D0"/>
<path d="M339 513H31C22.1634 513 15 520.163 15 529V585C15 593.837 22.1634 601 31 601H339C347.837 601 355 593.837 355 585V529C355 520.163 347.837 513 339 513Z" fill="#D9D9D9"/>
<path d="M310.375 572.458C309.84 571.924 309.573 571.243 309.573 570.417C309.573 569.59 309.84 568.91 310.375 568.375L321.75 557L310.375 545.625C309.84 545.09 309.573 544.41 309.573 543.583C309.573 542.757 309.84 542.076 310.375 541.542C310.91 541.007 311.59 540.74 312.417 540.74C313.243 540.74 313.924 541.007 314.458 541.542L327.875 554.958C328.167 555.25 328.374 555.566 328.496 555.906C328.619 556.247 328.679 556.611 328.677 557C328.677 557.389 328.616 557.753 328.493 558.094C328.371 558.434 328.165 558.75 327.875 559.042L314.458 572.458C313.924 572.993 313.243 573.26 312.417 573.26C311.59 573.26 310.91 572.993 310.375 572.458Z" fill="#FF9341"/>
<g style="mix-blend-mode:multiply">
<path d="M121.328 550.551C121.177 549.206 120.552 548.165 119.453 547.426C118.355 546.678 116.972 546.304 115.305 546.304C114.112 546.304 113.08 546.493 112.209 546.872C111.338 547.241 110.661 547.753 110.178 548.406C109.704 549.05 109.467 549.784 109.467 550.608C109.467 551.299 109.628 551.896 109.95 552.398C110.282 552.9 110.713 553.321 111.243 553.662C111.783 553.993 112.36 554.273 112.976 554.5C113.591 554.718 114.183 554.898 114.751 555.04L117.592 555.778C118.52 556.006 119.472 556.313 120.447 556.702C121.423 557.09 122.327 557.601 123.161 558.236C123.994 558.87 124.666 559.656 125.178 560.594C125.698 561.531 125.959 562.653 125.959 563.96C125.959 565.608 125.533 567.071 124.68 568.349C123.838 569.628 122.611 570.636 121.001 571.375C119.401 572.114 117.464 572.483 115.192 572.483C113.014 572.483 111.129 572.137 109.538 571.446C107.947 570.755 106.702 569.775 105.803 568.506C104.903 567.227 104.406 565.712 104.311 563.96H108.714C108.8 565.011 109.141 565.887 109.737 566.588C110.343 567.279 111.115 567.795 112.053 568.136C113 568.468 114.036 568.634 115.163 568.634C116.404 568.634 117.507 568.439 118.473 568.051C119.448 567.653 120.215 567.104 120.774 566.403C121.333 565.693 121.612 564.865 121.612 563.918C121.612 563.056 121.366 562.35 120.874 561.801C120.391 561.252 119.732 560.797 118.899 560.438C118.075 560.078 117.143 559.76 116.101 559.486L112.663 558.548C110.334 557.914 108.487 556.981 107.124 555.75C105.769 554.519 105.092 552.89 105.092 550.864C105.092 549.187 105.547 547.724 106.456 546.474C107.365 545.224 108.596 544.254 110.149 543.562C111.702 542.862 113.454 542.511 115.405 542.511C117.375 542.511 119.112 542.857 120.618 543.548C122.133 544.24 123.326 545.191 124.197 546.403C125.069 547.606 125.523 548.989 125.561 550.551H121.328ZM140.266 572.44C138.117 572.44 136.265 571.981 134.712 571.062C133.169 570.134 131.976 568.832 131.133 567.156C130.299 565.471 129.883 563.496 129.883 561.233C129.883 558.998 130.299 557.028 131.133 555.324C131.976 553.619 133.15 552.289 134.656 551.332C136.171 550.376 137.942 549.898 139.968 549.898C141.199 549.898 142.392 550.101 143.548 550.509C144.703 550.916 145.74 551.555 146.658 552.426C147.577 553.297 148.301 554.429 148.832 555.821C149.362 557.204 149.627 558.884 149.627 560.864V562.369H132.283V559.188H145.465C145.465 558.07 145.238 557.08 144.783 556.219C144.329 555.348 143.69 554.661 142.866 554.159C142.051 553.657 141.095 553.406 139.996 553.406C138.803 553.406 137.762 553.7 136.871 554.287C135.991 554.865 135.309 555.622 134.826 556.56C134.353 557.488 134.116 558.496 134.116 559.585V562.071C134.116 563.529 134.371 564.77 134.883 565.793C135.404 566.815 136.128 567.597 137.056 568.136C137.984 568.667 139.068 568.932 140.309 568.932C141.114 568.932 141.848 568.818 142.511 568.591C143.174 568.354 143.746 568.004 144.229 567.54C144.712 567.076 145.082 566.503 145.337 565.821L149.357 566.545C149.035 567.729 148.458 568.766 147.624 569.656C146.8 570.537 145.763 571.223 144.513 571.716C143.273 572.199 141.857 572.44 140.266 572.44ZM154.339 572V550.182H158.445V553.648H158.672C159.07 552.473 159.77 551.55 160.774 550.878C161.787 550.196 162.933 549.855 164.212 549.855C164.477 549.855 164.789 549.865 165.149 549.884C165.518 549.902 165.807 549.926 166.016 549.955V554.017C165.845 553.97 165.542 553.918 165.107 553.861C164.671 553.795 164.235 553.761 163.8 553.761C162.796 553.761 161.901 553.974 161.115 554.401C160.339 554.817 159.723 555.4 159.268 556.148C158.814 556.886 158.587 557.729 158.587 558.676V572H154.339ZM189.02 550.182L181.108 572H176.562L168.636 550.182H173.196L178.722 566.972H178.949L184.46 550.182H189.02ZM193.011 572V550.182H197.259V572H193.011ZM195.156 546.815C194.418 546.815 193.783 546.569 193.253 546.077C192.732 545.575 192.472 544.978 192.472 544.287C192.472 543.586 192.732 542.99 193.253 542.497C193.783 541.995 194.418 541.744 195.156 541.744C195.895 541.744 196.525 541.995 197.045 542.497C197.576 542.99 197.841 543.586 197.841 544.287C197.841 544.978 197.576 545.575 197.045 546.077C196.525 546.569 195.895 546.815 195.156 546.815ZM212.163 572.44C210.051 572.44 208.233 571.962 206.708 571.006C205.193 570.04 204.028 568.709 203.214 567.014C202.399 565.319 201.992 563.378 201.992 561.19C201.992 558.974 202.409 557.019 203.242 555.324C204.076 553.619 205.25 552.289 206.765 551.332C208.28 550.376 210.065 549.898 212.12 549.898C213.777 549.898 215.254 550.205 216.552 550.821C217.849 551.427 218.896 552.279 219.691 553.378C220.496 554.476 220.974 555.759 221.126 557.227H216.992C216.765 556.205 216.244 555.324 215.43 554.585C214.625 553.847 213.545 553.477 212.191 553.477C211.007 553.477 209.97 553.79 209.08 554.415C208.2 555.03 207.513 555.911 207.021 557.057C206.528 558.193 206.282 559.538 206.282 561.091C206.282 562.682 206.523 564.055 207.006 565.21C207.489 566.366 208.171 567.26 209.052 567.895C209.942 568.529 210.988 568.847 212.191 568.847C212.996 568.847 213.725 568.7 214.379 568.406C215.041 568.103 215.595 567.672 216.04 567.114C216.495 566.555 216.812 565.883 216.992 565.097H221.126C220.974 566.508 220.515 567.767 219.748 568.875C218.981 569.983 217.953 570.854 216.665 571.489C215.387 572.123 213.886 572.44 212.163 572.44ZM235.071 572.44C232.921 572.44 231.07 571.981 229.517 571.062C227.973 570.134 226.78 568.832 225.938 567.156C225.104 565.471 224.688 563.496 224.688 561.233C224.688 558.998 225.104 557.028 225.938 555.324C226.78 553.619 227.955 552.289 229.46 551.332C230.975 550.376 232.746 549.898 234.773 549.898C236.004 549.898 237.197 550.101 238.352 550.509C239.508 550.916 240.545 551.555 241.463 552.426C242.382 553.297 243.106 554.429 243.636 555.821C244.167 557.204 244.432 558.884 244.432 560.864V562.369H227.088V559.188H240.27C240.27 558.07 240.043 557.08 239.588 556.219C239.134 555.348 238.494 554.661 237.67 554.159C236.856 553.657 235.9 553.406 234.801 553.406C233.608 553.406 232.566 553.7 231.676 554.287C230.795 554.865 230.114 555.622 229.631 556.56C229.157 557.488 228.92 558.496 228.92 559.585V562.071C228.92 563.529 229.176 564.77 229.688 565.793C230.208 566.815 230.933 567.597 231.861 568.136C232.789 568.667 233.873 568.932 235.114 568.932C235.919 568.932 236.652 568.818 237.315 568.591C237.978 568.354 238.551 568.004 239.034 567.54C239.517 567.076 239.886 566.503 240.142 565.821L244.162 566.545C243.84 567.729 243.262 568.766 242.429 569.656C241.605 570.537 240.568 571.223 239.318 571.716C238.078 572.199 236.662 572.44 235.071 572.44ZM265.494 555.509L261.644 556.19C261.483 555.698 261.228 555.229 260.877 554.784C260.536 554.339 260.072 553.974 259.485 553.69C258.898 553.406 258.164 553.264 257.283 553.264C256.081 553.264 255.077 553.534 254.272 554.074C253.467 554.604 253.065 555.291 253.065 556.134C253.065 556.863 253.335 557.45 253.874 557.895C254.414 558.34 255.285 558.705 256.488 558.989L259.954 559.784C261.961 560.248 263.458 560.963 264.442 561.929C265.427 562.895 265.92 564.15 265.92 565.693C265.92 567 265.541 568.165 264.783 569.188C264.035 570.201 262.989 570.996 261.644 571.574C260.309 572.152 258.761 572.44 256.999 572.44C254.556 572.44 252.563 571.92 251.019 570.878C249.476 569.827 248.529 568.335 248.178 566.403L252.283 565.778C252.539 566.848 253.065 567.658 253.86 568.207C254.656 568.747 255.692 569.017 256.971 569.017C258.363 569.017 259.476 568.728 260.309 568.151C261.142 567.563 261.559 566.848 261.559 566.006C261.559 565.324 261.303 564.751 260.792 564.287C260.29 563.823 259.518 563.473 258.477 563.236L254.783 562.426C252.747 561.962 251.242 561.223 250.266 560.21C249.3 559.197 248.817 557.914 248.817 556.361C248.817 555.073 249.177 553.946 249.897 552.98C250.617 552.014 251.611 551.261 252.88 550.722C254.149 550.172 255.603 549.898 257.241 549.898C259.599 549.898 261.455 550.409 262.809 551.432C264.163 552.445 265.058 553.804 265.494 555.509Z" fill="#252835"/>
</g>
<path d="M78.7693 562.221H68.5129V572.483H58.2565V562.221H48V551.959H58.2565V541.697H68.5129V551.959H78.7693M81.3334 534H45.4359C42.5898 534 40.3077 536.283 40.3077 539.131V575.049C40.3077 576.41 40.848 577.715 41.8098 578.677C42.7715 579.639 44.0759 580.18 45.4359 580.18H81.3334C82.6935 580.18 83.9978 579.639 84.9596 578.677C85.9213 577.715 86.4616 576.41 86.4616 575.049V539.131C86.4616 537.77 85.9213 536.465 84.9596 535.503C83.9978 534.541 82.6935 534 81.3334 534Z" fill="#D60000"/>
</g>
<g filter="url(#filter4_d_233_1515)">
<path d="M21.988 359V334.052H37.756V337.904H26.524V344.276H36.496V348.128H26.524V359H21.988ZM45.9921 359H41.6361V340.172H45.9921V359ZM46.4601 334.664C46.4601 335.48 46.1961 336.128 45.6681 336.608C45.1401 337.088 44.5161 337.328 43.7961 337.328C43.0521 337.328 42.4161 337.088 41.8881 336.608C41.3601 336.128 41.0961 335.48 41.0961 334.664C41.0961 333.824 41.3601 333.164 41.8881 332.684C42.4161 332.204 43.0521 331.964 43.7961 331.964C44.5161 331.964 45.1401 332.204 45.6681 332.684C46.1961 333.164 46.4601 333.824 46.4601 334.664ZM51.5493 340.784C52.3893 340.544 53.4813 340.316 54.8253 340.1C56.1693 339.884 57.6573 339.776 59.2893 339.776C60.8253 339.776 62.1093 339.992 63.1413 340.424C64.1733 340.832 64.9893 341.42 65.5893 342.188C66.2133 342.932 66.6453 343.844 66.8853 344.924C67.1493 345.98 67.2813 347.144 67.2813 348.416V359H62.9253V349.1C62.9253 348.092 62.8533 347.24 62.7093 346.544C62.5893 345.824 62.3733 345.248 62.0613 344.816C61.7733 344.36 61.3653 344.036 60.8373 343.844C60.3333 343.628 59.7093 343.52 58.9653 343.52C58.4133 343.52 57.8373 343.556 57.2373 343.628C56.6373 343.7 56.1933 343.76 55.9053 343.808V359H51.5493V340.784ZM79.2319 355.94C80.5759 355.94 81.5959 355.868 82.2919 355.724V350.9C82.0519 350.828 81.7039 350.756 81.2479 350.684C80.7919 350.612 80.2879 350.576 79.7359 350.576C79.2559 350.576 78.7639 350.612 78.2599 350.684C77.7799 350.756 77.3359 350.888 76.9279 351.08C76.5439 351.272 76.2319 351.548 75.9919 351.908C75.7519 352.244 75.6319 352.676 75.6319 353.204C75.6319 354.236 75.9559 354.956 76.6039 355.364C77.2519 355.748 78.1279 355.94 79.2319 355.94ZM78.8719 339.704C80.3119 339.704 81.5239 339.884 82.5079 340.244C83.4919 340.604 84.2719 341.108 84.8479 341.756C85.4479 342.404 85.8679 343.196 86.1079 344.132C86.3719 345.044 86.5039 346.052 86.5039 347.156V358.568C85.8319 358.712 84.8119 358.88 83.4439 359.072C82.0999 359.288 80.5759 359.396 78.8719 359.396C77.7439 359.396 76.7119 359.288 75.7759 359.072C74.8399 358.856 74.0359 358.508 73.3639 358.028C72.7159 357.548 72.1999 356.924 71.8159 356.156C71.4559 355.388 71.2759 354.44 71.2759 353.312C71.2759 352.232 71.4799 351.32 71.8879 350.576C72.3199 349.832 72.8959 349.232 73.6159 348.776C74.3359 348.296 75.1639 347.96 76.0999 347.768C77.0599 347.552 78.0559 347.444 79.0879 347.444C79.5679 347.444 80.0719 347.48 80.5999 347.552C81.1279 347.6 81.6919 347.696 82.2919 347.84V347.12C82.2919 346.616 82.2319 346.136 82.1119 345.68C81.9919 345.224 81.7759 344.828 81.4639 344.492C81.1759 344.132 80.7799 343.856 80.2759 343.664C79.7959 343.472 79.1839 343.376 78.4399 343.376C77.4319 343.376 76.5079 343.448 75.6679 343.592C74.8279 343.736 74.1439 343.904 73.6159 344.096L73.0759 340.568C73.6279 340.376 74.4319 340.184 75.4879 339.992C76.5439 339.8 77.6719 339.704 78.8719 339.704ZM91.8384 340.784C92.6784 340.544 93.7704 340.316 95.1144 340.1C96.4584 339.884 97.9464 339.776 99.5784 339.776C101.114 339.776 102.398 339.992 103.43 340.424C104.462 340.832 105.278 341.42 105.878 342.188C106.502 342.932 106.934 343.844 107.174 344.924C107.438 345.98 107.57 347.144 107.57 348.416V359H103.214V349.1C103.214 348.092 103.142 347.24 102.998 346.544C102.878 345.824 102.662 345.248 102.35 344.816C102.062 344.36 101.654 344.036 101.126 343.844C100.622 343.628 99.9984 343.52 99.2544 343.52C98.7024 343.52 98.1264 343.556 97.5264 343.628C96.9264 343.7 96.4824 343.76 96.1944 343.808V359H91.8384V340.784ZM111.853 349.604C111.853 348.212 112.069 346.916 112.501 345.716C112.933 344.492 113.545 343.436 114.337 342.548C115.153 341.66 116.137 340.964 117.289 340.46C118.441 339.956 119.737 339.704 121.177 339.704C122.953 339.704 124.633 340.028 126.217 340.676L125.281 344.24C124.777 344.024 124.201 343.844 123.553 343.7C122.929 343.556 122.257 343.484 121.537 343.484C119.833 343.484 118.537 344.024 117.649 345.104C116.761 346.16 116.317 347.66 116.317 349.604C116.317 351.476 116.737 352.964 117.577 354.068C118.417 355.148 119.833 355.688 121.825 355.688C122.569 355.688 123.301 355.616 124.021 355.472C124.741 355.328 125.365 355.148 125.893 354.932L126.505 358.532C126.025 358.772 125.293 358.988 124.309 359.18C123.349 359.372 122.353 359.468 121.321 359.468C119.713 359.468 118.309 359.228 117.109 358.748C115.933 358.244 114.949 357.56 114.157 356.696C113.389 355.808 112.813 354.764 112.429 353.564C112.045 352.34 111.853 351.02 111.853 349.604ZM134.269 359H129.913V340.172H134.269V359ZM134.737 334.664C134.737 335.48 134.473 336.128 133.945 336.608C133.417 337.088 132.793 337.328 132.073 337.328C131.329 337.328 130.693 337.088 130.165 336.608C129.637 336.128 129.373 335.48 129.373 334.664C129.373 333.824 129.637 333.164 130.165 332.684C130.693 332.204 131.329 331.964 132.073 331.964C132.793 331.964 133.417 332.204 133.945 332.684C134.473 333.164 134.737 333.824 134.737 334.664ZM146.451 355.94C147.795 355.94 148.815 355.868 149.511 355.724V350.9C149.271 350.828 148.923 350.756 148.467 350.684C148.011 350.612 147.507 350.576 146.955 350.576C146.475 350.576 145.983 350.612 145.479 350.684C144.999 350.756 144.555 350.888 144.147 351.08C143.763 351.272 143.451 351.548 143.211 351.908C142.971 352.244 142.851 352.676 142.851 353.204C142.851 354.236 143.175 354.956 143.823 355.364C144.471 355.748 145.347 355.94 146.451 355.94ZM146.091 339.704C147.531 339.704 148.743 339.884 149.727 340.244C150.711 340.604 151.491 341.108 152.067 341.756C152.667 342.404 153.087 343.196 153.327 344.132C153.591 345.044 153.723 346.052 153.723 347.156V358.568C153.051 358.712 152.031 358.88 150.663 359.072C149.319 359.288 147.795 359.396 146.091 359.396C144.963 359.396 143.931 359.288 142.995 359.072C142.059 358.856 141.255 358.508 140.583 358.028C139.935 357.548 139.419 356.924 139.035 356.156C138.675 355.388 138.495 354.44 138.495 353.312C138.495 352.232 138.699 351.32 139.107 350.576C139.539 349.832 140.115 349.232 140.835 348.776C141.555 348.296 142.383 347.96 143.319 347.768C144.279 347.552 145.275 347.444 146.307 347.444C146.787 347.444 147.291 347.48 147.819 347.552C148.347 347.6 148.911 347.696 149.511 347.84V347.12C149.511 346.616 149.451 346.136 149.331 345.68C149.211 345.224 148.995 344.828 148.683 344.492C148.395 344.132 147.999 343.856 147.495 343.664C147.015 343.472 146.403 343.376 145.659 343.376C144.651 343.376 143.727 343.448 142.887 343.592C142.047 343.736 141.363 343.904 140.835 344.096L140.295 340.568C140.847 340.376 141.651 340.184 142.707 339.992C143.763 339.8 144.891 339.704 146.091 339.704ZM165.609 359.36C164.313 359.336 163.233 359.192 162.369 358.928C161.529 358.664 160.857 358.292 160.353 357.812C159.849 357.308 159.489 356.696 159.273 355.976C159.081 355.232 158.985 354.392 158.985 353.456V331.784L163.341 331.064V352.628C163.341 353.156 163.377 353.6 163.449 353.96C163.545 354.32 163.701 354.632 163.917 354.896C164.133 355.136 164.421 355.328 164.781 355.472C165.165 355.592 165.645 355.688 166.221 355.76L165.609 359.36ZM194.347 336.86C194.731 338.156 195.139 339.512 195.571 340.928C196.003 342.32 196.447 343.724 196.903 345.14C197.383 346.532 197.851 347.912 198.307 349.28C198.787 350.624 199.243 351.896 199.675 353.096C200.035 351.8 200.383 350.396 200.719 348.884C201.055 347.348 201.391 345.764 201.727 344.132C202.063 342.476 202.387 340.796 202.699 339.092C203.035 337.388 203.347 335.708 203.635 334.052H208.315C207.475 338.564 206.539 342.908 205.507 347.084C204.475 351.236 203.323 355.208 202.051 359H197.731C195.859 354.152 194.047 348.86 192.295 343.124C191.407 346.028 190.507 348.788 189.595 351.404C188.683 354.02 187.771 356.552 186.859 359H182.539C181.243 355.208 180.079 351.236 179.047 347.084C178.039 342.908 177.115 338.564 176.275 334.052H181.135C181.423 335.684 181.723 337.352 182.035 339.056C182.371 340.76 182.707 342.44 183.043 344.096C183.403 345.728 183.763 347.312 184.123 348.848C184.483 350.384 184.843 351.8 185.203 353.096C185.659 351.872 186.115 350.588 186.571 349.244C187.051 347.876 187.519 346.496 187.975 345.104C188.431 343.688 188.863 342.284 189.271 340.892C189.703 339.5 190.099 338.156 190.459 336.86H194.347ZM210.22 349.676C210.22 348.02 210.46 346.568 210.94 345.32C211.444 344.072 212.104 343.04 212.92 342.224C213.736 341.384 214.672 340.76 215.728 340.352C216.784 339.92 217.864 339.704 218.968 339.704C221.56 339.704 223.576 340.508 225.016 342.116C226.48 343.724 227.212 346.124 227.212 349.316C227.212 349.556 227.2 349.832 227.176 350.144C227.176 350.432 227.164 350.696 227.14 350.936H214.72C214.84 352.448 215.368 353.624 216.304 354.464C217.264 355.28 218.644 355.688 220.444 355.688C221.5 355.688 222.46 355.592 223.324 355.4C224.212 355.208 224.908 355.004 225.412 354.788L225.988 358.352C225.748 358.472 225.412 358.604 224.98 358.748C224.572 358.868 224.092 358.976 223.54 359.072C223.012 359.192 222.436 359.288 221.812 359.36C221.188 359.432 220.552 359.468 219.904 359.468C218.248 359.468 216.808 359.228 215.584 358.748C214.36 358.244 213.352 357.56 212.56 356.696C211.768 355.808 211.18 354.776 210.796 353.6C210.412 352.4 210.22 351.092 210.22 349.676ZM222.856 347.732C222.856 347.132 222.772 346.568 222.604 346.04C222.436 345.488 222.184 345.02 221.848 344.636C221.536 344.228 221.14 343.916 220.66 343.7C220.204 343.46 219.652 343.34 219.004 343.34C218.332 343.34 217.744 343.472 217.24 343.736C216.736 343.976 216.304 344.3 215.944 344.708C215.608 345.116 215.344 345.584 215.152 346.112C214.96 346.64 214.828 347.18 214.756 347.732H222.856ZM238.383 359.36C237.087 359.336 236.007 359.192 235.143 358.928C234.303 358.664 233.631 358.292 233.127 357.812C232.623 357.308 232.263 356.696 232.047 355.976C231.855 355.232 231.759 354.392 231.759 353.456V331.784L236.115 331.064V352.628C236.115 353.156 236.151 353.6 236.223 353.96C236.319 354.32 236.475 354.632 236.691 354.896C236.907 355.136 237.195 355.328 237.555 355.472C237.939 355.592 238.419 355.688 238.995 355.76L238.383 359.36ZM249.07 359.36C247.774 359.336 246.694 359.192 245.83 358.928C244.99 358.664 244.318 358.292 243.814 357.812C243.31 357.308 242.95 356.696 242.734 355.976C242.542 355.232 242.446 354.392 242.446 353.456V331.784L246.802 331.064V352.628C246.802 353.156 246.838 353.6 246.91 353.96C247.006 354.32 247.162 354.632 247.378 354.896C247.594 355.136 247.882 355.328 248.242 355.472C248.626 355.592 249.106 355.688 249.682 355.76L249.07 359.36ZM251.262 346.724H260.946V350.72H251.262V346.724ZM277.053 349.532C277.053 347.684 276.681 346.22 275.937 345.14C275.217 344.06 274.065 343.52 272.481 343.52C271.761 343.52 271.077 343.628 270.429 343.844C269.805 344.06 269.301 344.3 268.917 344.564V355.4C269.229 355.472 269.625 355.544 270.105 355.616C270.609 355.664 271.209 355.688 271.905 355.688C273.513 355.688 274.773 355.148 275.685 354.068C276.597 352.964 277.053 351.452 277.053 349.532ZM281.517 349.604C281.517 351.116 281.289 352.484 280.833 353.708C280.401 354.908 279.765 355.94 278.925 356.804C278.109 357.668 277.113 358.328 275.937 358.784C274.761 359.24 273.429 359.468 271.941 359.468C270.501 359.468 269.121 359.36 267.801 359.144C266.505 358.928 265.425 358.688 264.561 358.424V331.784L268.917 331.064V340.82C269.421 340.556 270.033 340.316 270.753 340.1C271.497 339.884 272.313 339.776 273.201 339.776C274.521 339.776 275.697 340.016 276.729 340.496C277.785 340.952 278.661 341.612 279.357 342.476C280.053 343.34 280.581 344.384 280.941 345.608C281.325 346.808 281.517 348.14 281.517 349.604ZM284.962 349.676C284.962 348.02 285.202 346.568 285.682 345.32C286.186 344.072 286.846 343.04 287.662 342.224C288.478 341.384 289.414 340.76 290.47 340.352C291.526 339.92 292.606 339.704 293.71 339.704C296.302 339.704 298.318 340.508 299.758 342.116C301.222 343.724 301.954 346.124 301.954 349.316C301.954 349.556 301.942 349.832 301.918 350.144C301.918 350.432 301.906 350.696 301.882 350.936H289.462C289.582 352.448 290.11 353.624 291.046 354.464C292.006 355.28 293.386 355.688 295.186 355.688C296.242 355.688 297.202 355.592 298.066 355.4C298.954 355.208 299.65 355.004 300.154 354.788L300.73 358.352C300.49 358.472 300.154 358.604 299.722 358.748C299.314 358.868 298.834 358.976 298.282 359.072C297.754 359.192 297.178 359.288 296.554 359.36C295.93 359.432 295.294 359.468 294.646 359.468C292.99 359.468 291.55 359.228 290.326 358.748C289.102 358.244 288.094 357.56 287.302 356.696C286.51 355.808 285.922 354.776 285.538 353.6C285.154 352.4 284.962 351.092 284.962 349.676ZM297.598 347.732C297.598 347.132 297.514 346.568 297.346 346.04C297.178 345.488 296.926 345.02 296.59 344.636C296.278 344.228 295.882 343.916 295.402 343.7C294.946 343.46 294.394 343.34 293.746 343.34C293.074 343.34 292.486 343.472 291.982 343.736C291.478 343.976 291.046 344.3 290.686 344.708C290.35 345.116 290.086 345.584 289.894 346.112C289.702 346.64 289.57 347.18 289.498 347.732H297.598ZM310.965 359H306.609V340.172H310.965V359ZM311.433 334.664C311.433 335.48 311.169 336.128 310.641 336.608C310.113 337.088 309.489 337.328 308.769 337.328C308.025 337.328 307.389 337.088 306.861 336.608C306.333 336.128 306.069 335.48 306.069 334.664C306.069 333.824 306.333 333.164 306.861 332.684C307.389 332.204 308.025 331.964 308.769 331.964C309.489 331.964 310.113 332.204 310.641 332.684C311.169 333.164 311.433 333.824 311.433 334.664ZM316.522 340.784C317.362 340.544 318.454 340.316 319.798 340.1C321.142 339.884 322.63 339.776 324.262 339.776C325.798 339.776 327.082 339.992 328.114 340.424C329.146 340.832 329.962 341.42 330.562 342.188C331.186 342.932 331.618 343.844 331.858 344.924C332.122 345.98 332.254 347.144 332.254 348.416V359H327.898V349.1C327.898 348.092 327.826 347.24 327.682 346.544C327.562 345.824 327.346 345.248 327.034 344.816C326.746 344.36 326.338 344.036 325.81 343.844C325.306 343.628 324.682 343.52 323.938 343.52C323.386 343.52 322.81 343.556 322.21 343.628C321.61 343.7 321.166 343.76 320.878 343.808V359H316.522V340.784ZM341.001 349.1C341.001 350.948 341.397 352.304 342.189 353.168C343.005 354.008 344.049 354.428 345.321 354.428C346.017 354.428 346.665 354.332 347.265 354.14C347.889 353.948 348.393 353.72 348.777 353.456V343.7C348.465 343.628 348.081 343.568 347.625 343.52C347.169 343.448 346.593 343.412 345.897 343.412C344.313 343.412 343.101 343.94 342.261 344.996C341.421 346.028 341.001 347.396 341.001 349.1ZM353.133 357.092C353.133 360.092 352.365 362.288 350.829 363.68C349.317 365.072 346.989 365.768 343.845 365.768C342.693 365.768 341.565 365.672 340.461 365.48C339.381 365.288 338.397 365.036 337.509 364.724L338.301 361.016C339.045 361.328 339.885 361.58 340.821 361.772C341.781 361.964 342.813 362.06 343.917 362.06C345.669 362.06 346.917 361.7 347.661 360.98C348.405 360.26 348.777 359.192 348.777 357.776V357.056C348.345 357.272 347.769 357.488 347.049 357.704C346.353 357.92 345.549 358.028 344.637 358.028C343.437 358.028 342.333 357.836 341.325 357.452C340.341 357.068 339.489 356.504 338.769 355.76C338.073 355.016 337.521 354.092 337.113 352.988C336.729 351.86 336.537 350.564 336.537 349.1C336.537 347.732 336.741 346.472 337.149 345.32C337.581 344.168 338.193 343.184 338.985 342.368C339.801 341.552 340.785 340.916 341.937 340.46C343.089 340.004 344.397 339.776 345.861 339.776C347.277 339.776 348.621 339.884 349.893 340.1C351.165 340.316 352.245 340.544 353.133 340.784V357.092Z" fill="#D0D0D0"/>
<path d="M339 367H31C22.1634 367 15 374.163 15 383V439C15 447.837 22.1634 455 31 455H339C347.837 455 355 447.837 355 439V383C355 374.163 347.837 367 339 367Z" fill="#D9D9D9"/>
<path d="M310.375 426.458C309.84 425.924 309.573 425.243 309.573 424.417C309.573 423.59 309.84 422.91 310.375 422.375L321.75 411L310.375 399.625C309.84 399.09 309.573 398.41 309.573 397.583C309.573 396.757 309.84 396.076 310.375 395.542C310.91 395.007 311.59 394.74 312.417 394.74C313.243 394.74 313.924 395.007 314.458 395.542L327.875 408.958C328.167 409.25 328.374 409.566 328.496 409.906C328.619 410.247 328.679 410.611 328.677 411C328.677 411.389 328.616 411.753 328.493 412.094C328.371 412.434 328.165 412.75 327.875 413.042L314.458 426.458C313.924 426.993 313.243 427.26 312.417 427.26C311.59 427.26 310.91 426.993 310.375 426.458Z" fill="#FF9341"/>
<g style="mix-blend-mode:multiply">
<path d="M135.388 426L127.32 396.909H131.936L137.604 419.438H137.874L143.769 396.909H148.343L154.238 419.452H154.507L160.161 396.909H164.792L156.709 426H152.292L146.169 404.21H145.942L139.82 426H135.388ZM172.654 426.483C171.271 426.483 170.021 426.227 168.904 425.716C167.786 425.195 166.901 424.442 166.248 423.457C165.604 422.473 165.282 421.265 165.282 419.835C165.282 418.604 165.518 417.591 165.992 416.795C166.465 416 167.105 415.37 167.909 414.906C168.714 414.442 169.614 414.092 170.608 413.855C171.603 413.618 172.616 413.438 173.648 413.315C174.955 413.164 176.016 413.041 176.83 412.946C177.644 412.842 178.236 412.676 178.605 412.449C178.975 412.222 179.159 411.852 179.159 411.341V411.241C179.159 410.001 178.809 409.04 178.108 408.358C177.417 407.676 176.385 407.335 175.012 407.335C173.582 407.335 172.455 407.652 171.631 408.287C170.817 408.912 170.253 409.608 169.941 410.375L165.949 409.466C166.423 408.14 167.114 407.07 168.023 406.256C168.942 405.432 169.998 404.835 171.191 404.466C172.384 404.087 173.639 403.898 174.955 403.898C175.826 403.898 176.749 404.002 177.725 404.21C178.71 404.409 179.628 404.778 180.48 405.318C181.342 405.858 182.048 406.63 182.597 407.634C183.146 408.628 183.421 409.92 183.421 411.511V426H179.273V423.017H179.103C178.828 423.566 178.416 424.106 177.867 424.636C177.318 425.167 176.612 425.607 175.75 425.957C174.889 426.308 173.856 426.483 172.654 426.483ZM173.577 423.074C174.751 423.074 175.755 422.842 176.588 422.378C177.431 421.914 178.07 421.308 178.506 420.56C178.951 419.802 179.174 418.992 179.174 418.131V415.318C179.022 415.47 178.729 415.612 178.293 415.744C177.867 415.867 177.379 415.976 176.83 416.071C176.281 416.156 175.746 416.237 175.225 416.312C174.704 416.379 174.268 416.436 173.918 416.483C173.094 416.587 172.341 416.762 171.659 417.009C170.987 417.255 170.447 417.61 170.04 418.074C169.642 418.528 169.444 419.134 169.444 419.892C169.444 420.943 169.832 421.739 170.608 422.278C171.385 422.809 172.374 423.074 173.577 423.074ZM193.325 396.909V426H189.078V396.909H193.325ZM203.286 396.909V426H199.039V396.909H203.286ZM218.403 426.44C216.253 426.44 214.402 425.981 212.849 425.062C211.306 424.134 210.112 422.832 209.27 421.156C208.436 419.471 208.02 417.496 208.02 415.233C208.02 412.998 208.436 411.028 209.27 409.324C210.112 407.619 211.287 406.289 212.792 405.332C214.307 404.376 216.078 403.898 218.105 403.898C219.336 403.898 220.529 404.101 221.684 404.509C222.84 404.916 223.877 405.555 224.795 406.426C225.714 407.297 226.438 408.429 226.968 409.821C227.499 411.204 227.764 412.884 227.764 414.864V416.369H210.42V413.188H223.602C223.602 412.07 223.375 411.08 222.92 410.219C222.466 409.348 221.826 408.661 221.002 408.159C220.188 407.657 219.232 407.406 218.133 407.406C216.94 407.406 215.898 407.7 215.008 408.287C214.127 408.865 213.446 409.622 212.963 410.56C212.489 411.488 212.252 412.496 212.252 413.585V416.071C212.252 417.529 212.508 418.77 213.02 419.793C213.54 420.815 214.265 421.597 215.193 422.136C216.121 422.667 217.205 422.932 218.446 422.932C219.251 422.932 219.984 422.818 220.647 422.591C221.31 422.354 221.883 422.004 222.366 421.54C222.849 421.076 223.218 420.503 223.474 419.821L227.494 420.545C227.172 421.729 226.594 422.766 225.761 423.656C224.937 424.537 223.9 425.223 222.65 425.716C221.41 426.199 219.994 426.44 218.403 426.44ZM242.661 404.182V407.591H230.743V404.182H242.661ZM233.939 398.955H238.186V419.594C238.186 420.418 238.31 421.038 238.556 421.455C238.802 421.862 239.119 422.141 239.507 422.293C239.905 422.435 240.336 422.506 240.8 422.506C241.141 422.506 241.439 422.482 241.695 422.435C241.951 422.387 242.15 422.349 242.292 422.321L243.059 425.83C242.812 425.924 242.462 426.019 242.007 426.114C241.553 426.218 240.985 426.275 240.303 426.284C239.185 426.303 238.144 426.104 237.178 425.688C236.212 425.271 235.431 424.627 234.834 423.756C234.238 422.884 233.939 421.791 233.939 420.474V398.955Z" fill="#252835"/>
</g>
<path d="M61.4231 436.734H60.7821C60.5684 436.734 60.3761 436.691 60.2051 436.606C54.6069 434.853 49.9915 431.378 46.359 426.182C42.7265 420.986 40.9103 415.246 40.9103 408.962V396.839C40.9103 395.771 41.2205 394.808 41.841 393.953C42.4616 393.098 43.2624 392.478 44.2436 392.093L59.6282 386.321C60.2265 386.107 60.8248 386 61.4231 386C62.0214 386 62.6197 386.107 63.218 386.321L78.6026 392.093C79.5855 392.478 80.3872 393.098 81.0077 393.953C81.6282 394.808 81.9376 395.771 81.9359 396.839V408.962C81.9359 415.247 80.1197 420.988 76.4872 426.184C72.8547 431.38 68.2393 434.854 62.641 436.606C62.4274 436.691 62.0214 436.734 61.4231 436.734ZM61.4231 431.539C65.8675 430.128 69.5428 427.306 72.4487 423.072C75.3547 418.839 76.8077 414.136 76.8077 408.962V396.839L61.4231 391.067L46.0385 396.839V408.962C46.0385 414.136 47.4915 418.839 50.3975 423.072C53.3034 427.306 56.9787 430.128 61.4231 431.539Z" fill="#252835"/>
</g>
<g filter="url(#filter5_d_233_1515)">
<path d="M336 213H28C19.1634 213 12 220.163 12 229V285C12 293.837 19.1634 301 28 301H336C344.837 301 352 293.837 352 285V229C352 220.163 344.837 213 336 213Z" fill="#D9D9D9"/>
<path d="M306.767 272.719C306.256 272.184 306 271.503 306 270.677C306 269.851 306.256 269.17 306.767 268.635L317.64 257.26L306.767 245.885C306.256 245.351 306 244.67 306 243.844C306 243.017 306.256 242.337 306.767 241.802C307.278 241.267 307.928 241 308.718 241C309.508 241 310.159 241.267 310.67 241.802L323.495 255.219C323.773 255.51 323.971 255.826 324.088 256.167C324.206 256.507 324.263 256.872 324.261 257.26C324.261 257.649 324.203 258.014 324.086 258.354C323.969 258.694 323.772 259.01 323.495 259.302L310.67 272.719C310.159 273.253 309.508 273.521 308.718 273.521C307.928 273.521 307.278 273.253 306.767 272.719Z" fill="#FF9341"/>
<g style="mix-blend-mode:multiply">
<path d="M169.761 242.909V272H165.372V242.909H169.761ZM185.571 272H176.153V242.909H185.869C188.719 242.909 191.167 243.491 193.213 244.656C195.258 245.812 196.825 247.473 197.914 249.642C199.013 251.801 199.562 254.391 199.562 257.412C199.562 260.442 199.008 263.046 197.9 265.224C196.802 267.402 195.211 269.079 193.127 270.253C191.044 271.418 188.525 272 185.571 272ZM180.542 268.165H185.329C187.545 268.165 189.387 267.748 190.855 266.915C192.323 266.072 193.421 264.855 194.15 263.264C194.879 261.664 195.244 259.713 195.244 257.412C195.244 255.13 194.879 253.193 194.15 251.602C193.431 250.011 192.356 248.804 190.926 247.98C189.496 247.156 187.72 246.744 185.599 246.744H180.542V268.165Z" fill="#0F0F0F"/>
</g>
<path d="M62.5128 256.524C59.6923 256.524 57.2778 255.52 55.2692 253.51C53.2607 251.5 52.2564 249.084 52.2564 246.262C52.2564 243.44 53.2607 241.024 55.2692 239.015C57.2778 237.005 59.6923 236 62.5128 236C65.3333 236 67.7479 237.005 69.7564 239.015C71.765 241.024 72.7692 243.44 72.7692 246.262C72.7692 249.084 71.765 251.5 69.7564 253.51C67.7479 255.52 65.3333 256.524 62.5128 256.524ZM47.1282 277.049C45.718 277.049 44.5103 276.546 43.5051 275.54C42.5 274.535 41.9983 273.327 42 271.918V269.865C42 268.412 42.3744 267.075 43.1231 265.855C43.8718 264.636 44.865 263.706 46.1026 263.067C48.7521 261.741 51.4444 260.747 54.1795 260.083C56.9145 259.419 59.6923 259.088 62.5128 259.09C65.3333 259.09 68.1111 259.422 70.8462 260.085C73.5812 260.749 76.2735 261.743 78.9231 263.067C80.1624 263.708 81.1564 264.638 81.9051 265.858C82.6539 267.077 83.0274 268.413 83.0256 269.865V271.918C83.0256 273.329 82.5231 274.537 81.518 275.543C80.5128 276.549 79.306 277.051 77.8974 277.049H47.1282Z" fill="#252835"/>
<path d="M33.036 202.616C34.668 202.616 35.856 202.34 36.6 201.788C37.344 201.236 37.716 200.456 37.716 199.448C37.716 198.848 37.584 198.332 37.32 197.9C37.08 197.468 36.72 197.084 36.24 196.748C35.784 196.388 35.22 196.064 34.548 195.776C33.876 195.464 33.108 195.164 32.244 194.876C31.38 194.564 30.54 194.228 29.724 193.868C28.932 193.484 28.224 193.016 27.6 192.464C27 191.912 26.508 191.252 26.124 190.484C25.764 189.716 25.584 188.792 25.584 187.712C25.584 185.456 26.364 183.692 27.924 182.42C29.484 181.124 31.608 180.476 34.296 180.476C35.856 180.476 37.236 180.656 38.436 181.016C39.66 181.352 40.62 181.724 41.316 182.132L39.912 185.804C39.096 185.348 38.196 185 37.212 184.76C36.252 184.52 35.256 184.4 34.224 184.4C33 184.4 32.04 184.652 31.344 185.156C30.672 185.66 30.336 186.368 30.336 187.28C30.336 187.832 30.444 188.312 30.66 188.72C30.9 189.104 31.224 189.452 31.632 189.764C32.064 190.076 32.556 190.364 33.108 190.628C33.684 190.892 34.308 191.144 34.98 191.384C36.156 191.816 37.2 192.26 38.112 192.716C39.048 193.148 39.828 193.676 40.452 194.3C41.1 194.9 41.592 195.62 41.928 196.46C42.264 197.276 42.432 198.272 42.432 199.448C42.432 201.704 41.628 203.456 40.02 204.704C38.436 205.928 36.108 206.54 33.036 206.54C32.004 206.54 31.056 206.468 30.192 206.324C29.352 206.204 28.596 206.048 27.924 205.856C27.276 205.664 26.712 205.472 26.232 205.28C25.752 205.064 25.368 204.872 25.08 204.704L26.412 200.996C27.06 201.356 27.936 201.716 29.04 202.076C30.144 202.436 31.476 202.616 33.036 202.616ZM52.8374 202.94C54.1814 202.94 55.2014 202.868 55.8974 202.724V197.9C55.6574 197.828 55.3094 197.756 54.8534 197.684C54.3974 197.612 53.8934 197.576 53.3414 197.576C52.8614 197.576 52.3694 197.612 51.8654 197.684C51.3854 197.756 50.9414 197.888 50.5334 198.08C50.1494 198.272 49.8374 198.548 49.5974 198.908C49.3574 199.244 49.2374 199.676 49.2374 200.204C49.2374 201.236 49.5614 201.956 50.2094 202.364C50.8574 202.748 51.7334 202.94 52.8374 202.94ZM52.4774 186.704C53.9174 186.704 55.1294 186.884 56.1134 187.244C57.0974 187.604 57.8774 188.108 58.4534 188.756C59.0534 189.404 59.4734 190.196 59.7134 191.132C59.9774 192.044 60.1094 193.052 60.1094 194.156V205.568C59.4374 205.712 58.4174 205.88 57.0494 206.072C55.7054 206.288 54.1814 206.396 52.4774 206.396C51.3494 206.396 50.3174 206.288 49.3814 206.072C48.4454 205.856 47.6414 205.508 46.9694 205.028C46.3214 204.548 45.8054 203.924 45.4214 203.156C45.0614 202.388 44.8814 201.44 44.8814 200.312C44.8814 199.232 45.0854 198.32 45.4934 197.576C45.9254 196.832 46.5014 196.232 47.2214 195.776C47.9414 195.296 48.7694 194.96 49.7054 194.768C50.6654 194.552 51.6614 194.444 52.6934 194.444C53.1734 194.444 53.6774 194.48 54.2054 194.552C54.7334 194.6 55.2974 194.696 55.8974 194.84V194.12C55.8974 193.616 55.8374 193.136 55.7174 192.68C55.5974 192.224 55.3814 191.828 55.0694 191.492C54.7814 191.132 54.3854 190.856 53.8814 190.664C53.4014 190.472 52.7894 190.376 52.0454 190.376C51.0374 190.376 50.1134 190.448 49.2734 190.592C48.4334 190.736 47.7494 190.904 47.2214 191.096L46.6814 187.568C47.2334 187.376 48.0374 187.184 49.0934 186.992C50.1494 186.8 51.2774 186.704 52.4774 186.704ZM73.1119 178.064C74.1199 178.064 75.0079 178.16 75.7759 178.352C76.5439 178.52 77.1199 178.676 77.5039 178.82L76.6759 182.42C76.2679 182.228 75.7879 182.072 75.2359 181.952C74.7079 181.832 74.1319 181.772 73.5079 181.772C72.8119 181.772 72.2239 181.88 71.7439 182.096C71.2639 182.288 70.8799 182.564 70.5919 182.924C70.3039 183.284 70.0999 183.728 69.9799 184.256C69.8599 184.76 69.7999 185.312 69.7999 185.912V187.172H76.6399V190.808H69.7999V206H65.4439V185.84C65.4439 183.416 66.0799 181.52 67.3519 180.152C68.6239 178.76 70.5439 178.064 73.1119 178.064ZM78.4624 196.676C78.4624 195.02 78.7024 193.568 79.1824 192.32C79.6864 191.072 80.3464 190.04 81.1624 189.224C81.9784 188.384 82.9144 187.76 83.9704 187.352C85.0264 186.92 86.1064 186.704 87.2104 186.704C89.8024 186.704 91.8184 187.508 93.2584 189.116C94.7224 190.724 95.4544 193.124 95.4544 196.316C95.4544 196.556 95.4424 196.832 95.4184 197.144C95.4184 197.432 95.4064 197.696 95.3824 197.936H82.9624C83.0824 199.448 83.6104 200.624 84.5464 201.464C85.5064 202.28 86.8864 202.688 88.6864 202.688C89.7424 202.688 90.7024 202.592 91.5664 202.4C92.4544 202.208 93.1504 202.004 93.6544 201.788L94.2304 205.352C93.9904 205.472 93.6544 205.604 93.2224 205.748C92.8144 205.868 92.3344 205.976 91.7824 206.072C91.2544 206.192 90.6784 206.288 90.0544 206.36C89.4304 206.432 88.7944 206.468 88.1464 206.468C86.4904 206.468 85.0504 206.228 83.8264 205.748C82.6024 205.244 81.5944 204.56 80.8024 203.696C80.0104 202.808 79.4224 201.776 79.0384 200.6C78.6544 199.4 78.4624 198.092 78.4624 196.676ZM91.0984 194.732C91.0984 194.132 91.0144 193.568 90.8464 193.04C90.6784 192.488 90.4264 192.02 90.0904 191.636C89.7784 191.228 89.3824 190.916 88.9024 190.7C88.4464 190.46 87.8944 190.34 87.2464 190.34C86.5744 190.34 85.9864 190.472 85.4824 190.736C84.9784 190.976 84.5464 191.3 84.1864 191.708C83.8504 192.116 83.5864 192.584 83.3944 193.112C83.2024 193.64 83.0704 194.18 82.9984 194.732H91.0984ZM99.8568 182.204L104.213 181.484V187.172H110.909V190.808H104.213V198.476C104.213 199.988 104.453 201.068 104.933 201.716C105.413 202.364 106.229 202.688 107.381 202.688C108.173 202.688 108.869 202.604 109.469 202.436C110.093 202.268 110.585 202.112 110.945 201.968L111.665 205.424C111.161 205.64 110.501 205.856 109.685 206.072C108.869 206.312 107.909 206.432 106.805 206.432C105.461 206.432 104.333 206.252 103.421 205.892C102.533 205.532 101.825 205.016 101.297 204.344C100.769 203.648 100.397 202.82 100.181 201.86C99.9648 200.876 99.8568 199.76 99.8568 198.512V182.204ZM130.492 187.172C128.548 194.324 126.292 200.804 123.724 206.612C123.244 207.692 122.752 208.616 122.248 209.384C121.744 210.152 121.18 210.788 120.556 211.292C119.932 211.796 119.236 212.156 118.468 212.372C117.7 212.612 116.812 212.732 115.804 212.732C115.132 212.732 114.46 212.66 113.788 212.516C113.14 212.372 112.648 212.216 112.312 212.048L113.104 208.556C113.968 208.892 114.82 209.06 115.66 209.06C116.788 209.06 117.664 208.784 118.288 208.232C118.936 207.704 119.5 206.876 119.98 205.748C118.612 203.108 117.292 200.228 116.02 197.108C114.772 193.988 113.656 190.676 112.672 187.172H117.316C117.556 188.18 117.844 189.272 118.18 190.448C118.54 191.624 118.924 192.824 119.332 194.048C119.74 195.248 120.172 196.448 120.628 197.648C121.084 198.848 121.54 199.964 121.996 200.996C122.764 198.86 123.484 196.592 124.156 194.192C124.828 191.768 125.44 189.428 125.992 187.172H130.492Z" fill="#D0D0D0"/>
</g>
<g filter="url(#filter6_d_233_1515)">
<circle cx="316" cy="710" r="24" fill="#D9D9D9"/>
<path d="M316 674.75C296.563 674.75 280.75 690.563 280.75 710C280.75 729.437 296.563 745.25 316 745.25C335.437 745.25 351.25 729.437 351.25 710C351.25 690.563 335.437 674.75 316 674.75ZM332.764 726.764C332.213 727.314 331.466 727.624 330.688 727.624C329.909 727.624 329.162 727.314 328.611 726.764L320.746 718.901C317.423 721.187 313.366 722.149 309.37 721.598C305.375 721.047 301.729 719.023 299.149 715.923C296.569 712.823 295.241 708.87 295.425 704.841C295.609 700.811 297.292 696.996 300.144 694.144C302.996 691.292 306.811 689.609 310.841 689.425C314.87 689.241 318.823 690.569 321.923 693.149C325.023 695.729 327.047 699.375 327.598 703.37C328.149 707.366 327.187 711.423 324.901 714.746L332.764 722.611C333.314 723.162 333.624 723.909 333.624 724.688C333.624 725.466 333.314 726.213 332.764 726.764Z" fill="#252835"/>
<path d="M311.594 715.875C317.272 715.875 321.875 711.272 321.875 705.594C321.875 699.916 317.272 695.312 311.594 695.312C305.916 695.312 301.312 699.916 301.312 705.594C301.312 711.272 305.916 715.875 311.594 715.875Z" fill="#252835"/>
</g>
<g filter="url(#filter7_d_233_1515)">
<path d="M342.95 169.388L336.575 163.088L338.675 160.988C339.25 160.413 339.957 160.125 340.795 160.125C341.633 160.125 342.339 160.413 342.913 160.988L345.013 163.088C345.588 163.663 345.888 164.357 345.913 165.17C345.938 165.983 345.663 166.676 345.088 167.25L342.95 169.388ZM320 187.5C319.575 187.5 319.219 187.356 318.931 187.068C318.643 186.78 318.499 186.424 318.5 186V181.763C318.5 181.563 318.538 181.369 318.613 181.181C318.688 180.993 318.8 180.824 318.95 180.675L334.4 165.225L340.775 171.6L325.325 187.05C325.175 187.2 325.007 187.313 324.82 187.388C324.633 187.463 324.439 187.5 324.238 187.5H320Z" fill="#D9D9D9"/>
</g>
<rect width="375" height="31.9767" transform="translate(0 771)" fill="#0F0F0F"/>
<rect x="121" y="791.985" width="134" height="5" rx="2.5" fill="white"/>
</g>
<defs>
<filter id="filter0_d_233_1515" x="-1" y="52" width="378" height="95" filterUnits="userSpaceOnUse" color-interpolation-filters="sRGB">
<feFlood flood-opacity="0" result="BackgroundImageFix"/>
<feColorMatrix in="SourceAlpha" type="matrix" values="0 0 0 0 0 0 0 0 0 0 0 0 0 0 0 0 0 0 127 0" result="hardAlpha"/>
<feOffset dy="2"/>
<feGaussianBlur stdDeviation="2"/>
<feComposite in2="hardAlpha" operator="out"/>
<feColorMatrix type="matrix" values="0 0 0 0 0 0 0 0 0 0 0 0 0 0 0 0 0 0 0.25 0"/>
<feBlend mode="normal" in2="BackgroundImageFix" result="effect1_dropShadow_233_1515"/>
<feBlend mode="normal" in="SourceGraphic" in2="effect1_dropShadow_233_1515" result="shape"/>
</filter>
<filter id="filter1_d_233_1515" x="152" y="59" width="72" height="77.8929" filterUnits="userSpaceOnUse" color-interpolation-filters="sRGB">
<feFlood flood-opacity="0" result="BackgroundImageFix"/>
<feColorMatrix in="SourceAlpha" type="matrix" values="0 0 0 0 0 0 0 0 0 0 0 0 0 0 0 0 0 0 127 0" result="hardAlpha"/>
<feOffset dy="1"/>
<feGaussianBlur stdDeviation="2"/>
<feComposite in2="hardAlpha" operator="out"/>
<feColorMatrix type="matrix" values="0 0 0 0 0 0 0 0 0 0 0 0 0 0 0 0 0 0 0.25 0"/>
<feBlend mode="normal" in2="BackgroundImageFix" result="effect1_dropShadow_233_1515"/>
<feBlend mode="normal" in="SourceGraphic" in2="effect1_dropShadow_233_1515" result="shape"/>
</filter>
<filter id="filter2_d_233_1515" x="11" y="624.964" width="348" height="131.036" filterUnits="userSpaceOnUse" color-interpolation-filters="sRGB">
<feFlood flood-opacity="0" result="BackgroundImageFix"/>
<feColorMatrix in="SourceAlpha" type="matrix" values="0 0 0 0 0 0 0 0 0 0 0 0 0 0 0 0 0 0 127 0" result="hardAlpha"/>
<feOffset dy="1"/>
<feGaussianBlur stdDeviation="2"/>
<feComposite in2="hardAlpha" operator="out"/>
<feColorMatrix type="matrix" values="0 0 0 0 0 0 0 0 0 0 0 0 0 0 0 0 0 0 0.25 0"/>
<feBlend mode="normal" in2="BackgroundImageFix" result="effect1_dropShadow_233_1515"/>
<feBlend mode="normal" in="SourceGraphic" in2="effect1_dropShadow_233_1515" result="shape"/>
</filter>
<filter id="filter3_d_233_1515" x="11" y="474.064" width="348" height="131.936" filterUnits="userSpaceOnUse" color-interpolation-filters="sRGB">
<feFlood flood-opacity="0" result="BackgroundImageFix"/>
<feColorMatrix in="SourceAlpha" type="matrix" values="0 0 0 0 0 0 0 0 0 0 0 0 0 0 0 0 0 0 127 0" result="hardAlpha"/>
<feOffset dy="1"/>
<feGaussianBlur stdDeviation="2"/>
<feComposite in2="hardAlpha" operator="out"/>
<feColorMatrix type="matrix" values="0 0 0 0 0 0 0 0 0 0 0 0 0 0 0 0 0 0 0.25 0"/>
<feBlend mode="normal" in2="BackgroundImageFix" result="effect1_dropShadow_233_1515"/>
<feBlend mode="normal" in="SourceGraphic" in2="effect1_dropShadow_233_1515" result="shape"/>
</filter>
<filter id="filter4_d_233_1515" x="11" y="328.064" width="348" height="131.936" filterUnits="userSpaceOnUse" color-interpolation-filters="sRGB">
<feFlood flood-opacity="0" result="BackgroundImageFix"/>
<feColorMatrix in="SourceAlpha" type="matrix" values="0 0 0 0 0 0 0 0 0 0 0 0 0 0 0 0 0 0 127 0" result="hardAlpha"/>
<feOffset dy="1"/>
<feGaussianBlur stdDeviation="2"/>
<feComposite in2="hardAlpha" operator="out"/>
<feColorMatrix type="matrix" values="0 0 0 0 0 0 0 0 0 0 0 0 0 0 0 0 0 0 0.25 0"/>
<feBlend mode="normal" in2="BackgroundImageFix" result="effect1_dropShadow_233_1515"/>
<feBlend mode="normal" in="SourceGraphic" in2="effect1_dropShadow_233_1515" result="shape"/>
</filter>
<filter id="filter5_d_233_1515" x="8" y="175.064" width="348" height="130.936" filterUnits="userSpaceOnUse" color-interpolation-filters="sRGB">
<feFlood flood-opacity="0" result="BackgroundImageFix"/>
<feColorMatrix in="SourceAlpha" type="matrix" values="0 0 0 0 0 0 0 0 0 0 0 0 0 0 0 0 0 0 127 0" result="hardAlpha"/>
<feOffset dy="1"/>
<feGaussianBlur stdDeviation="2"/>
<feComposite in2="hardAlpha" operator="out"/>
<feColorMatrix type="matrix" values="0 0 0 0 0 0 0 0 0 0 0 0 0 0 0 0 0 0 0.25 0"/>
<feBlend mode="normal" in2="BackgroundImageFix" result="effect1_dropShadow_233_1515"/>
<feBlend mode="normal" in="SourceGraphic" in2="effect1_dropShadow_233_1515" result="shape"/>
</filter>
<filter id="filter6_d_233_1515" x="265" y="663" width="102" height="102" filterUnits="userSpaceOnUse" color-interpolation-filters="sRGB">
<feFlood flood-opacity="0" result="BackgroundImageFix"/>
<feColorMatrix in="SourceAlpha" type="matrix" values="0 0 0 0 0 0 0 0 0 0 0 0 0 0 0 0 0 0 127 0" result="hardAlpha"/>
<feOffset dy="4"/>
<feGaussianBlur stdDeviation="2"/>
<feComposite in2="hardAlpha" operator="out"/>
<feColorMatrix type="matrix" values="0 0 0 0 0 0 0 0 0 0 0 0 0 0 0 0 0 0 0.25 0"/>
<feBlend mode="normal" in2="BackgroundImageFix" result="effect1_dropShadow_233_1515"/>
<feBlend mode="normal" in="SourceGraphic" in2="effect1_dropShadow_233_1515" result="shape"/>
</filter>
<filter id="filter7_d_233_1515" x="310" y="153" width="44" height="44" filterUnits="userSpaceOnUse" color-interpolation-filters="sRGB">
<feFlood flood-opacity="0" result="BackgroundImageFix"/>
<feColorMatrix in="SourceAlpha" type="matrix" values="0 0 0 0 0 0 0 0 0 0 0 0 0 0 0 0 0 0 127 0" result="hardAlpha"/>
<feOffset dy="1"/>
<feGaussianBlur stdDeviation="2"/>
<feComposite in2="hardAlpha" operator="out"/>
<feColorMatrix type="matrix" values="0 0 0 0 0 0 0 0 0 0 0 0 0 0 0 0 0 0 0.25 0"/>
<feBlend mode="normal" in2="BackgroundImageFix" result="effect1_dropShadow_233_1515"/>
<feBlend mode="normal" in="SourceGraphic" in2="effect1_dropShadow_233_1515" result="shape"/>
</filter>
<clipPath id="clip0_233_1515">
<rect width="375" height="812" fill="white"/>
</clipPath>
</defs>
</svg>
