<svg width="390" height="844" viewBox="0 0 390 844" fill="none" xmlns="http://www.w3.org/2000/svg">
<rect width="390" height="844" fill="#F5F5F5"/>
<rect x="10" y="72" width="370" height="87" rx="16" fill="#D0D0D0"/>
<path d="M338.929 119.967C337.788 123.691 335.503 126.96 332.397 129.309C329.671 131.361 326.427 132.613 323.029 132.924C319.63 133.234 316.213 132.592 313.16 131.067C310.107 129.543 307.539 127.198 305.744 124.295C303.949 121.392 302.999 118.047 303 114.634C302.988 110.65 304.283 106.772 306.686 103.595C309.034 100.489 312.303 98.2032 316.025 97.0625C316.271 96.987 316.532 96.9797 316.781 97.0416C317.03 97.1035 317.258 97.2321 317.439 97.4137C317.621 97.5953 317.75 97.8229 317.811 98.0721C317.873 98.3213 317.866 98.5827 317.791 98.8281C316.977 101.521 316.908 104.385 317.593 107.114C318.278 109.843 319.69 112.335 321.679 114.325C323.668 116.314 326.16 117.727 328.888 118.412C331.617 119.097 334.48 119.028 337.172 118.214C337.418 118.139 337.679 118.131 337.928 118.193C338.177 118.255 338.405 118.384 338.586 118.565C338.768 118.747 338.897 118.975 338.958 119.224C339.02 119.473 339.013 119.734 338.937 119.98L338.929 119.967Z" fill="#252835"/>
<path d="M53.9583 127.5C53.4035 127.5 52.938 127.312 52.562 126.936C52.186 126.56 51.9987 126.095 52 125.542C52 124.987 52.188 124.521 52.564 124.145C52.94 123.769 53.4048 123.582 53.9583 123.583H85.2917C85.8465 123.583 86.312 123.771 86.688 124.147C87.064 124.523 87.2513 124.988 87.25 125.542C87.25 126.097 87.062 126.562 86.686 126.938C86.31 127.314 85.8452 127.501 85.2917 127.5H53.9583ZM53.9583 117.708C53.4035 117.708 52.938 117.52 52.562 117.144C52.186 116.768 51.9987 116.304 52 115.75C52 115.195 52.188 114.73 52.564 114.354C52.94 113.978 53.4048 113.79 53.9583 113.792H85.2917C85.8465 113.792 86.312 113.98 86.688 114.356C87.064 114.732 87.2513 115.196 87.25 115.75C87.25 116.305 87.062 116.77 86.686 117.146C86.31 117.522 85.8452 117.71 85.2917 117.708H53.9583ZM53.9583 107.917C53.4035 107.917 52.938 107.729 52.562 107.353C52.186 106.977 51.9987 106.512 52 105.958C52 105.403 52.188 104.938 52.564 104.562C52.94 104.186 53.4048 103.999 53.9583 104H85.2917C85.8465 104 86.312 104.188 86.688 104.564C87.064 104.94 87.2513 105.405 87.25 105.958C87.25 106.513 87.062 106.979 86.686 107.355C86.31 107.731 85.8452 107.918 85.2917 107.917H53.9583Z" fill="#0F0F0F"/>
<path d="M214.587 115.34C214.385 115.222 214.162 115.11 213.932 115C214.162 114.89 214.385 114.777 214.587 114.66C215.734 114.008 216.74 113.136 217.548 112.094C218.356 111.051 218.95 109.86 219.296 108.587C219.641 107.314 219.732 105.986 219.562 104.678C219.392 103.37 218.965 102.109 218.305 100.967C217.646 99.8246 216.767 98.8242 215.719 98.0231C214.672 97.222 213.476 96.6361 212.201 96.299C210.926 95.9619 209.597 95.8803 208.29 96.059C206.984 96.2377 205.725 96.673 204.587 97.34C204.385 97.4575 204.175 97.59 203.967 97.7375C203.987 97.4875 204 97.2375 204 96.9875C204 94.3353 202.946 91.7918 201.071 89.9164C199.196 88.0411 196.652 86.9875 194 86.9875C191.348 86.9875 188.804 88.0411 186.929 89.9164C185.054 91.7918 184 94.3353 184 96.9875C184 97.2225 184 97.4725 184.032 97.7375C183.825 97.595 183.615 97.4575 183.412 97.34C182.275 96.673 181.016 96.2377 179.71 96.059C178.403 95.8803 177.074 95.9619 175.799 96.299C174.524 96.6361 173.328 97.222 172.281 98.0231C171.233 98.8242 170.354 99.8246 169.695 100.967C169.035 102.109 168.608 103.37 168.438 104.678C168.268 105.986 168.359 107.314 168.704 108.587C169.05 109.86 169.644 111.051 170.452 112.094C171.26 113.136 172.266 114.008 173.412 114.66C173.615 114.777 173.837 114.89 174.067 115C173.837 115.11 173.615 115.222 173.412 115.34C172.266 115.992 171.26 116.864 170.452 117.906C169.644 118.949 169.05 120.14 168.704 121.413C168.359 122.686 168.268 124.014 168.438 125.322C168.608 126.63 169.035 127.891 169.695 129.033C170.354 130.175 171.233 131.176 172.281 131.977C173.328 132.778 174.524 133.364 175.799 133.701C177.074 134.038 178.403 134.12 179.71 133.941C181.016 133.762 182.275 133.327 183.412 132.66C183.615 132.542 183.825 132.41 184.032 132.262C184.012 132.512 184 132.762 184 133C184 135.652 185.054 138.196 186.929 140.071C188.804 141.946 191.348 143 194 143C196.652 143 199.196 141.946 201.071 140.071C202.946 138.196 204 135.652 204 133C204 132.765 203.987 132.515 203.967 132.262C204.175 132.405 204.385 132.542 204.587 132.66C206.102 133.538 207.822 134 209.572 134C210.452 133.999 211.328 133.883 212.177 133.655C214.088 133.143 215.804 132.076 217.108 130.589C218.412 129.102 219.245 127.261 219.503 125.3C219.761 123.339 219.432 121.346 218.557 119.572C217.682 117.798 216.301 116.324 214.587 115.335V115.34ZM188 115C188 113.813 188.352 112.653 189.011 111.667C189.67 110.68 190.608 109.911 191.704 109.457C192.8 109.003 194.007 108.884 195.171 109.115C196.334 109.347 197.404 109.918 198.243 110.757C199.082 111.596 199.653 112.666 199.885 113.829C200.116 114.993 199.997 116.2 199.543 117.296C199.089 118.392 198.32 119.33 197.333 119.989C196.347 120.648 195.187 121 194 121C192.409 121 190.883 120.368 189.757 119.243C188.632 118.117 188 116.591 188 115ZM206.587 100.802C207.27 100.409 208.023 100.153 208.804 100.05C209.586 99.9471 210.379 99.9992 211.14 100.203C211.902 100.407 212.615 100.759 213.24 101.239C213.865 101.718 214.39 102.316 214.784 102.999C215.178 103.681 215.433 104.434 215.536 105.216C215.639 105.997 215.587 106.791 215.383 107.552C215.179 108.313 214.827 109.026 214.348 109.651C213.868 110.277 213.27 110.801 212.587 111.195C211.02 112.102 207.935 112.727 203.797 112.992C203.361 110.876 202.251 108.958 200.632 107.525C202.932 104.07 205.02 101.71 206.587 100.802ZM194 91C195.591 91 197.117 91.6321 198.243 92.7573C199.368 93.8826 200 95.4087 200 97C200 98.81 199 101.797 197.16 105.515C195.109 104.828 192.891 104.828 190.84 105.515C189 101.797 188 98.81 188 97C188 95.4087 188.632 93.8826 189.757 92.7573C190.883 91.6321 192.409 91 194 91ZM173.215 103C173.609 102.317 174.133 101.719 174.758 101.239C175.384 100.759 176.097 100.407 176.858 100.203C177.62 99.9989 178.414 99.9469 179.195 100.05C179.977 100.153 180.73 100.408 181.412 100.802C182.98 101.71 185.067 104.07 187.367 107.525C185.748 108.96 184.637 110.881 184.202 113C180.065 112.735 176.98 112.11 175.412 111.205C174.729 110.811 174.13 110.286 173.649 109.661C173.168 109.035 172.816 108.32 172.612 107.558C172.408 106.796 172.356 106.001 172.459 105.219C172.563 104.437 172.82 103.683 173.215 103ZM181.412 129.197C180.034 129.993 178.397 130.209 176.86 129.797C175.322 129.385 174.012 128.379 173.216 127.001C172.421 125.623 172.205 123.985 172.617 122.448C173.029 120.911 174.034 119.601 175.412 118.805C176.98 117.897 180.065 117.272 184.202 117.007C184.639 119.124 185.749 121.042 187.367 122.475C185.067 125.93 182.98 128.29 181.412 129.197ZM194 139C192.409 139 190.883 138.368 189.757 137.243C188.632 136.117 188 134.591 188 133C188 131.19 189 128.202 190.84 124.485C192.891 125.172 195.109 125.172 197.16 124.485C199 128.202 200 131.19 200 133C200 134.591 199.368 136.117 198.243 137.243C197.117 138.368 195.591 139 194 139ZM214.785 127C214.391 127.683 213.867 128.281 213.241 128.761C212.616 129.241 211.903 129.593 211.141 129.797C210.38 130.001 209.586 130.053 208.805 129.95C208.023 129.847 207.27 129.592 206.587 129.197C205.02 128.29 202.932 125.93 200.632 122.475C202.252 121.04 203.363 119.119 203.797 117C207.935 117.265 211.02 117.89 212.587 118.795C213.271 119.189 213.87 119.714 214.351 120.339C214.832 120.965 215.184 121.68 215.388 122.442C215.592 123.204 215.644 123.999 215.541 124.781C215.437 125.563 215.18 126.317 214.785 127Z" fill="#252835"/>
<rect width="390" height="45.7653" fill="#F5F5F5"/>
<path fill-rule="evenodd" clip-rule="evenodd" d="M319 20H320C320.552 20 321 20.4477 321 21V27C321 27.5523 320.552 28 320 28H319C318.448 28 318 27.5523 318 27V21C318 20.4477 318.448 20 319 20Z" fill="#F9F9F9"/>
<path fill-rule="evenodd" clip-rule="evenodd" d="M314.5 22H315.5C316.052 22 316.5 22.4477 316.5 23V27C316.5 27.5523 316.052 28 315.5 28H314.5C313.948 28 313.5 27.5523 313.5 27V23C313.5 22.4477 313.948 22 314.5 22Z" fill="#F9F9F9"/>
<path fill-rule="evenodd" clip-rule="evenodd" d="M310 23.5H311C311.552 23.5 312 23.9477 312 24.5V27C312 27.5523 311.552 28 311 28H310C309.448 28 309 27.5523 309 27V24.5C309 23.9477 309.448 23.5 310 23.5Z" fill="#F9F9F9"/>
<path fill-rule="evenodd" clip-rule="evenodd" d="M323.5 18H324.5C325.052 18 325.5 18.4477 325.5 19V27C325.5 27.5523 325.052 28 324.5 28H323.5C322.948 28 322.5 27.5523 322.5 27V19C322.5 18.4477 322.948 18 323.5 18Z" fill="#3C3C43" fill-opacity="0.18"/>
<path fill-rule="evenodd" clip-rule="evenodd" d="M319 20H320C320.552 20 321 20.4477 321 21V27C321 27.5523 320.552 28 320 28H319C318.448 28 318 27.5523 318 27V21C318 20.4477 318.448 20 319 20Z" fill="black"/>
<path fill-rule="evenodd" clip-rule="evenodd" d="M314.5 22H315.5C316.052 22 316.5 22.4477 316.5 23V27C316.5 27.5523 316.052 28 315.5 28H314.5C313.948 28 313.5 27.5523 313.5 27V23C313.5 22.4477 313.948 22 314.5 22Z" fill="black"/>
<path fill-rule="evenodd" clip-rule="evenodd" d="M310 23.5H311C311.552 23.5 312 23.9477 312 24.5V27C312 27.5523 311.552 28 311 28H310C309.448 28 309 27.5523 309 27V24.5C309 23.9477 309.448 23.5 310 23.5Z" fill="black"/>
<path d="M339.133 24.9396C339.772 24.9396 340.394 25.1076 340.941 25.428L341.163 25.5579C341.331 25.6563 341.361 25.8866 341.223 26.0242L339.329 27.913C339.212 28.029 339.024 28.029 338.907 27.913L337.026 26.0363C336.888 25.8994 336.917 25.6702 337.084 25.5711L337.303 25.4406C337.855 25.1121 338.485 24.9396 339.133 24.9396Z" fill="black"/>
<path d="M339.133 21.4698C340.724 21.4698 342.251 21.9976 343.495 22.9749L343.671 23.113C343.811 23.2232 343.824 23.4306 343.697 23.5565L342.567 24.6841C342.462 24.7884 342.297 24.8004 342.178 24.7123L342.04 24.6098C341.2 23.9852 340.186 23.6502 339.133 23.6502C338.073 23.6502 337.053 23.9894 336.21 24.6211L336.072 24.7245C335.953 24.8134 335.787 24.8017 335.682 24.6971L334.552 23.5699C334.426 23.4443 334.438 23.2373 334.578 23.127L334.753 22.9888C336 22.0027 337.534 21.4698 339.133 21.4698Z" fill="black"/>
<path d="M339.133 18C341.657 18 344.072 18.8906 345.983 20.5229L346.146 20.6623C346.278 20.7749 346.285 20.9756 346.163 21.098L345.036 22.2219C344.926 22.3308 344.752 22.3385 344.634 22.2395L344.494 22.1228C342.989 20.8647 341.104 20.1804 339.133 20.1804C337.155 20.1804 335.263 20.8694 333.756 22.1354L333.617 22.2527C333.498 22.3521 333.324 22.3447 333.214 22.2356L332.087 21.1118C331.965 20.9895 331.972 20.7892 332.104 20.6765L332.266 20.5371C334.18 18.8959 336.601 18 339.133 18Z" fill="black"/>
<path d="M375 21C375.552 21 376 21.4477 376 22V24C376 24.5523 375.552 25 375 25V21Z" fill="#3C3C43" fill-opacity="0.6"/>
<path fill-rule="evenodd" clip-rule="evenodd" d="M354 17H371C372.657 17 374 18.3431 374 20V26C374 27.6569 372.657 29 371 29H354C352.343 29 351 27.6569 351 26V20C351 18.3431 352.343 17 354 17ZM354 18C352.895 18 352 18.8954 352 20V26C352 27.1046 352.895 28 354 28H371C372.105 28 373 27.1046 373 26V20C373 18.8954 372.105 18 371 18H354Z" fill="#3C3C43" fill-opacity="0.6"/>
<rect x="353" y="19" width="19" height="8" rx="1" fill="black"/>
<path d="M37.8672 28.0889C40.5552 28.0889 42.1519 25.9868 42.1519 22.4272C42.1519 21.0869 41.8955 19.959 41.4048 19.0874C40.6943 17.7324 39.4712 17 37.9258 17C35.626 17 34 18.5454 34 20.7134C34 22.7495 35.4648 24.229 37.479 24.229C38.7168 24.229 39.7202 23.6504 40.2183 22.647H40.2402C40.2402 22.647 40.2695 22.647 40.2769 22.647C40.2915 22.647 40.3428 22.647 40.3428 22.647C40.3428 25.064 39.4272 26.5068 37.8818 26.5068C36.9736 26.5068 36.2705 26.0088 36.0288 25.2104H34.1465C34.4614 26.9463 35.9336 28.0889 37.8672 28.0889ZM37.9331 22.7275C36.7173 22.7275 35.853 21.8633 35.853 20.6548C35.853 19.4756 36.7612 18.5747 37.9404 18.5747C39.1196 18.5747 40.0278 19.4902 40.0278 20.6841C40.0278 21.8633 39.1416 22.7275 37.9331 22.7275Z" fill="black"/>
<path d="M45.243 27.9863C45.9388 27.9863 46.4148 27.4883 46.4148 26.8291C46.4148 26.1626 45.9388 25.6719 45.243 25.6719C44.5545 25.6719 44.0711 26.1626 44.0711 26.8291C44.0711 27.4883 44.5545 27.9863 45.243 27.9863ZM45.243 22.4932C45.9388 22.4932 46.4148 22.0024 46.4148 21.3433C46.4148 20.6768 45.9388 20.186 45.243 20.186C44.5545 20.186 44.0711 20.6768 44.0711 21.3433C44.0711 22.0024 44.5545 22.4932 45.243 22.4932Z" fill="black"/>
<path d="M53.2706 27.8325H55.0797V25.8623H56.5079V24.2656H55.0797V17.2637H52.4137C50.546 20.0762 49.0592 22.4272 48.107 24.1777V25.8623H53.2706V27.8325ZM49.8575 24.1997C51.088 22.0317 52.1866 20.2959 53.1974 18.8018H53.2999V24.3096H49.8575V24.1997Z" fill="black"/>
<path d="M60.5365 27.8325H62.4262V17.2637H60.5438L57.7826 19.1973V21.0137L60.412 19.168H60.5365V27.8325Z" fill="black"/>
<path d="M39.076 655.54C37.204 655.54 35.524 655.252 34.036 654.676C32.548 654.1 31.288 653.26 30.256 652.156C29.224 651.028 28.432 649.66 27.88 648.052C27.328 646.444 27.052 644.596 27.052 642.508C27.052 640.42 27.364 638.572 27.988 636.964C28.636 635.356 29.512 634 30.616 632.896C31.72 631.768 33.016 630.916 34.504 630.34C35.992 629.764 37.588 629.476 39.292 629.476C40.324 629.476 41.26 629.56 42.1 629.728C42.94 629.872 43.672 630.04 44.296 630.232C44.92 630.424 45.436 630.628 45.844 630.844C46.252 631.06 46.54 631.216 46.708 631.312L45.376 635.02C44.8 634.66 43.972 634.324 42.892 634.012C41.836 633.676 40.684 633.508 39.436 633.508C38.356 633.508 37.348 633.7 36.412 634.084C35.476 634.444 34.66 634.996 33.964 635.74C33.292 636.484 32.764 637.42 32.38 638.548C31.996 639.676 31.804 640.984 31.804 642.472C31.804 643.792 31.948 645.004 32.236 646.108C32.548 647.212 33.016 648.172 33.64 648.988C34.264 649.78 35.056 650.404 36.016 650.86C36.976 651.292 38.128 651.508 39.472 651.508C41.08 651.508 42.388 651.352 43.396 651.04C44.404 650.704 45.184 650.392 45.736 650.104L46.96 653.812C46.672 654.004 46.276 654.196 45.772 654.388C45.292 654.58 44.716 654.772 44.044 654.964C43.372 655.132 42.616 655.264 41.776 655.36C40.936 655.48 40.036 655.54 39.076 655.54ZM55.121 655H50.765V636.172H55.121V655ZM55.589 630.664C55.589 631.48 55.325 632.128 54.797 632.608C54.269 633.088 53.645 633.328 52.925 633.328C52.181 633.328 51.545 633.088 51.017 632.608C50.489 632.128 50.225 631.48 50.225 630.664C50.225 629.824 50.489 629.164 51.017 628.684C51.545 628.204 52.181 627.964 52.925 627.964C53.645 627.964 54.269 628.204 54.797 628.684C55.325 629.164 55.589 629.824 55.589 630.664ZM65.5023 655C64.3023 652.528 63.0663 649.696 61.7943 646.504C60.5463 643.288 59.4063 639.844 58.3743 636.172H63.0183C63.2823 637.228 63.5823 638.368 63.9183 639.592C64.2783 640.792 64.6503 642.004 65.0343 643.228C65.4423 644.428 65.8503 645.604 66.2583 646.756C66.6903 647.884 67.0863 648.904 67.4463 649.816C67.8063 648.904 68.1903 647.884 68.5983 646.756C69.0063 645.604 69.4023 644.428 69.7863 643.228C70.1943 642.004 70.5783 640.792 70.9383 639.592C71.2983 638.368 71.6103 637.228 71.8743 636.172H76.3743C75.3423 639.844 74.1903 643.288 72.9183 646.504C71.6703 649.696 70.4463 652.528 69.2463 655H65.5023ZM84.0195 655H79.6635V636.172H84.0195V655ZM84.4875 630.664C84.4875 631.48 84.2235 632.128 83.6955 632.608C83.1675 633.088 82.5435 633.328 81.8235 633.328C81.0795 633.328 80.4435 633.088 79.9155 632.608C79.3875 632.128 79.1235 631.48 79.1235 630.664C79.1235 629.824 79.3875 629.164 79.9155 628.684C80.4435 628.204 81.0795 627.964 81.8235 627.964C82.5435 627.964 83.1675 628.204 83.6955 628.684C84.2235 629.164 84.4875 629.824 84.4875 630.664ZM88.5327 645.604C88.5327 644.212 88.7487 642.916 89.1807 641.716C89.6127 640.492 90.2247 639.436 91.0167 638.548C91.8327 637.66 92.8167 636.964 93.9687 636.46C95.1207 635.956 96.4167 635.704 97.8567 635.704C99.6327 635.704 101.313 636.028 102.897 636.676L101.961 640.24C101.457 640.024 100.881 639.844 100.233 639.7C99.6087 639.556 98.9367 639.484 98.2167 639.484C96.5127 639.484 95.2167 640.024 94.3287 641.104C93.4407 642.16 92.9967 643.66 92.9967 645.604C92.9967 647.476 93.4167 648.964 94.2567 650.068C95.0967 651.148 96.5127 651.688 98.5047 651.688C99.2487 651.688 99.9807 651.616 100.701 651.472C101.421 651.328 102.045 651.148 102.573 650.932L103.185 654.532C102.705 654.772 101.973 654.988 100.989 655.18C100.029 655.372 99.0327 655.468 98.0007 655.468C96.3927 655.468 94.9887 655.228 93.7887 654.748C92.6127 654.244 91.6287 653.56 90.8367 652.696C90.0687 651.808 89.4927 650.764 89.1087 649.564C88.7247 648.34 88.5327 647.02 88.5327 645.604ZM115.176 655V630.052H131.195V633.904H119.712V640.06H129.936V643.84H119.712V651.148H132.06V655H115.176ZM136.053 636.784C136.893 636.544 137.985 636.316 139.329 636.1C140.673 635.884 142.161 635.776 143.793 635.776C145.329 635.776 146.613 635.992 147.645 636.424C148.677 636.832 149.493 637.42 150.093 638.188C150.717 638.932 151.149 639.844 151.389 640.924C151.653 641.98 151.785 643.144 151.785 644.416V655H147.429V645.1C147.429 644.092 147.357 643.24 147.213 642.544C147.093 641.824 146.877 641.248 146.565 640.816C146.277 640.36 145.869 640.036 145.341 639.844C144.837 639.628 144.213 639.52 143.469 639.52C142.917 639.52 142.341 639.556 141.741 639.628C141.141 639.7 140.697 639.76 140.409 639.808V655H136.053V636.784ZM160.532 645.1C160.532 646.948 160.928 648.304 161.72 649.168C162.536 650.008 163.58 650.428 164.852 650.428C165.548 650.428 166.196 650.332 166.796 650.14C167.42 649.948 167.924 649.72 168.308 649.456V639.7C167.996 639.628 167.612 639.568 167.156 639.52C166.7 639.448 166.124 639.412 165.428 639.412C163.844 639.412 162.632 639.94 161.792 640.996C160.952 642.028 160.532 643.396 160.532 645.1ZM172.664 653.092C172.664 656.092 171.896 658.288 170.36 659.68C168.848 661.072 166.52 661.768 163.376 661.768C162.224 661.768 161.096 661.672 159.992 661.48C158.912 661.288 157.928 661.036 157.04 660.724L157.832 657.016C158.576 657.328 159.416 657.58 160.352 657.772C161.312 657.964 162.344 658.06 163.448 658.06C165.2 658.06 166.448 657.7 167.192 656.98C167.936 656.26 168.308 655.192 168.308 653.776V653.056C167.876 653.272 167.3 653.488 166.58 653.704C165.884 653.92 165.08 654.028 164.168 654.028C162.968 654.028 161.864 653.836 160.856 653.452C159.872 653.068 159.02 652.504 158.3 651.76C157.604 651.016 157.052 650.092 156.644 648.988C156.26 647.86 156.068 646.564 156.068 645.1C156.068 643.732 156.272 642.472 156.68 641.32C157.112 640.168 157.724 639.184 158.516 638.368C159.332 637.552 160.316 636.916 161.468 636.46C162.62 636.004 163.928 635.776 165.392 635.776C166.808 635.776 168.152 635.884 169.424 636.1C170.696 636.316 171.776 636.544 172.664 636.784V653.092ZM184.83 651.94C186.174 651.94 187.194 651.868 187.89 651.724V646.9C187.65 646.828 187.302 646.756 186.846 646.684C186.39 646.612 185.886 646.576 185.334 646.576C184.854 646.576 184.362 646.612 183.858 646.684C183.378 646.756 182.934 646.888 182.526 647.08C182.142 647.272 181.83 647.548 181.59 647.908C181.35 648.244 181.23 648.676 181.23 649.204C181.23 650.236 181.554 650.956 182.202 651.364C182.85 651.748 183.726 651.94 184.83 651.94ZM184.47 635.704C185.91 635.704 187.122 635.884 188.106 636.244C189.09 636.604 189.87 637.108 190.446 637.756C191.046 638.404 191.466 639.196 191.706 640.132C191.97 641.044 192.102 642.052 192.102 643.156V654.568C191.43 654.712 190.41 654.88 189.042 655.072C187.698 655.288 186.174 655.396 184.47 655.396C183.342 655.396 182.31 655.288 181.374 655.072C180.438 654.856 179.634 654.508 178.962 654.028C178.314 653.548 177.798 652.924 177.414 652.156C177.054 651.388 176.874 650.44 176.874 649.312C176.874 648.232 177.078 647.32 177.486 646.576C177.918 645.832 178.494 645.232 179.214 644.776C179.934 644.296 180.762 643.96 181.698 643.768C182.658 643.552 183.654 643.444 184.686 643.444C185.166 643.444 185.67 643.48 186.198 643.552C186.726 643.6 187.29 643.696 187.89 643.84V643.12C187.89 642.616 187.83 642.136 187.71 641.68C187.59 641.224 187.374 640.828 187.062 640.492C186.774 640.132 186.378 639.856 185.874 639.664C185.394 639.472 184.782 639.376 184.038 639.376C183.03 639.376 182.106 639.448 181.266 639.592C180.426 639.736 179.742 639.904 179.214 640.096L178.674 636.568C179.226 636.376 180.03 636.184 181.086 635.992C182.142 635.8 183.27 635.704 184.47 635.704ZM200.856 645.1C200.856 646.948 201.252 648.304 202.044 649.168C202.86 650.008 203.904 650.428 205.176 650.428C205.872 650.428 206.52 650.332 207.12 650.14C207.744 649.948 208.248 649.72 208.632 649.456V639.7C208.32 639.628 207.936 639.568 207.48 639.52C207.024 639.448 206.448 639.412 205.752 639.412C204.168 639.412 202.956 639.94 202.116 640.996C201.276 642.028 200.856 643.396 200.856 645.1ZM212.988 653.092C212.988 656.092 212.22 658.288 210.684 659.68C209.172 661.072 206.844 661.768 203.7 661.768C202.548 661.768 201.42 661.672 200.316 661.48C199.236 661.288 198.252 661.036 197.364 660.724L198.156 657.016C198.9 657.328 199.74 657.58 200.676 657.772C201.636 657.964 202.668 658.06 203.772 658.06C205.524 658.06 206.772 657.7 207.516 656.98C208.26 656.26 208.632 655.192 208.632 653.776V653.056C208.2 653.272 207.624 653.488 206.904 653.704C206.208 653.92 205.404 654.028 204.492 654.028C203.292 654.028 202.188 653.836 201.18 653.452C200.196 653.068 199.344 652.504 198.624 651.76C197.928 651.016 197.376 650.092 196.968 648.988C196.584 647.86 196.392 646.564 196.392 645.1C196.392 643.732 196.596 642.472 197.004 641.32C197.436 640.168 198.048 639.184 198.84 638.368C199.656 637.552 200.64 636.916 201.792 636.46C202.944 636.004 204.252 635.776 205.716 635.776C207.132 635.776 208.476 635.884 209.748 636.1C211.02 636.316 212.1 636.544 212.988 636.784V653.092ZM217.486 645.676C217.486 644.02 217.726 642.568 218.206 641.32C218.71 640.072 219.37 639.04 220.186 638.224C221.002 637.384 221.938 636.76 222.994 636.352C224.05 635.92 225.13 635.704 226.234 635.704C228.826 635.704 230.842 636.508 232.282 638.116C233.746 639.724 234.478 642.124 234.478 645.316C234.478 645.556 234.466 645.832 234.442 646.144C234.442 646.432 234.43 646.696 234.406 646.936H221.986C222.106 648.448 222.634 649.624 223.57 650.464C224.53 651.28 225.91 651.688 227.71 651.688C228.766 651.688 229.726 651.592 230.59 651.4C231.478 651.208 232.174 651.004 232.678 650.788L233.254 654.352C233.014 654.472 232.678 654.604 232.246 654.748C231.838 654.868 231.358 654.976 230.806 655.072C230.278 655.192 229.702 655.288 229.078 655.36C228.454 655.432 227.818 655.468 227.17 655.468C225.514 655.468 224.074 655.228 222.85 654.748C221.626 654.244 220.618 653.56 219.826 652.696C219.034 651.808 218.446 650.776 218.062 649.6C217.678 648.4 217.486 647.092 217.486 645.676ZM230.122 643.732C230.122 643.132 230.038 642.568 229.87 642.04C229.702 641.488 229.45 641.02 229.114 640.636C228.802 640.228 228.406 639.916 227.926 639.7C227.47 639.46 226.918 639.34 226.27 639.34C225.598 639.34 225.01 639.472 224.506 639.736C224.002 639.976 223.57 640.3 223.21 640.708C222.874 641.116 222.61 641.584 222.418 642.112C222.226 642.64 222.094 643.18 222.022 643.732H230.122ZM249.824 645.1C249.824 643.132 249.572 641.716 249.068 640.852C248.588 639.964 247.676 639.52 246.332 639.52C245.852 639.52 245.324 639.556 244.748 639.628C244.172 639.7 243.74 639.76 243.452 639.808V655H239.096V636.784C239.936 636.544 241.028 636.316 242.372 636.1C243.74 635.884 245.18 635.776 246.692 635.776C247.988 635.776 249.044 635.944 249.86 636.28C250.7 636.616 251.396 637.06 251.948 637.612C252.212 637.42 252.548 637.216 252.956 637C253.364 636.784 253.82 636.592 254.324 636.424C254.828 636.232 255.356 636.076 255.908 635.956C256.484 635.836 257.06 635.776 257.636 635.776C259.1 635.776 260.3 635.992 261.236 636.424C262.196 636.832 262.94 637.42 263.468 638.188C264.02 638.932 264.392 639.844 264.584 640.924C264.8 641.98 264.908 643.144 264.908 644.416V655H260.552V645.1C260.552 643.132 260.312 641.716 259.832 640.852C259.352 639.964 258.428 639.52 257.06 639.52C256.364 639.52 255.704 639.64 255.08 639.88C254.456 640.096 253.988 640.312 253.676 640.528C253.868 641.128 254 641.764 254.072 642.436C254.144 643.108 254.18 643.828 254.18 644.596V655H249.824V645.1ZM269.201 645.676C269.201 644.02 269.441 642.568 269.921 641.32C270.425 640.072 271.085 639.04 271.901 638.224C272.717 637.384 273.653 636.76 274.709 636.352C275.765 635.92 276.845 635.704 277.949 635.704C280.541 635.704 282.557 636.508 283.997 638.116C285.461 639.724 286.193 642.124 286.193 645.316C286.193 645.556 286.181 645.832 286.157 646.144C286.157 646.432 286.145 646.696 286.121 646.936H273.701C273.821 648.448 274.349 649.624 275.285 650.464C276.245 651.28 277.625 651.688 279.425 651.688C280.481 651.688 281.441 651.592 282.305 651.4C283.193 651.208 283.889 651.004 284.393 650.788L284.969 654.352C284.729 654.472 284.393 654.604 283.961 654.748C283.553 654.868 283.073 654.976 282.521 655.072C281.993 655.192 281.417 655.288 280.793 655.36C280.169 655.432 279.533 655.468 278.885 655.468C277.229 655.468 275.789 655.228 274.565 654.748C273.341 654.244 272.333 653.56 271.541 652.696C270.749 651.808 270.161 650.776 269.777 649.6C269.393 648.4 269.201 647.092 269.201 645.676ZM281.837 643.732C281.837 643.132 281.753 642.568 281.585 642.04C281.417 641.488 281.165 641.02 280.829 640.636C280.517 640.228 280.121 639.916 279.641 639.7C279.185 639.46 278.633 639.34 277.985 639.34C277.313 639.34 276.725 639.472 276.221 639.736C275.717 639.976 275.285 640.3 274.925 640.708C274.589 641.116 274.325 641.584 274.133 642.112C273.941 642.64 273.809 643.18 273.737 643.732H281.837ZM290.811 636.784C291.651 636.544 292.743 636.316 294.087 636.1C295.431 635.884 296.919 635.776 298.551 635.776C300.087 635.776 301.371 635.992 302.403 636.424C303.435 636.832 304.251 637.42 304.851 638.188C305.475 638.932 305.907 639.844 306.147 640.924C306.411 641.98 306.543 643.144 306.543 644.416V655H302.187V645.1C302.187 644.092 302.115 643.24 301.971 642.544C301.851 641.824 301.635 641.248 301.323 640.816C301.035 640.36 300.627 640.036 300.099 639.844C299.595 639.628 298.971 639.52 298.227 639.52C297.675 639.52 297.099 639.556 296.499 639.628C295.899 639.7 295.455 639.76 295.167 639.808V655H290.811V636.784ZM311.654 631.204L316.01 630.484V636.172H322.706V639.808H316.01V647.476C316.01 648.988 316.25 650.068 316.73 650.716C317.21 651.364 318.026 651.688 319.178 651.688C319.97 651.688 320.666 651.604 321.266 651.436C321.89 651.268 322.382 651.112 322.742 650.968L323.462 654.424C322.958 654.64 322.298 654.856 321.482 655.072C320.666 655.312 319.706 655.432 318.602 655.432C317.258 655.432 316.13 655.252 315.218 654.892C314.33 654.532 313.622 654.016 313.094 653.344C312.566 652.648 312.194 651.82 311.978 650.86C311.762 649.876 311.654 648.76 311.654 647.512V631.204Z" fill="#252835"/>
<path d="M349 663H41C32.1634 663 25 670.163 25 679V735C25 743.837 32.1634 751 41 751H349C357.837 751 365 743.837 365 735V679C365 670.163 357.837 663 349 663Z" fill="#D9D9D9"/>
<path d="M320.375 722.458C319.84 721.924 319.573 721.243 319.573 720.417C319.573 719.59 319.84 718.91 320.375 718.375L331.75 707L320.375 695.625C319.84 695.09 319.573 694.41 319.573 693.583C319.573 692.757 319.84 692.076 320.375 691.542C320.91 691.007 321.59 690.74 322.417 690.74C323.243 690.74 323.924 691.007 324.458 691.542L337.875 704.958C338.167 705.25 338.374 705.566 338.496 705.906C338.619 706.247 338.679 706.611 338.677 707C338.677 707.389 338.616 707.753 338.493 708.094C338.371 708.434 338.165 708.75 337.875 709.042L324.458 722.458C323.924 722.993 323.243 723.26 322.417 723.26C321.59 723.26 320.91 722.993 320.375 722.458Z" fill="#FF9341"/>
<g style="mix-blend-mode:multiply">
<path d="M157.215 692.909L165.312 716.602H165.638L173.735 692.909H178.479L168.011 722H162.94L152.471 692.909H157.215ZM189.342 722.44C187.297 722.44 185.512 721.972 183.987 721.034C182.463 720.097 181.279 718.785 180.436 717.099C179.593 715.414 179.172 713.444 179.172 711.19C179.172 708.927 179.593 706.948 180.436 705.253C181.279 703.558 182.463 702.241 183.987 701.304C185.512 700.366 187.297 699.898 189.342 699.898C191.388 699.898 193.173 700.366 194.697 701.304C196.222 702.241 197.406 703.558 198.249 705.253C199.091 706.948 199.513 708.927 199.513 711.19C199.513 713.444 199.091 715.414 198.249 717.099C197.406 718.785 196.222 720.097 194.697 721.034C193.173 721.972 191.388 722.44 189.342 722.44ZM189.357 718.875C190.682 718.875 191.781 718.525 192.652 717.824C193.523 717.123 194.167 716.19 194.584 715.026C195.01 713.861 195.223 712.578 195.223 711.176C195.223 709.784 195.01 708.506 194.584 707.341C194.167 706.167 193.523 705.224 192.652 704.514C191.781 703.804 190.682 703.449 189.357 703.449C188.021 703.449 186.913 703.804 186.033 704.514C185.161 705.224 184.513 706.167 184.087 707.341C183.67 708.506 183.462 709.784 183.462 711.176C183.462 712.578 183.67 713.861 184.087 715.026C184.513 716.19 185.161 717.123 186.033 717.824C186.913 718.525 188.021 718.875 189.357 718.875ZM214.438 700.182V703.591H202.521V700.182H214.438ZM205.717 694.955H209.964V715.594C209.964 716.418 210.087 717.038 210.333 717.455C210.579 717.862 210.897 718.141 211.285 718.293C211.683 718.435 212.113 718.506 212.577 718.506C212.918 718.506 213.217 718.482 213.472 718.435C213.728 718.387 213.927 718.349 214.069 718.321L214.836 721.83C214.59 721.924 214.239 722.019 213.785 722.114C213.33 722.218 212.762 722.275 212.08 722.284C210.963 722.303 209.921 722.104 208.955 721.688C207.989 721.271 207.208 720.627 206.612 719.756C206.015 718.884 205.717 717.791 205.717 716.474V694.955ZM228.305 722.44C226.156 722.44 224.304 721.981 222.751 721.062C221.208 720.134 220.015 718.832 219.172 717.156C218.339 715.471 217.922 713.496 217.922 711.233C217.922 708.998 218.339 707.028 219.172 705.324C220.015 703.619 221.189 702.289 222.695 701.332C224.21 700.376 225.981 699.898 228.007 699.898C229.238 699.898 230.431 700.101 231.587 700.509C232.742 700.916 233.779 701.555 234.697 702.426C235.616 703.297 236.34 704.429 236.871 705.821C237.401 707.204 237.666 708.884 237.666 710.864V712.369H220.322V709.188H233.504C233.504 708.07 233.277 707.08 232.822 706.219C232.368 705.348 231.729 704.661 230.905 704.159C230.09 703.657 229.134 703.406 228.036 703.406C226.842 703.406 225.801 703.7 224.911 704.287C224.03 704.865 223.348 705.622 222.865 706.56C222.392 707.488 222.155 708.496 222.155 709.585V712.071C222.155 713.529 222.411 714.77 222.922 715.793C223.443 716.815 224.167 717.597 225.095 718.136C226.023 718.667 227.107 718.932 228.348 718.932C229.153 718.932 229.887 718.818 230.55 718.591C231.213 718.354 231.786 718.004 232.268 717.54C232.751 717.076 233.121 716.503 233.376 715.821L237.396 716.545C237.074 717.729 236.497 718.766 235.663 719.656C234.839 720.537 233.803 721.223 232.553 721.716C231.312 722.199 229.896 722.44 228.305 722.44Z" fill="#252835"/>
</g>
<path d="M89 709.667H87.1867L81.8533 715H86.9467L91.6667 720.333H54.3333L59.08 715H64.5467L59.2133 709.667H57L49 717.667V728.333C49 729.748 49.5619 731.104 50.5621 732.105C51.5623 733.105 52.9188 733.667 54.3333 733.667H91.6667C93.0812 733.667 94.4377 733.105 95.4379 732.105C96.4381 731.104 97 729.748 97 728.333V717.667L89 709.667ZM86.3333 696.2L73.1333 709.4L63.6667 699.96L76.8933 686.76L86.3333 696.2ZM75.0267 681.107L58.04 698.093C57.7928 698.34 57.5967 698.633 57.4628 698.956C57.329 699.278 57.2601 699.624 57.2601 699.973C57.2601 700.323 57.329 700.668 57.4628 700.991C57.5967 701.314 57.7928 701.607 58.04 701.853L71.24 715C72.28 716.093 73.96 716.093 75 715L91.96 698.093C92.2072 697.847 92.4033 697.554 92.5372 697.231C92.671 696.908 92.7399 696.563 92.7399 696.213C92.7399 695.864 92.671 695.518 92.5372 695.196C92.4033 694.873 92.2072 694.58 91.96 694.333L78.76 681.133C78.5194 680.882 78.2307 680.681 77.911 680.543C77.5913 680.405 77.2472 680.332 76.899 680.33C76.5508 680.327 76.2056 680.395 75.884 680.528C75.5624 680.662 75.2708 680.858 75.0267 681.107Z" fill="#252835"/>
<path d="M41.36 485.052H45.896V510H41.36V498.948H30.524V510H25.988V485.052H30.524V495.024H41.36V485.052ZM50.603 500.676C50.603 499.02 50.843 497.568 51.323 496.32C51.827 495.072 52.487 494.04 53.303 493.224C54.119 492.384 55.055 491.76 56.111 491.352C57.167 490.92 58.247 490.704 59.351 490.704C61.943 490.704 63.959 491.508 65.399 493.116C66.863 494.724 67.595 497.124 67.595 500.316C67.595 500.556 67.583 500.832 67.559 501.144C67.559 501.432 67.547 501.696 67.523 501.936H55.103C55.223 503.448 55.751 504.624 56.687 505.464C57.647 506.28 59.027 506.688 60.827 506.688C61.883 506.688 62.843 506.592 63.707 506.4C64.595 506.208 65.291 506.004 65.795 505.788L66.371 509.352C66.131 509.472 65.795 509.604 65.363 509.748C64.955 509.868 64.475 509.976 63.923 510.072C63.395 510.192 62.819 510.288 62.195 510.36C61.571 510.432 60.935 510.468 60.287 510.468C58.631 510.468 57.191 510.228 55.967 509.748C54.743 509.244 53.735 508.56 52.943 507.696C52.151 506.808 51.563 505.776 51.179 504.6C50.795 503.4 50.603 502.092 50.603 500.676ZM63.239 498.732C63.239 498.132 63.155 497.568 62.987 497.04C62.819 496.488 62.567 496.02 62.231 495.636C61.919 495.228 61.523 494.916 61.043 494.7C60.587 494.46 60.035 494.34 59.387 494.34C58.715 494.34 58.127 494.472 57.623 494.736C57.119 494.976 56.687 495.3 56.327 495.708C55.991 496.116 55.727 496.584 55.535 497.112C55.343 497.64 55.211 498.18 55.139 498.732H63.239ZM78.8374 506.94C80.1814 506.94 81.2014 506.868 81.8974 506.724V501.9C81.6574 501.828 81.3094 501.756 80.8534 501.684C80.3974 501.612 79.8934 501.576 79.3414 501.576C78.8614 501.576 78.3694 501.612 77.8654 501.684C77.3854 501.756 76.9414 501.888 76.5334 502.08C76.1494 502.272 75.8374 502.548 75.5974 502.908C75.3574 503.244 75.2374 503.676 75.2374 504.204C75.2374 505.236 75.5614 505.956 76.2094 506.364C76.8574 506.748 77.7334 506.94 78.8374 506.94ZM78.4774 490.704C79.9174 490.704 81.1294 490.884 82.1134 491.244C83.0974 491.604 83.8774 492.108 84.4534 492.756C85.0534 493.404 85.4734 494.196 85.7134 495.132C85.9774 496.044 86.1094 497.052 86.1094 498.156V509.568C85.4374 509.712 84.4174 509.88 83.0494 510.072C81.7054 510.288 80.1814 510.396 78.4774 510.396C77.3494 510.396 76.3174 510.288 75.3814 510.072C74.4454 509.856 73.6414 509.508 72.9694 509.028C72.3214 508.548 71.8054 507.924 71.4214 507.156C71.0614 506.388 70.8814 505.44 70.8814 504.312C70.8814 503.232 71.0854 502.32 71.4934 501.576C71.9254 500.832 72.5014 500.232 73.2214 499.776C73.9414 499.296 74.7694 498.96 75.7054 498.768C76.6654 498.552 77.6614 498.444 78.6934 498.444C79.1734 498.444 79.6774 498.48 80.2054 498.552C80.7334 498.6 81.2974 498.696 81.8974 498.84V498.12C81.8974 497.616 81.8374 497.136 81.7174 496.68C81.5974 496.224 81.3814 495.828 81.0694 495.492C80.7814 495.132 80.3854 494.856 79.8814 494.664C79.4014 494.472 78.7894 494.376 78.0454 494.376C77.0374 494.376 76.1134 494.448 75.2734 494.592C74.4334 494.736 73.7494 494.904 73.2214 495.096L72.6814 491.568C73.2334 491.376 74.0374 491.184 75.0934 490.992C76.1494 490.8 77.2774 490.704 78.4774 490.704ZM97.9959 510.36C96.6999 510.336 95.6199 510.192 94.7559 509.928C93.9159 509.664 93.2439 509.292 92.7399 508.812C92.2359 508.308 91.8759 507.696 91.6599 506.976C91.4679 506.232 91.3719 505.392 91.3719 504.456V482.784L95.7279 482.064V503.628C95.7279 504.156 95.7639 504.6 95.8359 504.96C95.9319 505.32 96.0879 505.632 96.3039 505.896C96.5199 506.136 96.8079 506.328 97.1679 506.472C97.5519 506.592 98.0319 506.688 98.6079 506.76L97.9959 510.36ZM101.915 486.204L106.271 485.484V491.172H112.967V494.808H106.271V502.476C106.271 503.988 106.511 505.068 106.991 505.716C107.471 506.364 108.287 506.688 109.439 506.688C110.231 506.688 110.927 506.604 111.527 506.436C112.151 506.268 112.643 506.112 113.003 505.968L113.723 509.424C113.219 509.64 112.559 509.856 111.743 510.072C110.927 510.312 109.967 510.432 108.863 510.432C107.519 510.432 106.391 510.252 105.479 509.892C104.591 509.532 103.883 509.016 103.355 508.344C102.827 507.648 102.455 506.82 102.239 505.86C102.023 504.876 101.915 503.76 101.915 502.512V486.204ZM117.178 510V482.784L121.534 482.064V491.388C122.014 491.22 122.566 491.076 123.19 490.956C123.838 490.836 124.474 490.776 125.098 490.776C126.61 490.776 127.858 490.992 128.842 491.424C129.85 491.832 130.654 492.42 131.254 493.188C131.854 493.932 132.274 494.832 132.514 495.888C132.778 496.944 132.91 498.12 132.91 499.416V510H128.554V500.1C128.554 499.092 128.482 498.24 128.338 497.544C128.218 496.824 128.002 496.248 127.69 495.816C127.402 495.36 127.006 495.036 126.502 494.844C125.998 494.628 125.374 494.52 124.63 494.52C124.054 494.52 123.466 494.58 122.866 494.7C122.266 494.82 121.822 494.928 121.534 495.024V510H117.178ZM153.158 506.94C154.502 506.94 155.522 506.868 156.218 506.724V501.9C155.978 501.828 155.63 501.756 155.174 501.684C154.718 501.612 154.214 501.576 153.662 501.576C153.182 501.576 152.69 501.612 152.186 501.684C151.706 501.756 151.262 501.888 150.854 502.08C150.47 502.272 150.158 502.548 149.918 502.908C149.678 503.244 149.558 503.676 149.558 504.204C149.558 505.236 149.882 505.956 150.53 506.364C151.178 506.748 152.054 506.94 153.158 506.94ZM152.798 490.704C154.238 490.704 155.45 490.884 156.434 491.244C157.418 491.604 158.198 492.108 158.774 492.756C159.374 493.404 159.794 494.196 160.034 495.132C160.298 496.044 160.43 497.052 160.43 498.156V509.568C159.758 509.712 158.738 509.88 157.37 510.072C156.026 510.288 154.502 510.396 152.798 510.396C151.67 510.396 150.638 510.288 149.702 510.072C148.766 509.856 147.962 509.508 147.29 509.028C146.642 508.548 146.126 507.924 145.742 507.156C145.382 506.388 145.202 505.44 145.202 504.312C145.202 503.232 145.406 502.32 145.814 501.576C146.246 500.832 146.822 500.232 147.542 499.776C148.262 499.296 149.09 498.96 150.026 498.768C150.986 498.552 151.982 498.444 153.014 498.444C153.494 498.444 153.998 498.48 154.526 498.552C155.054 498.6 155.618 498.696 156.218 498.84V498.12C156.218 497.616 156.158 497.136 156.038 496.68C155.918 496.224 155.702 495.828 155.39 495.492C155.102 495.132 154.706 494.856 154.202 494.664C153.722 494.472 153.11 494.376 152.366 494.376C151.358 494.376 150.434 494.448 149.594 494.592C148.754 494.736 148.07 494.904 147.542 495.096L147.002 491.568C147.554 491.376 148.358 491.184 149.414 490.992C150.47 490.8 151.598 490.704 152.798 490.704ZM165.764 491.784C166.604 491.544 167.696 491.316 169.04 491.1C170.384 490.884 171.872 490.776 173.504 490.776C175.04 490.776 176.324 490.992 177.356 491.424C178.388 491.832 179.204 492.42 179.804 493.188C180.428 493.932 180.86 494.844 181.1 495.924C181.364 496.98 181.496 498.144 181.496 499.416V510H177.14V500.1C177.14 499.092 177.068 498.24 176.924 497.544C176.804 496.824 176.588 496.248 176.276 495.816C175.988 495.36 175.58 495.036 175.052 494.844C174.548 494.628 173.924 494.52 173.18 494.52C172.628 494.52 172.052 494.556 171.452 494.628C170.852 494.7 170.408 494.76 170.12 494.808V510H165.764V491.784ZM190.243 500.532C190.243 502.452 190.699 503.964 191.611 505.068C192.523 506.148 193.783 506.688 195.391 506.688C196.087 506.688 196.675 506.664 197.155 506.616C197.659 506.544 198.067 506.472 198.379 506.4V495.6C197.995 495.336 197.479 495.096 196.831 494.88C196.207 494.64 195.535 494.52 194.815 494.52C193.231 494.52 192.067 495.06 191.323 496.14C190.603 497.22 190.243 498.684 190.243 500.532ZM202.735 509.424C201.871 509.688 200.779 509.928 199.459 510.144C198.163 510.36 196.795 510.468 195.355 510.468C193.867 510.468 192.535 510.24 191.359 509.784C190.183 509.328 189.175 508.68 188.335 507.84C187.519 506.976 186.883 505.944 186.427 504.744C185.995 503.52 185.779 502.152 185.779 500.64C185.779 499.152 185.959 497.808 186.319 496.608C186.703 495.384 187.255 494.34 187.975 493.476C188.695 492.612 189.571 491.952 190.603 491.496C191.635 491.016 192.823 490.776 194.167 490.776C195.079 490.776 195.883 490.884 196.579 491.1C197.275 491.316 197.875 491.556 198.379 491.82V482.784L202.735 482.064V509.424ZM227.974 510.54C226.102 510.54 224.422 510.252 222.934 509.676C221.446 509.1 220.186 508.26 219.154 507.156C218.122 506.028 217.33 504.66 216.778 503.052C216.226 501.444 215.95 499.596 215.95 497.508C215.95 495.42 216.262 493.572 216.886 491.964C217.534 490.356 218.41 489 219.514 487.896C220.618 486.768 221.914 485.916 223.402 485.34C224.89 484.764 226.486 484.476 228.19 484.476C229.222 484.476 230.158 484.56 230.998 484.728C231.838 484.872 232.57 485.04 233.194 485.232C233.818 485.424 234.334 485.628 234.742 485.844C235.15 486.06 235.438 486.216 235.606 486.312L234.274 490.02C233.698 489.66 232.87 489.324 231.79 489.012C230.734 488.676 229.582 488.508 228.334 488.508C227.254 488.508 226.246 488.7 225.31 489.084C224.374 489.444 223.558 489.996 222.862 490.74C222.19 491.484 221.662 492.42 221.278 493.548C220.894 494.676 220.702 495.984 220.702 497.472C220.702 498.792 220.846 500.004 221.134 501.108C221.446 502.212 221.914 503.172 222.538 503.988C223.162 504.78 223.954 505.404 224.914 505.86C225.874 506.292 227.026 506.508 228.37 506.508C229.978 506.508 231.286 506.352 232.294 506.04C233.302 505.704 234.082 505.392 234.634 505.104L235.858 508.812C235.57 509.004 235.174 509.196 234.67 509.388C234.19 509.58 233.614 509.772 232.942 509.964C232.27 510.132 231.514 510.264 230.674 510.36C229.834 510.48 228.934 510.54 227.974 510.54ZM246.251 506.94C247.595 506.94 248.615 506.868 249.311 506.724V501.9C249.071 501.828 248.723 501.756 248.267 501.684C247.811 501.612 247.307 501.576 246.755 501.576C246.275 501.576 245.783 501.612 245.279 501.684C244.799 501.756 244.355 501.888 243.947 502.08C243.563 502.272 243.251 502.548 243.011 502.908C242.771 503.244 242.651 503.676 242.651 504.204C242.651 505.236 242.975 505.956 243.623 506.364C244.271 506.748 245.147 506.94 246.251 506.94ZM245.891 490.704C247.331 490.704 248.543 490.884 249.527 491.244C250.511 491.604 251.291 492.108 251.867 492.756C252.467 493.404 252.887 494.196 253.127 495.132C253.391 496.044 253.523 497.052 253.523 498.156V509.568C252.851 509.712 251.831 509.88 250.463 510.072C249.119 510.288 247.595 510.396 245.891 510.396C244.763 510.396 243.731 510.288 242.795 510.072C241.859 509.856 241.055 509.508 240.383 509.028C239.735 508.548 239.219 507.924 238.835 507.156C238.475 506.388 238.295 505.44 238.295 504.312C238.295 503.232 238.499 502.32 238.907 501.576C239.339 500.832 239.915 500.232 240.635 499.776C241.355 499.296 242.183 498.96 243.119 498.768C244.079 498.552 245.075 498.444 246.107 498.444C246.587 498.444 247.091 498.48 247.619 498.552C248.147 498.6 248.711 498.696 249.311 498.84V498.12C249.311 497.616 249.251 497.136 249.131 496.68C249.011 496.224 248.795 495.828 248.483 495.492C248.195 495.132 247.799 494.856 247.295 494.664C246.815 494.472 246.203 494.376 245.459 494.376C244.451 494.376 243.527 494.448 242.687 494.592C241.847 494.736 241.163 494.904 240.635 495.096L240.095 491.568C240.647 491.376 241.451 491.184 242.507 490.992C243.563 490.8 244.691 490.704 245.891 490.704ZM269.586 495.096C269.226 494.976 268.722 494.856 268.074 494.736C267.45 494.592 266.718 494.52 265.878 494.52C265.398 494.52 264.882 494.568 264.33 494.664C263.802 494.76 263.43 494.844 263.214 494.916V510H258.858V492.072C259.698 491.76 260.742 491.472 261.99 491.208C263.262 490.92 264.666 490.776 266.202 490.776C266.49 490.776 266.826 490.8 267.21 490.848C267.594 490.872 267.978 490.92 268.362 490.992C268.746 491.04 269.118 491.112 269.478 491.208C269.838 491.28 270.126 491.352 270.342 491.424L269.586 495.096ZM272.333 500.676C272.333 499.02 272.573 497.568 273.053 496.32C273.557 495.072 274.217 494.04 275.033 493.224C275.849 492.384 276.785 491.76 277.841 491.352C278.897 490.92 279.977 490.704 281.081 490.704C283.673 490.704 285.689 491.508 287.129 493.116C288.593 494.724 289.325 497.124 289.325 500.316C289.325 500.556 289.313 500.832 289.289 501.144C289.289 501.432 289.277 501.696 289.253 501.936H276.833C276.953 503.448 277.481 504.624 278.417 505.464C279.377 506.28 280.757 506.688 282.557 506.688C283.613 506.688 284.573 506.592 285.437 506.4C286.325 506.208 287.021 506.004 287.525 505.788L288.101 509.352C287.861 509.472 287.525 509.604 287.093 509.748C286.685 509.868 286.205 509.976 285.653 510.072C285.125 510.192 284.549 510.288 283.925 510.36C283.301 510.432 282.665 510.468 282.017 510.468C280.361 510.468 278.921 510.228 277.697 509.748C276.473 509.244 275.465 508.56 274.673 507.696C273.881 506.808 273.293 505.776 272.909 504.6C272.525 503.4 272.333 502.092 272.333 500.676ZM284.969 498.732C284.969 498.132 284.885 497.568 284.717 497.04C284.549 496.488 284.297 496.02 283.961 495.636C283.649 495.228 283.253 494.916 282.773 494.7C282.317 494.46 281.765 494.34 281.117 494.34C280.445 494.34 279.857 494.472 279.353 494.736C278.849 494.976 278.417 495.3 278.057 495.708C277.721 496.116 277.457 496.584 277.265 497.112C277.073 497.64 276.941 498.18 276.869 498.732H284.969Z" fill="#252835"/>
<path d="M347 518H39C30.1634 518 23 525.163 23 534V590C23 598.837 30.1634 606 39 606H347C355.837 606 363 598.837 363 590V534C363 525.163 355.837 518 347 518Z" fill="#D9D9D9"/>
<path d="M318.375 577.458C317.84 576.924 317.573 576.243 317.573 575.417C317.573 574.59 317.84 573.91 318.375 573.375L329.75 562L318.375 550.625C317.84 550.09 317.573 549.41 317.573 548.583C317.573 547.757 317.84 547.076 318.375 546.542C318.91 546.007 319.59 545.74 320.417 545.74C321.243 545.74 321.924 546.007 322.458 546.542L335.875 559.958C336.167 560.25 336.374 560.566 336.496 560.906C336.619 561.247 336.679 561.611 336.677 562C336.677 562.389 336.616 562.753 336.493 563.094C336.371 563.434 336.165 563.75 335.875 564.042L322.458 577.458C321.924 577.993 321.243 578.26 320.417 578.26C319.59 578.26 318.91 577.993 318.375 577.458Z" fill="#FF9341"/>
<g style="mix-blend-mode:multiply">
<path d="M129.328 555.551C129.177 554.206 128.552 553.165 127.453 552.426C126.355 551.678 124.972 551.304 123.305 551.304C122.112 551.304 121.08 551.493 120.209 551.872C119.338 552.241 118.661 552.753 118.178 553.406C117.704 554.05 117.467 554.784 117.467 555.608C117.467 556.299 117.628 556.896 117.95 557.398C118.282 557.9 118.713 558.321 119.243 558.662C119.783 558.993 120.36 559.273 120.976 559.5C121.591 559.718 122.183 559.898 122.751 560.04L125.592 560.778C126.52 561.006 127.472 561.313 128.447 561.702C129.423 562.09 130.327 562.601 131.161 563.236C131.994 563.87 132.666 564.656 133.178 565.594C133.698 566.531 133.959 567.653 133.959 568.96C133.959 570.608 133.533 572.071 132.68 573.349C131.838 574.628 130.611 575.636 129.001 576.375C127.401 577.114 125.464 577.483 123.192 577.483C121.014 577.483 119.129 577.137 117.538 576.446C115.947 575.755 114.702 574.775 113.803 573.506C112.903 572.227 112.406 570.712 112.311 568.96H116.714C116.8 570.011 117.141 570.887 117.737 571.588C118.343 572.279 119.115 572.795 120.053 573.136C121 573.468 122.036 573.634 123.163 573.634C124.404 573.634 125.507 573.439 126.473 573.051C127.448 572.653 128.215 572.104 128.774 571.403C129.333 570.693 129.612 569.865 129.612 568.918C129.612 568.056 129.366 567.35 128.874 566.801C128.391 566.252 127.732 565.797 126.899 565.438C126.075 565.078 125.143 564.76 124.101 564.486L120.663 563.548C118.334 562.914 116.487 561.981 115.124 560.75C113.769 559.519 113.092 557.89 113.092 555.864C113.092 554.187 113.547 552.724 114.456 551.474C115.365 550.224 116.596 549.254 118.149 548.562C119.702 547.862 121.454 547.511 123.405 547.511C125.375 547.511 127.112 547.857 128.618 548.548C130.133 549.24 131.326 550.191 132.197 551.403C133.069 552.606 133.523 553.989 133.561 555.551H129.328ZM148.266 577.44C146.117 577.44 144.265 576.981 142.712 576.062C141.169 575.134 139.976 573.832 139.133 572.156C138.299 570.471 137.883 568.496 137.883 566.233C137.883 563.998 138.299 562.028 139.133 560.324C139.976 558.619 141.15 557.289 142.656 556.332C144.171 555.376 145.942 554.898 147.968 554.898C149.199 554.898 150.392 555.101 151.548 555.509C152.703 555.916 153.74 556.555 154.658 557.426C155.577 558.297 156.301 559.429 156.832 560.821C157.362 562.204 157.627 563.884 157.627 565.864V567.369H140.283V564.188H153.465C153.465 563.07 153.238 562.08 152.783 561.219C152.329 560.348 151.69 559.661 150.866 559.159C150.051 558.657 149.095 558.406 147.996 558.406C146.803 558.406 145.762 558.7 144.871 559.287C143.991 559.865 143.309 560.622 142.826 561.56C142.353 562.488 142.116 563.496 142.116 564.585V567.071C142.116 568.529 142.371 569.77 142.883 570.793C143.404 571.815 144.128 572.597 145.056 573.136C145.984 573.667 147.068 573.932 148.309 573.932C149.114 573.932 149.848 573.818 150.511 573.591C151.174 573.354 151.746 573.004 152.229 572.54C152.712 572.076 153.082 571.503 153.337 570.821L157.357 571.545C157.035 572.729 156.458 573.766 155.624 574.656C154.8 575.537 153.763 576.223 152.513 576.716C151.273 577.199 149.857 577.44 148.266 577.44ZM162.339 577V555.182H166.445V558.648H166.672C167.07 557.473 167.77 556.55 168.774 555.878C169.787 555.196 170.933 554.855 172.212 554.855C172.477 554.855 172.789 554.865 173.149 554.884C173.518 554.902 173.807 554.926 174.016 554.955V559.017C173.845 558.97 173.542 558.918 173.107 558.861C172.671 558.795 172.235 558.761 171.8 558.761C170.796 558.761 169.901 558.974 169.115 559.401C168.339 559.817 167.723 560.4 167.268 561.148C166.814 561.886 166.587 562.729 166.587 563.676V577H162.339ZM197.02 555.182L189.108 577H184.562L176.636 555.182H181.196L186.722 571.972H186.949L192.46 555.182H197.02ZM201.011 577V555.182H205.259V577H201.011ZM203.156 551.815C202.418 551.815 201.783 551.569 201.253 551.077C200.732 550.575 200.472 549.978 200.472 549.287C200.472 548.586 200.732 547.99 201.253 547.497C201.783 546.995 202.418 546.744 203.156 546.744C203.895 546.744 204.525 546.995 205.045 547.497C205.576 547.99 205.841 548.586 205.841 549.287C205.841 549.978 205.576 550.575 205.045 551.077C204.525 551.569 203.895 551.815 203.156 551.815ZM220.163 577.44C218.051 577.44 216.233 576.962 214.708 576.006C213.193 575.04 212.028 573.709 211.214 572.014C210.399 570.319 209.992 568.378 209.992 566.19C209.992 563.974 210.409 562.019 211.242 560.324C212.076 558.619 213.25 557.289 214.765 556.332C216.28 555.376 218.065 554.898 220.12 554.898C221.777 554.898 223.254 555.205 224.552 555.821C225.849 556.427 226.896 557.279 227.691 558.378C228.496 559.476 228.974 560.759 229.126 562.227H224.992C224.765 561.205 224.244 560.324 223.43 559.585C222.625 558.847 221.545 558.477 220.191 558.477C219.007 558.477 217.97 558.79 217.08 559.415C216.2 560.03 215.513 560.911 215.021 562.057C214.528 563.193 214.282 564.538 214.282 566.091C214.282 567.682 214.523 569.055 215.006 570.21C215.489 571.366 216.171 572.26 217.052 572.895C217.942 573.529 218.988 573.847 220.191 573.847C220.996 573.847 221.725 573.7 222.379 573.406C223.041 573.103 223.595 572.672 224.04 572.114C224.495 571.555 224.812 570.883 224.992 570.097H229.126C228.974 571.508 228.515 572.767 227.748 573.875C226.981 574.983 225.953 575.854 224.665 576.489C223.387 577.123 221.886 577.44 220.163 577.44ZM243.071 577.44C240.921 577.44 239.07 576.981 237.517 576.062C235.973 575.134 234.78 573.832 233.938 572.156C233.104 570.471 232.688 568.496 232.688 566.233C232.688 563.998 233.104 562.028 233.938 560.324C234.78 558.619 235.955 557.289 237.46 556.332C238.975 555.376 240.746 554.898 242.773 554.898C244.004 554.898 245.197 555.101 246.352 555.509C247.508 555.916 248.545 556.555 249.463 557.426C250.382 558.297 251.106 559.429 251.636 560.821C252.167 562.204 252.432 563.884 252.432 565.864V567.369H235.088V564.188H248.27C248.27 563.07 248.043 562.08 247.588 561.219C247.134 560.348 246.494 559.661 245.67 559.159C244.856 558.657 243.9 558.406 242.801 558.406C241.608 558.406 240.566 558.7 239.676 559.287C238.795 559.865 238.114 560.622 237.631 561.56C237.157 562.488 236.92 563.496 236.92 564.585V567.071C236.92 568.529 237.176 569.77 237.688 570.793C238.208 571.815 238.933 572.597 239.861 573.136C240.789 573.667 241.873 573.932 243.114 573.932C243.919 573.932 244.652 573.818 245.315 573.591C245.978 573.354 246.551 573.004 247.034 572.54C247.517 572.076 247.886 571.503 248.142 570.821L252.162 571.545C251.84 572.729 251.262 573.766 250.429 574.656C249.605 575.537 248.568 576.223 247.318 576.716C246.078 577.199 244.662 577.44 243.071 577.44ZM273.494 560.509L269.644 561.19C269.483 560.698 269.228 560.229 268.877 559.784C268.536 559.339 268.072 558.974 267.485 558.69C266.898 558.406 266.164 558.264 265.283 558.264C264.081 558.264 263.077 558.534 262.272 559.074C261.467 559.604 261.065 560.291 261.065 561.134C261.065 561.863 261.335 562.45 261.874 562.895C262.414 563.34 263.285 563.705 264.488 563.989L267.954 564.784C269.961 565.248 271.458 565.963 272.442 566.929C273.427 567.895 273.92 569.15 273.92 570.693C273.92 572 273.541 573.165 272.783 574.188C272.035 575.201 270.989 575.996 269.644 576.574C268.309 577.152 266.761 577.44 264.999 577.44C262.556 577.44 260.563 576.92 259.019 575.878C257.476 574.827 256.529 573.335 256.178 571.403L260.283 570.778C260.539 571.848 261.065 572.658 261.86 573.207C262.656 573.747 263.692 574.017 264.971 574.017C266.363 574.017 267.476 573.728 268.309 573.151C269.142 572.563 269.559 571.848 269.559 571.006C269.559 570.324 269.303 569.751 268.792 569.287C268.29 568.823 267.518 568.473 266.477 568.236L262.783 567.426C260.747 566.962 259.242 566.223 258.266 565.21C257.3 564.197 256.817 562.914 256.817 561.361C256.817 560.073 257.177 558.946 257.897 557.98C258.617 557.014 259.611 556.261 260.88 555.722C262.149 555.172 263.603 554.898 265.241 554.898C267.599 554.898 269.455 555.409 270.809 556.432C272.163 557.445 273.058 558.804 273.494 560.509Z" fill="#252835"/>
</g>
<path d="M84 567.667H73.3333V578.333H62.6667V567.667H52V557H62.6667V546.333H73.3333V557H84M86.6667 538.333H49.3333C46.3733 538.333 44 540.707 44 543.667V581C44 582.414 44.5619 583.771 45.5621 584.771C46.5623 585.771 47.9188 586.333 49.3333 586.333H86.6667C88.0812 586.333 89.4377 585.771 90.4379 584.771C91.4381 583.771 92 582.414 92 581V543.667C92 542.252 91.4381 540.896 90.4379 539.895C89.4377 538.895 88.0812 538.333 86.6667 538.333Z" fill="#D60000"/>
<path d="M24.988 365V340.052H40.756V343.904H29.524V350.276H39.496V354.128H29.524V365H24.988ZM48.9921 365H44.6361V346.172H48.9921V365ZM49.4601 340.664C49.4601 341.48 49.1961 342.128 48.6681 342.608C48.1401 343.088 47.5161 343.328 46.7961 343.328C46.0521 343.328 45.4161 343.088 44.8881 342.608C44.3601 342.128 44.0961 341.48 44.0961 340.664C44.0961 339.824 44.3601 339.164 44.8881 338.684C45.4161 338.204 46.0521 337.964 46.7961 337.964C47.5161 337.964 48.1401 338.204 48.6681 338.684C49.1961 339.164 49.4601 339.824 49.4601 340.664ZM54.5493 346.784C55.3893 346.544 56.4813 346.316 57.8253 346.1C59.1693 345.884 60.6573 345.776 62.2893 345.776C63.8253 345.776 65.1093 345.992 66.1413 346.424C67.1733 346.832 67.9893 347.42 68.5893 348.188C69.2133 348.932 69.6453 349.844 69.8853 350.924C70.1493 351.98 70.2813 353.144 70.2813 354.416V365H65.9253V355.1C65.9253 354.092 65.8533 353.24 65.7093 352.544C65.5893 351.824 65.3733 351.248 65.0613 350.816C64.7733 350.36 64.3653 350.036 63.8373 349.844C63.3333 349.628 62.7093 349.52 61.9653 349.52C61.4133 349.52 60.8373 349.556 60.2373 349.628C59.6373 349.7 59.1933 349.76 58.9053 349.808V365H54.5493V346.784ZM82.2319 361.94C83.5759 361.94 84.5959 361.868 85.2919 361.724V356.9C85.0519 356.828 84.7039 356.756 84.2479 356.684C83.7919 356.612 83.2879 356.576 82.7359 356.576C82.2559 356.576 81.7639 356.612 81.2599 356.684C80.7799 356.756 80.3359 356.888 79.9279 357.08C79.5439 357.272 79.2319 357.548 78.9919 357.908C78.7519 358.244 78.6319 358.676 78.6319 359.204C78.6319 360.236 78.9559 360.956 79.6039 361.364C80.2519 361.748 81.1279 361.94 82.2319 361.94ZM81.8719 345.704C83.3119 345.704 84.5239 345.884 85.5079 346.244C86.4919 346.604 87.2719 347.108 87.8479 347.756C88.4479 348.404 88.8679 349.196 89.1079 350.132C89.3719 351.044 89.5039 352.052 89.5039 353.156V364.568C88.8319 364.712 87.8119 364.88 86.4439 365.072C85.0999 365.288 83.5759 365.396 81.8719 365.396C80.7439 365.396 79.7119 365.288 78.7759 365.072C77.8399 364.856 77.0359 364.508 76.3639 364.028C75.7159 363.548 75.1999 362.924 74.8159 362.156C74.4559 361.388 74.2759 360.44 74.2759 359.312C74.2759 358.232 74.4799 357.32 74.8879 356.576C75.3199 355.832 75.8959 355.232 76.6159 354.776C77.3359 354.296 78.1639 353.96 79.0999 353.768C80.0599 353.552 81.0559 353.444 82.0879 353.444C82.5679 353.444 83.0719 353.48 83.5999 353.552C84.1279 353.6 84.6919 353.696 85.2919 353.84V353.12C85.2919 352.616 85.2319 352.136 85.1119 351.68C84.9919 351.224 84.7759 350.828 84.4639 350.492C84.1759 350.132 83.7799 349.856 83.2759 349.664C82.7959 349.472 82.1839 349.376 81.4399 349.376C80.4319 349.376 79.5079 349.448 78.6679 349.592C77.8279 349.736 77.1439 349.904 76.6159 350.096L76.0759 346.568C76.6279 346.376 77.4319 346.184 78.4879 345.992C79.5439 345.8 80.6719 345.704 81.8719 345.704ZM94.8384 346.784C95.6784 346.544 96.7704 346.316 98.1144 346.1C99.4584 345.884 100.946 345.776 102.578 345.776C104.114 345.776 105.398 345.992 106.43 346.424C107.462 346.832 108.278 347.42 108.878 348.188C109.502 348.932 109.934 349.844 110.174 350.924C110.438 351.98 110.57 353.144 110.57 354.416V365H106.214V355.1C106.214 354.092 106.142 353.24 105.998 352.544C105.878 351.824 105.662 351.248 105.35 350.816C105.062 350.36 104.654 350.036 104.126 349.844C103.622 349.628 102.998 349.52 102.254 349.52C101.702 349.52 101.126 349.556 100.526 349.628C99.9264 349.7 99.4824 349.76 99.1944 349.808V365H94.8384V346.784ZM114.853 355.604C114.853 354.212 115.069 352.916 115.501 351.716C115.933 350.492 116.545 349.436 117.337 348.548C118.153 347.66 119.137 346.964 120.289 346.46C121.441 345.956 122.737 345.704 124.177 345.704C125.953 345.704 127.633 346.028 129.217 346.676L128.281 350.24C127.777 350.024 127.201 349.844 126.553 349.7C125.929 349.556 125.257 349.484 124.537 349.484C122.833 349.484 121.537 350.024 120.649 351.104C119.761 352.16 119.317 353.66 119.317 355.604C119.317 357.476 119.737 358.964 120.577 360.068C121.417 361.148 122.833 361.688 124.825 361.688C125.569 361.688 126.301 361.616 127.021 361.472C127.741 361.328 128.365 361.148 128.893 360.932L129.505 364.532C129.025 364.772 128.293 364.988 127.309 365.18C126.349 365.372 125.353 365.468 124.321 365.468C122.713 365.468 121.309 365.228 120.109 364.748C118.933 364.244 117.949 363.56 117.157 362.696C116.389 361.808 115.813 360.764 115.429 359.564C115.045 358.34 114.853 357.02 114.853 355.604ZM137.269 365H132.913V346.172H137.269V365ZM137.737 340.664C137.737 341.48 137.473 342.128 136.945 342.608C136.417 343.088 135.793 343.328 135.073 343.328C134.329 343.328 133.693 343.088 133.165 342.608C132.637 342.128 132.373 341.48 132.373 340.664C132.373 339.824 132.637 339.164 133.165 338.684C133.693 338.204 134.329 337.964 135.073 337.964C135.793 337.964 136.417 338.204 136.945 338.684C137.473 339.164 137.737 339.824 137.737 340.664ZM149.451 361.94C150.795 361.94 151.815 361.868 152.511 361.724V356.9C152.271 356.828 151.923 356.756 151.467 356.684C151.011 356.612 150.507 356.576 149.955 356.576C149.475 356.576 148.983 356.612 148.479 356.684C147.999 356.756 147.555 356.888 147.147 357.08C146.763 357.272 146.451 357.548 146.211 357.908C145.971 358.244 145.851 358.676 145.851 359.204C145.851 360.236 146.175 360.956 146.823 361.364C147.471 361.748 148.347 361.94 149.451 361.94ZM149.091 345.704C150.531 345.704 151.743 345.884 152.727 346.244C153.711 346.604 154.491 347.108 155.067 347.756C155.667 348.404 156.087 349.196 156.327 350.132C156.591 351.044 156.723 352.052 156.723 353.156V364.568C156.051 364.712 155.031 364.88 153.663 365.072C152.319 365.288 150.795 365.396 149.091 365.396C147.963 365.396 146.931 365.288 145.995 365.072C145.059 364.856 144.255 364.508 143.583 364.028C142.935 363.548 142.419 362.924 142.035 362.156C141.675 361.388 141.495 360.44 141.495 359.312C141.495 358.232 141.699 357.32 142.107 356.576C142.539 355.832 143.115 355.232 143.835 354.776C144.555 354.296 145.383 353.96 146.319 353.768C147.279 353.552 148.275 353.444 149.307 353.444C149.787 353.444 150.291 353.48 150.819 353.552C151.347 353.6 151.911 353.696 152.511 353.84V353.12C152.511 352.616 152.451 352.136 152.331 351.68C152.211 351.224 151.995 350.828 151.683 350.492C151.395 350.132 150.999 349.856 150.495 349.664C150.015 349.472 149.403 349.376 148.659 349.376C147.651 349.376 146.727 349.448 145.887 349.592C145.047 349.736 144.363 349.904 143.835 350.096L143.295 346.568C143.847 346.376 144.651 346.184 145.707 345.992C146.763 345.8 147.891 345.704 149.091 345.704ZM168.609 365.36C167.313 365.336 166.233 365.192 165.369 364.928C164.529 364.664 163.857 364.292 163.353 363.812C162.849 363.308 162.489 362.696 162.273 361.976C162.081 361.232 161.985 360.392 161.985 359.456V337.784L166.341 337.064V358.628C166.341 359.156 166.377 359.6 166.449 359.96C166.545 360.32 166.701 360.632 166.917 360.896C167.133 361.136 167.421 361.328 167.781 361.472C168.165 361.592 168.645 361.688 169.221 361.76L168.609 365.36ZM197.347 342.86C197.731 344.156 198.139 345.512 198.571 346.928C199.003 348.32 199.447 349.724 199.903 351.14C200.383 352.532 200.851 353.912 201.307 355.28C201.787 356.624 202.243 357.896 202.675 359.096C203.035 357.8 203.383 356.396 203.719 354.884C204.055 353.348 204.391 351.764 204.727 350.132C205.063 348.476 205.387 346.796 205.699 345.092C206.035 343.388 206.347 341.708 206.635 340.052H211.315C210.475 344.564 209.539 348.908 208.507 353.084C207.475 357.236 206.323 361.208 205.051 365H200.731C198.859 360.152 197.047 354.86 195.295 349.124C194.407 352.028 193.507 354.788 192.595 357.404C191.683 360.02 190.771 362.552 189.859 365H185.539C184.243 361.208 183.079 357.236 182.047 353.084C181.039 348.908 180.115 344.564 179.275 340.052H184.135C184.423 341.684 184.723 343.352 185.035 345.056C185.371 346.76 185.707 348.44 186.043 350.096C186.403 351.728 186.763 353.312 187.123 354.848C187.483 356.384 187.843 357.8 188.203 359.096C188.659 357.872 189.115 356.588 189.571 355.244C190.051 353.876 190.519 352.496 190.975 351.104C191.431 349.688 191.863 348.284 192.271 346.892C192.703 345.5 193.099 344.156 193.459 342.86H197.347ZM213.22 355.676C213.22 354.02 213.46 352.568 213.94 351.32C214.444 350.072 215.104 349.04 215.92 348.224C216.736 347.384 217.672 346.76 218.728 346.352C219.784 345.92 220.864 345.704 221.968 345.704C224.56 345.704 226.576 346.508 228.016 348.116C229.48 349.724 230.212 352.124 230.212 355.316C230.212 355.556 230.2 355.832 230.176 356.144C230.176 356.432 230.164 356.696 230.14 356.936H217.72C217.84 358.448 218.368 359.624 219.304 360.464C220.264 361.28 221.644 361.688 223.444 361.688C224.5 361.688 225.46 361.592 226.324 361.4C227.212 361.208 227.908 361.004 228.412 360.788L228.988 364.352C228.748 364.472 228.412 364.604 227.98 364.748C227.572 364.868 227.092 364.976 226.54 365.072C226.012 365.192 225.436 365.288 224.812 365.36C224.188 365.432 223.552 365.468 222.904 365.468C221.248 365.468 219.808 365.228 218.584 364.748C217.36 364.244 216.352 363.56 215.56 362.696C214.768 361.808 214.18 360.776 213.796 359.6C213.412 358.4 213.22 357.092 213.22 355.676ZM225.856 353.732C225.856 353.132 225.772 352.568 225.604 352.04C225.436 351.488 225.184 351.02 224.848 350.636C224.536 350.228 224.14 349.916 223.66 349.7C223.204 349.46 222.652 349.34 222.004 349.34C221.332 349.34 220.744 349.472 220.24 349.736C219.736 349.976 219.304 350.3 218.944 350.708C218.608 351.116 218.344 351.584 218.152 352.112C217.96 352.64 217.828 353.18 217.756 353.732H225.856ZM241.383 365.36C240.087 365.336 239.007 365.192 238.143 364.928C237.303 364.664 236.631 364.292 236.127 363.812C235.623 363.308 235.263 362.696 235.047 361.976C234.855 361.232 234.759 360.392 234.759 359.456V337.784L239.115 337.064V358.628C239.115 359.156 239.151 359.6 239.223 359.96C239.319 360.32 239.475 360.632 239.691 360.896C239.907 361.136 240.195 361.328 240.555 361.472C240.939 361.592 241.419 361.688 241.995 361.76L241.383 365.36ZM252.07 365.36C250.774 365.336 249.694 365.192 248.83 364.928C247.99 364.664 247.318 364.292 246.814 363.812C246.31 363.308 245.95 362.696 245.734 361.976C245.542 361.232 245.446 360.392 245.446 359.456V337.784L249.802 337.064V358.628C249.802 359.156 249.838 359.6 249.91 359.96C250.006 360.32 250.162 360.632 250.378 360.896C250.594 361.136 250.882 361.328 251.242 361.472C251.626 361.592 252.106 361.688 252.682 361.76L252.07 365.36ZM254.262 352.724H263.946V356.72H254.262V352.724ZM280.053 355.532C280.053 353.684 279.681 352.22 278.937 351.14C278.217 350.06 277.065 349.52 275.481 349.52C274.761 349.52 274.077 349.628 273.429 349.844C272.805 350.06 272.301 350.3 271.917 350.564V361.4C272.229 361.472 272.625 361.544 273.105 361.616C273.609 361.664 274.209 361.688 274.905 361.688C276.513 361.688 277.773 361.148 278.685 360.068C279.597 358.964 280.053 357.452 280.053 355.532ZM284.517 355.604C284.517 357.116 284.289 358.484 283.833 359.708C283.401 360.908 282.765 361.94 281.925 362.804C281.109 363.668 280.113 364.328 278.937 364.784C277.761 365.24 276.429 365.468 274.941 365.468C273.501 365.468 272.121 365.36 270.801 365.144C269.505 364.928 268.425 364.688 267.561 364.424V337.784L271.917 337.064V346.82C272.421 346.556 273.033 346.316 273.753 346.1C274.497 345.884 275.313 345.776 276.201 345.776C277.521 345.776 278.697 346.016 279.729 346.496C280.785 346.952 281.661 347.612 282.357 348.476C283.053 349.34 283.581 350.384 283.941 351.608C284.325 352.808 284.517 354.14 284.517 355.604ZM287.962 355.676C287.962 354.02 288.202 352.568 288.682 351.32C289.186 350.072 289.846 349.04 290.662 348.224C291.478 347.384 292.414 346.76 293.47 346.352C294.526 345.92 295.606 345.704 296.71 345.704C299.302 345.704 301.318 346.508 302.758 348.116C304.222 349.724 304.954 352.124 304.954 355.316C304.954 355.556 304.942 355.832 304.918 356.144C304.918 356.432 304.906 356.696 304.882 356.936H292.462C292.582 358.448 293.11 359.624 294.046 360.464C295.006 361.28 296.386 361.688 298.186 361.688C299.242 361.688 300.202 361.592 301.066 361.4C301.954 361.208 302.65 361.004 303.154 360.788L303.73 364.352C303.49 364.472 303.154 364.604 302.722 364.748C302.314 364.868 301.834 364.976 301.282 365.072C300.754 365.192 300.178 365.288 299.554 365.36C298.93 365.432 298.294 365.468 297.646 365.468C295.99 365.468 294.55 365.228 293.326 364.748C292.102 364.244 291.094 363.56 290.302 362.696C289.51 361.808 288.922 360.776 288.538 359.6C288.154 358.4 287.962 357.092 287.962 355.676ZM300.598 353.732C300.598 353.132 300.514 352.568 300.346 352.04C300.178 351.488 299.926 351.02 299.59 350.636C299.278 350.228 298.882 349.916 298.402 349.7C297.946 349.46 297.394 349.34 296.746 349.34C296.074 349.34 295.486 349.472 294.982 349.736C294.478 349.976 294.046 350.3 293.686 350.708C293.35 351.116 293.086 351.584 292.894 352.112C292.702 352.64 292.57 353.18 292.498 353.732H300.598ZM313.965 365H309.609V346.172H313.965V365ZM314.433 340.664C314.433 341.48 314.169 342.128 313.641 342.608C313.113 343.088 312.489 343.328 311.769 343.328C311.025 343.328 310.389 343.088 309.861 342.608C309.333 342.128 309.069 341.48 309.069 340.664C309.069 339.824 309.333 339.164 309.861 338.684C310.389 338.204 311.025 337.964 311.769 337.964C312.489 337.964 313.113 338.204 313.641 338.684C314.169 339.164 314.433 339.824 314.433 340.664ZM319.522 346.784C320.362 346.544 321.454 346.316 322.798 346.1C324.142 345.884 325.63 345.776 327.262 345.776C328.798 345.776 330.082 345.992 331.114 346.424C332.146 346.832 332.962 347.42 333.562 348.188C334.186 348.932 334.618 349.844 334.858 350.924C335.122 351.98 335.254 353.144 335.254 354.416V365H330.898V355.1C330.898 354.092 330.826 353.24 330.682 352.544C330.562 351.824 330.346 351.248 330.034 350.816C329.746 350.36 329.338 350.036 328.81 349.844C328.306 349.628 327.682 349.52 326.938 349.52C326.386 349.52 325.81 349.556 325.21 349.628C324.61 349.7 324.166 349.76 323.878 349.808V365H319.522V346.784ZM344.001 355.1C344.001 356.948 344.397 358.304 345.189 359.168C346.005 360.008 347.049 360.428 348.321 360.428C349.017 360.428 349.665 360.332 350.265 360.14C350.889 359.948 351.393 359.72 351.777 359.456V349.7C351.465 349.628 351.081 349.568 350.625 349.52C350.169 349.448 349.593 349.412 348.897 349.412C347.313 349.412 346.101 349.94 345.261 350.996C344.421 352.028 344.001 353.396 344.001 355.1ZM356.133 363.092C356.133 366.092 355.365 368.288 353.829 369.68C352.317 371.072 349.989 371.768 346.845 371.768C345.693 371.768 344.565 371.672 343.461 371.48C342.381 371.288 341.397 371.036 340.509 370.724L341.301 367.016C342.045 367.328 342.885 367.58 343.821 367.772C344.781 367.964 345.813 368.06 346.917 368.06C348.669 368.06 349.917 367.7 350.661 366.98C351.405 366.26 351.777 365.192 351.777 363.776V363.056C351.345 363.272 350.769 363.488 350.049 363.704C349.353 363.92 348.549 364.028 347.637 364.028C346.437 364.028 345.333 363.836 344.325 363.452C343.341 363.068 342.489 362.504 341.769 361.76C341.073 361.016 340.521 360.092 340.113 358.988C339.729 357.86 339.537 356.564 339.537 355.1C339.537 353.732 339.741 352.472 340.149 351.32C340.581 350.168 341.193 349.184 341.985 348.368C342.801 347.552 343.785 346.916 344.937 346.46C346.089 346.004 347.397 345.776 348.861 345.776C350.277 345.776 351.621 345.884 352.893 346.1C354.165 346.316 355.245 346.544 356.133 346.784V363.092Z" fill="#252835"/>
<path d="M346 373H38C29.1634 373 22 380.163 22 389V445C22 453.837 29.1634 461 38 461H346C354.837 461 362 453.837 362 445V389C362 380.163 354.837 373 346 373Z" fill="#D9D9D9"/>
<path d="M317.375 432.458C316.84 431.924 316.573 431.243 316.573 430.417C316.573 429.59 316.84 428.91 317.375 428.375L328.75 417L317.375 405.625C316.84 405.09 316.573 404.41 316.573 403.583C316.573 402.757 316.84 402.076 317.375 401.542C317.91 401.007 318.59 400.74 319.417 400.74C320.243 400.74 320.924 401.007 321.458 401.542L334.875 414.958C335.167 415.25 335.374 415.566 335.496 415.906C335.619 416.247 335.679 416.611 335.677 417C335.677 417.389 335.616 417.753 335.493 418.094C335.371 418.434 335.165 418.75 334.875 419.042L321.458 432.458C320.924 432.993 320.243 433.26 319.417 433.26C318.59 433.26 317.91 432.993 317.375 432.458Z" fill="#FF9341"/>
<g style="mix-blend-mode:multiply">
<path d="M142.388 432L134.32 402.909H138.936L144.604 425.438H144.874L150.769 402.909H155.343L161.238 425.452H161.507L167.161 402.909H171.792L163.709 432H159.292L153.169 410.21H152.942L146.82 432H142.388ZM179.654 432.483C178.271 432.483 177.021 432.227 175.904 431.716C174.786 431.195 173.901 430.442 173.248 429.457C172.604 428.473 172.282 427.265 172.282 425.835C172.282 424.604 172.518 423.591 172.992 422.795C173.465 422 174.105 421.37 174.909 420.906C175.714 420.442 176.614 420.092 177.608 419.855C178.603 419.618 179.616 419.438 180.648 419.315C181.955 419.164 183.016 419.041 183.83 418.946C184.644 418.842 185.236 418.676 185.605 418.449C185.975 418.222 186.159 417.852 186.159 417.341V417.241C186.159 416.001 185.809 415.04 185.108 414.358C184.417 413.676 183.385 413.335 182.012 413.335C180.582 413.335 179.455 413.652 178.631 414.287C177.817 414.912 177.253 415.608 176.941 416.375L172.949 415.466C173.423 414.14 174.114 413.07 175.023 412.256C175.942 411.432 176.998 410.835 178.191 410.466C179.384 410.087 180.639 409.898 181.955 409.898C182.826 409.898 183.749 410.002 184.725 410.21C185.71 410.409 186.628 410.778 187.48 411.318C188.342 411.858 189.048 412.63 189.597 413.634C190.146 414.628 190.421 415.92 190.421 417.511V432H186.273V429.017H186.103C185.828 429.566 185.416 430.106 184.867 430.636C184.318 431.167 183.612 431.607 182.75 431.957C181.889 432.308 180.856 432.483 179.654 432.483ZM180.577 429.074C181.751 429.074 182.755 428.842 183.588 428.378C184.431 427.914 185.07 427.308 185.506 426.56C185.951 425.802 186.174 424.992 186.174 424.131V421.318C186.022 421.47 185.729 421.612 185.293 421.744C184.867 421.867 184.379 421.976 183.83 422.071C183.281 422.156 182.746 422.237 182.225 422.312C181.704 422.379 181.268 422.436 180.918 422.483C180.094 422.587 179.341 422.762 178.659 423.009C177.987 423.255 177.447 423.61 177.04 424.074C176.642 424.528 176.444 425.134 176.444 425.892C176.444 426.943 176.832 427.739 177.608 428.278C178.385 428.809 179.374 429.074 180.577 429.074ZM200.325 402.909V432H196.078V402.909H200.325ZM210.286 402.909V432H206.039V402.909H210.286ZM225.403 432.44C223.253 432.44 221.402 431.981 219.849 431.062C218.306 430.134 217.112 428.832 216.27 427.156C215.436 425.471 215.02 423.496 215.02 421.233C215.02 418.998 215.436 417.028 216.27 415.324C217.112 413.619 218.287 412.289 219.792 411.332C221.307 410.376 223.078 409.898 225.105 409.898C226.336 409.898 227.529 410.101 228.684 410.509C229.84 410.916 230.877 411.555 231.795 412.426C232.714 413.297 233.438 414.429 233.968 415.821C234.499 417.204 234.764 418.884 234.764 420.864V422.369H217.42V419.188H230.602C230.602 418.07 230.375 417.08 229.92 416.219C229.466 415.348 228.826 414.661 228.002 414.159C227.188 413.657 226.232 413.406 225.133 413.406C223.94 413.406 222.898 413.7 222.008 414.287C221.127 414.865 220.446 415.622 219.963 416.56C219.489 417.488 219.252 418.496 219.252 419.585V422.071C219.252 423.529 219.508 424.77 220.02 425.793C220.54 426.815 221.265 427.597 222.193 428.136C223.121 428.667 224.205 428.932 225.446 428.932C226.251 428.932 226.984 428.818 227.647 428.591C228.31 428.354 228.883 428.004 229.366 427.54C229.849 427.076 230.218 426.503 230.474 425.821L234.494 426.545C234.172 427.729 233.594 428.766 232.761 429.656C231.937 430.537 230.9 431.223 229.65 431.716C228.41 432.199 226.994 432.44 225.403 432.44ZM249.661 410.182V413.591H237.743V410.182H249.661ZM240.939 404.955H245.186V425.594C245.186 426.418 245.31 427.038 245.556 427.455C245.802 427.862 246.119 428.141 246.507 428.293C246.905 428.435 247.336 428.506 247.8 428.506C248.141 428.506 248.439 428.482 248.695 428.435C248.951 428.387 249.15 428.349 249.292 428.321L250.059 431.83C249.812 431.924 249.462 432.019 249.007 432.114C248.553 432.218 247.985 432.275 247.303 432.284C246.185 432.303 245.144 432.104 244.178 431.688C243.212 431.271 242.431 430.627 241.834 429.756C241.238 428.884 240.939 427.791 240.939 426.474V404.955Z" fill="#252835"/>
</g>
<path d="M67 443.467H66.3333C66.1111 443.467 65.9111 443.422 65.7333 443.333C59.9111 441.511 55.1111 437.9 51.3333 432.499C47.5555 427.098 45.6666 421.132 45.6666 414.6V402C45.6666 400.889 45.9893 399.889 46.6346 399C47.28 398.111 48.1128 397.467 49.1333 397.067L65.1333 391.067C65.7555 390.844 66.3777 390.733 67 390.733C67.6222 390.733 68.2444 390.844 68.8666 391.067L84.8666 397.067C85.8889 397.467 86.7226 398.111 87.368 399C88.0133 399.889 88.3351 400.889 88.3333 402V414.6C88.3333 421.133 86.4444 427.1 82.6666 432.501C78.8888 437.902 74.0889 441.513 68.2666 443.333C68.0444 443.422 67.6222 443.467 67 443.467ZM67 438.067C71.6222 436.6 75.4444 433.667 78.4666 429.267C81.4888 424.867 83 419.978 83 414.6V402L67 396L51 402V414.6C51 419.978 52.5111 424.867 55.5333 429.267C58.5555 433.667 62.3777 436.6 67 438.067Z" fill="#252835"/>
<path d="M346 228H38C29.1634 228 22 235.163 22 244V300C22 308.837 29.1634 316 38 316H346C354.837 316 362 308.837 362 300V244C362 235.163 354.837 228 346 228Z" fill="#D9D9D9"/>
<path d="M317.375 287.458C316.84 286.924 316.573 286.243 316.573 285.417C316.573 284.59 316.84 283.91 317.375 283.375L328.75 272L317.375 260.625C316.84 260.09 316.573 259.41 316.573 258.583C316.573 257.757 316.84 257.076 317.375 256.542C317.91 256.007 318.59 255.74 319.417 255.74C320.243 255.74 320.924 256.007 321.458 256.542L334.875 269.958C335.167 270.25 335.374 270.566 335.496 270.906C335.619 271.247 335.679 271.611 335.677 272C335.677 272.389 335.616 272.753 335.493 273.094C335.371 273.434 335.165 273.75 334.875 274.042L321.458 287.458C320.924 287.993 320.243 288.26 319.417 288.26C318.59 288.26 317.91 287.993 317.375 287.458Z" fill="#FF9341"/>
<g style="mix-blend-mode:multiply">
<path d="M179.761 257.909V287H175.372V257.909H179.761ZM195.571 287H186.153V257.909H195.869C198.719 257.909 201.167 258.491 203.213 259.656C205.258 260.812 206.825 262.473 207.914 264.642C209.013 266.801 209.562 269.391 209.562 272.412C209.562 275.442 209.008 278.046 207.9 280.224C206.802 282.402 205.211 284.079 203.127 285.253C201.044 286.418 198.525 287 195.571 287ZM190.542 283.165H195.329C197.545 283.165 199.387 282.748 200.855 281.915C202.323 281.072 203.421 279.855 204.15 278.264C204.879 276.664 205.244 274.713 205.244 272.412C205.244 270.13 204.879 268.193 204.15 266.602C203.431 265.011 202.356 263.804 200.926 262.98C199.496 262.156 197.72 261.744 195.599 261.744H190.542V283.165Z" fill="#0F0F0F"/>
</g>
<path d="M31.036 217.616C32.668 217.616 33.856 217.34 34.6 216.788C35.344 216.236 35.716 215.456 35.716 214.448C35.716 213.848 35.584 213.332 35.32 212.9C35.08 212.468 34.72 212.084 34.24 211.748C33.784 211.388 33.22 211.064 32.548 210.776C31.876 210.464 31.108 210.164 30.244 209.876C29.38 209.564 28.54 209.228 27.724 208.868C26.932 208.484 26.224 208.016 25.6 207.464C25 206.912 24.508 206.252 24.124 205.484C23.764 204.716 23.584 203.792 23.584 202.712C23.584 200.456 24.364 198.692 25.924 197.42C27.484 196.124 29.608 195.476 32.296 195.476C33.856 195.476 35.236 195.656 36.436 196.016C37.66 196.352 38.62 196.724 39.316 197.132L37.912 200.804C37.096 200.348 36.196 200 35.212 199.76C34.252 199.52 33.256 199.4 32.224 199.4C31 199.4 30.04 199.652 29.344 200.156C28.672 200.66 28.336 201.368 28.336 202.28C28.336 202.832 28.444 203.312 28.66 203.72C28.9 204.104 29.224 204.452 29.632 204.764C30.064 205.076 30.556 205.364 31.108 205.628C31.684 205.892 32.308 206.144 32.98 206.384C34.156 206.816 35.2 207.26 36.112 207.716C37.048 208.148 37.828 208.676 38.452 209.3C39.1 209.9 39.592 210.62 39.928 211.46C40.264 212.276 40.432 213.272 40.432 214.448C40.432 216.704 39.628 218.456 38.02 219.704C36.436 220.928 34.108 221.54 31.036 221.54C30.004 221.54 29.056 221.468 28.192 221.324C27.352 221.204 26.596 221.048 25.924 220.856C25.276 220.664 24.712 220.472 24.232 220.28C23.752 220.064 23.368 219.872 23.08 219.704L24.412 215.996C25.06 216.356 25.936 216.716 27.04 217.076C28.144 217.436 29.476 217.616 31.036 217.616ZM50.8374 217.94C52.1814 217.94 53.2014 217.868 53.8974 217.724V212.9C53.6574 212.828 53.3094 212.756 52.8534 212.684C52.3974 212.612 51.8934 212.576 51.3414 212.576C50.8614 212.576 50.3694 212.612 49.8654 212.684C49.3854 212.756 48.9414 212.888 48.5334 213.08C48.1494 213.272 47.8374 213.548 47.5974 213.908C47.3574 214.244 47.2374 214.676 47.2374 215.204C47.2374 216.236 47.5614 216.956 48.2094 217.364C48.8574 217.748 49.7334 217.94 50.8374 217.94ZM50.4774 201.704C51.9174 201.704 53.1294 201.884 54.1134 202.244C55.0974 202.604 55.8774 203.108 56.4534 203.756C57.0534 204.404 57.4734 205.196 57.7134 206.132C57.9774 207.044 58.1094 208.052 58.1094 209.156V220.568C57.4374 220.712 56.4174 220.88 55.0494 221.072C53.7054 221.288 52.1814 221.396 50.4774 221.396C49.3494 221.396 48.3174 221.288 47.3814 221.072C46.4454 220.856 45.6414 220.508 44.9694 220.028C44.3214 219.548 43.8054 218.924 43.4214 218.156C43.0614 217.388 42.8814 216.44 42.8814 215.312C42.8814 214.232 43.0854 213.32 43.4934 212.576C43.9254 211.832 44.5014 211.232 45.2214 210.776C45.9414 210.296 46.7694 209.96 47.7054 209.768C48.6654 209.552 49.6614 209.444 50.6934 209.444C51.1734 209.444 51.6774 209.48 52.2054 209.552C52.7334 209.6 53.2974 209.696 53.8974 209.84V209.12C53.8974 208.616 53.8374 208.136 53.7174 207.68C53.5974 207.224 53.3814 206.828 53.0694 206.492C52.7814 206.132 52.3854 205.856 51.8814 205.664C51.4014 205.472 50.7894 205.376 50.0454 205.376C49.0374 205.376 48.1134 205.448 47.2734 205.592C46.4334 205.736 45.7494 205.904 45.2214 206.096L44.6814 202.568C45.2334 202.376 46.0374 202.184 47.0934 201.992C48.1494 201.8 49.2774 201.704 50.4774 201.704ZM71.1119 193.064C72.1199 193.064 73.0079 193.16 73.7759 193.352C74.5439 193.52 75.1199 193.676 75.5039 193.82L74.6759 197.42C74.2679 197.228 73.7879 197.072 73.2359 196.952C72.7079 196.832 72.1319 196.772 71.5079 196.772C70.8119 196.772 70.2239 196.88 69.7439 197.096C69.2639 197.288 68.8799 197.564 68.5919 197.924C68.3039 198.284 68.0999 198.728 67.9799 199.256C67.8599 199.76 67.7999 200.312 67.7999 200.912V202.172H74.6399V205.808H67.7999V221H63.4439V200.84C63.4439 198.416 64.0799 196.52 65.3519 195.152C66.6239 193.76 68.5439 193.064 71.1119 193.064ZM76.4624 211.676C76.4624 210.02 76.7024 208.568 77.1824 207.32C77.6864 206.072 78.3464 205.04 79.1624 204.224C79.9784 203.384 80.9144 202.76 81.9704 202.352C83.0264 201.92 84.1064 201.704 85.2104 201.704C87.8024 201.704 89.8184 202.508 91.2584 204.116C92.7224 205.724 93.4544 208.124 93.4544 211.316C93.4544 211.556 93.4424 211.832 93.4184 212.144C93.4184 212.432 93.4064 212.696 93.3824 212.936H80.9624C81.0824 214.448 81.6104 215.624 82.5464 216.464C83.5064 217.28 84.8864 217.688 86.6864 217.688C87.7424 217.688 88.7024 217.592 89.5664 217.4C90.4544 217.208 91.1504 217.004 91.6544 216.788L92.2304 220.352C91.9904 220.472 91.6544 220.604 91.2224 220.748C90.8144 220.868 90.3344 220.976 89.7824 221.072C89.2544 221.192 88.6784 221.288 88.0544 221.36C87.4304 221.432 86.7944 221.468 86.1464 221.468C84.4904 221.468 83.0504 221.228 81.8264 220.748C80.6024 220.244 79.5944 219.56 78.8024 218.696C78.0104 217.808 77.4224 216.776 77.0384 215.6C76.6544 214.4 76.4624 213.092 76.4624 211.676ZM89.0984 209.732C89.0984 209.132 89.0144 208.568 88.8464 208.04C88.6784 207.488 88.4264 207.02 88.0904 206.636C87.7784 206.228 87.3824 205.916 86.9024 205.7C86.4464 205.46 85.8944 205.34 85.2464 205.34C84.5744 205.34 83.9864 205.472 83.4824 205.736C82.9784 205.976 82.5464 206.3 82.1864 206.708C81.8504 207.116 81.5864 207.584 81.3944 208.112C81.2024 208.64 81.0704 209.18 80.9984 209.732H89.0984ZM97.8568 197.204L102.213 196.484V202.172H108.909V205.808H102.213V213.476C102.213 214.988 102.453 216.068 102.933 216.716C103.413 217.364 104.229 217.688 105.381 217.688C106.173 217.688 106.869 217.604 107.469 217.436C108.093 217.268 108.585 217.112 108.945 216.968L109.665 220.424C109.161 220.64 108.501 220.856 107.685 221.072C106.869 221.312 105.909 221.432 104.805 221.432C103.461 221.432 102.333 221.252 101.421 220.892C100.533 220.532 99.8248 220.016 99.2968 219.344C98.7688 218.648 98.3968 217.82 98.1808 216.86C97.9648 215.876 97.8568 214.76 97.8568 213.512V197.204ZM128.492 202.172C126.548 209.324 124.292 215.804 121.724 221.612C121.244 222.692 120.752 223.616 120.248 224.384C119.744 225.152 119.18 225.788 118.556 226.292C117.932 226.796 117.236 227.156 116.468 227.372C115.7 227.612 114.812 227.732 113.804 227.732C113.132 227.732 112.46 227.66 111.788 227.516C111.14 227.372 110.648 227.216 110.312 227.048L111.104 223.556C111.968 223.892 112.82 224.06 113.66 224.06C114.788 224.06 115.664 223.784 116.288 223.232C116.936 222.704 117.5 221.876 117.98 220.748C116.612 218.108 115.292 215.228 114.02 212.108C112.772 208.988 111.656 205.676 110.672 202.172H115.316C115.556 203.18 115.844 204.272 116.18 205.448C116.54 206.624 116.924 207.824 117.332 209.048C117.74 210.248 118.172 211.448 118.628 212.648C119.084 213.848 119.54 214.964 119.996 215.996C120.764 213.86 121.484 211.592 122.156 209.192C122.828 206.768 123.44 204.428 123.992 202.172H128.492Z" fill="#252835"/>
<path d="M67.3333 272.333C64.4 272.333 61.8889 271.289 59.8 269.2C57.7111 267.111 56.6667 264.6 56.6667 261.667C56.6667 258.733 57.7111 256.222 59.8 254.133C61.8889 252.044 64.4 251 67.3333 251C70.2667 251 72.7778 252.044 74.8667 254.133C76.9556 256.222 78 258.733 78 261.667C78 264.6 76.9556 267.111 74.8667 269.2C72.7778 271.289 70.2667 272.333 67.3333 272.333ZM51.3333 293.667C49.8667 293.667 48.6107 293.144 47.5653 292.099C46.52 291.053 45.9982 289.798 46 288.333V286.2C46 284.689 46.3893 283.3 47.168 282.032C47.9467 280.764 48.9796 279.798 50.2667 279.133C53.0222 277.756 55.8222 276.722 58.6667 276.032C61.5111 275.342 64.4 274.998 67.3333 275C70.2667 275 73.1556 275.345 76 276.035C78.8445 276.724 81.6444 277.757 84.4 279.133C85.6889 279.8 86.7227 280.767 87.5013 282.035C88.28 283.302 88.6685 284.691 88.6667 286.2V288.333C88.6667 289.8 88.144 291.056 87.0987 292.101C86.0533 293.147 84.7982 293.668 83.3333 293.667H51.3333Z" fill="#252835"/>
<path d="M305 710.75C285.563 710.75 269.75 726.563 269.75 746C269.75 765.437 285.563 781.25 305 781.25C324.437 781.25 340.25 765.437 340.25 746C340.25 726.563 324.437 710.75 305 710.75ZM321.764 762.764C321.213 763.314 320.466 763.624 319.688 763.624C318.909 763.624 318.162 763.314 317.611 762.764L309.746 754.901C306.423 757.187 302.366 758.149 298.37 757.598C294.375 757.047 290.729 755.023 288.149 751.923C285.569 748.823 284.241 744.87 284.425 740.841C284.609 736.811 286.292 732.996 289.144 730.144C291.996 727.292 295.811 725.609 299.841 725.425C303.87 725.241 307.823 726.569 310.923 729.149C314.023 731.729 316.047 735.375 316.598 739.37C317.149 743.366 316.187 747.423 313.901 750.746L321.764 758.611C322.314 759.162 322.624 759.909 322.624 760.688C322.624 761.466 322.314 762.213 321.764 762.764Z" fill="#252835"/>
<path d="M300.594 751.875C306.272 751.875 310.875 747.272 310.875 741.594C310.875 735.916 306.272 731.312 300.594 731.312C294.916 731.312 290.312 735.916 290.312 741.594C290.312 747.272 294.916 751.875 300.594 751.875Z" fill="#252835"/>
<path d="M353.208 187.594L344.354 178.844L347.271 175.927C348.069 175.128 349.051 174.729 350.215 174.729C351.378 174.729 352.359 175.128 353.156 175.927L356.073 178.844C356.872 179.642 357.288 180.606 357.323 181.735C357.358 182.865 356.976 183.828 356.177 184.625L353.208 187.594ZM321.333 212.75C320.743 212.75 320.248 212.55 319.848 212.15C319.448 211.75 319.249 211.256 319.25 210.667V204.781C319.25 204.503 319.302 204.234 319.406 203.973C319.51 203.712 319.667 203.478 319.875 203.271L341.333 181.813L350.188 190.667L328.729 212.125C328.521 212.333 328.287 212.49 328.027 212.594C327.767 212.698 327.498 212.75 327.219 212.75H321.333Z" fill="#252835"/>
<rect width="390" height="33.2558" transform="translate(0 803)" fill="#F5F5F5"/>
<rect x="125.84" y="824.824" width="139" height="5" rx="2.5" fill="black"/>
</svg>
