<svg width="375" height="812" viewBox="0 0 375 812" fill="none" xmlns="http://www.w3.org/2000/svg">
<rect width="375" height="812" rx="30" fill="#F5F5F5"/>
<path d="M90.7585 112L80.9062 77.0909H87.7074L93.9972 102.744H94.321L101.037 77.0909H107.224L113.957 102.761H114.264L120.554 77.0909H127.355L117.503 112H111.264L104.276 87.5057H104.003L96.9972 112H90.7585ZM140.386 112.511C137.761 112.511 135.494 111.966 133.585 110.875C131.688 109.773 130.227 108.216 129.205 106.205C128.182 104.182 127.67 101.801 127.67 99.0625C127.67 96.3693 128.182 94.0057 129.205 91.9716C130.239 89.9261 131.682 88.3352 133.534 87.1989C135.386 86.0511 137.562 85.4773 140.062 85.4773C141.676 85.4773 143.199 85.7386 144.631 86.2614C146.074 86.7727 147.347 87.5682 148.449 88.6477C149.563 89.7273 150.438 91.1023 151.074 92.7727C151.71 94.4318 152.028 96.4091 152.028 98.7045V100.597H130.568V96.4375H146.114C146.102 95.2557 145.847 94.2045 145.347 93.2841C144.847 92.3523 144.148 91.6193 143.25 91.0852C142.364 90.5511 141.33 90.2841 140.148 90.2841C138.886 90.2841 137.778 90.5909 136.824 91.2045C135.869 91.8068 135.125 92.6023 134.591 93.5909C134.068 94.5682 133.801 95.642 133.79 96.8125V100.443C133.79 101.966 134.068 103.273 134.625 104.364C135.182 105.443 135.96 106.273 136.96 106.852C137.96 107.42 139.131 107.705 140.472 107.705C141.369 107.705 142.182 107.58 142.909 107.33C143.636 107.068 144.267 106.688 144.801 106.188C145.335 105.688 145.739 105.068 146.011 104.33L151.773 104.977C151.409 106.5 150.716 107.83 149.693 108.966C148.682 110.091 147.386 110.966 145.807 111.591C144.227 112.205 142.42 112.511 140.386 112.511ZM163.419 77.0909V112H157.249V77.0909H163.419ZM181.185 112.511C178.571 112.511 176.327 111.938 174.452 110.79C172.588 109.642 171.151 108.057 170.139 106.034C169.139 104 168.639 101.659 168.639 99.0114C168.639 96.3523 169.151 94.0057 170.173 91.9716C171.196 89.9261 172.639 88.3352 174.503 87.1989C176.378 86.0511 178.594 85.4773 181.151 85.4773C183.276 85.4773 185.156 85.8693 186.793 86.6534C188.44 87.4261 189.753 88.5227 190.73 89.9432C191.707 91.3523 192.264 93 192.401 94.8864H186.503C186.264 93.625 185.696 92.5739 184.798 91.733C183.912 90.8807 182.724 90.4545 181.236 90.4545C179.974 90.4545 178.866 90.7955 177.912 91.4773C176.957 92.1477 176.213 93.1136 175.679 94.375C175.156 95.6364 174.895 97.1477 174.895 98.9091C174.895 100.693 175.156 102.227 175.679 103.511C176.202 104.784 176.935 105.767 177.878 106.46C178.832 107.142 179.952 107.483 181.236 107.483C182.145 107.483 182.957 107.312 183.673 106.972C184.401 106.619 185.009 106.114 185.497 105.455C185.986 104.795 186.321 103.994 186.503 103.051H192.401C192.253 104.903 191.707 106.545 190.764 107.977C189.821 109.398 188.537 110.511 186.912 111.318C185.287 112.114 183.378 112.511 181.185 112.511ZM208.888 112.511C206.331 112.511 204.115 111.949 202.24 110.824C200.365 109.699 198.911 108.125 197.876 106.102C196.854 104.08 196.342 101.716 196.342 99.0114C196.342 96.3068 196.854 93.9375 197.876 91.9034C198.911 89.8693 200.365 88.2898 202.24 87.1648C204.115 86.0398 206.331 85.4773 208.888 85.4773C211.445 85.4773 213.661 86.0398 215.536 87.1648C217.411 88.2898 218.859 89.8693 219.882 91.9034C220.916 93.9375 221.433 96.3068 221.433 99.0114C221.433 101.716 220.916 104.08 219.882 106.102C218.859 108.125 217.411 109.699 215.536 110.824C213.661 111.949 211.445 112.511 208.888 112.511ZM208.922 107.568C210.308 107.568 211.467 107.187 212.399 106.426C213.331 105.653 214.024 104.619 214.479 103.324C214.945 102.028 215.178 100.585 215.178 98.9943C215.178 97.392 214.945 95.9432 214.479 94.6477C214.024 93.3409 213.331 92.3011 212.399 91.5284C211.467 90.7557 210.308 90.3693 208.922 90.3693C207.501 90.3693 206.32 90.7557 205.376 91.5284C204.445 92.3011 203.746 93.3409 203.28 94.6477C202.825 95.9432 202.598 97.392 202.598 98.9943C202.598 100.585 202.825 102.028 203.28 103.324C203.746 104.619 204.445 105.653 205.376 106.426C206.32 107.187 207.501 107.568 208.922 107.568ZM226.67 112V85.8182H232.568V90.267H232.875C233.42 88.767 234.324 87.5966 235.585 86.7557C236.847 85.9034 238.352 85.4773 240.102 85.4773C241.875 85.4773 243.369 85.9091 244.585 86.7727C245.813 87.625 246.676 88.7898 247.176 90.267H247.449C248.028 88.8125 249.006 87.6534 250.381 86.7898C251.767 85.9148 253.409 85.4773 255.307 85.4773C257.716 85.4773 259.682 86.2386 261.205 87.7614C262.727 89.2841 263.489 91.5057 263.489 94.4261V112H257.301V95.3807C257.301 93.7557 256.869 92.5682 256.006 91.8182C255.142 91.0568 254.085 90.6761 252.835 90.6761C251.347 90.6761 250.182 91.142 249.341 92.0739C248.511 92.9943 248.097 94.1932 248.097 95.6705V112H242.045V95.125C242.045 93.7727 241.636 92.6932 240.818 91.8864C240.011 91.0795 238.955 90.6761 237.648 90.6761C236.761 90.6761 235.955 90.9034 235.227 91.358C234.5 91.8011 233.92 92.4318 233.489 93.25C233.057 94.0568 232.841 95 232.841 96.0795V112H226.67ZM281.339 112.511C278.714 112.511 276.447 111.966 274.538 110.875C272.641 109.773 271.18 108.216 270.158 106.205C269.135 104.182 268.624 101.801 268.624 99.0625C268.624 96.3693 269.135 94.0057 270.158 91.9716C271.192 89.9261 272.635 88.3352 274.487 87.1989C276.339 86.0511 278.516 85.4773 281.016 85.4773C282.629 85.4773 284.152 85.7386 285.584 86.2614C287.027 86.7727 288.3 87.5682 289.402 88.6477C290.516 89.7273 291.391 91.1023 292.027 92.7727C292.663 94.4318 292.982 96.4091 292.982 98.7045V100.597H271.521V96.4375H287.067C287.055 95.2557 286.8 94.2045 286.3 93.2841C285.8 92.3523 285.101 91.6193 284.203 91.0852C283.317 90.5511 282.283 90.2841 281.101 90.2841C279.839 90.2841 278.732 90.5909 277.777 91.2045C276.822 91.8068 276.078 92.6023 275.544 93.5909C275.021 94.5682 274.754 95.642 274.743 96.8125V100.443C274.743 101.966 275.021 103.273 275.578 104.364C276.135 105.443 276.913 106.273 277.913 106.852C278.913 107.42 280.084 107.705 281.425 107.705C282.322 107.705 283.135 107.58 283.862 107.33C284.589 107.068 285.22 106.688 285.754 106.188C286.288 105.688 286.692 105.068 286.964 104.33L292.726 104.977C292.362 106.5 291.669 107.83 290.646 108.966C289.635 110.091 288.339 110.966 286.76 111.591C285.18 112.205 283.374 112.511 281.339 112.511ZM181.798 136.364V139.432H171.072V136.364H181.798ZM173.949 131.659H177.771V150.234C177.771 150.976 177.882 151.534 178.104 151.909C178.325 152.276 178.611 152.527 178.96 152.663C179.318 152.791 179.706 152.855 180.124 152.855C180.43 152.855 180.699 152.834 180.929 152.791C181.159 152.749 181.338 152.714 181.466 152.689L182.156 155.847C181.935 155.932 181.619 156.017 181.21 156.102C180.801 156.196 180.29 156.247 179.676 156.256C178.67 156.273 177.733 156.094 176.864 155.719C175.994 155.344 175.291 154.764 174.754 153.98C174.217 153.196 173.949 152.212 173.949 151.027V131.659ZM194.087 156.396C192.246 156.396 190.64 155.974 189.267 155.131C187.895 154.287 186.83 153.107 186.071 151.589C185.313 150.072 184.934 148.3 184.934 146.271C184.934 144.234 185.313 142.453 186.071 140.928C186.83 139.402 187.895 138.217 189.267 137.374C190.64 136.53 192.246 136.108 194.087 136.108C195.928 136.108 197.534 136.53 198.907 137.374C200.279 138.217 201.344 139.402 202.103 140.928C202.861 142.453 203.24 144.234 203.24 146.271C203.24 148.3 202.861 150.072 202.103 151.589C201.344 153.107 200.279 154.287 198.907 155.131C197.534 155.974 195.928 156.396 194.087 156.396ZM194.1 153.188C195.293 153.188 196.282 152.872 197.066 152.241C197.85 151.611 198.429 150.771 198.804 149.723C199.188 148.675 199.38 147.52 199.38 146.259C199.38 145.006 199.188 143.855 198.804 142.807C198.429 141.75 197.85 140.902 197.066 140.263C196.282 139.624 195.293 139.304 194.1 139.304C192.898 139.304 191.901 139.624 191.108 140.263C190.324 140.902 189.74 141.75 189.357 142.807C188.982 143.855 188.794 145.006 188.794 146.259C188.794 147.52 188.982 148.675 189.357 149.723C189.74 150.771 190.324 151.611 191.108 152.241C191.901 152.872 192.898 153.188 194.1 153.188ZM170.935 180.364V183.432H160.209V180.364H170.935ZM163.086 175.659H166.908V194.234C166.908 194.976 167.019 195.534 167.24 195.909C167.462 196.276 167.748 196.527 168.097 196.663C168.455 196.791 168.843 196.855 169.26 196.855C169.567 196.855 169.836 196.834 170.066 196.791C170.296 196.749 170.475 196.714 170.603 196.689L171.293 199.847C171.071 199.932 170.756 200.017 170.347 200.102C169.938 200.196 169.426 200.247 168.813 200.256C167.807 200.273 166.87 200.094 166 199.719C165.131 199.344 164.428 198.764 163.891 197.98C163.354 197.196 163.086 196.212 163.086 195.027V175.659ZM179.408 188.341V200H175.585V173.818H179.357V183.56H179.599C180.06 182.503 180.763 181.663 181.709 181.041C182.655 180.419 183.891 180.108 185.416 180.108C186.763 180.108 187.939 180.385 188.945 180.939C189.959 181.493 190.743 182.32 191.297 183.419C191.859 184.51 192.141 185.874 192.141 187.51V200H188.318V187.97C188.318 186.53 187.947 185.413 187.206 184.621C186.464 183.82 185.433 183.419 184.112 183.419C183.209 183.419 182.399 183.611 181.683 183.994C180.976 184.378 180.418 184.94 180.009 185.682C179.608 186.415 179.408 187.301 179.408 188.341ZM205.705 200.396C203.77 200.396 202.104 199.983 200.706 199.156C199.317 198.321 198.243 197.149 197.484 195.641C196.734 194.124 196.359 192.347 196.359 190.31C196.359 188.298 196.734 186.526 197.484 184.991C198.243 183.457 199.3 182.26 200.655 181.399C202.018 180.538 203.612 180.108 205.436 180.108C206.544 180.108 207.618 180.291 208.658 180.658C209.697 181.024 210.631 181.599 211.457 182.384C212.284 183.168 212.936 184.186 213.413 185.439C213.891 186.683 214.129 188.196 214.129 189.977V191.332H198.52V188.469H210.384C210.384 187.463 210.179 186.572 209.77 185.797C209.361 185.013 208.786 184.395 208.044 183.943C207.311 183.491 206.45 183.266 205.462 183.266C204.388 183.266 203.45 183.53 202.649 184.058C201.857 184.578 201.243 185.26 200.808 186.104C200.382 186.939 200.169 187.847 200.169 188.827V191.064C200.169 192.376 200.399 193.493 200.859 194.413C201.328 195.334 201.98 196.037 202.815 196.523C203.651 197 204.626 197.239 205.743 197.239C206.467 197.239 207.128 197.136 207.724 196.932C208.321 196.719 208.837 196.403 209.271 195.986C209.706 195.568 210.038 195.053 210.268 194.439L213.886 195.091C213.597 196.156 213.077 197.089 212.327 197.891C211.585 198.683 210.652 199.301 209.527 199.744C208.411 200.179 207.136 200.396 205.705 200.396ZM57.7372 223.091H63.0213V246.051C63.0213 248.494 62.4474 250.659 61.2997 252.545C60.152 254.42 58.5384 255.898 56.4588 256.977C54.3793 258.045 51.9418 258.58 49.1463 258.58C46.3622 258.58 43.9304 258.045 41.8509 256.977C39.7713 255.898 38.1577 254.42 37.0099 252.545C35.8622 250.659 35.2884 248.494 35.2884 246.051V223.091H40.5554V245.625C40.5554 247.205 40.902 248.608 41.5952 249.835C42.2997 251.062 43.294 252.028 44.5781 252.733C45.8622 253.426 47.3849 253.773 49.1463 253.773C50.919 253.773 52.4474 253.426 53.7315 252.733C55.027 252.028 56.0156 251.062 56.6974 249.835C57.3906 248.608 57.7372 247.205 57.7372 245.625V223.091ZM75.3665 242.455V258H70.2699V231.818H75.1619V236.08H75.4858C76.0881 234.693 77.0313 233.58 78.3153 232.739C79.6108 231.898 81.2415 231.477 83.2074 231.477C84.9915 231.477 86.554 231.852 87.8949 232.602C89.2358 233.341 90.2756 234.443 91.0142 235.909C91.7528 237.375 92.1222 239.187 92.1222 241.347V258H87.0256V241.96C87.0256 240.062 86.5313 238.58 85.5426 237.511C84.554 236.432 83.196 235.892 81.4688 235.892C80.2869 235.892 79.2358 236.148 78.3153 236.659C77.4063 237.17 76.6847 237.92 76.1506 238.909C75.6278 239.886 75.3665 241.068 75.3665 242.455ZM98.9574 258V231.818H104.054V258H98.9574ZM101.531 227.778C100.645 227.778 99.8835 227.483 99.2472 226.892C98.6222 226.29 98.3097 225.574 98.3097 224.744C98.3097 223.903 98.6222 223.187 99.2472 222.597C99.8835 221.994 100.645 221.693 101.531 221.693C102.418 221.693 103.173 221.994 103.798 222.597C104.435 223.187 104.753 223.903 104.753 224.744C104.753 225.574 104.435 226.29 103.798 226.892C103.173 227.483 102.418 227.778 101.531 227.778ZM123.132 231.818V235.909H108.831V231.818H123.132ZM112.666 225.545H117.763V250.312C117.763 251.301 117.911 252.045 118.206 252.545C118.501 253.034 118.882 253.369 119.348 253.551C119.825 253.722 120.342 253.807 120.899 253.807C121.308 253.807 121.666 253.778 121.973 253.722C122.28 253.665 122.518 253.619 122.689 253.585L123.609 257.795C123.314 257.909 122.893 258.023 122.348 258.136C121.803 258.261 121.121 258.33 120.303 258.341C118.962 258.364 117.712 258.125 116.553 257.625C115.393 257.125 114.456 256.352 113.74 255.307C113.024 254.261 112.666 252.949 112.666 251.369V225.545ZM139.773 258.528C137.193 258.528 134.972 257.977 133.108 256.875C131.256 255.761 129.824 254.199 128.812 252.188C127.812 250.165 127.312 247.795 127.312 245.08C127.312 242.398 127.812 240.034 128.812 237.989C129.824 235.943 131.233 234.347 133.04 233.199C134.858 232.051 136.983 231.477 139.415 231.477C140.892 231.477 142.324 231.722 143.71 232.21C145.097 232.699 146.341 233.466 147.443 234.511C148.545 235.557 149.415 236.915 150.051 238.585C150.688 240.244 151.006 242.261 151.006 244.636V246.443H130.193V242.625H146.011C146.011 241.284 145.739 240.097 145.193 239.062C144.648 238.017 143.881 237.193 142.892 236.591C141.915 235.989 140.767 235.688 139.449 235.688C138.017 235.688 136.767 236.04 135.699 236.744C134.642 237.437 133.824 238.347 133.244 239.472C132.676 240.585 132.392 241.795 132.392 243.102V246.085C132.392 247.835 132.699 249.324 133.312 250.551C133.938 251.778 134.807 252.716 135.92 253.364C137.034 254 138.335 254.318 139.824 254.318C140.79 254.318 141.67 254.182 142.466 253.909C143.261 253.625 143.949 253.205 144.528 252.648C145.108 252.091 145.551 251.403 145.858 250.585L150.682 251.455C150.295 252.875 149.602 254.119 148.602 255.188C147.614 256.244 146.369 257.068 144.869 257.659C143.381 258.239 141.682 258.528 139.773 258.528ZM166.462 258.511C164.348 258.511 162.462 257.972 160.803 256.892C159.155 255.801 157.859 254.25 156.916 252.239C155.984 250.216 155.518 247.79 155.518 244.96C155.518 242.131 155.99 239.71 156.933 237.699C157.888 235.687 159.195 234.148 160.854 233.08C162.513 232.011 164.393 231.477 166.496 231.477C168.121 231.477 169.428 231.75 170.416 232.295C171.416 232.83 172.189 233.455 172.734 234.17C173.291 234.886 173.723 235.517 174.03 236.062H174.337V223.091H179.433V258H174.456V253.926H174.03C173.723 254.483 173.28 255.119 172.7 255.835C172.132 256.551 171.348 257.176 170.348 257.71C169.348 258.244 168.053 258.511 166.462 258.511ZM167.587 254.165C169.053 254.165 170.291 253.778 171.303 253.006C172.325 252.222 173.098 251.136 173.621 249.75C174.155 248.364 174.422 246.75 174.422 244.909C174.422 243.091 174.161 241.5 173.638 240.136C173.115 238.773 172.348 237.71 171.337 236.949C170.325 236.187 169.075 235.807 167.587 235.807C166.053 235.807 164.774 236.205 163.751 237C162.729 237.795 161.956 238.881 161.433 240.256C160.922 241.631 160.666 243.182 160.666 244.909C160.666 246.659 160.928 248.233 161.45 249.631C161.973 251.028 162.746 252.136 163.768 252.955C164.803 253.761 166.075 254.165 167.587 254.165ZM218.859 232.261C218.678 230.648 217.928 229.398 216.609 228.511C215.291 227.614 213.632 227.165 211.632 227.165C210.2 227.165 208.962 227.392 207.916 227.847C206.871 228.29 206.058 228.903 205.479 229.688C204.911 230.46 204.626 231.341 204.626 232.33C204.626 233.159 204.82 233.875 205.206 234.477C205.604 235.08 206.121 235.585 206.757 235.994C207.405 236.392 208.098 236.727 208.837 237C209.575 237.261 210.286 237.477 210.967 237.648L214.376 238.534C215.49 238.807 216.632 239.176 217.803 239.642C218.973 240.108 220.058 240.722 221.058 241.483C222.058 242.244 222.865 243.188 223.479 244.312C224.104 245.438 224.416 246.784 224.416 248.352C224.416 250.33 223.905 252.085 222.882 253.619C221.871 255.153 220.399 256.364 218.467 257.25C216.547 258.136 214.223 258.58 211.496 258.58C208.882 258.58 206.621 258.165 204.712 257.335C202.803 256.506 201.308 255.33 200.229 253.807C199.149 252.273 198.553 250.455 198.439 248.352H203.723C203.825 249.614 204.234 250.665 204.95 251.506C205.678 252.335 206.604 252.955 207.729 253.364C208.865 253.761 210.109 253.96 211.462 253.96C212.95 253.96 214.274 253.727 215.433 253.261C216.604 252.784 217.524 252.125 218.195 251.284C218.865 250.432 219.2 249.437 219.2 248.301C219.2 247.267 218.905 246.42 218.314 245.761C217.734 245.102 216.945 244.557 215.945 244.125C214.956 243.693 213.837 243.312 212.587 242.983L208.462 241.858C205.666 241.097 203.45 239.977 201.814 238.5C200.189 237.023 199.376 235.068 199.376 232.636C199.376 230.625 199.922 228.869 201.013 227.369C202.104 225.869 203.581 224.705 205.445 223.875C207.308 223.034 209.411 222.614 211.751 222.614C214.115 222.614 216.2 223.028 218.007 223.858C219.825 224.688 221.257 225.83 222.303 227.284C223.348 228.727 223.893 230.386 223.939 232.261H218.859ZM242.523 231.818V235.909H228.222V231.818H242.523ZM232.057 225.545H237.153V250.312C237.153 251.301 237.301 252.045 237.597 252.545C237.892 253.034 238.273 253.369 238.739 253.551C239.216 253.722 239.733 253.807 240.29 253.807C240.699 253.807 241.057 253.778 241.364 253.722C241.67 253.665 241.909 253.619 242.08 253.585L243 257.795C242.705 257.909 242.284 258.023 241.739 258.136C241.193 258.261 240.511 258.33 239.693 258.341C238.352 258.364 237.102 258.125 235.943 257.625C234.784 257.125 233.847 256.352 233.131 255.307C232.415 254.261 232.057 252.949 232.057 251.369V225.545ZM255.78 258.58C254.121 258.58 252.621 258.273 251.28 257.659C249.939 257.034 248.876 256.131 248.092 254.949C247.32 253.767 246.933 252.318 246.933 250.602C246.933 249.125 247.217 247.909 247.786 246.955C248.354 246 249.121 245.244 250.087 244.688C251.053 244.131 252.132 243.71 253.325 243.426C254.518 243.142 255.734 242.926 256.973 242.778C258.541 242.597 259.814 242.449 260.791 242.335C261.768 242.21 262.479 242.011 262.922 241.739C263.365 241.466 263.587 241.023 263.587 240.409V240.29C263.587 238.801 263.166 237.648 262.325 236.83C261.496 236.011 260.257 235.602 258.609 235.602C256.893 235.602 255.541 235.983 254.553 236.744C253.575 237.494 252.899 238.33 252.524 239.25L247.734 238.159C248.303 236.568 249.132 235.284 250.223 234.307C251.325 233.318 252.592 232.602 254.024 232.159C255.456 231.705 256.962 231.477 258.541 231.477C259.587 231.477 260.695 231.602 261.865 231.852C263.047 232.091 264.149 232.534 265.172 233.182C266.206 233.83 267.053 234.756 267.712 235.96C268.371 237.153 268.7 238.705 268.7 240.614V258H263.723V254.42H263.518C263.189 255.08 262.695 255.727 262.036 256.364C261.376 257 260.53 257.528 259.496 257.949C258.462 258.369 257.223 258.58 255.78 258.58ZM256.888 254.489C258.297 254.489 259.501 254.21 260.501 253.653C261.513 253.097 262.28 252.369 262.803 251.472C263.337 250.562 263.604 249.591 263.604 248.557V245.182C263.422 245.364 263.07 245.534 262.547 245.693C262.036 245.841 261.45 245.972 260.791 246.085C260.132 246.187 259.49 246.284 258.865 246.375C258.24 246.455 257.717 246.523 257.297 246.58C256.308 246.705 255.405 246.915 254.587 247.21C253.78 247.506 253.132 247.932 252.643 248.489C252.166 249.034 251.928 249.761 251.928 250.67C251.928 251.932 252.393 252.886 253.325 253.534C254.257 254.17 255.445 254.489 256.888 254.489ZM287.71 231.818V235.909H273.409V231.818H287.71ZM277.244 225.545H282.341V250.312C282.341 251.301 282.489 252.045 282.784 252.545C283.08 253.034 283.46 253.369 283.926 253.551C284.403 253.722 284.92 253.807 285.477 253.807C285.886 253.807 286.244 253.778 286.551 253.722C286.858 253.665 287.097 253.619 287.267 253.585L288.188 257.795C287.892 257.909 287.472 258.023 286.926 258.136C286.381 258.261 285.699 258.33 284.881 258.341C283.54 258.364 282.29 258.125 281.131 257.625C279.972 257.125 279.034 256.352 278.318 255.307C277.602 254.261 277.244 252.949 277.244 251.369V225.545ZM304.351 258.528C301.771 258.528 299.55 257.977 297.686 256.875C295.834 255.761 294.402 254.199 293.391 252.188C292.391 250.165 291.891 247.795 291.891 245.08C291.891 242.398 292.391 240.034 293.391 237.989C294.402 235.943 295.811 234.347 297.618 233.199C299.436 232.051 301.561 231.477 303.993 231.477C305.47 231.477 306.902 231.722 308.288 232.21C309.675 232.699 310.919 233.466 312.021 234.511C313.124 235.557 313.993 236.915 314.629 238.585C315.266 240.244 315.584 242.261 315.584 244.636V246.443H294.771V242.625H310.589C310.589 241.284 310.317 240.097 309.771 239.062C309.226 238.017 308.459 237.193 307.47 236.591C306.493 235.989 305.345 235.688 304.027 235.688C302.595 235.688 301.345 236.04 300.277 236.744C299.22 237.437 298.402 238.347 297.822 239.472C297.254 240.585 296.97 241.795 296.97 243.102V246.085C296.97 247.835 297.277 249.324 297.891 250.551C298.516 251.778 299.385 252.716 300.499 253.364C301.612 254 302.913 254.318 304.402 254.318C305.368 254.318 306.249 254.182 307.044 253.909C307.839 253.625 308.527 253.205 309.107 252.648C309.686 252.091 310.129 251.403 310.436 250.585L315.26 251.455C314.874 252.875 314.18 254.119 313.18 255.188C312.192 256.244 310.947 257.068 309.447 257.659C307.959 258.239 306.26 258.528 304.351 258.528ZM340.858 238.21L336.239 239.028C336.045 238.437 335.739 237.875 335.318 237.341C334.909 236.807 334.352 236.369 333.648 236.028C332.943 235.687 332.063 235.517 331.006 235.517C329.563 235.517 328.358 235.841 327.392 236.489C326.426 237.125 325.943 237.949 325.943 238.96C325.943 239.835 326.267 240.54 326.915 241.074C327.563 241.608 328.608 242.045 330.051 242.386L334.21 243.341C336.619 243.898 338.415 244.756 339.597 245.915C340.778 247.074 341.369 248.58 341.369 250.432C341.369 252 340.915 253.398 340.006 254.625C339.108 255.841 337.852 256.795 336.239 257.489C334.636 258.182 332.778 258.528 330.665 258.528C327.733 258.528 325.341 257.903 323.489 256.653C321.636 255.392 320.5 253.602 320.08 251.284L325.006 250.534C325.313 251.818 325.943 252.79 326.898 253.449C327.852 254.097 329.097 254.42 330.631 254.42C332.301 254.42 333.636 254.074 334.636 253.381C335.636 252.676 336.136 251.818 336.136 250.807C336.136 249.989 335.83 249.301 335.216 248.744C334.614 248.187 333.688 247.767 332.438 247.483L328.006 246.511C325.563 245.955 323.756 245.068 322.585 243.852C321.426 242.636 320.847 241.097 320.847 239.233C320.847 237.687 321.278 236.335 322.142 235.176C323.006 234.017 324.199 233.114 325.722 232.466C327.244 231.807 328.989 231.477 330.955 231.477C333.784 231.477 336.011 232.091 337.636 233.318C339.261 234.534 340.335 236.165 340.858 238.21ZM180.851 302.396C179.01 302.396 177.403 301.974 176.031 301.131C174.659 300.287 173.594 299.107 172.835 297.589C172.077 296.072 171.697 294.3 171.697 292.271C171.697 290.234 172.077 288.453 172.835 286.928C173.594 285.402 174.659 284.217 176.031 283.374C177.403 282.53 179.01 282.108 180.851 282.108C182.692 282.108 184.298 282.53 185.67 283.374C187.042 284.217 188.108 285.402 188.866 286.928C189.625 288.453 190.004 290.234 190.004 292.271C190.004 294.3 189.625 296.072 188.866 297.589C188.108 299.107 187.042 300.287 185.67 301.131C184.298 301.974 182.692 302.396 180.851 302.396ZM180.863 299.188C182.057 299.188 183.045 298.872 183.829 298.241C184.613 297.611 185.193 296.771 185.568 295.723C185.952 294.675 186.143 293.52 186.143 292.259C186.143 291.006 185.952 289.855 185.568 288.807C185.193 287.75 184.613 286.902 183.829 286.263C183.045 285.624 182.057 285.304 180.863 285.304C179.662 285.304 178.665 285.624 177.872 286.263C177.088 286.902 176.504 287.75 176.121 288.807C175.746 289.855 175.558 291.006 175.558 292.259C175.558 293.52 175.746 294.675 176.121 295.723C176.504 296.771 177.088 297.611 177.872 298.241C178.665 298.872 179.662 299.188 180.863 299.188ZM203.616 282.364V285.432H192.519V282.364H203.616ZM195.562 302V280.088C195.562 278.861 195.83 277.842 196.367 277.033C196.904 276.214 197.616 275.605 198.502 275.205C199.389 274.795 200.352 274.591 201.392 274.591C202.159 274.591 202.815 274.655 203.36 274.783C203.906 274.902 204.311 275.013 204.575 275.115L203.68 278.209C203.501 278.158 203.271 278.098 202.99 278.03C202.708 277.953 202.367 277.915 201.967 277.915C201.038 277.915 200.373 278.145 199.972 278.605C199.58 279.065 199.384 279.73 199.384 280.599V302H195.562ZM124.285 325.091V360H119.444L101.7 334.398H101.376V360H96.1087V325.091H100.984L118.745 350.727H119.069V325.091H124.285ZM139.178 360.58C137.519 360.58 136.019 360.273 134.678 359.659C133.337 359.034 132.275 358.131 131.491 356.949C130.718 355.767 130.332 354.318 130.332 352.602C130.332 351.125 130.616 349.909 131.184 348.955C131.752 348 132.519 347.244 133.485 346.688C134.451 346.131 135.531 345.71 136.724 345.426C137.917 345.142 139.133 344.926 140.371 344.778C141.94 344.597 143.212 344.449 144.19 344.335C145.167 344.21 145.877 344.011 146.32 343.739C146.763 343.466 146.985 343.023 146.985 342.409V342.29C146.985 340.801 146.565 339.648 145.724 338.83C144.894 338.011 143.656 337.602 142.008 337.602C140.292 337.602 138.94 337.983 137.951 338.744C136.974 339.494 136.298 340.33 135.923 341.25L131.133 340.159C131.701 338.568 132.531 337.284 133.621 336.307C134.724 335.318 135.991 334.602 137.423 334.159C138.854 333.705 140.36 333.477 141.94 333.477C142.985 333.477 144.093 333.602 145.263 333.852C146.445 334.091 147.548 334.534 148.57 335.182C149.604 335.83 150.451 336.756 151.11 337.96C151.769 339.153 152.099 340.705 152.099 342.614V360H147.121V356.42H146.917C146.587 357.08 146.093 357.727 145.434 358.364C144.775 359 143.928 359.528 142.894 359.949C141.86 360.369 140.621 360.58 139.178 360.58ZM140.286 356.489C141.695 356.489 142.9 356.21 143.9 355.653C144.911 355.097 145.678 354.369 146.201 353.472C146.735 352.562 147.002 351.591 147.002 350.557V347.182C146.82 347.364 146.468 347.534 145.945 347.693C145.434 347.841 144.849 347.972 144.19 348.085C143.531 348.187 142.888 348.284 142.263 348.375C141.638 348.455 141.116 348.523 140.695 348.58C139.707 348.705 138.803 348.915 137.985 349.21C137.178 349.506 136.531 349.932 136.042 350.489C135.565 351.034 135.326 351.761 135.326 352.67C135.326 353.932 135.792 354.886 136.724 355.534C137.656 356.17 138.843 356.489 140.286 356.489ZM171.109 333.818V337.909H156.808V333.818H171.109ZM160.643 327.545H165.739V352.312C165.739 353.301 165.887 354.045 166.183 354.545C166.478 355.034 166.859 355.369 167.325 355.551C167.802 355.722 168.319 355.807 168.876 355.807C169.285 355.807 169.643 355.778 169.95 355.722C170.256 355.665 170.495 355.619 170.665 355.585L171.586 359.795C171.29 359.909 170.87 360.023 170.325 360.136C169.779 360.261 169.097 360.33 168.279 360.341C166.938 360.364 165.688 360.125 164.529 359.625C163.37 359.125 162.433 358.352 161.717 357.307C161.001 356.261 160.643 354.949 160.643 353.369V327.545ZM176.746 360V333.818H181.843V360H176.746ZM179.32 329.778C178.434 329.778 177.673 329.483 177.036 328.892C176.411 328.29 176.099 327.574 176.099 326.744C176.099 325.903 176.411 325.187 177.036 324.597C177.673 323.994 178.434 323.693 179.32 323.693C180.207 323.693 180.962 323.994 181.587 324.597C182.224 325.187 182.542 325.903 182.542 326.744C182.542 327.574 182.224 328.29 181.587 328.892C180.962 329.483 180.207 329.778 179.32 329.778ZM199.728 360.528C197.273 360.528 195.131 359.966 193.302 358.841C191.472 357.716 190.052 356.142 189.04 354.119C188.029 352.097 187.523 349.733 187.523 347.028C187.523 344.312 188.029 341.937 189.04 339.903C190.052 337.869 191.472 336.29 193.302 335.165C195.131 334.04 197.273 333.477 199.728 333.477C202.183 333.477 204.325 334.04 206.154 335.165C207.984 336.29 209.404 337.869 210.415 339.903C211.427 341.937 211.933 344.312 211.933 347.028C211.933 349.733 211.427 352.097 210.415 354.119C209.404 356.142 207.984 357.716 206.154 358.841C204.325 359.966 202.183 360.528 199.728 360.528ZM199.745 356.25C201.336 356.25 202.654 355.83 203.7 354.989C204.745 354.148 205.518 353.028 206.018 351.631C206.529 350.233 206.785 348.693 206.785 347.011C206.785 345.341 206.529 343.807 206.018 342.409C205.518 341 204.745 339.869 203.7 339.017C202.654 338.165 201.336 337.739 199.745 337.739C198.143 337.739 196.813 338.165 195.756 339.017C194.711 339.869 193.933 341 193.421 342.409C192.921 343.807 192.671 345.341 192.671 347.011C192.671 348.693 192.921 350.233 193.421 351.631C193.933 353.028 194.711 354.148 195.756 354.989C196.813 355.83 198.143 356.25 199.745 356.25ZM222.718 344.455V360H217.621V333.818H222.513V338.08H222.837C223.44 336.693 224.383 335.58 225.667 334.739C226.962 333.898 228.593 333.477 230.559 333.477C232.343 333.477 233.906 333.852 235.246 334.602C236.587 335.341 237.627 336.443 238.366 337.909C239.104 339.375 239.474 341.187 239.474 343.347V360H234.377V343.96C234.377 342.062 233.883 340.58 232.894 339.511C231.906 338.432 230.548 337.892 228.82 337.892C227.638 337.892 226.587 338.148 225.667 338.659C224.758 339.17 224.036 339.92 223.502 340.909C222.979 341.886 222.718 343.068 222.718 344.455ZM265.928 340.21L261.309 341.028C261.116 340.437 260.809 339.875 260.388 339.341C259.979 338.807 259.423 338.369 258.718 338.028C258.013 337.687 257.133 337.517 256.076 337.517C254.633 337.517 253.428 337.841 252.462 338.489C251.496 339.125 251.013 339.949 251.013 340.96C251.013 341.835 251.337 342.54 251.985 343.074C252.633 343.608 253.678 344.045 255.121 344.386L259.281 345.341C261.69 345.898 263.485 346.756 264.667 347.915C265.849 349.074 266.44 350.58 266.44 352.432C266.44 354 265.985 355.398 265.076 356.625C264.178 357.841 262.923 358.795 261.309 359.489C259.707 360.182 257.849 360.528 255.735 360.528C252.803 360.528 250.411 359.903 248.559 358.653C246.707 357.392 245.57 355.602 245.15 353.284L250.076 352.534C250.383 353.818 251.013 354.79 251.968 355.449C252.923 356.097 254.167 356.42 255.701 356.42C257.371 356.42 258.707 356.074 259.707 355.381C260.707 354.676 261.207 353.818 261.207 352.807C261.207 351.989 260.9 351.301 260.286 350.744C259.684 350.187 258.758 349.767 257.508 349.483L253.076 348.511C250.633 347.955 248.826 347.068 247.656 345.852C246.496 344.636 245.917 343.097 245.917 341.233C245.917 339.687 246.349 338.335 247.212 337.176C248.076 336.017 249.269 335.114 250.792 334.466C252.315 333.807 254.059 333.477 256.025 333.477C258.854 333.477 261.082 334.091 262.707 335.318C264.332 336.534 265.406 338.165 265.928 340.21ZM278.469 325.091L278.026 349.96H273.305L272.862 325.091H278.469ZM275.674 360.324C274.731 360.324 273.924 359.994 273.254 359.335C272.583 358.665 272.254 357.858 272.265 356.915C272.254 355.983 272.583 355.187 273.254 354.528C273.924 353.858 274.731 353.523 275.674 353.523C276.594 353.523 277.39 353.858 278.06 354.528C278.731 355.187 279.072 355.983 279.083 356.915C279.072 357.54 278.907 358.114 278.589 358.636C278.282 359.148 277.873 359.557 277.362 359.864C276.85 360.17 276.288 360.324 275.674 360.324Z" fill="black"/>
<path d="M341.5 634H33.5C24.6634 634 17.5 641.163 17.5 650V706C17.5 714.837 24.6634 722 33.5 722H341.5C350.337 722 357.5 714.837 357.5 706V650C357.5 641.163 350.337 634 341.5 634Z" fill="#D9D9D9"/>
<path d="M312.875 693.458C312.34 692.924 312.073 692.243 312.073 691.417C312.073 690.59 312.34 689.91 312.875 689.375L324.25 678L312.875 666.625C312.34 666.09 312.073 665.41 312.073 664.583C312.073 663.757 312.34 663.076 312.875 662.542C313.41 662.007 314.09 661.74 314.917 661.74C315.743 661.74 316.424 662.007 316.958 662.542L330.375 675.958C330.667 676.25 330.874 676.566 330.996 676.906C331.119 677.247 331.179 677.611 331.177 678C331.177 678.389 331.116 678.753 330.993 679.094C330.871 679.434 330.665 679.75 330.375 680.042L316.958 693.458C316.424 693.993 315.743 694.26 314.917 694.26C314.09 694.26 313.41 693.993 312.875 693.458Z" fill="#FF9341"/>
<g style="mix-blend-mode:multiply">
<path d="M158.495 671.906C158.363 670.666 157.804 669.7 156.819 669.009C155.844 668.317 154.575 667.972 153.012 667.972C151.914 667.972 150.972 668.137 150.186 668.469C149.4 668.8 148.798 669.25 148.382 669.818C147.965 670.386 147.752 671.035 147.743 671.764C147.743 672.37 147.88 672.896 148.154 673.341C148.439 673.786 148.822 674.165 149.305 674.477C149.788 674.78 150.323 675.036 150.91 675.244C151.497 675.453 152.089 675.628 152.686 675.77L155.413 676.452C156.511 676.707 157.567 677.053 158.581 677.489C159.603 677.924 160.517 678.473 161.322 679.136C162.136 679.799 162.78 680.599 163.254 681.537C163.727 682.474 163.964 683.573 163.964 684.832C163.964 686.537 163.529 688.038 162.657 689.335C161.786 690.623 160.527 691.632 158.879 692.361C157.241 693.08 155.257 693.44 152.927 693.44C150.664 693.44 148.699 693.09 147.032 692.389C145.375 691.688 144.078 690.666 143.14 689.321C142.212 687.976 141.71 686.338 141.635 684.406H146.819C146.895 685.42 147.208 686.262 147.757 686.935C148.306 687.607 149.021 688.109 149.902 688.44C150.792 688.772 151.786 688.938 152.885 688.938C154.03 688.938 155.034 688.767 155.896 688.426C156.767 688.076 157.449 687.593 157.941 686.977C158.434 686.352 158.685 685.623 158.694 684.79C158.685 684.032 158.462 683.407 158.027 682.915C157.591 682.413 156.98 681.996 156.194 681.665C155.418 681.324 154.509 681.021 153.467 680.756L150.157 679.903C147.761 679.288 145.868 678.355 144.475 677.105C143.093 675.846 142.402 674.174 142.402 672.091C142.402 670.377 142.866 668.876 143.794 667.588C144.731 666.3 146.005 665.301 147.615 664.591C149.225 663.871 151.047 663.511 153.083 663.511C155.148 663.511 156.957 663.871 158.51 664.591C160.072 665.301 161.298 666.291 162.189 667.56C163.079 668.819 163.538 670.268 163.566 671.906H158.495ZM179.33 671.182V675.159H166.787V671.182H179.33ZM169.884 665.955H175.026V686.438C175.026 687.129 175.13 687.659 175.338 688.028C175.556 688.388 175.84 688.634 176.191 688.767C176.541 688.9 176.929 688.966 177.355 688.966C177.677 688.966 177.971 688.942 178.236 688.895C178.511 688.848 178.719 688.805 178.861 688.767L179.728 692.787C179.453 692.882 179.06 692.986 178.549 693.099C178.047 693.213 177.431 693.279 176.702 693.298C175.414 693.336 174.254 693.142 173.222 692.716C172.19 692.28 171.371 691.608 170.765 690.699C170.168 689.79 169.874 688.653 169.884 687.29V665.955ZM189.909 693.44C188.526 693.44 187.281 693.194 186.173 692.702C185.074 692.2 184.203 691.461 183.559 690.486C182.925 689.51 182.608 688.308 182.608 686.878C182.608 685.647 182.835 684.629 183.289 683.824C183.744 683.019 184.364 682.375 185.15 681.892C185.936 681.409 186.822 681.045 187.806 680.798C188.801 680.543 189.828 680.358 190.889 680.244C192.167 680.112 193.204 679.993 194 679.889C194.795 679.776 195.373 679.605 195.733 679.378C196.102 679.141 196.287 678.777 196.287 678.284V678.199C196.287 677.129 195.969 676.3 195.335 675.713C194.7 675.126 193.787 674.832 192.593 674.832C191.334 674.832 190.335 675.107 189.596 675.656C188.867 676.205 188.375 676.854 188.119 677.602L183.318 676.92C183.697 675.595 184.322 674.487 185.193 673.597C186.064 672.697 187.129 672.025 188.389 671.58C189.648 671.125 191.04 670.898 192.565 670.898C193.616 670.898 194.663 671.021 195.704 671.267C196.746 671.513 197.698 671.92 198.559 672.489C199.421 673.047 200.112 673.81 200.633 674.776C201.163 675.741 201.429 676.949 201.429 678.398V693H196.485V690.003H196.315C196.002 690.609 195.562 691.177 194.994 691.707C194.435 692.228 193.73 692.65 192.877 692.972C192.035 693.284 191.045 693.44 189.909 693.44ZM191.244 689.662C192.276 689.662 193.171 689.458 193.929 689.051C194.686 688.634 195.269 688.085 195.676 687.403C196.092 686.722 196.301 685.978 196.301 685.173V682.602C196.14 682.735 195.865 682.858 195.477 682.972C195.098 683.085 194.672 683.185 194.199 683.27C193.725 683.355 193.256 683.431 192.792 683.497C192.328 683.563 191.926 683.62 191.585 683.668C190.818 683.772 190.131 683.942 189.525 684.179C188.919 684.416 188.441 684.747 188.091 685.173C187.74 685.59 187.565 686.13 187.565 686.793C187.565 687.74 187.911 688.455 188.602 688.938C189.293 689.42 190.174 689.662 191.244 689.662ZM206.599 693V671.182H211.585V674.818H211.812C212.21 673.559 212.892 672.588 213.858 671.906C214.833 671.215 215.946 670.869 217.196 670.869C217.48 670.869 217.797 670.884 218.147 670.912C218.507 670.931 218.806 670.964 219.042 671.011V675.741C218.824 675.666 218.479 675.599 218.005 675.543C217.541 675.476 217.092 675.443 216.656 675.443C215.718 675.443 214.876 675.647 214.127 676.054C213.389 676.452 212.806 677.006 212.38 677.716C211.954 678.426 211.741 679.245 211.741 680.173V693H206.599ZM234.525 671.182V675.159H221.983V671.182H234.525ZM225.079 665.955H230.221V686.438C230.221 687.129 230.325 687.659 230.534 688.028C230.752 688.388 231.036 688.634 231.386 688.767C231.736 688.9 232.125 688.966 232.551 688.966C232.873 688.966 233.166 688.942 233.431 688.895C233.706 688.848 233.914 688.805 234.056 688.767L234.923 692.787C234.648 692.882 234.255 692.986 233.744 693.099C233.242 693.213 232.627 693.279 231.897 693.298C230.609 693.336 229.449 693.142 228.417 692.716C227.385 692.28 226.566 691.608 225.96 690.699C225.363 689.79 225.07 688.653 225.079 687.29V665.955Z" fill="#252835"/>
</g>
<path d="M301 538H74C65.1634 538 58 545.163 58 554V589C58 597.837 65.1634 605 74 605H301C309.837 605 317 597.837 317 589V554C317 545.163 309.837 538 301 538Z" fill="#D9D9D9"/>
<path d="M284.611 584.15C284.204 583.742 284 583.224 284 582.595C284 581.966 284.204 581.448 284.611 581.041L293.276 572.38L284.611 563.72C284.204 563.312 284 562.794 284 562.165C284 561.536 284.204 561.018 284.611 560.611C285.018 560.204 285.537 560 286.166 560C286.796 560 287.314 560.204 287.722 560.611L297.942 570.826C298.164 571.048 298.322 571.288 298.415 571.547C298.508 571.806 298.554 572.084 298.553 572.38C298.553 572.676 298.506 572.954 298.413 573.213C298.32 573.472 298.163 573.712 297.942 573.935L287.722 584.15C287.314 584.557 286.796 584.76 286.166 584.76C285.537 584.76 285.018 584.557 284.611 584.15Z" fill="#FF9341"/>
<g style="mix-blend-mode:multiply">
<path d="M93.9741 585V558.818H97.9244V581.599H109.788V585H93.9741ZM119.702 585.435C118.458 585.435 117.333 585.205 116.327 584.744C115.321 584.276 114.525 583.598 113.936 582.712C113.357 581.825 113.067 580.739 113.067 579.452C113.067 578.344 113.28 577.432 113.706 576.716C114.132 576 114.708 575.433 115.432 575.016C116.157 574.598 116.966 574.283 117.861 574.07C118.756 573.857 119.668 573.695 120.597 573.584C121.773 573.447 122.728 573.337 123.461 573.251C124.194 573.158 124.726 573.009 125.059 572.804C125.391 572.599 125.557 572.267 125.557 571.807V571.717C125.557 570.601 125.242 569.736 124.611 569.122C123.989 568.509 123.06 568.202 121.824 568.202C120.537 568.202 119.523 568.487 118.782 569.058C118.049 569.621 117.542 570.247 117.26 570.938L113.668 570.119C114.094 568.926 114.716 567.963 115.534 567.23C116.361 566.489 117.311 565.952 118.385 565.619C119.459 565.278 120.588 565.108 121.773 565.108C122.557 565.108 123.388 565.202 124.266 565.389C125.152 565.568 125.979 565.901 126.746 566.386C127.522 566.872 128.157 567.567 128.651 568.47C129.145 569.365 129.392 570.528 129.392 571.96V585H125.659V582.315H125.506C125.259 582.81 124.888 583.295 124.394 583.773C123.9 584.25 123.265 584.646 122.489 584.962C121.713 585.277 120.784 585.435 119.702 585.435ZM120.533 582.366C121.59 582.366 122.493 582.158 123.243 581.74C124.002 581.322 124.577 580.777 124.969 580.104C125.37 579.422 125.57 578.693 125.57 577.918V575.386C125.434 575.523 125.169 575.651 124.777 575.77C124.394 575.881 123.955 575.979 123.461 576.064C122.966 576.141 122.485 576.213 122.016 576.281C121.547 576.341 121.155 576.392 120.84 576.435C120.098 576.528 119.421 576.686 118.807 576.908C118.202 577.129 117.716 577.449 117.35 577.866C116.992 578.276 116.813 578.821 116.813 579.503C116.813 580.449 117.162 581.165 117.861 581.651C118.56 582.128 119.451 582.366 120.533 582.366ZM138.306 573.341V585H134.484V565.364H138.153V568.56H138.396C138.847 567.52 139.555 566.685 140.518 566.054C141.489 565.423 142.712 565.108 144.187 565.108C145.525 565.108 146.697 565.389 147.702 565.952C148.708 566.506 149.488 567.332 150.042 568.432C150.596 569.531 150.873 570.891 150.873 572.51V585H147.05V572.97C147.05 571.547 146.68 570.435 145.938 569.634C145.197 568.824 144.178 568.419 142.883 568.419C141.996 568.419 141.208 568.611 140.518 568.994C139.836 569.378 139.295 569.94 138.894 570.682C138.502 571.415 138.306 572.301 138.306 573.341ZM164.232 592.773C162.673 592.773 161.33 592.568 160.205 592.159C159.089 591.75 158.177 591.209 157.469 590.536C156.762 589.862 156.234 589.125 155.884 588.324L159.17 586.969C159.4 587.344 159.707 587.74 160.09 588.158C160.482 588.584 161.011 588.946 161.675 589.244C162.349 589.543 163.214 589.692 164.271 589.692C165.719 589.692 166.917 589.338 167.863 588.631C168.809 587.932 169.282 586.815 169.282 585.281V581.42H169.039C168.809 581.838 168.477 582.303 168.042 582.814C167.616 583.325 167.028 583.768 166.278 584.143C165.528 584.518 164.552 584.706 163.35 584.706C161.799 584.706 160.401 584.344 159.157 583.619C157.921 582.886 156.941 581.808 156.217 580.385C155.501 578.953 155.143 577.193 155.143 575.105C155.143 573.017 155.496 571.227 156.204 569.736C156.92 568.244 157.9 567.102 159.144 566.31C160.388 565.509 161.799 565.108 163.376 565.108C164.594 565.108 165.579 565.312 166.329 565.722C167.079 566.122 167.663 566.591 168.08 567.128C168.506 567.665 168.835 568.138 169.065 568.547H169.346V565.364H173.092V585.435C173.092 587.122 172.7 588.507 171.915 589.589C171.131 590.672 170.07 591.473 168.732 591.993C167.403 592.513 165.903 592.773 164.232 592.773ZM164.194 581.536C165.293 581.536 166.222 581.28 166.981 580.768C167.748 580.249 168.327 579.507 168.719 578.544C169.12 577.572 169.32 576.409 169.32 575.054C169.32 573.733 169.124 572.57 168.732 571.564C168.34 570.558 167.765 569.774 167.006 569.212C166.248 568.641 165.31 568.355 164.194 568.355C163.043 568.355 162.085 568.653 161.317 569.25C160.55 569.838 159.971 570.639 159.579 571.653C159.195 572.668 159.004 573.801 159.004 575.054C159.004 576.341 159.2 577.47 159.592 578.442C159.984 579.413 160.563 580.172 161.33 580.717C162.106 581.263 163.06 581.536 164.194 581.536ZM190.657 576.857V565.364H194.492V585H190.734V581.599H190.529C190.077 582.648 189.353 583.521 188.356 584.22C187.367 584.911 186.136 585.256 184.661 585.256C183.4 585.256 182.283 584.979 181.312 584.425C180.349 583.862 179.59 583.031 179.036 581.932C178.491 580.832 178.218 579.473 178.218 577.854V565.364H182.04V577.393C182.04 578.732 182.411 579.797 183.153 580.589C183.894 581.382 184.857 581.778 186.042 581.778C186.758 581.778 187.469 581.599 188.177 581.241C188.893 580.884 189.485 580.342 189.954 579.618C190.431 578.893 190.665 577.973 190.657 576.857ZM205.343 585.435C204.098 585.435 202.973 585.205 201.968 584.744C200.962 584.276 200.165 583.598 199.577 582.712C198.998 581.825 198.708 580.739 198.708 579.452C198.708 578.344 198.921 577.432 199.347 576.716C199.773 576 200.348 575.433 201.073 575.016C201.797 574.598 202.607 574.283 203.502 574.07C204.397 573.857 205.309 573.695 206.238 573.584C207.414 573.447 208.368 573.337 209.101 573.251C209.834 573.158 210.367 573.009 210.699 572.804C211.032 572.599 211.198 572.267 211.198 571.807V571.717C211.198 570.601 210.882 569.736 210.252 569.122C209.63 568.509 208.701 568.202 207.465 568.202C206.178 568.202 205.164 568.487 204.422 569.058C203.689 569.621 203.182 570.247 202.901 570.938L199.309 570.119C199.735 568.926 200.357 567.963 201.175 567.23C202.002 566.489 202.952 565.952 204.026 565.619C205.1 565.278 206.229 565.108 207.414 565.108C208.198 565.108 209.029 565.202 209.907 565.389C210.793 565.568 211.62 565.901 212.387 566.386C213.162 566.872 213.797 567.567 214.292 568.47C214.786 569.365 215.033 570.528 215.033 571.96V585H211.3V582.315H211.147C210.9 582.81 210.529 583.295 210.034 583.773C209.54 584.25 208.905 584.646 208.13 584.962C207.354 585.277 206.425 585.435 205.343 585.435ZM206.174 582.366C207.23 582.366 208.134 582.158 208.884 581.74C209.642 581.322 210.218 580.777 210.61 580.104C211.01 579.422 211.211 578.693 211.211 577.918V575.386C211.074 575.523 210.81 575.651 210.418 575.77C210.034 575.881 209.596 575.979 209.101 576.064C208.607 576.141 208.125 576.213 207.657 576.281C207.188 576.341 206.796 576.392 206.48 576.435C205.739 576.528 205.061 576.686 204.448 576.908C203.843 577.129 203.357 577.449 202.99 577.866C202.632 578.276 202.453 578.821 202.453 579.503C202.453 580.449 202.803 581.165 203.502 581.651C204.201 582.128 205.091 582.366 206.174 582.366ZM228.357 592.773C226.798 592.773 225.455 592.568 224.33 592.159C223.214 591.75 222.302 591.209 221.594 590.536C220.887 589.862 220.359 589.125 220.009 588.324L223.295 586.969C223.525 587.344 223.832 587.74 224.215 588.158C224.607 588.584 225.136 588.946 225.8 589.244C226.474 589.543 227.339 589.692 228.396 589.692C229.844 589.692 231.042 589.338 231.988 588.631C232.934 587.932 233.407 586.815 233.407 585.281V581.42H233.164C232.934 581.838 232.602 582.303 232.167 582.814C231.741 583.325 231.153 583.768 230.403 584.143C229.653 584.518 228.677 584.706 227.475 584.706C225.924 584.706 224.526 584.344 223.282 583.619C222.046 582.886 221.066 581.808 220.342 580.385C219.626 578.953 219.268 577.193 219.268 575.105C219.268 573.017 219.621 571.227 220.329 569.736C221.045 568.244 222.025 567.102 223.269 566.31C224.513 565.509 225.924 565.108 227.501 565.108C228.719 565.108 229.704 565.312 230.454 565.722C231.204 566.122 231.788 566.591 232.205 567.128C232.631 567.665 232.96 568.138 233.19 568.547H233.471V565.364H237.217V585.435C237.217 587.122 236.825 588.507 236.04 589.589C235.256 590.672 234.195 591.473 232.857 591.993C231.528 592.513 230.028 592.773 228.357 592.773ZM228.319 581.536C229.418 581.536 230.347 581.28 231.106 580.768C231.873 580.249 232.452 579.507 232.844 578.544C233.245 577.572 233.445 576.409 233.445 575.054C233.445 573.733 233.249 572.57 232.857 571.564C232.465 570.558 231.89 569.774 231.131 569.212C230.373 568.641 229.435 568.355 228.319 568.355C227.168 568.355 226.21 568.653 225.442 569.25C224.675 569.838 224.096 570.639 223.704 571.653C223.32 572.668 223.129 573.801 223.129 575.054C223.129 576.341 223.325 577.47 223.717 578.442C224.109 579.413 224.688 580.172 225.455 580.717C226.231 581.263 227.185 581.536 228.319 581.536ZM250.806 585.396C248.871 585.396 247.205 584.983 245.808 584.156C244.418 583.321 243.344 582.149 242.586 580.641C241.836 579.124 241.461 577.347 241.461 575.31C241.461 573.298 241.836 571.526 242.586 569.991C243.344 568.457 244.401 567.26 245.756 566.399C247.12 565.538 248.714 565.108 250.538 565.108C251.646 565.108 252.719 565.291 253.759 565.658C254.799 566.024 255.732 566.599 256.559 567.384C257.386 568.168 258.038 569.186 258.515 570.439C258.992 571.683 259.231 573.196 259.231 574.977V576.332H243.621V573.469H255.485C255.485 572.463 255.281 571.572 254.871 570.797C254.462 570.013 253.887 569.395 253.146 568.943C252.413 568.491 251.552 568.266 250.563 568.266C249.489 568.266 248.552 568.53 247.751 569.058C246.958 569.578 246.344 570.26 245.91 571.104C245.484 571.939 245.271 572.847 245.271 573.827V576.064C245.271 577.376 245.501 578.493 245.961 579.413C246.43 580.334 247.082 581.037 247.917 581.523C248.752 582 249.728 582.239 250.844 582.239C251.569 582.239 252.229 582.136 252.826 581.932C253.423 581.719 253.938 581.403 254.373 580.986C254.808 580.568 255.14 580.053 255.37 579.439L258.988 580.091C258.698 581.156 258.178 582.089 257.428 582.891C256.687 583.683 255.754 584.301 254.629 584.744C253.512 585.179 252.238 585.396 250.806 585.396Z" fill="#252835"/>
</g>
<path d="M226.034 459.318C225.655 459.097 225.238 458.885 224.808 458.678C225.238 458.472 225.655 458.26 226.034 458.039C228.18 456.813 230.063 455.173 231.575 453.213C233.088 451.253 234.199 449.012 234.846 446.618C235.493 444.225 235.662 441.727 235.344 439.267C235.026 436.808 234.227 434.436 232.992 432.288C231.758 430.141 230.113 428.259 228.152 426.753C226.191 425.246 223.953 424.145 221.567 423.511C219.181 422.877 216.693 422.723 214.247 423.059C211.802 423.395 209.446 424.214 207.317 425.468C206.938 425.689 206.545 425.938 206.156 426.216C206.194 425.746 206.217 425.275 206.217 424.805C206.217 419.818 204.245 415.035 200.735 411.508C197.225 407.981 192.464 406 187.5 406C182.536 406 177.775 407.981 174.265 411.508C170.755 415.035 168.783 419.818 168.783 424.805C168.783 425.247 168.783 425.717 168.844 426.216C168.455 425.948 168.062 425.689 167.683 425.468C165.554 424.214 163.198 423.395 160.753 423.059C158.307 422.723 155.819 422.877 153.433 423.511C151.047 424.145 148.809 425.246 146.848 426.753C144.887 428.259 143.242 430.141 142.008 432.288C140.774 434.436 139.974 436.808 139.656 439.267C139.338 441.727 139.507 444.225 140.154 446.618C140.801 449.012 141.912 451.253 143.425 453.213C144.937 455.173 146.82 456.813 148.966 458.039C149.345 458.26 149.762 458.472 150.192 458.678C149.762 458.885 149.345 459.097 148.966 459.318C146.82 460.544 144.937 462.184 143.425 464.144C141.912 466.104 140.801 468.345 140.154 470.738C139.507 473.132 139.338 475.63 139.656 478.089C139.974 480.549 140.774 482.921 142.008 485.068C143.242 487.216 144.887 489.097 146.848 490.604C148.809 492.11 151.047 493.212 153.433 493.846C155.819 494.48 158.307 494.634 160.753 494.298C163.198 493.962 165.554 493.143 167.683 491.889C168.062 491.668 168.455 491.418 168.844 491.141C168.806 491.611 168.783 492.081 168.783 492.528C168.783 497.515 170.755 502.299 174.265 505.825C177.775 509.352 182.536 511.333 187.5 511.333C192.464 511.333 197.225 509.352 200.735 505.825C204.245 502.299 206.217 497.515 206.217 492.528C206.217 492.086 206.194 491.616 206.156 491.141C206.545 491.409 206.938 491.668 207.317 491.889C210.152 493.539 213.371 494.408 216.647 494.409C218.294 494.406 219.933 494.188 221.523 493.76C225.099 492.797 228.31 490.79 230.751 487.994C233.191 485.197 234.752 481.736 235.235 478.048C235.718 474.361 235.101 470.612 233.463 467.276C231.826 463.941 229.24 461.168 226.034 459.308V459.318ZM176.27 458.678C176.27 456.447 176.928 454.265 178.162 452.41C179.396 450.554 181.15 449.108 183.202 448.254C185.254 447.4 187.512 447.177 189.691 447.612C191.869 448.047 193.87 449.122 195.441 450.7C197.012 452.278 198.081 454.288 198.514 456.477C198.948 458.666 198.725 460.935 197.875 462.996C197.025 465.058 195.586 466.82 193.739 468.06C191.892 469.3 189.721 469.962 187.5 469.962C184.522 469.962 181.665 468.773 179.559 466.657C177.453 464.541 176.27 461.671 176.27 458.678ZM211.06 431.98C212.337 431.239 213.747 430.758 215.21 430.564C216.672 430.371 218.158 430.469 219.582 430.852C221.007 431.236 222.342 431.898 223.512 432.8C224.682 433.702 225.664 434.826 226.401 436.11C227.139 437.393 227.617 438.81 227.81 440.279C228.002 441.748 227.905 443.24 227.523 444.672C227.141 446.103 226.483 447.445 225.585 448.62C224.687 449.796 223.568 450.782 222.29 451.523C219.357 453.23 213.582 454.405 205.838 454.903C205.021 450.923 202.943 447.316 199.914 444.621C204.219 438.124 208.126 433.686 211.06 431.98ZM187.5 413.546C190.478 413.546 193.335 414.734 195.441 416.85C197.547 418.966 198.73 421.836 198.73 424.829C198.73 428.233 196.859 433.851 193.415 440.842C189.576 439.55 185.424 439.55 181.585 440.842C178.141 433.851 176.27 428.233 176.27 424.829C176.27 421.836 177.453 418.966 179.559 416.85C181.665 414.734 184.522 413.546 187.5 413.546ZM148.596 436.112C149.334 434.828 150.315 433.703 151.485 432.801C152.656 431.898 153.991 431.236 155.416 430.852C156.841 430.468 158.327 430.371 159.79 430.564C161.252 430.757 162.662 431.238 163.94 431.98C166.874 433.686 170.781 438.124 175.086 444.621C172.055 447.319 169.976 450.932 169.162 454.917C161.418 454.419 155.643 453.244 152.71 451.542C151.43 450.801 150.308 449.814 149.409 448.637C148.509 447.461 147.85 446.117 147.468 444.684C147.086 443.251 146.989 441.756 147.182 440.285C147.376 438.814 147.857 437.396 148.596 436.112ZM163.94 485.377C161.36 486.874 158.295 487.279 155.418 486.504C152.541 485.73 150.088 483.839 148.599 481.247C147.11 478.656 146.706 475.576 147.477 472.685C148.248 469.795 150.13 467.33 152.71 465.834C155.643 464.127 161.418 462.952 169.162 462.454C169.979 466.434 172.057 470.041 175.086 472.735C170.781 479.233 166.874 483.671 163.94 485.377ZM187.5 503.811C184.522 503.811 181.665 502.622 179.559 500.506C177.453 498.39 176.27 495.521 176.27 492.528C176.27 489.124 178.141 483.506 181.585 476.515C185.424 477.807 189.576 477.807 193.415 476.515C196.859 483.506 198.73 489.124 198.73 492.528C198.73 495.521 197.547 498.39 195.441 500.506C193.335 502.622 190.478 503.811 187.5 503.811ZM226.404 481.245C225.666 482.529 224.685 483.654 223.515 484.556C222.344 485.459 221.009 486.121 219.584 486.505C218.159 486.888 216.673 486.986 215.21 486.793C213.748 486.599 212.338 486.118 211.06 485.377C208.126 483.671 204.219 479.233 199.914 472.735C202.945 470.038 205.024 466.425 205.838 462.439C213.582 462.938 219.357 464.113 222.29 465.815C223.57 466.556 224.692 467.543 225.591 468.719C226.491 469.896 227.15 471.24 227.532 472.673C227.914 474.106 228.011 475.601 227.818 477.072C227.624 478.543 227.143 479.961 226.404 481.245Z" fill="#252835"/>
</svg>
