<svg width="390" height="844" viewBox="0 0 390 844" fill="none" xmlns="http://www.w3.org/2000/svg">
<rect width="390" height="844" fill="#0F0F0F"/>
<rect width="390" height="33.2558" transform="translate(0 801)" fill="#0F0F0F"/>
<rect x="125.84" y="822.824" width="139" height="5" rx="2.5" fill="white"/>
<rect width="390" height="45.7653" fill="#0F0F0F"/>
<path fill-rule="evenodd" clip-rule="evenodd" d="M319 20H320C320.552 20 321 20.4477 321 21V27C321 27.5523 320.552 28 320 28H319C318.448 28 318 27.5523 318 27V21C318 20.4477 318.448 20 319 20Z" fill="#D1D1D6"/>
<path fill-rule="evenodd" clip-rule="evenodd" d="M314.5 22H315.5C316.052 22 316.5 22.4477 316.5 23V27C316.5 27.5523 316.052 28 315.5 28H314.5C313.948 28 313.5 27.5523 313.5 27V23C313.5 22.4477 313.948 22 314.5 22Z" fill="#D1D1D6"/>
<path fill-rule="evenodd" clip-rule="evenodd" d="M310 23.5H311C311.552 23.5 312 23.9477 312 24.5V27C312 27.5523 311.552 28 311 28H310C309.448 28 309 27.5523 309 27V24.5C309 23.9477 309.448 23.5 310 23.5Z" fill="#D1D1D6"/>
<path fill-rule="evenodd" clip-rule="evenodd" d="M323.5 18H324.5C325.052 18 325.5 18.4477 325.5 19V27C325.5 27.5523 325.052 28 324.5 28H323.5C322.948 28 322.5 27.5523 322.5 27V19C322.5 18.4477 322.948 18 323.5 18Z" fill="#EBEBF5" fill-opacity="0.3"/>
<path fill-rule="evenodd" clip-rule="evenodd" d="M319 20H320C320.552 20 321 20.4477 321 21V27C321 27.5523 320.552 28 320 28H319C318.448 28 318 27.5523 318 27V21C318 20.4477 318.448 20 319 20Z" fill="white"/>
<path fill-rule="evenodd" clip-rule="evenodd" d="M314.5 22H315.5C316.052 22 316.5 22.4477 316.5 23V27C316.5 27.5523 316.052 28 315.5 28H314.5C313.948 28 313.5 27.5523 313.5 27V23C313.5 22.4477 313.948 22 314.5 22Z" fill="white"/>
<path fill-rule="evenodd" clip-rule="evenodd" d="M310 23.5H311C311.552 23.5 312 23.9477 312 24.5V27C312 27.5523 311.552 28 311 28H310C309.448 28 309 27.5523 309 27V24.5C309 23.9477 309.448 23.5 310 23.5Z" fill="white"/>
<path d="M339.133 24.9396C339.772 24.9396 340.394 25.1076 340.941 25.428L341.163 25.5579C341.331 25.6563 341.361 25.8866 341.223 26.0242L339.329 27.913C339.212 28.029 339.024 28.029 338.907 27.913L337.026 26.0363C336.888 25.8994 336.917 25.6702 337.084 25.5711L337.303 25.4406C337.855 25.1121 338.485 24.9396 339.133 24.9396Z" fill="white"/>
<path d="M339.133 21.4698C340.724 21.4698 342.251 21.9976 343.495 22.9749L343.671 23.113C343.811 23.2232 343.824 23.4306 343.697 23.5565L342.567 24.6841C342.462 24.7884 342.297 24.8004 342.178 24.7123L342.04 24.6098C341.2 23.9852 340.186 23.6502 339.133 23.6502C338.073 23.6502 337.053 23.9894 336.21 24.6211L336.072 24.7245C335.953 24.8134 335.787 24.8017 335.682 24.6971L334.552 23.5699C334.426 23.4443 334.438 23.2373 334.578 23.127L334.753 22.9888C336 22.0027 337.534 21.4698 339.133 21.4698Z" fill="white"/>
<path d="M339.133 18C341.657 18 344.072 18.8906 345.983 20.5229L346.146 20.6623C346.278 20.7749 346.285 20.9756 346.163 21.098L345.036 22.2219C344.926 22.3308 344.752 22.3385 344.634 22.2395L344.494 22.1228C342.989 20.8647 341.104 20.1804 339.133 20.1804C337.155 20.1804 335.263 20.8694 333.756 22.1354L333.617 22.2527C333.498 22.3521 333.324 22.3447 333.214 22.2356L332.087 21.1118C331.965 20.9895 331.972 20.7892 332.104 20.6765L332.266 20.5371C334.18 18.8959 336.601 18 339.133 18Z" fill="white"/>
<path d="M375 21V21C375.552 21 376 21.4477 376 22V24C376 24.5523 375.552 25 375 25V25V21Z" fill="#EBEBF5" fill-opacity="0.3"/>
<path fill-rule="evenodd" clip-rule="evenodd" d="M354 17H371C372.657 17 374 18.3431 374 20V26C374 27.6569 372.657 29 371 29H354C352.343 29 351 27.6569 351 26V20C351 18.3431 352.343 17 354 17ZM354 18C352.895 18 352 18.8954 352 20V26C352 27.1046 352.895 28 354 28H371C372.105 28 373 27.1046 373 26V20C373 18.8954 372.105 18 371 18H354Z" fill="#EBEBF5" fill-opacity="0.3"/>
<rect x="353" y="19" width="19" height="8" rx="1" fill="white"/>
<path d="M37.8672 28.0889C40.5552 28.0889 42.1519 25.9868 42.1519 22.4272C42.1519 21.0869 41.8955 19.959 41.4048 19.0874C40.6943 17.7324 39.4712 17 37.9258 17C35.626 17 34 18.5454 34 20.7134C34 22.7495 35.4648 24.229 37.479 24.229C38.7168 24.229 39.7202 23.6504 40.2183 22.647H40.2402C40.2402 22.647 40.2695 22.647 40.2769 22.647C40.2915 22.647 40.3428 22.647 40.3428 22.647C40.3428 25.064 39.4272 26.5068 37.8818 26.5068C36.9736 26.5068 36.2705 26.0088 36.0288 25.2104H34.1465C34.4614 26.9463 35.9336 28.0889 37.8672 28.0889ZM37.9331 22.7275C36.7173 22.7275 35.853 21.8633 35.853 20.6548C35.853 19.4756 36.7612 18.5747 37.9404 18.5747C39.1196 18.5747 40.0278 19.4902 40.0278 20.6841C40.0278 21.8633 39.1416 22.7275 37.9331 22.7275Z" fill="white"/>
<path d="M45.243 27.9863C45.9388 27.9863 46.4148 27.4883 46.4148 26.8291C46.4148 26.1626 45.9388 25.6719 45.243 25.6719C44.5545 25.6719 44.0711 26.1626 44.0711 26.8291C44.0711 27.4883 44.5545 27.9863 45.243 27.9863ZM45.243 22.4932C45.9388 22.4932 46.4148 22.0024 46.4148 21.3433C46.4148 20.6768 45.9388 20.186 45.243 20.186C44.5545 20.186 44.0711 20.6768 44.0711 21.3433C44.0711 22.0024 44.5545 22.4932 45.243 22.4932Z" fill="white"/>
<path d="M53.2706 27.8325H55.0797V25.8623H56.5079V24.2656H55.0797V17.2637H52.4137C50.546 20.0762 49.0592 22.4272 48.107 24.1777V25.8623H53.2706V27.8325ZM49.8575 24.1997C51.088 22.0317 52.1866 20.2959 53.1974 18.8018H53.2999V24.3096H49.8575V24.1997Z" fill="white"/>
<path d="M60.5365 27.8325H62.4262V17.2637H60.5438L57.7826 19.1973V21.0137L60.412 19.168H60.5365V27.8325Z" fill="white"/>
<path d="M349 643H41C32.1634 643 25 650.163 25 659V715C25 723.837 32.1634 731 41 731H349C357.837 731 365 723.837 365 715V659C365 650.163 357.837 643 349 643Z" fill="#D9D9D9"/>
<path d="M320.375 702.458C319.84 701.924 319.573 701.243 319.573 700.417C319.573 699.59 319.84 698.91 320.375 698.375L331.75 687L320.375 675.625C319.84 675.09 319.573 674.41 319.573 673.583C319.573 672.757 319.84 672.076 320.375 671.542C320.91 671.007 321.59 670.74 322.417 670.74C323.243 670.74 323.924 671.007 324.458 671.542L337.875 684.958C338.167 685.25 338.374 685.566 338.496 685.906C338.619 686.247 338.679 686.611 338.677 687C338.677 687.389 338.616 687.753 338.493 688.094C338.371 688.434 338.165 688.75 337.875 689.042L324.458 702.458C323.924 702.993 323.243 703.26 322.417 703.26C321.59 703.26 320.91 702.993 320.375 702.458Z" fill="#FF9341"/>
<g style="mix-blend-mode:multiply">
<path d="M165.995 680.906C165.863 679.666 165.304 678.7 164.319 678.009C163.344 677.317 162.075 676.972 160.512 676.972C159.414 676.972 158.472 677.137 157.686 677.469C156.9 677.8 156.298 678.25 155.882 678.818C155.465 679.386 155.252 680.035 155.243 680.764C155.243 681.37 155.38 681.896 155.654 682.341C155.939 682.786 156.322 683.165 156.805 683.477C157.288 683.78 157.823 684.036 158.41 684.244C158.997 684.453 159.589 684.628 160.186 684.77L162.913 685.452C164.011 685.707 165.067 686.053 166.081 686.489C167.103 686.924 168.017 687.473 168.822 688.136C169.636 688.799 170.28 689.599 170.754 690.537C171.227 691.474 171.464 692.573 171.464 693.832C171.464 695.537 171.029 697.038 170.157 698.335C169.286 699.623 168.027 700.632 166.379 701.361C164.741 702.08 162.757 702.44 160.427 702.44C158.164 702.44 156.199 702.09 154.532 701.389C152.875 700.688 151.578 699.666 150.64 698.321C149.712 696.976 149.21 695.338 149.135 693.406H154.319C154.395 694.42 154.708 695.262 155.257 695.935C155.806 696.607 156.521 697.109 157.402 697.44C158.292 697.772 159.286 697.938 160.385 697.938C161.53 697.938 162.534 697.767 163.396 697.426C164.267 697.076 164.949 696.593 165.441 695.977C165.934 695.352 166.185 694.623 166.194 693.79C166.185 693.032 165.962 692.407 165.527 691.915C165.091 691.413 164.48 690.996 163.694 690.665C162.918 690.324 162.009 690.021 160.967 689.756L157.657 688.903C155.261 688.288 153.368 687.355 151.975 686.105C150.593 684.846 149.902 683.174 149.902 681.091C149.902 679.377 150.366 677.876 151.294 676.588C152.231 675.3 153.505 674.301 155.115 673.591C156.725 672.871 158.547 672.511 160.583 672.511C162.648 672.511 164.457 672.871 166.01 673.591C167.572 674.301 168.798 675.291 169.689 676.56C170.579 677.819 171.038 679.268 171.066 680.906H165.995ZM186.83 680.182V684.159H174.287V680.182H186.83ZM177.384 674.955H182.526V695.438C182.526 696.129 182.63 696.659 182.838 697.028C183.056 697.388 183.34 697.634 183.691 697.767C184.041 697.9 184.429 697.966 184.855 697.966C185.177 697.966 185.471 697.942 185.736 697.895C186.011 697.848 186.219 697.805 186.361 697.767L187.228 701.787C186.953 701.882 186.56 701.986 186.049 702.099C185.547 702.213 184.931 702.279 184.202 702.298C182.914 702.336 181.754 702.142 180.722 701.716C179.69 701.28 178.871 700.608 178.265 699.699C177.668 698.79 177.374 697.653 177.384 696.29V674.955ZM197.409 702.44C196.026 702.44 194.781 702.194 193.673 701.702C192.574 701.2 191.703 700.461 191.059 699.486C190.425 698.51 190.108 697.308 190.108 695.878C190.108 694.647 190.335 693.629 190.789 692.824C191.244 692.019 191.864 691.375 192.65 690.892C193.436 690.409 194.322 690.045 195.306 689.798C196.301 689.543 197.328 689.358 198.389 689.244C199.667 689.112 200.704 688.993 201.5 688.889C202.295 688.776 202.873 688.605 203.233 688.378C203.602 688.141 203.787 687.777 203.787 687.284V687.199C203.787 686.129 203.469 685.3 202.835 684.713C202.2 684.126 201.287 683.832 200.093 683.832C198.834 683.832 197.835 684.107 197.096 684.656C196.367 685.205 195.875 685.854 195.619 686.602L190.818 685.92C191.197 684.595 191.822 683.487 192.693 682.597C193.564 681.697 194.629 681.025 195.889 680.58C197.148 680.125 198.54 679.898 200.065 679.898C201.116 679.898 202.163 680.021 203.204 680.267C204.246 680.513 205.198 680.92 206.059 681.489C206.921 682.047 207.612 682.81 208.133 683.776C208.663 684.741 208.929 685.949 208.929 687.398V702H203.985V699.003H203.815C203.502 699.609 203.062 700.177 202.494 700.707C201.935 701.228 201.23 701.65 200.377 701.972C199.535 702.284 198.545 702.44 197.409 702.44ZM198.744 698.662C199.776 698.662 200.671 698.458 201.429 698.051C202.186 697.634 202.769 697.085 203.176 696.403C203.592 695.722 203.801 694.978 203.801 694.173V691.602C203.64 691.735 203.365 691.858 202.977 691.972C202.598 692.085 202.172 692.185 201.699 692.27C201.225 692.355 200.756 692.431 200.292 692.497C199.828 692.563 199.426 692.62 199.085 692.668C198.318 692.772 197.631 692.942 197.025 693.179C196.419 693.416 195.941 693.747 195.591 694.173C195.24 694.59 195.065 695.13 195.065 695.793C195.065 696.74 195.411 697.455 196.102 697.938C196.793 698.42 197.674 698.662 198.744 698.662ZM214.099 702V680.182H219.085V683.818H219.312C219.71 682.559 220.392 681.588 221.358 680.906C222.333 680.215 223.446 679.869 224.696 679.869C224.98 679.869 225.297 679.884 225.647 679.912C226.007 679.931 226.306 679.964 226.542 680.011V684.741C226.324 684.666 225.979 684.599 225.505 684.543C225.041 684.476 224.592 684.443 224.156 684.443C223.218 684.443 222.376 684.647 221.627 685.054C220.889 685.452 220.306 686.006 219.88 686.716C219.454 687.426 219.241 688.245 219.241 689.173V702H214.099ZM242.025 680.182V684.159H229.483V680.182H242.025ZM232.579 674.955H237.721V695.438C237.721 696.129 237.825 696.659 238.034 697.028C238.252 697.388 238.536 697.634 238.886 697.767C239.236 697.9 239.625 697.966 240.051 697.966C240.373 697.966 240.666 697.942 240.931 697.895C241.206 697.848 241.414 697.805 241.556 697.767L242.423 701.787C242.148 701.882 241.755 701.986 241.244 702.099C240.742 702.213 240.127 702.279 239.397 702.298C238.109 702.336 236.949 702.142 235.917 701.716C234.885 701.28 234.066 700.608 233.46 699.699C232.863 698.79 232.57 697.653 232.579 696.29V674.955Z" fill="#252835"/>
</g>
<path d="M97.7585 158L87.9062 123.091H94.7074L100.997 148.744H101.321L108.037 123.091H114.224L120.957 148.761H121.264L127.554 123.091H134.355L124.503 158H118.264L111.276 133.506H111.003L103.997 158H97.7585ZM147.386 158.511C144.761 158.511 142.494 157.966 140.585 156.875C138.688 155.773 137.227 154.216 136.205 152.205C135.182 150.182 134.67 147.801 134.67 145.062C134.67 142.369 135.182 140.006 136.205 137.972C137.239 135.926 138.682 134.335 140.534 133.199C142.386 132.051 144.562 131.477 147.062 131.477C148.676 131.477 150.199 131.739 151.631 132.261C153.074 132.773 154.347 133.568 155.449 134.648C156.563 135.727 157.438 137.102 158.074 138.773C158.71 140.432 159.028 142.409 159.028 144.705V146.597H137.568V142.438H153.114C153.102 141.256 152.847 140.205 152.347 139.284C151.847 138.352 151.148 137.619 150.25 137.085C149.364 136.551 148.33 136.284 147.148 136.284C145.886 136.284 144.778 136.591 143.824 137.205C142.869 137.807 142.125 138.602 141.591 139.591C141.068 140.568 140.801 141.642 140.79 142.812V146.443C140.79 147.966 141.068 149.273 141.625 150.364C142.182 151.443 142.96 152.273 143.96 152.852C144.96 153.42 146.131 153.705 147.472 153.705C148.369 153.705 149.182 153.58 149.909 153.33C150.636 153.068 151.267 152.688 151.801 152.188C152.335 151.688 152.739 151.068 153.011 150.33L158.773 150.977C158.409 152.5 157.716 153.83 156.693 154.966C155.682 156.091 154.386 156.966 152.807 157.591C151.227 158.205 149.42 158.511 147.386 158.511ZM170.419 123.091V158H164.249V123.091H170.419ZM188.185 158.511C185.571 158.511 183.327 157.938 181.452 156.79C179.588 155.642 178.151 154.057 177.139 152.034C176.139 150 175.639 147.659 175.639 145.011C175.639 142.352 176.151 140.006 177.173 137.972C178.196 135.926 179.639 134.335 181.503 133.199C183.378 132.051 185.594 131.477 188.151 131.477C190.276 131.477 192.156 131.869 193.793 132.653C195.44 133.426 196.753 134.523 197.73 135.943C198.707 137.352 199.264 139 199.401 140.886H193.503C193.264 139.625 192.696 138.574 191.798 137.733C190.912 136.881 189.724 136.455 188.236 136.455C186.974 136.455 185.866 136.795 184.912 137.477C183.957 138.148 183.213 139.114 182.679 140.375C182.156 141.636 181.895 143.148 181.895 144.909C181.895 146.693 182.156 148.227 182.679 149.511C183.202 150.784 183.935 151.767 184.878 152.46C185.832 153.142 186.952 153.483 188.236 153.483C189.145 153.483 189.957 153.312 190.673 152.972C191.401 152.619 192.009 152.114 192.497 151.455C192.986 150.795 193.321 149.994 193.503 149.051H199.401C199.253 150.903 198.707 152.545 197.764 153.977C196.821 155.398 195.537 156.511 193.912 157.318C192.287 158.114 190.378 158.511 188.185 158.511ZM215.888 158.511C213.331 158.511 211.115 157.949 209.24 156.824C207.365 155.699 205.911 154.125 204.876 152.102C203.854 150.08 203.342 147.716 203.342 145.011C203.342 142.307 203.854 139.937 204.876 137.903C205.911 135.869 207.365 134.29 209.24 133.165C211.115 132.04 213.331 131.477 215.888 131.477C218.445 131.477 220.661 132.04 222.536 133.165C224.411 134.29 225.859 135.869 226.882 137.903C227.916 139.937 228.433 142.307 228.433 145.011C228.433 147.716 227.916 150.08 226.882 152.102C225.859 154.125 224.411 155.699 222.536 156.824C220.661 157.949 218.445 158.511 215.888 158.511ZM215.922 153.568C217.308 153.568 218.467 153.187 219.399 152.426C220.331 151.653 221.024 150.619 221.479 149.324C221.945 148.028 222.178 146.585 222.178 144.994C222.178 143.392 221.945 141.943 221.479 140.648C221.024 139.341 220.331 138.301 219.399 137.528C218.467 136.756 217.308 136.369 215.922 136.369C214.501 136.369 213.32 136.756 212.376 137.528C211.445 138.301 210.746 139.341 210.28 140.648C209.825 141.943 209.598 143.392 209.598 144.994C209.598 146.585 209.825 148.028 210.28 149.324C210.746 150.619 211.445 151.653 212.376 152.426C213.32 153.187 214.501 153.568 215.922 153.568ZM233.67 158V131.818H239.568V136.267H239.875C240.42 134.767 241.324 133.597 242.585 132.756C243.847 131.903 245.352 131.477 247.102 131.477C248.875 131.477 250.369 131.909 251.585 132.773C252.813 133.625 253.676 134.79 254.176 136.267H254.449C255.028 134.812 256.006 133.653 257.381 132.79C258.767 131.915 260.409 131.477 262.307 131.477C264.716 131.477 266.682 132.239 268.205 133.761C269.727 135.284 270.489 137.506 270.489 140.426V158H264.301V141.381C264.301 139.756 263.869 138.568 263.006 137.818C262.142 137.057 261.085 136.676 259.835 136.676C258.347 136.676 257.182 137.142 256.341 138.074C255.511 138.994 255.097 140.193 255.097 141.67V158H249.045V141.125C249.045 139.773 248.636 138.693 247.818 137.886C247.011 137.08 245.955 136.676 244.648 136.676C243.761 136.676 242.955 136.903 242.227 137.358C241.5 137.801 240.92 138.432 240.489 139.25C240.057 140.057 239.841 141 239.841 142.08V158H233.67ZM288.339 158.511C285.714 158.511 283.447 157.966 281.538 156.875C279.641 155.773 278.18 154.216 277.158 152.205C276.135 150.182 275.624 147.801 275.624 145.062C275.624 142.369 276.135 140.006 277.158 137.972C278.192 135.926 279.635 134.335 281.487 133.199C283.339 132.051 285.516 131.477 288.016 131.477C289.629 131.477 291.152 131.739 292.584 132.261C294.027 132.773 295.3 133.568 296.402 134.648C297.516 135.727 298.391 137.102 299.027 138.773C299.663 140.432 299.982 142.409 299.982 144.705V146.597H278.521V142.438H294.067C294.055 141.256 293.8 140.205 293.3 139.284C292.8 138.352 292.101 137.619 291.203 137.085C290.317 136.551 289.283 136.284 288.101 136.284C286.839 136.284 285.732 136.591 284.777 137.205C283.822 137.807 283.078 138.602 282.544 139.591C282.021 140.568 281.754 141.642 281.743 142.812V146.443C281.743 147.966 282.021 149.273 282.578 150.364C283.135 151.443 283.913 152.273 284.913 152.852C285.913 153.42 287.084 153.705 288.425 153.705C289.322 153.705 290.135 153.58 290.862 153.33C291.589 153.068 292.22 152.688 292.754 152.188C293.288 151.688 293.692 151.068 293.964 150.33L299.726 150.977C299.362 152.5 298.669 153.83 297.646 154.966C296.635 156.091 295.339 156.966 293.76 157.591C292.18 158.205 290.374 158.511 288.339 158.511ZM189.432 179.545V182.273H179.898V179.545H189.432ZM182.455 175.364H185.852V191.875C185.852 192.534 185.951 193.03 186.148 193.364C186.345 193.689 186.598 193.913 186.909 194.034C187.227 194.148 187.572 194.205 187.943 194.205C188.216 194.205 188.455 194.186 188.659 194.148C188.864 194.11 189.023 194.08 189.136 194.057L189.75 196.864C189.553 196.939 189.273 197.015 188.909 197.091C188.545 197.174 188.091 197.22 187.545 197.227C186.652 197.242 185.818 197.083 185.045 196.75C184.273 196.417 183.648 195.902 183.17 195.205C182.693 194.508 182.455 193.633 182.455 192.58V175.364ZM200.355 197.352C198.719 197.352 197.291 196.977 196.071 196.227C194.851 195.477 193.904 194.428 193.23 193.08C192.556 191.731 192.219 190.155 192.219 188.352C192.219 186.542 192.556 184.958 193.23 183.602C193.904 182.246 194.851 181.193 196.071 180.443C197.291 179.693 198.719 179.318 200.355 179.318C201.991 179.318 203.42 179.693 204.639 180.443C205.859 181.193 206.806 182.246 207.48 183.602C208.154 184.958 208.491 186.542 208.491 188.352C208.491 190.155 208.154 191.731 207.48 193.08C206.806 194.428 205.859 195.477 204.639 196.227C203.42 196.977 201.991 197.352 200.355 197.352ZM200.366 194.5C201.427 194.5 202.306 194.22 203.003 193.659C203.7 193.098 204.215 192.352 204.548 191.42C204.889 190.489 205.06 189.462 205.06 188.341C205.06 187.227 204.889 186.205 204.548 185.273C204.215 184.333 203.7 183.58 203.003 183.011C202.306 182.443 201.427 182.159 200.366 182.159C199.298 182.159 198.412 182.443 197.707 183.011C197.01 183.58 196.491 184.333 196.151 185.273C195.817 186.205 195.651 187.227 195.651 188.341C195.651 189.462 195.817 190.489 196.151 191.42C196.491 192.352 197.01 193.098 197.707 193.659C198.412 194.22 199.298 194.5 200.366 194.5ZM179.776 218.545V221.273H170.241V218.545H179.776ZM172.798 214.364H176.196V230.875C176.196 231.534 176.295 232.03 176.491 232.364C176.688 232.689 176.942 232.913 177.253 233.034C177.571 233.148 177.916 233.205 178.287 233.205C178.56 233.205 178.798 233.186 179.003 233.148C179.207 233.11 179.366 233.08 179.48 233.057L180.094 235.864C179.897 235.939 179.616 236.015 179.253 236.091C178.889 236.174 178.435 236.22 177.889 236.227C176.995 236.242 176.162 236.083 175.389 235.75C174.616 235.417 173.991 234.902 173.514 234.205C173.037 233.508 172.798 232.633 172.798 231.58V214.364ZM187.307 225.636V236H183.909V212.727H187.261V221.386H187.477C187.886 220.447 188.511 219.701 189.352 219.148C190.193 218.595 191.292 218.318 192.648 218.318C193.845 218.318 194.89 218.564 195.784 219.057C196.686 219.549 197.383 220.284 197.875 221.261C198.375 222.231 198.625 223.443 198.625 224.898V236H195.227V225.307C195.227 224.027 194.898 223.034 194.239 222.33C193.58 221.617 192.663 221.261 191.489 221.261C190.686 221.261 189.966 221.432 189.33 221.773C188.701 222.114 188.205 222.614 187.841 223.273C187.485 223.924 187.307 224.712 187.307 225.636ZM210.682 236.352C208.962 236.352 207.481 235.985 206.239 235.25C205.004 234.508 204.049 233.466 203.375 232.125C202.708 230.777 202.375 229.197 202.375 227.386C202.375 225.598 202.708 224.023 203.375 222.659C204.049 221.295 204.989 220.231 206.193 219.466C207.405 218.701 208.822 218.318 210.443 218.318C211.428 218.318 212.383 218.481 213.307 218.807C214.231 219.133 215.061 219.644 215.795 220.341C216.53 221.038 217.11 221.943 217.534 223.057C217.958 224.163 218.17 225.508 218.17 227.091V228.295H204.295V225.75H214.841C214.841 224.856 214.659 224.064 214.295 223.375C213.932 222.678 213.42 222.129 212.761 221.727C212.11 221.326 211.345 221.125 210.466 221.125C209.511 221.125 208.678 221.36 207.966 221.83C207.261 222.292 206.716 222.898 206.33 223.648C205.951 224.39 205.761 225.197 205.761 226.068V228.057C205.761 229.223 205.966 230.216 206.375 231.034C206.792 231.852 207.371 232.477 208.114 232.909C208.856 233.333 209.723 233.545 210.716 233.545C211.36 233.545 211.947 233.455 212.477 233.273C213.008 233.083 213.466 232.803 213.852 232.432C214.239 232.061 214.534 231.602 214.739 231.057L217.955 231.636C217.697 232.583 217.235 233.413 216.568 234.125C215.909 234.83 215.08 235.379 214.08 235.773C213.087 236.159 211.955 236.352 210.682 236.352ZM144.87 259.091H150.154V282.051C150.154 284.494 149.58 286.659 148.433 288.545C147.285 290.42 145.671 291.898 143.592 292.977C141.512 294.045 139.075 294.58 136.279 294.58C133.495 294.58 131.063 294.045 128.984 292.977C126.904 291.898 125.29 290.42 124.143 288.545C122.995 286.659 122.421 284.494 122.421 282.051V259.091H127.688V281.625C127.688 283.205 128.035 284.608 128.728 285.835C129.433 287.062 130.427 288.028 131.711 288.733C132.995 289.426 134.518 289.773 136.279 289.773C138.052 289.773 139.58 289.426 140.864 288.733C142.16 288.028 143.148 287.062 143.83 285.835C144.523 284.608 144.87 283.205 144.87 281.625V259.091ZM162.499 278.455V294H157.403V267.818H162.295V272.08H162.619C163.221 270.693 164.164 269.58 165.448 268.739C166.744 267.898 168.374 267.477 170.34 267.477C172.124 267.477 173.687 267.852 175.028 268.602C176.369 269.341 177.408 270.443 178.147 271.909C178.886 273.375 179.255 275.187 179.255 277.347V294H174.158V277.96C174.158 276.062 173.664 274.58 172.675 273.511C171.687 272.432 170.329 271.892 168.602 271.892C167.42 271.892 166.369 272.148 165.448 272.659C164.539 273.17 163.817 273.92 163.283 274.909C162.761 275.886 162.499 277.068 162.499 278.455ZM186.09 294V267.818H191.187V294H186.09ZM188.664 263.778C187.778 263.778 187.016 263.483 186.38 262.892C185.755 262.29 185.442 261.574 185.442 260.744C185.442 259.903 185.755 259.187 186.38 258.597C187.016 257.994 187.778 257.693 188.664 257.693C189.55 257.693 190.306 257.994 190.931 258.597C191.567 259.187 191.886 259.903 191.886 260.744C191.886 261.574 191.567 262.29 190.931 262.892C190.306 263.483 189.55 263.778 188.664 263.778ZM210.265 267.818V271.909H195.964V267.818H210.265ZM199.799 261.545H204.896V286.312C204.896 287.301 205.043 288.045 205.339 288.545C205.634 289.034 206.015 289.369 206.481 289.551C206.958 289.722 207.475 289.807 208.032 289.807C208.441 289.807 208.799 289.778 209.106 289.722C209.413 289.665 209.651 289.619 209.822 289.585L210.742 293.795C210.447 293.909 210.026 294.023 209.481 294.136C208.935 294.261 208.254 294.33 207.435 294.341C206.094 294.364 204.844 294.125 203.685 293.625C202.526 293.125 201.589 292.352 200.873 291.307C200.157 290.261 199.799 288.949 199.799 287.369V261.545ZM226.906 294.528C224.326 294.528 222.104 293.977 220.241 292.875C218.388 291.761 216.957 290.199 215.945 288.188C214.945 286.165 214.445 283.795 214.445 281.08C214.445 278.398 214.945 276.034 215.945 273.989C216.957 271.943 218.366 270.347 220.173 269.199C221.991 268.051 224.116 267.477 226.548 267.477C228.025 267.477 229.457 267.722 230.843 268.21C232.229 268.699 233.474 269.466 234.576 270.511C235.678 271.557 236.548 272.915 237.184 274.585C237.82 276.244 238.138 278.261 238.138 280.636V282.443H217.326V278.625H233.144C233.144 277.284 232.871 276.097 232.326 275.062C231.781 274.017 231.013 273.193 230.025 272.591C229.048 271.989 227.9 271.688 226.582 271.688C225.15 271.688 223.9 272.04 222.832 272.744C221.775 273.437 220.957 274.347 220.377 275.472C219.809 276.585 219.525 277.795 219.525 279.102V282.085C219.525 283.835 219.832 285.324 220.445 286.551C221.07 287.778 221.94 288.716 223.053 289.364C224.167 290 225.468 290.318 226.957 290.318C227.923 290.318 228.803 290.182 229.599 289.909C230.394 289.625 231.082 289.205 231.661 288.648C232.241 288.091 232.684 287.403 232.991 286.585L237.815 287.455C237.428 288.875 236.735 290.119 235.735 291.188C234.746 292.244 233.502 293.068 232.002 293.659C230.513 294.239 228.815 294.528 226.906 294.528ZM253.594 294.511C251.481 294.511 249.594 293.972 247.935 292.892C246.288 291.801 244.992 290.25 244.049 288.239C243.117 286.216 242.651 283.79 242.651 280.96C242.651 278.131 243.123 275.71 244.066 273.699C245.021 271.687 246.327 270.148 247.987 269.08C249.646 268.011 251.526 267.477 253.629 267.477C255.254 267.477 256.56 267.75 257.549 268.295C258.549 268.83 259.322 269.455 259.867 270.17C260.424 270.886 260.856 271.517 261.163 272.062H261.469V259.091H266.566V294H261.589V289.926H261.163C260.856 290.483 260.413 291.119 259.833 291.835C259.265 292.551 258.481 293.176 257.481 293.71C256.481 294.244 255.185 294.511 253.594 294.511ZM254.719 290.165C256.185 290.165 257.424 289.778 258.435 289.006C259.458 288.222 260.231 287.136 260.754 285.75C261.288 284.364 261.555 282.75 261.555 280.909C261.555 279.091 261.293 277.5 260.771 276.136C260.248 274.773 259.481 273.71 258.469 272.949C257.458 272.187 256.208 271.807 254.719 271.807C253.185 271.807 251.907 272.205 250.884 273C249.862 273.795 249.089 274.881 248.566 276.256C248.055 277.631 247.799 279.182 247.799 280.909C247.799 282.659 248.06 284.233 248.583 285.631C249.106 287.028 249.879 288.136 250.901 288.955C251.935 289.761 253.208 290.165 254.719 290.165ZM45.7102 352V317.091H67.358V321.625H50.9773V332.261H65.8068V336.778H50.9773V352H45.7102ZM73.4261 352V325.818H78.5227V352H73.4261ZM76 321.778C75.1136 321.778 74.3523 321.483 73.7159 320.892C73.0909 320.29 72.7784 319.574 72.7784 318.744C72.7784 317.903 73.0909 317.187 73.7159 316.597C74.3523 315.994 75.1136 315.693 76 315.693C76.8864 315.693 77.642 315.994 78.267 316.597C78.9034 317.187 79.2216 317.903 79.2216 318.744C79.2216 319.574 78.9034 320.29 78.267 320.892C77.642 321.483 76.8864 321.778 76 321.778ZM85.3793 352V325.818H90.3054V329.977H90.5781C91.0554 328.568 91.8963 327.46 93.1009 326.653C94.3168 325.835 95.6918 325.426 97.2259 325.426C97.544 325.426 97.919 325.437 98.3509 325.46C98.794 325.483 99.1406 325.511 99.3906 325.545V330.42C99.1861 330.364 98.8224 330.301 98.2997 330.233C97.777 330.153 97.2543 330.114 96.7315 330.114C95.527 330.114 94.4531 330.369 93.5099 330.881C92.5781 331.381 91.8395 332.08 91.294 332.977C90.7486 333.864 90.4759 334.875 90.4759 336.011V352H85.3793ZM123.42 332.21L118.801 333.028C118.608 332.437 118.301 331.875 117.881 331.341C117.472 330.807 116.915 330.369 116.21 330.028C115.506 329.687 114.625 329.517 113.568 329.517C112.125 329.517 110.92 329.841 109.955 330.489C108.989 331.125 108.506 331.949 108.506 332.96C108.506 333.835 108.83 334.54 109.477 335.074C110.125 335.608 111.17 336.045 112.614 336.386L116.773 337.341C119.182 337.898 120.977 338.756 122.159 339.915C123.341 341.074 123.932 342.58 123.932 344.432C123.932 346 123.477 347.398 122.568 348.625C121.67 349.841 120.415 350.795 118.801 351.489C117.199 352.182 115.341 352.528 113.227 352.528C110.295 352.528 107.903 351.903 106.051 350.653C104.199 349.392 103.063 347.602 102.642 345.284L107.568 344.534C107.875 345.818 108.506 346.79 109.46 347.449C110.415 348.097 111.659 348.42 113.193 348.42C114.864 348.42 116.199 348.074 117.199 347.381C118.199 346.676 118.699 345.818 118.699 344.807C118.699 343.989 118.392 343.301 117.778 342.744C117.176 342.187 116.25 341.767 115 341.483L110.568 340.511C108.125 339.955 106.318 339.068 105.148 337.852C103.989 336.636 103.409 335.097 103.409 333.233C103.409 331.687 103.841 330.335 104.705 329.176C105.568 328.017 106.761 327.114 108.284 326.466C109.807 325.807 111.551 325.477 113.517 325.477C116.347 325.477 118.574 326.091 120.199 327.318C121.824 328.534 122.898 330.165 123.42 332.21ZM141.757 325.818V329.909H127.456V325.818H141.757ZM131.291 319.545H136.388V344.312C136.388 345.301 136.536 346.045 136.831 346.545C137.126 347.034 137.507 347.369 137.973 347.551C138.45 347.722 138.967 347.807 139.524 347.807C139.933 347.807 140.291 347.778 140.598 347.722C140.905 347.665 141.143 347.619 141.314 347.585L142.234 351.795C141.939 351.909 141.518 352.023 140.973 352.136C140.428 352.261 139.746 352.33 138.928 352.341C137.587 352.364 136.337 352.125 135.178 351.625C134.018 351.125 133.081 350.352 132.365 349.307C131.649 348.261 131.291 346.949 131.291 345.369V319.545ZM188.683 317.091V352H183.842L166.098 326.398H165.774V352H160.507V317.091H165.382L183.143 342.727H183.467V317.091H188.683ZM203.577 352.58C201.918 352.58 200.418 352.273 199.077 351.659C197.736 351.034 196.673 350.131 195.889 348.949C195.116 347.767 194.73 346.318 194.73 344.602C194.73 343.125 195.014 341.909 195.582 340.955C196.151 340 196.918 339.244 197.884 338.688C198.849 338.131 199.929 337.71 201.122 337.426C202.315 337.142 203.531 336.926 204.77 336.778C206.338 336.597 207.611 336.449 208.588 336.335C209.565 336.21 210.276 336.011 210.719 335.739C211.162 335.466 211.384 335.023 211.384 334.409V334.29C211.384 332.801 210.963 331.648 210.122 330.83C209.293 330.011 208.054 329.602 206.406 329.602C204.69 329.602 203.338 329.983 202.349 330.744C201.372 331.494 200.696 332.33 200.321 333.25L195.531 332.159C196.099 330.568 196.929 329.284 198.02 328.307C199.122 327.318 200.389 326.602 201.821 326.159C203.253 325.705 204.759 325.477 206.338 325.477C207.384 325.477 208.491 325.602 209.662 325.852C210.844 326.091 211.946 326.534 212.969 327.182C214.003 327.83 214.849 328.756 215.509 329.96C216.168 331.153 216.497 332.705 216.497 334.614V352H211.52V348.42H211.315C210.986 349.08 210.491 349.727 209.832 350.364C209.173 351 208.327 351.528 207.293 351.949C206.259 352.369 205.02 352.58 203.577 352.58ZM204.685 348.489C206.094 348.489 207.298 348.21 208.298 347.653C209.31 347.097 210.077 346.369 210.599 345.472C211.134 344.562 211.401 343.591 211.401 342.557V339.182C211.219 339.364 210.866 339.534 210.344 339.693C209.832 339.841 209.247 339.972 208.588 340.085C207.929 340.187 207.287 340.284 206.662 340.375C206.037 340.455 205.514 340.523 205.094 340.58C204.105 340.705 203.202 340.915 202.384 341.21C201.577 341.506 200.929 341.932 200.44 342.489C199.963 343.034 199.724 343.761 199.724 344.67C199.724 345.932 200.19 346.886 201.122 347.534C202.054 348.17 203.241 348.489 204.685 348.489ZM235.507 325.818V329.909H221.206V325.818H235.507ZM225.041 319.545H230.138V344.312C230.138 345.301 230.286 346.045 230.581 346.545C230.876 347.034 231.257 347.369 231.723 347.551C232.2 347.722 232.717 347.807 233.274 347.807C233.683 347.807 234.041 347.778 234.348 347.722C234.655 347.665 234.893 347.619 235.064 347.585L235.984 351.795C235.689 351.909 235.268 352.023 234.723 352.136C234.178 352.261 233.496 352.33 232.678 352.341C231.337 352.364 230.087 352.125 228.928 351.625C227.768 351.125 226.831 350.352 226.115 349.307C225.399 348.261 225.041 346.949 225.041 345.369V319.545ZM241.145 352V325.818H246.241V352H241.145ZM243.719 321.778C242.832 321.778 242.071 321.483 241.435 320.892C240.81 320.29 240.497 319.574 240.497 318.744C240.497 317.903 240.81 317.187 241.435 316.597C242.071 315.994 242.832 315.693 243.719 315.693C244.605 315.693 245.361 315.994 245.986 316.597C246.622 317.187 246.94 317.903 246.94 318.744C246.94 319.574 246.622 320.29 245.986 320.892C245.361 321.483 244.605 321.778 243.719 321.778ZM264.126 352.528C261.672 352.528 259.53 351.966 257.7 350.841C255.871 349.716 254.45 348.142 253.439 346.119C252.428 344.097 251.922 341.733 251.922 339.028C251.922 336.312 252.428 333.937 253.439 331.903C254.45 329.869 255.871 328.29 257.7 327.165C259.53 326.04 261.672 325.477 264.126 325.477C266.581 325.477 268.723 326.04 270.553 327.165C272.382 328.29 273.803 329.869 274.814 331.903C275.825 333.937 276.331 336.312 276.331 339.028C276.331 341.733 275.825 344.097 274.814 346.119C273.803 348.142 272.382 349.716 270.553 350.841C268.723 351.966 266.581 352.528 264.126 352.528ZM264.143 348.25C265.734 348.25 267.053 347.83 268.098 346.989C269.143 346.148 269.916 345.028 270.416 343.631C270.928 342.233 271.183 340.693 271.183 339.011C271.183 337.341 270.928 335.807 270.416 334.409C269.916 333 269.143 331.869 268.098 331.017C267.053 330.165 265.734 329.739 264.143 329.739C262.541 329.739 261.212 330.165 260.155 331.017C259.109 331.869 258.331 333 257.82 334.409C257.32 335.807 257.07 337.341 257.07 339.011C257.07 340.693 257.32 342.233 257.82 343.631C258.331 345.028 259.109 346.148 260.155 346.989C261.212 347.83 262.541 348.25 264.143 348.25ZM287.116 336.455V352H282.02V325.818H286.912V330.08H287.236C287.838 328.693 288.781 327.58 290.065 326.739C291.361 325.898 292.991 325.477 294.957 325.477C296.741 325.477 298.304 325.852 299.645 326.602C300.986 327.341 302.026 328.443 302.764 329.909C303.503 331.375 303.872 333.187 303.872 335.347V352H298.776V335.96C298.776 334.062 298.281 332.58 297.293 331.511C296.304 330.432 294.946 329.892 293.219 329.892C292.037 329.892 290.986 330.148 290.065 330.659C289.156 331.17 288.435 331.92 287.901 332.909C287.378 333.886 287.116 335.068 287.116 336.455ZM330.327 332.21L325.707 333.028C325.514 332.437 325.207 331.875 324.787 331.341C324.378 330.807 323.821 330.369 323.116 330.028C322.412 329.687 321.531 329.517 320.474 329.517C319.031 329.517 317.827 329.841 316.861 330.489C315.895 331.125 315.412 331.949 315.412 332.96C315.412 333.835 315.736 334.54 316.384 335.074C317.031 335.608 318.077 336.045 319.52 336.386L323.679 337.341C326.088 337.898 327.884 338.756 329.065 339.915C330.247 341.074 330.838 342.58 330.838 344.432C330.838 346 330.384 347.398 329.474 348.625C328.577 349.841 327.321 350.795 325.707 351.489C324.105 352.182 322.247 352.528 320.134 352.528C317.202 352.528 314.81 351.903 312.957 350.653C311.105 349.392 309.969 347.602 309.548 345.284L314.474 344.534C314.781 345.818 315.412 346.79 316.366 347.449C317.321 348.097 318.565 348.42 320.099 348.42C321.77 348.42 323.105 348.074 324.105 347.381C325.105 346.676 325.605 345.818 325.605 344.807C325.605 343.989 325.298 343.301 324.685 342.744C324.082 342.187 323.156 341.767 321.906 341.483L317.474 340.511C315.031 339.955 313.224 339.068 312.054 337.852C310.895 336.636 310.315 335.097 310.315 333.233C310.315 331.687 310.747 330.335 311.611 329.176C312.474 328.017 313.668 327.114 315.19 326.466C316.713 325.807 318.457 325.477 320.423 325.477C323.253 325.477 325.48 326.091 327.105 327.318C328.73 328.534 329.804 330.165 330.327 332.21ZM342.868 317.091L342.425 341.96H337.703L337.26 317.091H342.868ZM340.072 352.324C339.129 352.324 338.322 351.994 337.652 351.335C336.982 350.665 336.652 349.858 336.663 348.915C336.652 347.983 336.982 347.187 337.652 346.528C338.322 345.858 339.129 345.523 340.072 345.523C340.993 345.523 341.788 345.858 342.459 346.528C343.129 347.187 343.47 347.983 343.482 348.915C343.47 349.54 343.305 350.114 342.987 350.636C342.68 351.148 342.271 351.557 341.76 351.864C341.249 352.17 340.686 352.324 340.072 352.324Z" fill="#D0D0D0"/>
<path d="M308 534H81C72.1634 534 65 541.163 65 550V585C65 593.837 72.1634 601 81 601H308C316.837 601 324 593.837 324 585V550C324 541.163 316.837 534 308 534Z" fill="#D9D9D9"/>
<path d="M291.611 580.15C291.204 579.742 291 579.224 291 578.595C291 577.966 291.204 577.448 291.611 577.041L300.276 568.38L291.611 559.72C291.204 559.312 291 558.794 291 558.165C291 557.536 291.204 557.018 291.611 556.611C292.018 556.204 292.537 556 293.166 556C293.796 556 294.314 556.204 294.722 556.611L304.942 566.826C305.164 567.048 305.322 567.288 305.415 567.547C305.508 567.806 305.554 568.084 305.553 568.38C305.553 568.676 305.506 568.954 305.413 569.213C305.32 569.472 305.163 569.712 304.942 569.935L294.722 580.15C294.314 580.557 293.796 580.76 293.166 580.76C292.537 580.76 292.018 580.557 291.611 580.15Z" fill="#FF9341"/>
<g style="mix-blend-mode:multiply">
<path d="M98.9741 581V554.818H102.924V577.599H114.788V581H98.9741ZM124.702 581.435C123.458 581.435 122.333 581.205 121.327 580.744C120.321 580.276 119.525 579.598 118.936 578.712C118.357 577.825 118.067 576.739 118.067 575.452C118.067 574.344 118.28 573.432 118.706 572.716C119.132 572 119.708 571.433 120.432 571.016C121.157 570.598 121.966 570.283 122.861 570.07C123.756 569.857 124.668 569.695 125.597 569.584C126.773 569.447 127.728 569.337 128.461 569.251C129.194 569.158 129.726 569.009 130.059 568.804C130.391 568.599 130.557 568.267 130.557 567.807V567.717C130.557 566.601 130.242 565.736 129.611 565.122C128.989 564.509 128.06 564.202 126.824 564.202C125.537 564.202 124.523 564.487 123.782 565.058C123.049 565.621 122.542 566.247 122.26 566.938L118.668 566.119C119.094 564.926 119.716 563.963 120.534 563.23C121.361 562.489 122.311 561.952 123.385 561.619C124.459 561.278 125.588 561.108 126.773 561.108C127.557 561.108 128.388 561.202 129.266 561.389C130.152 561.568 130.979 561.901 131.746 562.386C132.522 562.872 133.157 563.567 133.651 564.47C134.145 565.365 134.392 566.528 134.392 567.96V581H130.659V578.315H130.506C130.259 578.81 129.888 579.295 129.394 579.773C128.9 580.25 128.265 580.646 127.489 580.962C126.713 581.277 125.784 581.435 124.702 581.435ZM125.533 578.366C126.59 578.366 127.493 578.158 128.243 577.74C129.002 577.322 129.577 576.777 129.969 576.104C130.37 575.422 130.57 574.693 130.57 573.918V571.386C130.434 571.523 130.169 571.651 129.777 571.77C129.394 571.881 128.955 571.979 128.461 572.064C127.966 572.141 127.485 572.213 127.016 572.281C126.547 572.341 126.155 572.392 125.84 572.435C125.098 572.528 124.421 572.686 123.807 572.908C123.202 573.129 122.716 573.449 122.35 573.866C121.992 574.276 121.813 574.821 121.813 575.503C121.813 576.449 122.162 577.165 122.861 577.651C123.56 578.128 124.451 578.366 125.533 578.366ZM143.306 569.341V581H139.484V561.364H143.153V564.56H143.396C143.847 563.52 144.555 562.685 145.518 562.054C146.489 561.423 147.712 561.108 149.187 561.108C150.525 561.108 151.697 561.389 152.702 561.952C153.708 562.506 154.488 563.332 155.042 564.432C155.596 565.531 155.873 566.891 155.873 568.51V581H152.05V568.97C152.05 567.547 151.68 566.435 150.938 565.634C150.197 564.824 149.178 564.419 147.883 564.419C146.996 564.419 146.208 564.611 145.518 564.994C144.836 565.378 144.295 565.94 143.894 566.682C143.502 567.415 143.306 568.301 143.306 569.341ZM169.232 588.773C167.673 588.773 166.33 588.568 165.205 588.159C164.089 587.75 163.177 587.209 162.469 586.536C161.762 585.862 161.234 585.125 160.884 584.324L164.17 582.969C164.4 583.344 164.707 583.74 165.09 584.158C165.482 584.584 166.011 584.946 166.675 585.244C167.349 585.543 168.214 585.692 169.271 585.692C170.719 585.692 171.917 585.338 172.863 584.631C173.809 583.932 174.282 582.815 174.282 581.281V577.42H174.039C173.809 577.838 173.477 578.303 173.042 578.814C172.616 579.325 172.028 579.768 171.278 580.143C170.528 580.518 169.552 580.706 168.35 580.706C166.799 580.706 165.401 580.344 164.157 579.619C162.921 578.886 161.941 577.808 161.217 576.385C160.501 574.953 160.143 573.193 160.143 571.105C160.143 569.017 160.496 567.227 161.204 565.736C161.92 564.244 162.9 563.102 164.144 562.31C165.388 561.509 166.799 561.108 168.376 561.108C169.594 561.108 170.579 561.312 171.329 561.722C172.079 562.122 172.663 562.591 173.08 563.128C173.506 563.665 173.835 564.138 174.065 564.547H174.346V561.364H178.092V581.435C178.092 583.122 177.7 584.507 176.915 585.589C176.131 586.672 175.07 587.473 173.732 587.993C172.403 588.513 170.903 588.773 169.232 588.773ZM169.194 577.536C170.293 577.536 171.222 577.28 171.981 576.768C172.748 576.249 173.327 575.507 173.719 574.544C174.12 573.572 174.32 572.409 174.32 571.054C174.32 569.733 174.124 568.57 173.732 567.564C173.34 566.558 172.765 565.774 172.006 565.212C171.248 564.641 170.31 564.355 169.194 564.355C168.043 564.355 167.085 564.653 166.317 565.25C165.55 565.838 164.971 566.639 164.579 567.653C164.195 568.668 164.004 569.801 164.004 571.054C164.004 572.341 164.2 573.47 164.592 574.442C164.984 575.413 165.563 576.172 166.33 576.717C167.106 577.263 168.06 577.536 169.194 577.536ZM195.657 572.857V561.364H199.492V581H195.734V577.599H195.529C195.077 578.648 194.353 579.521 193.356 580.22C192.367 580.911 191.136 581.256 189.661 581.256C188.4 581.256 187.283 580.979 186.312 580.425C185.349 579.862 184.59 579.031 184.036 577.932C183.491 576.832 183.218 575.473 183.218 573.854V561.364H187.04V573.393C187.04 574.732 187.411 575.797 188.153 576.589C188.894 577.382 189.857 577.778 191.042 577.778C191.758 577.778 192.469 577.599 193.177 577.241C193.893 576.884 194.485 576.342 194.954 575.618C195.431 574.893 195.665 573.973 195.657 572.857ZM210.343 581.435C209.098 581.435 207.973 581.205 206.968 580.744C205.962 580.276 205.165 579.598 204.577 578.712C203.998 577.825 203.708 576.739 203.708 575.452C203.708 574.344 203.921 573.432 204.347 572.716C204.773 572 205.348 571.433 206.073 571.016C206.797 570.598 207.607 570.283 208.502 570.07C209.397 569.857 210.309 569.695 211.238 569.584C212.414 569.447 213.368 569.337 214.101 569.251C214.834 569.158 215.367 569.009 215.699 568.804C216.032 568.599 216.198 568.267 216.198 567.807V567.717C216.198 566.601 215.882 565.736 215.252 565.122C214.63 564.509 213.701 564.202 212.465 564.202C211.178 564.202 210.164 564.487 209.422 565.058C208.689 565.621 208.182 566.247 207.901 566.938L204.309 566.119C204.735 564.926 205.357 563.963 206.175 563.23C207.002 562.489 207.952 561.952 209.026 561.619C210.1 561.278 211.229 561.108 212.414 561.108C213.198 561.108 214.029 561.202 214.907 561.389C215.793 561.568 216.62 561.901 217.387 562.386C218.162 562.872 218.797 563.567 219.292 564.47C219.786 565.365 220.033 566.528 220.033 567.96V581H216.3V578.315H216.147C215.9 578.81 215.529 579.295 215.034 579.773C214.54 580.25 213.905 580.646 213.13 580.962C212.354 581.277 211.425 581.435 210.343 581.435ZM211.174 578.366C212.23 578.366 213.134 578.158 213.884 577.74C214.642 577.322 215.218 576.777 215.61 576.104C216.01 575.422 216.211 574.693 216.211 573.918V571.386C216.074 571.523 215.81 571.651 215.418 571.77C215.034 571.881 214.596 571.979 214.101 572.064C213.607 572.141 213.125 572.213 212.657 572.281C212.188 572.341 211.796 572.392 211.48 572.435C210.739 572.528 210.061 572.686 209.448 572.908C208.843 573.129 208.357 573.449 207.99 573.866C207.632 574.276 207.453 574.821 207.453 575.503C207.453 576.449 207.803 577.165 208.502 577.651C209.201 578.128 210.091 578.366 211.174 578.366ZM233.357 588.773C231.798 588.773 230.455 588.568 229.33 588.159C228.214 587.75 227.302 587.209 226.594 586.536C225.887 585.862 225.359 585.125 225.009 584.324L228.295 582.969C228.525 583.344 228.832 583.74 229.215 584.158C229.607 584.584 230.136 584.946 230.8 585.244C231.474 585.543 232.339 585.692 233.396 585.692C234.844 585.692 236.042 585.338 236.988 584.631C237.934 583.932 238.407 582.815 238.407 581.281V577.42H238.164C237.934 577.838 237.602 578.303 237.167 578.814C236.741 579.325 236.153 579.768 235.403 580.143C234.653 580.518 233.677 580.706 232.475 580.706C230.924 580.706 229.526 580.344 228.282 579.619C227.046 578.886 226.066 577.808 225.342 576.385C224.626 574.953 224.268 573.193 224.268 571.105C224.268 569.017 224.621 567.227 225.329 565.736C226.045 564.244 227.025 563.102 228.269 562.31C229.513 561.509 230.924 561.108 232.501 561.108C233.719 561.108 234.704 561.312 235.454 561.722C236.204 562.122 236.788 562.591 237.205 563.128C237.631 563.665 237.96 564.138 238.19 564.547H238.471V561.364H242.217V581.435C242.217 583.122 241.825 584.507 241.04 585.589C240.256 586.672 239.195 587.473 237.857 587.993C236.528 588.513 235.028 588.773 233.357 588.773ZM233.319 577.536C234.418 577.536 235.347 577.28 236.106 576.768C236.873 576.249 237.452 575.507 237.844 574.544C238.245 573.572 238.445 572.409 238.445 571.054C238.445 569.733 238.249 568.57 237.857 567.564C237.465 566.558 236.89 565.774 236.131 565.212C235.373 564.641 234.435 564.355 233.319 564.355C232.168 564.355 231.21 564.653 230.442 565.25C229.675 565.838 229.096 566.639 228.704 567.653C228.32 568.668 228.129 569.801 228.129 571.054C228.129 572.341 228.325 573.47 228.717 574.442C229.109 575.413 229.688 576.172 230.455 576.717C231.231 577.263 232.185 577.536 233.319 577.536ZM255.806 581.396C253.871 581.396 252.205 580.983 250.808 580.156C249.418 579.321 248.344 578.149 247.586 576.641C246.836 575.124 246.461 573.347 246.461 571.31C246.461 569.298 246.836 567.526 247.586 565.991C248.344 564.457 249.401 563.26 250.756 562.399C252.12 561.538 253.714 561.108 255.538 561.108C256.646 561.108 257.719 561.291 258.759 561.658C259.799 562.024 260.732 562.599 261.559 563.384C262.386 564.168 263.038 565.186 263.515 566.439C263.992 567.683 264.231 569.196 264.231 570.977V572.332H248.621V569.469H260.485C260.485 568.463 260.281 567.572 259.871 566.797C259.462 566.013 258.887 565.395 258.146 564.943C257.413 564.491 256.552 564.266 255.563 564.266C254.489 564.266 253.552 564.53 252.751 565.058C251.958 565.578 251.344 566.26 250.91 567.104C250.484 567.939 250.271 568.847 250.271 569.827V572.064C250.271 573.376 250.501 574.493 250.961 575.413C251.43 576.334 252.082 577.037 252.917 577.523C253.752 578 254.728 578.239 255.844 578.239C256.569 578.239 257.229 578.136 257.826 577.932C258.423 577.719 258.938 577.403 259.373 576.986C259.808 576.568 260.14 576.053 260.37 575.439L263.988 576.091C263.698 577.156 263.178 578.089 262.428 578.891C261.687 579.683 260.754 580.301 259.629 580.744C258.512 581.179 257.238 581.396 255.806 581.396Z" fill="#252835"/>
</g>
<path d="M223.9 448.988C223.616 448.823 223.304 448.664 222.981 448.509C223.304 448.354 223.616 448.195 223.9 448.029C225.51 447.11 226.922 445.88 228.057 444.41C229.191 442.94 230.025 441.259 230.51 439.464C230.995 437.669 231.122 435.795 230.883 433.951C230.644 432.106 230.045 430.327 229.119 428.716C228.194 427.105 226.96 425.695 225.489 424.565C224.019 423.435 222.34 422.608 220.55 422.133C218.76 421.658 216.895 421.542 215.06 421.794C213.226 422.046 211.46 422.66 209.863 423.601C209.578 423.767 209.284 423.954 208.992 424.162C209.02 423.809 209.038 423.457 209.038 423.104C209.038 419.363 207.559 415.776 204.926 413.131C202.294 410.486 198.723 409 195 409C191.277 409 187.706 410.486 185.074 413.131C182.441 415.776 180.962 419.363 180.962 423.104C180.962 423.435 180.962 423.788 181.008 424.162C180.716 423.961 180.422 423.767 180.137 423.601C178.54 422.66 176.774 422.046 174.94 421.794C173.105 421.542 171.24 421.658 169.45 422.133C167.66 422.608 165.981 423.435 164.511 424.565C163.04 425.695 161.806 427.105 160.881 428.716C159.955 430.327 159.356 432.106 159.117 433.951C158.878 435.795 159.005 437.669 159.49 439.464C159.975 441.259 160.809 442.94 161.943 444.41C163.078 445.88 164.49 447.11 166.1 448.029C166.384 448.195 166.696 448.354 167.019 448.509C166.696 448.664 166.384 448.823 166.1 448.988C164.49 449.908 163.078 451.138 161.943 452.608C160.809 454.078 159.975 455.759 159.49 457.554C159.005 459.349 158.878 461.223 159.117 463.067C159.356 464.912 159.955 466.691 160.881 468.301C161.806 469.912 163.04 471.323 164.511 472.453C165.981 473.583 167.66 474.409 169.45 474.885C171.24 475.36 173.105 475.475 174.94 475.223C176.774 474.971 178.54 474.357 180.137 473.416C180.422 473.251 180.716 473.064 181.008 472.856C180.98 473.208 180.962 473.561 180.962 473.896C180.962 477.637 182.441 481.224 185.074 483.869C187.706 486.514 191.277 488 195 488C198.723 488 202.294 486.514 204.926 483.869C207.559 481.224 209.038 477.637 209.038 473.896C209.038 473.565 209.02 473.212 208.992 472.856C209.284 473.057 209.578 473.251 209.863 473.416C211.989 474.654 214.403 475.306 216.86 475.306C218.095 475.305 219.325 475.141 220.517 474.82C223.199 474.098 225.608 472.593 227.438 470.495C229.269 468.398 230.439 465.802 230.801 463.036C231.163 460.27 230.701 457.459 229.473 454.957C228.244 452.455 226.305 450.376 223.9 448.981V448.988ZM186.577 448.509C186.577 446.835 187.071 445.199 187.997 443.807C188.922 442.416 190.238 441.331 191.777 440.691C193.316 440.05 195.009 439.882 196.643 440.209C198.277 440.536 199.778 441.342 200.956 442.525C202.134 443.708 202.936 445.216 203.261 446.858C203.586 448.499 203.419 450.201 202.782 451.747C202.144 453.294 201.065 454.615 199.679 455.545C198.294 456.475 196.666 456.971 195 456.971C192.766 456.971 190.624 456.08 189.044 454.493C187.465 452.906 186.577 450.753 186.577 448.509ZM212.67 428.485C213.628 427.929 214.686 427.568 215.782 427.423C216.879 427.278 217.993 427.352 219.062 427.639C220.13 427.927 221.132 428.423 222.009 429.1C222.887 429.776 223.623 430.62 224.176 431.582C224.729 432.545 225.088 433.607 225.232 434.709C225.377 435.811 225.304 436.93 225.017 438.004C224.731 439.077 224.237 440.084 223.564 440.965C222.89 441.847 222.051 442.587 221.093 443.142C218.892 444.422 214.562 445.304 208.754 445.677C208.141 442.692 206.582 439.987 204.311 437.966C207.539 433.093 210.47 429.765 212.67 428.485ZM195 414.659C197.234 414.659 199.376 415.551 200.956 417.138C202.535 418.725 203.423 420.877 203.423 423.122C203.423 425.674 202.019 429.888 199.436 435.131C196.557 434.163 193.443 434.163 190.564 435.131C187.981 429.888 186.577 425.674 186.577 423.122C186.577 420.877 187.465 418.725 189.044 417.138C190.624 415.551 192.766 414.659 195 414.659ZM165.822 431.584C166.375 430.621 167.111 429.777 167.989 429.1C168.867 428.424 169.868 427.927 170.937 427.639C172.006 427.351 173.12 427.278 174.217 427.423C175.314 427.568 176.372 427.929 177.33 428.485C179.53 429.765 182.461 433.093 185.689 437.966C183.416 439.989 181.857 442.699 181.246 445.688C175.438 445.314 171.108 444.433 168.907 443.156C167.947 442.601 167.106 441.861 166.432 440.978C165.757 440.096 165.262 439.088 164.976 438.013C164.689 436.938 164.616 435.817 164.762 434.714C164.907 433.611 165.267 432.547 165.822 431.584ZM177.33 468.533C175.395 469.655 173.096 469.959 170.938 469.378C168.781 468.797 166.941 467.379 165.824 465.435C164.707 463.492 164.404 461.182 164.983 459.014C165.561 456.846 166.973 454.998 168.907 453.875C171.108 452.595 175.438 451.714 181.246 451.34C181.859 454.325 183.418 457.031 185.689 459.052C182.461 463.924 179.53 467.253 177.33 468.533ZM195 482.358C192.766 482.358 190.624 481.467 189.044 479.88C187.465 478.293 186.577 476.14 186.577 473.896C186.577 471.343 187.981 467.13 190.564 461.886C193.443 462.855 196.557 462.855 199.436 461.886C202.019 467.13 203.423 471.343 203.423 473.896C203.423 476.14 202.535 478.293 200.956 479.88C199.376 481.467 197.234 482.358 195 482.358ZM224.178 465.434C223.625 466.396 222.889 467.24 222.011 467.917C221.133 468.594 220.132 469.091 219.063 469.378C217.994 469.666 216.88 469.74 215.783 469.595C214.686 469.45 213.628 469.089 212.67 468.533C210.47 467.253 207.539 463.924 204.311 459.052C206.584 457.028 208.143 454.319 208.754 451.33C214.562 451.703 218.892 452.585 221.093 453.861C222.053 454.417 222.894 455.157 223.568 456.04C224.243 456.922 224.738 457.93 225.024 459.005C225.311 460.08 225.384 461.201 225.238 462.304C225.093 463.407 224.733 464.471 224.178 465.434Z" fill="#D0D0D0"/>
</svg>
