<svg width="390" height="844" viewBox="0 0 390 844" fill="none" xmlns="http://www.w3.org/2000/svg">
<rect width="390" height="844" fill="#0F0F0F"/>
<rect width="390" height="33.2558" transform="translate(0 801)" fill="#0F0F0F"/>
<rect x="125.84" y="822.824" width="139" height="5" rx="2.5" fill="white"/>
<rect width="390" height="45.7653" fill="#0F0F0F"/>
<path fill-rule="evenodd" clip-rule="evenodd" d="M319 20H320C320.552 20 321 20.4477 321 21V27C321 27.5523 320.552 28 320 28H319C318.448 28 318 27.5523 318 27V21C318 20.4477 318.448 20 319 20Z" fill="#D1D1D6"/>
<path fill-rule="evenodd" clip-rule="evenodd" d="M314.5 22H315.5C316.052 22 316.5 22.4477 316.5 23V27C316.5 27.5523 316.052 28 315.5 28H314.5C313.948 28 313.5 27.5523 313.5 27V23C313.5 22.4477 313.948 22 314.5 22Z" fill="#D1D1D6"/>
<path fill-rule="evenodd" clip-rule="evenodd" d="M310 23.5H311C311.552 23.5 312 23.9477 312 24.5V27C312 27.5523 311.552 28 311 28H310C309.448 28 309 27.5523 309 27V24.5C309 23.9477 309.448 23.5 310 23.5Z" fill="#D1D1D6"/>
<path fill-rule="evenodd" clip-rule="evenodd" d="M323.5 18H324.5C325.052 18 325.5 18.4477 325.5 19V27C325.5 27.5523 325.052 28 324.5 28H323.5C322.948 28 322.5 27.5523 322.5 27V19C322.5 18.4477 322.948 18 323.5 18Z" fill="#EBEBF5" fill-opacity="0.3"/>
<path fill-rule="evenodd" clip-rule="evenodd" d="M319 20H320C320.552 20 321 20.4477 321 21V27C321 27.5523 320.552 28 320 28H319C318.448 28 318 27.5523 318 27V21C318 20.4477 318.448 20 319 20Z" fill="white"/>
<path fill-rule="evenodd" clip-rule="evenodd" d="M314.5 22H315.5C316.052 22 316.5 22.4477 316.5 23V27C316.5 27.5523 316.052 28 315.5 28H314.5C313.948 28 313.5 27.5523 313.5 27V23C313.5 22.4477 313.948 22 314.5 22Z" fill="white"/>
<path fill-rule="evenodd" clip-rule="evenodd" d="M310 23.5H311C311.552 23.5 312 23.9477 312 24.5V27C312 27.5523 311.552 28 311 28H310C309.448 28 309 27.5523 309 27V24.5C309 23.9477 309.448 23.5 310 23.5Z" fill="white"/>
<path d="M339.133 24.9396C339.772 24.9396 340.394 25.1076 340.941 25.428L341.163 25.5579C341.331 25.6563 341.361 25.8866 341.223 26.0242L339.329 27.913C339.212 28.029 339.024 28.029 338.907 27.913L337.026 26.0363C336.888 25.8994 336.917 25.6702 337.084 25.5711L337.303 25.4406C337.855 25.1121 338.485 24.9396 339.133 24.9396Z" fill="white"/>
<path d="M339.133 21.4698C340.724 21.4698 342.251 21.9976 343.495 22.9749L343.671 23.113C343.811 23.2232 343.824 23.4306 343.697 23.5565L342.567 24.6841C342.462 24.7884 342.297 24.8004 342.178 24.7123L342.04 24.6098C341.2 23.9852 340.186 23.6502 339.133 23.6502C338.073 23.6502 337.053 23.9894 336.21 24.6211L336.072 24.7245C335.953 24.8134 335.787 24.8017 335.682 24.6971L334.552 23.5699C334.426 23.4443 334.438 23.2373 334.578 23.127L334.753 22.9888C336 22.0027 337.534 21.4698 339.133 21.4698Z" fill="white"/>
<path d="M339.133 18C341.657 18 344.072 18.8906 345.983 20.5229L346.146 20.6623C346.278 20.7749 346.285 20.9756 346.163 21.098L345.036 22.2219C344.926 22.3308 344.752 22.3385 344.634 22.2395L344.494 22.1228C342.989 20.8647 341.104 20.1804 339.133 20.1804C337.155 20.1804 335.263 20.8694 333.756 22.1354L333.617 22.2527C333.498 22.3521 333.324 22.3447 333.214 22.2356L332.087 21.1118C331.965 20.9895 331.972 20.7892 332.104 20.6765L332.266 20.5371C334.18 18.8959 336.601 18 339.133 18Z" fill="white"/>
<path d="M375 21V21C375.552 21 376 21.4477 376 22V24C376 24.5523 375.552 25 375 25V25V21Z" fill="#EBEBF5" fill-opacity="0.3"/>
<path fill-rule="evenodd" clip-rule="evenodd" d="M354 17H371C372.657 17 374 18.3431 374 20V26C374 27.6569 372.657 29 371 29H354C352.343 29 351 27.6569 351 26V20C351 18.3431 352.343 17 354 17ZM354 18C352.895 18 352 18.8954 352 20V26C352 27.1046 352.895 28 354 28H371C372.105 28 373 27.1046 373 26V20C373 18.8954 372.105 18 371 18H354Z" fill="#EBEBF5" fill-opacity="0.3"/>
<rect x="353" y="19" width="19" height="8" rx="1" fill="white"/>
<path d="M37.8672 28.0889C40.5552 28.0889 42.1519 25.9868 42.1519 22.4272C42.1519 21.0869 41.8955 19.959 41.4048 19.0874C40.6943 17.7324 39.4712 17 37.9258 17C35.626 17 34 18.5454 34 20.7134C34 22.7495 35.4648 24.229 37.479 24.229C38.7168 24.229 39.7202 23.6504 40.2183 22.647H40.2402C40.2402 22.647 40.2695 22.647 40.2769 22.647C40.2915 22.647 40.3428 22.647 40.3428 22.647C40.3428 25.064 39.4272 26.5068 37.8818 26.5068C36.9736 26.5068 36.2705 26.0088 36.0288 25.2104H34.1465C34.4614 26.9463 35.9336 28.0889 37.8672 28.0889ZM37.9331 22.7275C36.7173 22.7275 35.853 21.8633 35.853 20.6548C35.853 19.4756 36.7612 18.5747 37.9404 18.5747C39.1196 18.5747 40.0278 19.4902 40.0278 20.6841C40.0278 21.8633 39.1416 22.7275 37.9331 22.7275Z" fill="white"/>
<path d="M45.243 27.9863C45.9388 27.9863 46.4148 27.4883 46.4148 26.8291C46.4148 26.1626 45.9388 25.6719 45.243 25.6719C44.5545 25.6719 44.0711 26.1626 44.0711 26.8291C44.0711 27.4883 44.5545 27.9863 45.243 27.9863ZM45.243 22.4932C45.9388 22.4932 46.4148 22.0024 46.4148 21.3433C46.4148 20.6768 45.9388 20.186 45.243 20.186C44.5545 20.186 44.0711 20.6768 44.0711 21.3433C44.0711 22.0024 44.5545 22.4932 45.243 22.4932Z" fill="white"/>
<path d="M53.2706 27.8325H55.0797V25.8623H56.5079V24.2656H55.0797V17.2637H52.4137C50.546 20.0762 49.0592 22.4272 48.107 24.1777V25.8623H53.2706V27.8325ZM49.8575 24.1997C51.088 22.0317 52.1866 20.2959 53.1974 18.8018H53.2999V24.3096H49.8575V24.1997Z" fill="white"/>
<path d="M60.5365 27.8325H62.4262V17.2637H60.5438L57.7826 19.1973V21.0137L60.412 19.168H60.5365V27.8325Z" fill="white"/>
<path d="M349 643H41C32.1634 643 25 650.163 25 659V715C25 723.837 32.1634 731 41 731H349C357.837 731 365 723.837 365 715V659C365 650.163 357.837 643 349 643Z" fill="#D9D9D9"/>
<path d="M320.375 702.458C319.84 701.924 319.573 701.243 319.573 700.417C319.573 699.59 319.84 698.91 320.375 698.375L331.75 687L320.375 675.625C319.84 675.09 319.573 674.41 319.573 673.583C319.573 672.757 319.84 672.076 320.375 671.542C320.91 671.007 321.59 670.74 322.417 670.74C323.243 670.74 323.924 671.007 324.458 671.542L337.875 684.958C338.167 685.25 338.374 685.566 338.496 685.906C338.619 686.247 338.679 686.611 338.677 687C338.677 687.389 338.616 687.753 338.493 688.094C338.371 688.434 338.165 688.75 337.875 689.042L324.458 702.458C323.924 702.993 323.243 703.26 322.417 703.26C321.59 703.26 320.91 702.993 320.375 702.458Z" fill="#FF9341"/>
<g style="mix-blend-mode:multiply">
<path d="M165.995 680.906C165.863 679.666 165.304 678.7 164.319 678.009C163.344 677.317 162.075 676.972 160.512 676.972C159.414 676.972 158.472 677.137 157.686 677.469C156.9 677.8 156.298 678.25 155.882 678.818C155.465 679.386 155.252 680.035 155.243 680.764C155.243 681.37 155.38 681.896 155.654 682.341C155.939 682.786 156.322 683.165 156.805 683.477C157.288 683.78 157.823 684.036 158.41 684.244C158.997 684.453 159.589 684.628 160.186 684.77L162.913 685.452C164.011 685.707 165.067 686.053 166.081 686.489C167.103 686.924 168.017 687.473 168.822 688.136C169.636 688.799 170.28 689.599 170.754 690.537C171.227 691.474 171.464 692.573 171.464 693.832C171.464 695.537 171.029 697.038 170.157 698.335C169.286 699.623 168.027 700.632 166.379 701.361C164.741 702.08 162.757 702.44 160.427 702.44C158.164 702.44 156.199 702.09 154.532 701.389C152.875 700.688 151.578 699.666 150.64 698.321C149.712 696.976 149.21 695.338 149.135 693.406H154.319C154.395 694.42 154.708 695.262 155.257 695.935C155.806 696.607 156.521 697.109 157.402 697.44C158.292 697.772 159.286 697.938 160.385 697.938C161.53 697.938 162.534 697.767 163.396 697.426C164.267 697.076 164.949 696.593 165.441 695.977C165.934 695.352 166.185 694.623 166.194 693.79C166.185 693.032 165.962 692.407 165.527 691.915C165.091 691.413 164.48 690.996 163.694 690.665C162.918 690.324 162.009 690.021 160.967 689.756L157.657 688.903C155.261 688.288 153.368 687.355 151.975 686.105C150.593 684.846 149.902 683.174 149.902 681.091C149.902 679.377 150.366 677.876 151.294 676.588C152.231 675.3 153.505 674.301 155.115 673.591C156.725 672.871 158.547 672.511 160.583 672.511C162.648 672.511 164.457 672.871 166.01 673.591C167.572 674.301 168.798 675.291 169.689 676.56C170.579 677.819 171.038 679.268 171.066 680.906H165.995ZM186.83 680.182V684.159H174.287V680.182H186.83ZM177.384 674.955H182.526V695.438C182.526 696.129 182.63 696.659 182.838 697.028C183.056 697.388 183.34 697.634 183.691 697.767C184.041 697.9 184.429 697.966 184.855 697.966C185.177 697.966 185.471 697.942 185.736 697.895C186.011 697.848 186.219 697.805 186.361 697.767L187.228 701.787C186.953 701.882 186.56 701.986 186.049 702.099C185.547 702.213 184.931 702.279 184.202 702.298C182.914 702.336 181.754 702.142 180.722 701.716C179.69 701.28 178.871 700.608 178.265 699.699C177.668 698.79 177.374 697.653 177.384 696.29V674.955ZM197.409 702.44C196.026 702.44 194.781 702.194 193.673 701.702C192.574 701.2 191.703 700.461 191.059 699.486C190.425 698.51 190.108 697.308 190.108 695.878C190.108 694.647 190.335 693.629 190.789 692.824C191.244 692.019 191.864 691.375 192.65 690.892C193.436 690.409 194.322 690.045 195.306 689.798C196.301 689.543 197.328 689.358 198.389 689.244C199.667 689.112 200.704 688.993 201.5 688.889C202.295 688.776 202.873 688.605 203.233 688.378C203.602 688.141 203.787 687.777 203.787 687.284V687.199C203.787 686.129 203.469 685.3 202.835 684.713C202.2 684.126 201.287 683.832 200.093 683.832C198.834 683.832 197.835 684.107 197.096 684.656C196.367 685.205 195.875 685.854 195.619 686.602L190.818 685.92C191.197 684.595 191.822 683.487 192.693 682.597C193.564 681.697 194.629 681.025 195.889 680.58C197.148 680.125 198.54 679.898 200.065 679.898C201.116 679.898 202.163 680.021 203.204 680.267C204.246 680.513 205.198 680.92 206.059 681.489C206.921 682.047 207.612 682.81 208.133 683.776C208.663 684.741 208.929 685.949 208.929 687.398V702H203.985V699.003H203.815C203.502 699.609 203.062 700.177 202.494 700.707C201.935 701.228 201.23 701.65 200.377 701.972C199.535 702.284 198.545 702.44 197.409 702.44ZM198.744 698.662C199.776 698.662 200.671 698.458 201.429 698.051C202.186 697.634 202.769 697.085 203.176 696.403C203.592 695.722 203.801 694.978 203.801 694.173V691.602C203.64 691.735 203.365 691.858 202.977 691.972C202.598 692.085 202.172 692.185 201.699 692.27C201.225 692.355 200.756 692.431 200.292 692.497C199.828 692.563 199.426 692.62 199.085 692.668C198.318 692.772 197.631 692.942 197.025 693.179C196.419 693.416 195.941 693.747 195.591 694.173C195.24 694.59 195.065 695.13 195.065 695.793C195.065 696.74 195.411 697.455 196.102 697.938C196.793 698.42 197.674 698.662 198.744 698.662ZM214.099 702V680.182H219.085V683.818H219.312C219.71 682.559 220.392 681.588 221.358 680.906C222.333 680.215 223.446 679.869 224.696 679.869C224.98 679.869 225.297 679.884 225.647 679.912C226.007 679.931 226.306 679.964 226.542 680.011V684.741C226.324 684.666 225.979 684.599 225.505 684.543C225.041 684.476 224.592 684.443 224.156 684.443C223.218 684.443 222.376 684.647 221.627 685.054C220.889 685.452 220.306 686.006 219.88 686.716C219.454 687.426 219.241 688.245 219.241 689.173V702H214.099ZM242.025 680.182V684.159H229.483V680.182H242.025ZM232.579 674.955H237.721V695.438C237.721 696.129 237.825 696.659 238.034 697.028C238.252 697.388 238.536 697.634 238.886 697.767C239.236 697.9 239.625 697.966 240.051 697.966C240.373 697.966 240.666 697.942 240.931 697.895C241.206 697.848 241.414 697.805 241.556 697.767L242.423 701.787C242.148 701.882 241.755 701.986 241.244 702.099C240.742 702.213 240.127 702.279 239.397 702.298C238.109 702.336 236.949 702.142 235.917 701.716C234.885 701.28 234.066 700.608 233.46 699.699C232.863 698.79 232.57 697.653 232.579 696.29V674.955Z" fill="#252835"/>
</g>
<path d="M97.7585 134L87.9062 99.0909H94.7074L100.997 124.744H101.321L108.037 99.0909H114.224L120.957 124.761H121.264L127.554 99.0909H134.355L124.503 134H118.264L111.276 109.506H111.003L103.997 134H97.7585ZM147.386 134.511C144.761 134.511 142.494 133.966 140.585 132.875C138.688 131.773 137.227 130.216 136.205 128.205C135.182 126.182 134.67 123.801 134.67 121.062C134.67 118.369 135.182 116.006 136.205 113.972C137.239 111.926 138.682 110.335 140.534 109.199C142.386 108.051 144.562 107.477 147.062 107.477C148.676 107.477 150.199 107.739 151.631 108.261C153.074 108.773 154.347 109.568 155.449 110.648C156.563 111.727 157.438 113.102 158.074 114.773C158.71 116.432 159.028 118.409 159.028 120.705V122.597H137.568V118.438H153.114C153.102 117.256 152.847 116.205 152.347 115.284C151.847 114.352 151.148 113.619 150.25 113.085C149.364 112.551 148.33 112.284 147.148 112.284C145.886 112.284 144.778 112.591 143.824 113.205C142.869 113.807 142.125 114.602 141.591 115.591C141.068 116.568 140.801 117.642 140.79 118.812V122.443C140.79 123.966 141.068 125.273 141.625 126.364C142.182 127.443 142.96 128.273 143.96 128.852C144.96 129.42 146.131 129.705 147.472 129.705C148.369 129.705 149.182 129.58 149.909 129.33C150.636 129.068 151.267 128.688 151.801 128.188C152.335 127.688 152.739 127.068 153.011 126.33L158.773 126.977C158.409 128.5 157.716 129.83 156.693 130.966C155.682 132.091 154.386 132.966 152.807 133.591C151.227 134.205 149.42 134.511 147.386 134.511ZM170.419 99.0909V134H164.249V99.0909H170.419ZM188.185 134.511C185.571 134.511 183.327 133.938 181.452 132.79C179.588 131.642 178.151 130.057 177.139 128.034C176.139 126 175.639 123.659 175.639 121.011C175.639 118.352 176.151 116.006 177.173 113.972C178.196 111.926 179.639 110.335 181.503 109.199C183.378 108.051 185.594 107.477 188.151 107.477C190.276 107.477 192.156 107.869 193.793 108.653C195.44 109.426 196.753 110.523 197.73 111.943C198.707 113.352 199.264 115 199.401 116.886H193.503C193.264 115.625 192.696 114.574 191.798 113.733C190.912 112.881 189.724 112.455 188.236 112.455C186.974 112.455 185.866 112.795 184.912 113.477C183.957 114.148 183.213 115.114 182.679 116.375C182.156 117.636 181.895 119.148 181.895 120.909C181.895 122.693 182.156 124.227 182.679 125.511C183.202 126.784 183.935 127.767 184.878 128.46C185.832 129.142 186.952 129.483 188.236 129.483C189.145 129.483 189.957 129.312 190.673 128.972C191.401 128.619 192.009 128.114 192.497 127.455C192.986 126.795 193.321 125.994 193.503 125.051H199.401C199.253 126.903 198.707 128.545 197.764 129.977C196.821 131.398 195.537 132.511 193.912 133.318C192.287 134.114 190.378 134.511 188.185 134.511ZM215.888 134.511C213.331 134.511 211.115 133.949 209.24 132.824C207.365 131.699 205.911 130.125 204.876 128.102C203.854 126.08 203.342 123.716 203.342 121.011C203.342 118.307 203.854 115.937 204.876 113.903C205.911 111.869 207.365 110.29 209.24 109.165C211.115 108.04 213.331 107.477 215.888 107.477C218.445 107.477 220.661 108.04 222.536 109.165C224.411 110.29 225.859 111.869 226.882 113.903C227.916 115.937 228.433 118.307 228.433 121.011C228.433 123.716 227.916 126.08 226.882 128.102C225.859 130.125 224.411 131.699 222.536 132.824C220.661 133.949 218.445 134.511 215.888 134.511ZM215.922 129.568C217.308 129.568 218.467 129.187 219.399 128.426C220.331 127.653 221.024 126.619 221.479 125.324C221.945 124.028 222.178 122.585 222.178 120.994C222.178 119.392 221.945 117.943 221.479 116.648C221.024 115.341 220.331 114.301 219.399 113.528C218.467 112.756 217.308 112.369 215.922 112.369C214.501 112.369 213.32 112.756 212.376 113.528C211.445 114.301 210.746 115.341 210.28 116.648C209.825 117.943 209.598 119.392 209.598 120.994C209.598 122.585 209.825 124.028 210.28 125.324C210.746 126.619 211.445 127.653 212.376 128.426C213.32 129.187 214.501 129.568 215.922 129.568ZM233.67 134V107.818H239.568V112.267H239.875C240.42 110.767 241.324 109.597 242.585 108.756C243.847 107.903 245.352 107.477 247.102 107.477C248.875 107.477 250.369 107.909 251.585 108.773C252.813 109.625 253.676 110.79 254.176 112.267H254.449C255.028 110.812 256.006 109.653 257.381 108.79C258.767 107.915 260.409 107.477 262.307 107.477C264.716 107.477 266.682 108.239 268.205 109.761C269.727 111.284 270.489 113.506 270.489 116.426V134H264.301V117.381C264.301 115.756 263.869 114.568 263.006 113.818C262.142 113.057 261.085 112.676 259.835 112.676C258.347 112.676 257.182 113.142 256.341 114.074C255.511 114.994 255.097 116.193 255.097 117.67V134H249.045V117.125C249.045 115.773 248.636 114.693 247.818 113.886C247.011 113.08 245.955 112.676 244.648 112.676C243.761 112.676 242.955 112.903 242.227 113.358C241.5 113.801 240.92 114.432 240.489 115.25C240.057 116.057 239.841 117 239.841 118.08V134H233.67ZM288.339 134.511C285.714 134.511 283.447 133.966 281.538 132.875C279.641 131.773 278.18 130.216 277.158 128.205C276.135 126.182 275.624 123.801 275.624 121.062C275.624 118.369 276.135 116.006 277.158 113.972C278.192 111.926 279.635 110.335 281.487 109.199C283.339 108.051 285.516 107.477 288.016 107.477C289.629 107.477 291.152 107.739 292.584 108.261C294.027 108.773 295.3 109.568 296.402 110.648C297.516 111.727 298.391 113.102 299.027 114.773C299.663 116.432 299.982 118.409 299.982 120.705V122.597H278.521V118.438H294.067C294.055 117.256 293.8 116.205 293.3 115.284C292.8 114.352 292.101 113.619 291.203 113.085C290.317 112.551 289.283 112.284 288.101 112.284C286.839 112.284 285.732 112.591 284.777 113.205C283.822 113.807 283.078 114.602 282.544 115.591C282.021 116.568 281.754 117.642 281.743 118.812V122.443C281.743 123.966 282.021 125.273 282.578 126.364C283.135 127.443 283.913 128.273 284.913 128.852C285.913 129.42 287.084 129.705 288.425 129.705C289.322 129.705 290.135 129.58 290.862 129.33C291.589 129.068 292.22 128.688 292.754 128.188C293.288 127.688 293.692 127.068 293.964 126.33L299.726 126.977C299.362 128.5 298.669 129.83 297.646 130.966C296.635 132.091 295.339 132.966 293.76 133.591C292.18 134.205 290.374 134.511 288.339 134.511ZM189.432 155.545V158.273H179.898V155.545H189.432ZM182.455 151.364H185.852V167.875C185.852 168.534 185.951 169.03 186.148 169.364C186.345 169.689 186.598 169.913 186.909 170.034C187.227 170.148 187.572 170.205 187.943 170.205C188.216 170.205 188.455 170.186 188.659 170.148C188.864 170.11 189.023 170.08 189.136 170.057L189.75 172.864C189.553 172.939 189.273 173.015 188.909 173.091C188.545 173.174 188.091 173.22 187.545 173.227C186.652 173.242 185.818 173.083 185.045 172.75C184.273 172.417 183.648 171.902 183.17 171.205C182.693 170.508 182.455 169.633 182.455 168.58V151.364ZM200.355 173.352C198.719 173.352 197.291 172.977 196.071 172.227C194.851 171.477 193.904 170.428 193.23 169.08C192.556 167.731 192.219 166.155 192.219 164.352C192.219 162.542 192.556 160.958 193.23 159.602C193.904 158.246 194.851 157.193 196.071 156.443C197.291 155.693 198.719 155.318 200.355 155.318C201.991 155.318 203.42 155.693 204.639 156.443C205.859 157.193 206.806 158.246 207.48 159.602C208.154 160.958 208.491 162.542 208.491 164.352C208.491 166.155 208.154 167.731 207.48 169.08C206.806 170.428 205.859 171.477 204.639 172.227C203.42 172.977 201.991 173.352 200.355 173.352ZM200.366 170.5C201.427 170.5 202.306 170.22 203.003 169.659C203.7 169.098 204.215 168.352 204.548 167.42C204.889 166.489 205.06 165.462 205.06 164.341C205.06 163.227 204.889 162.205 204.548 161.273C204.215 160.333 203.7 159.58 203.003 159.011C202.306 158.443 201.427 158.159 200.366 158.159C199.298 158.159 198.412 158.443 197.707 159.011C197.01 159.58 196.491 160.333 196.151 161.273C195.817 162.205 195.651 163.227 195.651 164.341C195.651 165.462 195.817 166.489 196.151 167.42C196.491 168.352 197.01 169.098 197.707 169.659C198.412 170.22 199.298 170.5 200.366 170.5ZM179.776 194.545V197.273H170.241V194.545H179.776ZM172.798 190.364H176.196V206.875C176.196 207.534 176.295 208.03 176.491 208.364C176.688 208.689 176.942 208.913 177.253 209.034C177.571 209.148 177.916 209.205 178.287 209.205C178.56 209.205 178.798 209.186 179.003 209.148C179.207 209.11 179.366 209.08 179.48 209.057L180.094 211.864C179.897 211.939 179.616 212.015 179.253 212.091C178.889 212.174 178.435 212.22 177.889 212.227C176.995 212.242 176.162 212.083 175.389 211.75C174.616 211.417 173.991 210.902 173.514 210.205C173.037 209.508 172.798 208.633 172.798 207.58V190.364ZM187.307 201.636V212H183.909V188.727H187.261V197.386H187.477C187.886 196.447 188.511 195.701 189.352 195.148C190.193 194.595 191.292 194.318 192.648 194.318C193.845 194.318 194.89 194.564 195.784 195.057C196.686 195.549 197.383 196.284 197.875 197.261C198.375 198.231 198.625 199.443 198.625 200.898V212H195.227V201.307C195.227 200.027 194.898 199.034 194.239 198.33C193.58 197.617 192.663 197.261 191.489 197.261C190.686 197.261 189.966 197.432 189.33 197.773C188.701 198.114 188.205 198.614 187.841 199.273C187.485 199.924 187.307 200.712 187.307 201.636ZM210.682 212.352C208.962 212.352 207.481 211.985 206.239 211.25C205.004 210.508 204.049 209.466 203.375 208.125C202.708 206.777 202.375 205.197 202.375 203.386C202.375 201.598 202.708 200.023 203.375 198.659C204.049 197.295 204.989 196.231 206.193 195.466C207.405 194.701 208.822 194.318 210.443 194.318C211.428 194.318 212.383 194.481 213.307 194.807C214.231 195.133 215.061 195.644 215.795 196.341C216.53 197.038 217.11 197.943 217.534 199.057C217.958 200.163 218.17 201.508 218.17 203.091V204.295H204.295V201.75H214.841C214.841 200.856 214.659 200.064 214.295 199.375C213.932 198.678 213.42 198.129 212.761 197.727C212.11 197.326 211.345 197.125 210.466 197.125C209.511 197.125 208.678 197.36 207.966 197.83C207.261 198.292 206.716 198.898 206.33 199.648C205.951 200.39 205.761 201.197 205.761 202.068V204.057C205.761 205.223 205.966 206.216 206.375 207.034C206.792 207.852 207.371 208.477 208.114 208.909C208.856 209.333 209.723 209.545 210.716 209.545C211.36 209.545 211.947 209.455 212.477 209.273C213.008 209.083 213.466 208.803 213.852 208.432C214.239 208.061 214.534 207.602 214.739 207.057L217.955 207.636C217.697 208.583 217.235 209.413 216.568 210.125C215.909 210.83 215.08 211.379 214.08 211.773C213.087 212.159 211.955 212.352 210.682 212.352ZM144.87 235.091H150.154V258.051C150.154 260.494 149.58 262.659 148.433 264.545C147.285 266.42 145.671 267.898 143.592 268.977C141.512 270.045 139.075 270.58 136.279 270.58C133.495 270.58 131.063 270.045 128.984 268.977C126.904 267.898 125.29 266.42 124.143 264.545C122.995 262.659 122.421 260.494 122.421 258.051V235.091H127.688V257.625C127.688 259.205 128.035 260.608 128.728 261.835C129.433 263.062 130.427 264.028 131.711 264.733C132.995 265.426 134.518 265.773 136.279 265.773C138.052 265.773 139.58 265.426 140.864 264.733C142.16 264.028 143.148 263.062 143.83 261.835C144.523 260.608 144.87 259.205 144.87 257.625V235.091ZM162.499 254.455V270H157.403V243.818H162.295V248.08H162.619C163.221 246.693 164.164 245.58 165.448 244.739C166.744 243.898 168.374 243.477 170.34 243.477C172.124 243.477 173.687 243.852 175.028 244.602C176.369 245.341 177.408 246.443 178.147 247.909C178.886 249.375 179.255 251.187 179.255 253.347V270H174.158V253.96C174.158 252.062 173.664 250.58 172.675 249.511C171.687 248.432 170.329 247.892 168.602 247.892C167.42 247.892 166.369 248.148 165.448 248.659C164.539 249.17 163.817 249.92 163.283 250.909C162.761 251.886 162.499 253.068 162.499 254.455ZM186.09 270V243.818H191.187V270H186.09ZM188.664 239.778C187.778 239.778 187.016 239.483 186.38 238.892C185.755 238.29 185.442 237.574 185.442 236.744C185.442 235.903 185.755 235.187 186.38 234.597C187.016 233.994 187.778 233.693 188.664 233.693C189.55 233.693 190.306 233.994 190.931 234.597C191.567 235.187 191.886 235.903 191.886 236.744C191.886 237.574 191.567 238.29 190.931 238.892C190.306 239.483 189.55 239.778 188.664 239.778ZM210.265 243.818V247.909H195.964V243.818H210.265ZM199.799 237.545H204.896V262.312C204.896 263.301 205.043 264.045 205.339 264.545C205.634 265.034 206.015 265.369 206.481 265.551C206.958 265.722 207.475 265.807 208.032 265.807C208.441 265.807 208.799 265.778 209.106 265.722C209.413 265.665 209.651 265.619 209.822 265.585L210.742 269.795C210.447 269.909 210.026 270.023 209.481 270.136C208.935 270.261 208.254 270.33 207.435 270.341C206.094 270.364 204.844 270.125 203.685 269.625C202.526 269.125 201.589 268.352 200.873 267.307C200.157 266.261 199.799 264.949 199.799 263.369V237.545ZM226.906 270.528C224.326 270.528 222.104 269.977 220.241 268.875C218.388 267.761 216.957 266.199 215.945 264.188C214.945 262.165 214.445 259.795 214.445 257.08C214.445 254.398 214.945 252.034 215.945 249.989C216.957 247.943 218.366 246.347 220.173 245.199C221.991 244.051 224.116 243.477 226.548 243.477C228.025 243.477 229.457 243.722 230.843 244.21C232.229 244.699 233.474 245.466 234.576 246.511C235.678 247.557 236.548 248.915 237.184 250.585C237.82 252.244 238.138 254.261 238.138 256.636V258.443H217.326V254.625H233.144C233.144 253.284 232.871 252.097 232.326 251.062C231.781 250.017 231.013 249.193 230.025 248.591C229.048 247.989 227.9 247.688 226.582 247.688C225.15 247.688 223.9 248.04 222.832 248.744C221.775 249.437 220.957 250.347 220.377 251.472C219.809 252.585 219.525 253.795 219.525 255.102V258.085C219.525 259.835 219.832 261.324 220.445 262.551C221.07 263.778 221.94 264.716 223.053 265.364C224.167 266 225.468 266.318 226.957 266.318C227.923 266.318 228.803 266.182 229.599 265.909C230.394 265.625 231.082 265.205 231.661 264.648C232.241 264.091 232.684 263.403 232.991 262.585L237.815 263.455C237.428 264.875 236.735 266.119 235.735 267.188C234.746 268.244 233.502 269.068 232.002 269.659C230.513 270.239 228.815 270.528 226.906 270.528ZM253.594 270.511C251.481 270.511 249.594 269.972 247.935 268.892C246.288 267.801 244.992 266.25 244.049 264.239C243.117 262.216 242.651 259.79 242.651 256.96C242.651 254.131 243.123 251.71 244.066 249.699C245.021 247.687 246.327 246.148 247.987 245.08C249.646 244.011 251.526 243.477 253.629 243.477C255.254 243.477 256.56 243.75 257.549 244.295C258.549 244.83 259.322 245.455 259.867 246.17C260.424 246.886 260.856 247.517 261.163 248.062H261.469V235.091H266.566V270H261.589V265.926H261.163C260.856 266.483 260.413 267.119 259.833 267.835C259.265 268.551 258.481 269.176 257.481 269.71C256.481 270.244 255.185 270.511 253.594 270.511ZM254.719 266.165C256.185 266.165 257.424 265.778 258.435 265.006C259.458 264.222 260.231 263.136 260.754 261.75C261.288 260.364 261.555 258.75 261.555 256.909C261.555 255.091 261.293 253.5 260.771 252.136C260.248 250.773 259.481 249.71 258.469 248.949C257.458 248.187 256.208 247.807 254.719 247.807C253.185 247.807 251.907 248.205 250.884 249C249.862 249.795 249.089 250.881 248.566 252.256C248.055 253.631 247.799 255.182 247.799 256.909C247.799 258.659 248.06 260.233 248.583 261.631C249.106 263.028 249.879 264.136 250.901 264.955C251.935 265.761 253.208 266.165 254.719 266.165ZM45.7102 328V293.091H67.358V297.625H50.9773V308.261H65.8068V312.778H50.9773V328H45.7102ZM73.4261 328V301.818H78.5227V328H73.4261ZM76 297.778C75.1136 297.778 74.3523 297.483 73.7159 296.892C73.0909 296.29 72.7784 295.574 72.7784 294.744C72.7784 293.903 73.0909 293.187 73.7159 292.597C74.3523 291.994 75.1136 291.693 76 291.693C76.8864 291.693 77.642 291.994 78.267 292.597C78.9034 293.187 79.2216 293.903 79.2216 294.744C79.2216 295.574 78.9034 296.29 78.267 296.892C77.642 297.483 76.8864 297.778 76 297.778ZM85.3793 328V301.818H90.3054V305.977H90.5781C91.0554 304.568 91.8963 303.46 93.1009 302.653C94.3168 301.835 95.6918 301.426 97.2259 301.426C97.544 301.426 97.919 301.437 98.3509 301.46C98.794 301.483 99.1406 301.511 99.3906 301.545V306.42C99.1861 306.364 98.8224 306.301 98.2997 306.233C97.777 306.153 97.2543 306.114 96.7315 306.114C95.527 306.114 94.4531 306.369 93.5099 306.881C92.5781 307.381 91.8395 308.08 91.294 308.977C90.7486 309.864 90.4759 310.875 90.4759 312.011V328H85.3793ZM123.42 308.21L118.801 309.028C118.608 308.437 118.301 307.875 117.881 307.341C117.472 306.807 116.915 306.369 116.21 306.028C115.506 305.687 114.625 305.517 113.568 305.517C112.125 305.517 110.92 305.841 109.955 306.489C108.989 307.125 108.506 307.949 108.506 308.96C108.506 309.835 108.83 310.54 109.477 311.074C110.125 311.608 111.17 312.045 112.614 312.386L116.773 313.341C119.182 313.898 120.977 314.756 122.159 315.915C123.341 317.074 123.932 318.58 123.932 320.432C123.932 322 123.477 323.398 122.568 324.625C121.67 325.841 120.415 326.795 118.801 327.489C117.199 328.182 115.341 328.528 113.227 328.528C110.295 328.528 107.903 327.903 106.051 326.653C104.199 325.392 103.063 323.602 102.642 321.284L107.568 320.534C107.875 321.818 108.506 322.79 109.46 323.449C110.415 324.097 111.659 324.42 113.193 324.42C114.864 324.42 116.199 324.074 117.199 323.381C118.199 322.676 118.699 321.818 118.699 320.807C118.699 319.989 118.392 319.301 117.778 318.744C117.176 318.187 116.25 317.767 115 317.483L110.568 316.511C108.125 315.955 106.318 315.068 105.148 313.852C103.989 312.636 103.409 311.097 103.409 309.233C103.409 307.687 103.841 306.335 104.705 305.176C105.568 304.017 106.761 303.114 108.284 302.466C109.807 301.807 111.551 301.477 113.517 301.477C116.347 301.477 118.574 302.091 120.199 303.318C121.824 304.534 122.898 306.165 123.42 308.21ZM141.757 301.818V305.909H127.456V301.818H141.757ZM131.291 295.545H136.388V320.312C136.388 321.301 136.536 322.045 136.831 322.545C137.126 323.034 137.507 323.369 137.973 323.551C138.45 323.722 138.967 323.807 139.524 323.807C139.933 323.807 140.291 323.778 140.598 323.722C140.905 323.665 141.143 323.619 141.314 323.585L142.234 327.795C141.939 327.909 141.518 328.023 140.973 328.136C140.428 328.261 139.746 328.33 138.928 328.341C137.587 328.364 136.337 328.125 135.178 327.625C134.018 327.125 133.081 326.352 132.365 325.307C131.649 324.261 131.291 322.949 131.291 321.369V295.545ZM188.683 293.091V328H183.842L166.098 302.398H165.774V328H160.507V293.091H165.382L183.143 318.727H183.467V293.091H188.683ZM203.577 328.58C201.918 328.58 200.418 328.273 199.077 327.659C197.736 327.034 196.673 326.131 195.889 324.949C195.116 323.767 194.73 322.318 194.73 320.602C194.73 319.125 195.014 317.909 195.582 316.955C196.151 316 196.918 315.244 197.884 314.688C198.849 314.131 199.929 313.71 201.122 313.426C202.315 313.142 203.531 312.926 204.77 312.778C206.338 312.597 207.611 312.449 208.588 312.335C209.565 312.21 210.276 312.011 210.719 311.739C211.162 311.466 211.384 311.023 211.384 310.409V310.29C211.384 308.801 210.963 307.648 210.122 306.83C209.293 306.011 208.054 305.602 206.406 305.602C204.69 305.602 203.338 305.983 202.349 306.744C201.372 307.494 200.696 308.33 200.321 309.25L195.531 308.159C196.099 306.568 196.929 305.284 198.02 304.307C199.122 303.318 200.389 302.602 201.821 302.159C203.253 301.705 204.759 301.477 206.338 301.477C207.384 301.477 208.491 301.602 209.662 301.852C210.844 302.091 211.946 302.534 212.969 303.182C214.003 303.83 214.849 304.756 215.509 305.96C216.168 307.153 216.497 308.705 216.497 310.614V328H211.52V324.42H211.315C210.986 325.08 210.491 325.727 209.832 326.364C209.173 327 208.327 327.528 207.293 327.949C206.259 328.369 205.02 328.58 203.577 328.58ZM204.685 324.489C206.094 324.489 207.298 324.21 208.298 323.653C209.31 323.097 210.077 322.369 210.599 321.472C211.134 320.562 211.401 319.591 211.401 318.557V315.182C211.219 315.364 210.866 315.534 210.344 315.693C209.832 315.841 209.247 315.972 208.588 316.085C207.929 316.187 207.287 316.284 206.662 316.375C206.037 316.455 205.514 316.523 205.094 316.58C204.105 316.705 203.202 316.915 202.384 317.21C201.577 317.506 200.929 317.932 200.44 318.489C199.963 319.034 199.724 319.761 199.724 320.67C199.724 321.932 200.19 322.886 201.122 323.534C202.054 324.17 203.241 324.489 204.685 324.489ZM235.507 301.818V305.909H221.206V301.818H235.507ZM225.041 295.545H230.138V320.312C230.138 321.301 230.286 322.045 230.581 322.545C230.876 323.034 231.257 323.369 231.723 323.551C232.2 323.722 232.717 323.807 233.274 323.807C233.683 323.807 234.041 323.778 234.348 323.722C234.655 323.665 234.893 323.619 235.064 323.585L235.984 327.795C235.689 327.909 235.268 328.023 234.723 328.136C234.178 328.261 233.496 328.33 232.678 328.341C231.337 328.364 230.087 328.125 228.928 327.625C227.768 327.125 226.831 326.352 226.115 325.307C225.399 324.261 225.041 322.949 225.041 321.369V295.545ZM241.145 328V301.818H246.241V328H241.145ZM243.719 297.778C242.832 297.778 242.071 297.483 241.435 296.892C240.81 296.29 240.497 295.574 240.497 294.744C240.497 293.903 240.81 293.187 241.435 292.597C242.071 291.994 242.832 291.693 243.719 291.693C244.605 291.693 245.361 291.994 245.986 292.597C246.622 293.187 246.94 293.903 246.94 294.744C246.94 295.574 246.622 296.29 245.986 296.892C245.361 297.483 244.605 297.778 243.719 297.778ZM264.126 328.528C261.672 328.528 259.53 327.966 257.7 326.841C255.871 325.716 254.45 324.142 253.439 322.119C252.428 320.097 251.922 317.733 251.922 315.028C251.922 312.312 252.428 309.937 253.439 307.903C254.45 305.869 255.871 304.29 257.7 303.165C259.53 302.04 261.672 301.477 264.126 301.477C266.581 301.477 268.723 302.04 270.553 303.165C272.382 304.29 273.803 305.869 274.814 307.903C275.825 309.937 276.331 312.312 276.331 315.028C276.331 317.733 275.825 320.097 274.814 322.119C273.803 324.142 272.382 325.716 270.553 326.841C268.723 327.966 266.581 328.528 264.126 328.528ZM264.143 324.25C265.734 324.25 267.053 323.83 268.098 322.989C269.143 322.148 269.916 321.028 270.416 319.631C270.928 318.233 271.183 316.693 271.183 315.011C271.183 313.341 270.928 311.807 270.416 310.409C269.916 309 269.143 307.869 268.098 307.017C267.053 306.165 265.734 305.739 264.143 305.739C262.541 305.739 261.212 306.165 260.155 307.017C259.109 307.869 258.331 309 257.82 310.409C257.32 311.807 257.07 313.341 257.07 315.011C257.07 316.693 257.32 318.233 257.82 319.631C258.331 321.028 259.109 322.148 260.155 322.989C261.212 323.83 262.541 324.25 264.143 324.25ZM287.116 312.455V328H282.02V301.818H286.912V306.08H287.236C287.838 304.693 288.781 303.58 290.065 302.739C291.361 301.898 292.991 301.477 294.957 301.477C296.741 301.477 298.304 301.852 299.645 302.602C300.986 303.341 302.026 304.443 302.764 305.909C303.503 307.375 303.872 309.187 303.872 311.347V328H298.776V311.96C298.776 310.062 298.281 308.58 297.293 307.511C296.304 306.432 294.946 305.892 293.219 305.892C292.037 305.892 290.986 306.148 290.065 306.659C289.156 307.17 288.435 307.92 287.901 308.909C287.378 309.886 287.116 311.068 287.116 312.455ZM330.327 308.21L325.707 309.028C325.514 308.437 325.207 307.875 324.787 307.341C324.378 306.807 323.821 306.369 323.116 306.028C322.412 305.687 321.531 305.517 320.474 305.517C319.031 305.517 317.827 305.841 316.861 306.489C315.895 307.125 315.412 307.949 315.412 308.96C315.412 309.835 315.736 310.54 316.384 311.074C317.031 311.608 318.077 312.045 319.52 312.386L323.679 313.341C326.088 313.898 327.884 314.756 329.065 315.915C330.247 317.074 330.838 318.58 330.838 320.432C330.838 322 330.384 323.398 329.474 324.625C328.577 325.841 327.321 326.795 325.707 327.489C324.105 328.182 322.247 328.528 320.134 328.528C317.202 328.528 314.81 327.903 312.957 326.653C311.105 325.392 309.969 323.602 309.548 321.284L314.474 320.534C314.781 321.818 315.412 322.79 316.366 323.449C317.321 324.097 318.565 324.42 320.099 324.42C321.77 324.42 323.105 324.074 324.105 323.381C325.105 322.676 325.605 321.818 325.605 320.807C325.605 319.989 325.298 319.301 324.685 318.744C324.082 318.187 323.156 317.767 321.906 317.483L317.474 316.511C315.031 315.955 313.224 315.068 312.054 313.852C310.895 312.636 310.315 311.097 310.315 309.233C310.315 307.687 310.747 306.335 311.611 305.176C312.474 304.017 313.668 303.114 315.19 302.466C316.713 301.807 318.457 301.477 320.423 301.477C323.253 301.477 325.48 302.091 327.105 303.318C328.73 304.534 329.804 306.165 330.327 308.21ZM342.868 293.091L342.425 317.96H337.703L337.26 293.091H342.868ZM340.072 328.324C339.129 328.324 338.322 327.994 337.652 327.335C336.982 326.665 336.652 325.858 336.663 324.915C336.652 323.983 336.982 323.187 337.652 322.528C338.322 321.858 339.129 321.523 340.072 321.523C340.993 321.523 341.788 321.858 342.459 322.528C343.129 323.187 343.47 323.983 343.482 324.915C343.47 325.54 343.305 326.114 342.987 326.636C342.68 327.148 342.271 327.557 341.76 327.864C341.249 328.17 340.686 328.324 340.072 328.324Z" fill="#D0D0D0"/>
<path d="M308 534H81C72.1634 534 65 541.163 65 550V585C65 593.837 72.1634 601 81 601H308C316.837 601 324 593.837 324 585V550C324 541.163 316.837 534 308 534Z" fill="#D9D9D9"/>
<path d="M291.611 580.15C291.204 579.742 291 579.224 291 578.595C291 577.966 291.204 577.448 291.611 577.041L300.276 568.38L291.611 559.72C291.204 559.312 291 558.794 291 558.165C291 557.536 291.204 557.018 291.611 556.611C292.018 556.204 292.537 556 293.166 556C293.796 556 294.314 556.204 294.722 556.611L304.942 566.826C305.164 567.048 305.322 567.288 305.415 567.547C305.508 567.806 305.554 568.084 305.553 568.38C305.553 568.676 305.506 568.954 305.413 569.213C305.32 569.472 305.163 569.712 304.942 569.935L294.722 580.15C294.314 580.557 293.796 580.76 293.166 580.76C292.537 580.76 292.018 580.557 291.611 580.15Z" fill="#FF9341"/>
<g style="mix-blend-mode:multiply">
<path d="M98.9741 581V554.818H102.924V577.599H114.788V581H98.9741ZM124.702 581.435C123.458 581.435 122.333 581.205 121.327 580.744C120.321 580.276 119.525 579.598 118.936 578.712C118.357 577.825 118.067 576.739 118.067 575.452C118.067 574.344 118.28 573.432 118.706 572.716C119.132 572 119.708 571.433 120.432 571.016C121.157 570.598 121.966 570.283 122.861 570.07C123.756 569.857 124.668 569.695 125.597 569.584C126.773 569.447 127.728 569.337 128.461 569.251C129.194 569.158 129.726 569.009 130.059 568.804C130.391 568.599 130.557 568.267 130.557 567.807V567.717C130.557 566.601 130.242 565.736 129.611 565.122C128.989 564.509 128.06 564.202 126.824 564.202C125.537 564.202 124.523 564.487 123.782 565.058C123.049 565.621 122.542 566.247 122.26 566.938L118.668 566.119C119.094 564.926 119.716 563.963 120.534 563.23C121.361 562.489 122.311 561.952 123.385 561.619C124.459 561.278 125.588 561.108 126.773 561.108C127.557 561.108 128.388 561.202 129.266 561.389C130.152 561.568 130.979 561.901 131.746 562.386C132.522 562.872 133.157 563.567 133.651 564.47C134.145 565.365 134.392 566.528 134.392 567.96V581H130.659V578.315H130.506C130.259 578.81 129.888 579.295 129.394 579.773C128.9 580.25 128.265 580.646 127.489 580.962C126.713 581.277 125.784 581.435 124.702 581.435ZM125.533 578.366C126.59 578.366 127.493 578.158 128.243 577.74C129.002 577.322 129.577 576.777 129.969 576.104C130.37 575.422 130.57 574.693 130.57 573.918V571.386C130.434 571.523 130.169 571.651 129.777 571.77C129.394 571.881 128.955 571.979 128.461 572.064C127.966 572.141 127.485 572.213 127.016 572.281C126.547 572.341 126.155 572.392 125.84 572.435C125.098 572.528 124.421 572.686 123.807 572.908C123.202 573.129 122.716 573.449 122.35 573.866C121.992 574.276 121.813 574.821 121.813 575.503C121.813 576.449 122.162 577.165 122.861 577.651C123.56 578.128 124.451 578.366 125.533 578.366ZM143.306 569.341V581H139.484V561.364H143.153V564.56H143.396C143.847 563.52 144.555 562.685 145.518 562.054C146.489 561.423 147.712 561.108 149.187 561.108C150.525 561.108 151.697 561.389 152.702 561.952C153.708 562.506 154.488 563.332 155.042 564.432C155.596 565.531 155.873 566.891 155.873 568.51V581H152.05V568.97C152.05 567.547 151.68 566.435 150.938 565.634C150.197 564.824 149.178 564.419 147.883 564.419C146.996 564.419 146.208 564.611 145.518 564.994C144.836 565.378 144.295 565.94 143.894 566.682C143.502 567.415 143.306 568.301 143.306 569.341ZM169.232 588.773C167.673 588.773 166.33 588.568 165.205 588.159C164.089 587.75 163.177 587.209 162.469 586.536C161.762 585.862 161.234 585.125 160.884 584.324L164.17 582.969C164.4 583.344 164.707 583.74 165.09 584.158C165.482 584.584 166.011 584.946 166.675 585.244C167.349 585.543 168.214 585.692 169.271 585.692C170.719 585.692 171.917 585.338 172.863 584.631C173.809 583.932 174.282 582.815 174.282 581.281V577.42H174.039C173.809 577.838 173.477 578.303 173.042 578.814C172.616 579.325 172.028 579.768 171.278 580.143C170.528 580.518 169.552 580.706 168.35 580.706C166.799 580.706 165.401 580.344 164.157 579.619C162.921 578.886 161.941 577.808 161.217 576.385C160.501 574.953 160.143 573.193 160.143 571.105C160.143 569.017 160.496 567.227 161.204 565.736C161.92 564.244 162.9 563.102 164.144 562.31C165.388 561.509 166.799 561.108 168.376 561.108C169.594 561.108 170.579 561.312 171.329 561.722C172.079 562.122 172.663 562.591 173.08 563.128C173.506 563.665 173.835 564.138 174.065 564.547H174.346V561.364H178.092V581.435C178.092 583.122 177.7 584.507 176.915 585.589C176.131 586.672 175.07 587.473 173.732 587.993C172.403 588.513 170.903 588.773 169.232 588.773ZM169.194 577.536C170.293 577.536 171.222 577.28 171.981 576.768C172.748 576.249 173.327 575.507 173.719 574.544C174.12 573.572 174.32 572.409 174.32 571.054C174.32 569.733 174.124 568.57 173.732 567.564C173.34 566.558 172.765 565.774 172.006 565.212C171.248 564.641 170.31 564.355 169.194 564.355C168.043 564.355 167.085 564.653 166.317 565.25C165.55 565.838 164.971 566.639 164.579 567.653C164.195 568.668 164.004 569.801 164.004 571.054C164.004 572.341 164.2 573.47 164.592 574.442C164.984 575.413 165.563 576.172 166.33 576.717C167.106 577.263 168.06 577.536 169.194 577.536ZM195.657 572.857V561.364H199.492V581H195.734V577.599H195.529C195.077 578.648 194.353 579.521 193.356 580.22C192.367 580.911 191.136 581.256 189.661 581.256C188.4 581.256 187.283 580.979 186.312 580.425C185.349 579.862 184.59 579.031 184.036 577.932C183.491 576.832 183.218 575.473 183.218 573.854V561.364H187.04V573.393C187.04 574.732 187.411 575.797 188.153 576.589C188.894 577.382 189.857 577.778 191.042 577.778C191.758 577.778 192.469 577.599 193.177 577.241C193.893 576.884 194.485 576.342 194.954 575.618C195.431 574.893 195.665 573.973 195.657 572.857ZM210.343 581.435C209.098 581.435 207.973 581.205 206.968 580.744C205.962 580.276 205.165 579.598 204.577 578.712C203.998 577.825 203.708 576.739 203.708 575.452C203.708 574.344 203.921 573.432 204.347 572.716C204.773 572 205.348 571.433 206.073 571.016C206.797 570.598 207.607 570.283 208.502 570.07C209.397 569.857 210.309 569.695 211.238 569.584C212.414 569.447 213.368 569.337 214.101 569.251C214.834 569.158 215.367 569.009 215.699 568.804C216.032 568.599 216.198 568.267 216.198 567.807V567.717C216.198 566.601 215.882 565.736 215.252 565.122C214.63 564.509 213.701 564.202 212.465 564.202C211.178 564.202 210.164 564.487 209.422 565.058C208.689 565.621 208.182 566.247 207.901 566.938L204.309 566.119C204.735 564.926 205.357 563.963 206.175 563.23C207.002 562.489 207.952 561.952 209.026 561.619C210.1 561.278 211.229 561.108 212.414 561.108C213.198 561.108 214.029 561.202 214.907 561.389C215.793 561.568 216.62 561.901 217.387 562.386C218.162 562.872 218.797 563.567 219.292 564.47C219.786 565.365 220.033 566.528 220.033 567.96V581H216.3V578.315H216.147C215.9 578.81 215.529 579.295 215.034 579.773C214.54 580.25 213.905 580.646 213.13 580.962C212.354 581.277 211.425 581.435 210.343 581.435ZM211.174 578.366C212.23 578.366 213.134 578.158 213.884 577.74C214.642 577.322 215.218 576.777 215.61 576.104C216.01 575.422 216.211 574.693 216.211 573.918V571.386C216.074 571.523 215.81 571.651 215.418 571.77C215.034 571.881 214.596 571.979 214.101 572.064C213.607 572.141 213.125 572.213 212.657 572.281C212.188 572.341 211.796 572.392 211.48 572.435C210.739 572.528 210.061 572.686 209.448 572.908C208.843 573.129 208.357 573.449 207.99 573.866C207.632 574.276 207.453 574.821 207.453 575.503C207.453 576.449 207.803 577.165 208.502 577.651C209.201 578.128 210.091 578.366 211.174 578.366ZM233.357 588.773C231.798 588.773 230.455 588.568 229.33 588.159C228.214 587.75 227.302 587.209 226.594 586.536C225.887 585.862 225.359 585.125 225.009 584.324L228.295 582.969C228.525 583.344 228.832 583.74 229.215 584.158C229.607 584.584 230.136 584.946 230.8 585.244C231.474 585.543 232.339 585.692 233.396 585.692C234.844 585.692 236.042 585.338 236.988 584.631C237.934 583.932 238.407 582.815 238.407 581.281V577.42H238.164C237.934 577.838 237.602 578.303 237.167 578.814C236.741 579.325 236.153 579.768 235.403 580.143C234.653 580.518 233.677 580.706 232.475 580.706C230.924 580.706 229.526 580.344 228.282 579.619C227.046 578.886 226.066 577.808 225.342 576.385C224.626 574.953 224.268 573.193 224.268 571.105C224.268 569.017 224.621 567.227 225.329 565.736C226.045 564.244 227.025 563.102 228.269 562.31C229.513 561.509 230.924 561.108 232.501 561.108C233.719 561.108 234.704 561.312 235.454 561.722C236.204 562.122 236.788 562.591 237.205 563.128C237.631 563.665 237.96 564.138 238.19 564.547H238.471V561.364H242.217V581.435C242.217 583.122 241.825 584.507 241.04 585.589C240.256 586.672 239.195 587.473 237.857 587.993C236.528 588.513 235.028 588.773 233.357 588.773ZM233.319 577.536C234.418 577.536 235.347 577.28 236.106 576.768C236.873 576.249 237.452 575.507 237.844 574.544C238.245 573.572 238.445 572.409 238.445 571.054C238.445 569.733 238.249 568.57 237.857 567.564C237.465 566.558 236.89 565.774 236.131 565.212C235.373 564.641 234.435 564.355 233.319 564.355C232.168 564.355 231.21 564.653 230.442 565.25C229.675 565.838 229.096 566.639 228.704 567.653C228.32 568.668 228.129 569.801 228.129 571.054C228.129 572.341 228.325 573.47 228.717 574.442C229.109 575.413 229.688 576.172 230.455 576.717C231.231 577.263 232.185 577.536 233.319 577.536ZM255.806 581.396C253.871 581.396 252.205 580.983 250.808 580.156C249.418 579.321 248.344 578.149 247.586 576.641C246.836 575.124 246.461 573.347 246.461 571.31C246.461 569.298 246.836 567.526 247.586 565.991C248.344 564.457 249.401 563.26 250.756 562.399C252.12 561.538 253.714 561.108 255.538 561.108C256.646 561.108 257.719 561.291 258.759 561.658C259.799 562.024 260.732 562.599 261.559 563.384C262.386 564.168 263.038 565.186 263.515 566.439C263.992 567.683 264.231 569.196 264.231 570.977V572.332H248.621V569.469H260.485C260.485 568.463 260.281 567.572 259.871 566.797C259.462 566.013 258.887 565.395 258.146 564.943C257.413 564.491 256.552 564.266 255.563 564.266C254.489 564.266 253.552 564.53 252.751 565.058C251.958 565.578 251.344 566.26 250.91 567.104C250.484 567.939 250.271 568.847 250.271 569.827V572.064C250.271 573.376 250.501 574.493 250.961 575.413C251.43 576.334 252.082 577.037 252.917 577.523C253.752 578 254.728 578.239 255.844 578.239C256.569 578.239 257.229 578.136 257.826 577.932C258.423 577.719 258.938 577.403 259.373 576.986C259.808 576.568 260.14 576.053 260.37 575.439L263.988 576.091C263.698 577.156 263.178 578.089 262.428 578.891C261.687 579.683 260.754 580.301 259.629 580.744C258.512 581.179 257.238 581.396 255.806 581.396Z" fill="#252835"/>
</g>
<path d="M223.9 422.988C223.616 422.823 223.304 422.664 222.981 422.509C223.304 422.354 223.616 422.195 223.9 422.029C225.51 421.11 226.922 419.88 228.057 418.41C229.191 416.94 230.025 415.259 230.51 413.464C230.995 411.669 231.122 409.795 230.883 407.951C230.644 406.106 230.045 404.327 229.119 402.716C228.194 401.105 226.96 399.695 225.489 398.565C224.019 397.435 222.34 396.608 220.55 396.133C218.76 395.658 216.895 395.542 215.06 395.794C213.226 396.046 211.46 396.66 209.863 397.601C209.578 397.767 209.284 397.954 208.992 398.162C209.02 397.809 209.038 397.457 209.038 397.104C209.038 393.363 207.559 389.776 204.926 387.131C202.294 384.486 198.723 383 195 383C191.277 383 187.706 384.486 185.074 387.131C182.441 389.776 180.962 393.363 180.962 397.104C180.962 397.435 180.962 397.788 181.008 398.162C180.716 397.961 180.422 397.767 180.137 397.601C178.54 396.66 176.774 396.046 174.94 395.794C173.105 395.542 171.24 395.658 169.45 396.133C167.66 396.608 165.981 397.435 164.511 398.565C163.04 399.695 161.806 401.105 160.881 402.716C159.955 404.327 159.356 406.106 159.117 407.951C158.878 409.795 159.005 411.669 159.49 413.464C159.975 415.259 160.809 416.94 161.943 418.41C163.078 419.88 164.49 421.11 166.1 422.029C166.384 422.195 166.696 422.354 167.019 422.509C166.696 422.664 166.384 422.823 166.1 422.988C164.49 423.908 163.078 425.138 161.943 426.608C160.809 428.078 159.975 429.759 159.49 431.554C159.005 433.349 158.878 435.223 159.117 437.067C159.356 438.912 159.955 440.691 160.881 442.301C161.806 443.912 163.04 445.323 164.511 446.453C165.981 447.583 167.66 448.409 169.45 448.885C171.24 449.36 173.105 449.475 174.94 449.223C176.774 448.971 178.54 448.357 180.137 447.416C180.422 447.251 180.716 447.064 181.008 446.856C180.98 447.208 180.962 447.561 180.962 447.896C180.962 451.637 182.441 455.224 185.074 457.869C187.706 460.514 191.277 462 195 462C198.723 462 202.294 460.514 204.926 457.869C207.559 455.224 209.038 451.637 209.038 447.896C209.038 447.565 209.02 447.212 208.992 446.856C209.284 447.057 209.578 447.251 209.863 447.416C211.989 448.654 214.403 449.306 216.86 449.306C218.095 449.305 219.325 449.141 220.517 448.82C223.199 448.098 225.608 446.593 227.438 444.495C229.269 442.398 230.439 439.802 230.801 437.036C231.163 434.27 230.701 431.459 229.473 428.957C228.244 426.455 226.305 424.376 223.9 422.981V422.988ZM186.577 422.509C186.577 420.835 187.071 419.199 187.997 417.807C188.922 416.416 190.238 415.331 191.777 414.691C193.316 414.05 195.009 413.882 196.643 414.209C198.277 414.536 199.778 415.342 200.956 416.525C202.134 417.708 202.936 419.216 203.261 420.858C203.586 422.499 203.419 424.201 202.782 425.747C202.144 427.294 201.065 428.615 199.679 429.545C198.294 430.475 196.666 430.971 195 430.971C192.766 430.971 190.624 430.08 189.044 428.493C187.465 426.906 186.577 424.753 186.577 422.509ZM212.67 402.485C213.628 401.929 214.686 401.568 215.782 401.423C216.879 401.278 217.993 401.352 219.062 401.639C220.13 401.927 221.132 402.423 222.009 403.1C222.887 403.776 223.623 404.62 224.176 405.582C224.729 406.545 225.088 407.607 225.232 408.709C225.377 409.811 225.304 410.93 225.017 412.004C224.731 413.077 224.237 414.084 223.564 414.965C222.89 415.847 222.051 416.587 221.093 417.142C218.892 418.422 214.562 419.304 208.754 419.677C208.141 416.692 206.582 413.987 204.311 411.966C207.539 407.093 210.47 403.765 212.67 402.485ZM195 388.659C197.234 388.659 199.376 389.551 200.956 391.138C202.535 392.725 203.423 394.877 203.423 397.122C203.423 399.674 202.019 403.888 199.436 409.131C196.557 408.163 193.443 408.163 190.564 409.131C187.981 403.888 186.577 399.674 186.577 397.122C186.577 394.877 187.465 392.725 189.044 391.138C190.624 389.551 192.766 388.659 195 388.659ZM165.822 405.584C166.375 404.621 167.111 403.777 167.989 403.1C168.867 402.424 169.868 401.927 170.937 401.639C172.006 401.351 173.12 401.278 174.217 401.423C175.314 401.568 176.372 401.929 177.33 402.485C179.53 403.765 182.461 407.093 185.689 411.966C183.416 413.989 181.857 416.699 181.246 419.688C175.438 419.314 171.108 418.433 168.907 417.156C167.947 416.601 167.106 415.861 166.432 414.978C165.757 414.096 165.262 413.088 164.976 412.013C164.689 410.938 164.616 409.817 164.762 408.714C164.907 407.611 165.267 406.547 165.822 405.584ZM177.33 442.533C175.395 443.655 173.096 443.959 170.938 443.378C168.781 442.797 166.941 441.379 165.824 439.435C164.707 437.492 164.404 435.182 164.983 433.014C165.561 430.846 166.973 428.998 168.907 427.875C171.108 426.595 175.438 425.714 181.246 425.34C181.859 428.325 183.418 431.031 185.689 433.052C182.461 437.924 179.53 441.253 177.33 442.533ZM195 456.358C192.766 456.358 190.624 455.467 189.044 453.88C187.465 452.293 186.577 450.14 186.577 447.896C186.577 445.343 187.981 441.13 190.564 435.886C193.443 436.855 196.557 436.855 199.436 435.886C202.019 441.13 203.423 445.343 203.423 447.896C203.423 450.14 202.535 452.293 200.956 453.88C199.376 455.467 197.234 456.358 195 456.358ZM224.178 439.434C223.625 440.396 222.889 441.24 222.011 441.917C221.133 442.594 220.132 443.091 219.063 443.378C217.994 443.666 216.88 443.74 215.783 443.595C214.686 443.45 213.628 443.089 212.67 442.533C210.47 441.253 207.539 437.924 204.311 433.052C206.584 431.028 208.143 428.319 208.754 425.33C214.562 425.703 218.892 426.585 221.093 427.861C222.053 428.417 222.894 429.157 223.568 430.04C224.243 430.922 224.738 431.93 225.024 433.005C225.311 434.08 225.384 435.201 225.238 436.304C225.093 437.407 224.733 438.471 224.178 439.434Z" fill="#D0D0D0"/>
</svg>
