<svg width="390" height="844" viewBox="0 0 390 844" fill="none" xmlns="http://www.w3.org/2000/svg">
<g clip-path="url(#clip0_2_167)">
<rect width="390" height="844" fill="#0F0F0F"/>
<rect width="390" height="33.2558" transform="translate(0 811)" fill="#0F0F0F"/>
<rect x="125.84" y="832.824" width="139" height="5" rx="2.5" fill="white"/>
<rect width="390" height="45.7653" fill="#0F0F0F"/>
<path fill-rule="evenodd" clip-rule="evenodd" d="M319 20H320C320.552 20 321 20.4477 321 21V27C321 27.5523 320.552 28 320 28H319C318.448 28 318 27.5523 318 27V21C318 20.4477 318.448 20 319 20Z" fill="#D1D1D6"/>
<path fill-rule="evenodd" clip-rule="evenodd" d="M314.5 22H315.5C316.052 22 316.5 22.4477 316.5 23V27C316.5 27.5523 316.052 28 315.5 28H314.5C313.948 28 313.5 27.5523 313.5 27V23C313.5 22.4477 313.948 22 314.5 22Z" fill="#D1D1D6"/>
<path fill-rule="evenodd" clip-rule="evenodd" d="M310 23.5H311C311.552 23.5 312 23.9477 312 24.5V27C312 27.5523 311.552 28 311 28H310C309.448 28 309 27.5523 309 27V24.5C309 23.9477 309.448 23.5 310 23.5Z" fill="#D1D1D6"/>
<path fill-rule="evenodd" clip-rule="evenodd" d="M323.5 18H324.5C325.052 18 325.5 18.4477 325.5 19V27C325.5 27.5523 325.052 28 324.5 28H323.5C322.948 28 322.5 27.5523 322.5 27V19C322.5 18.4477 322.948 18 323.5 18Z" fill="#EBEBF5" fill-opacity="0.3"/>
<path fill-rule="evenodd" clip-rule="evenodd" d="M319 20H320C320.552 20 321 20.4477 321 21V27C321 27.5523 320.552 28 320 28H319C318.448 28 318 27.5523 318 27V21C318 20.4477 318.448 20 319 20Z" fill="white"/>
<path fill-rule="evenodd" clip-rule="evenodd" d="M314.5 22H315.5C316.052 22 316.5 22.4477 316.5 23V27C316.5 27.5523 316.052 28 315.5 28H314.5C313.948 28 313.5 27.5523 313.5 27V23C313.5 22.4477 313.948 22 314.5 22Z" fill="white"/>
<path fill-rule="evenodd" clip-rule="evenodd" d="M310 23.5H311C311.552 23.5 312 23.9477 312 24.5V27C312 27.5523 311.552 28 311 28H310C309.448 28 309 27.5523 309 27V24.5C309 23.9477 309.448 23.5 310 23.5Z" fill="white"/>
<path d="M339.133 24.9396C339.772 24.9396 340.394 25.1076 340.941 25.428L341.163 25.5579C341.331 25.6563 341.361 25.8866 341.223 26.0242L339.329 27.913C339.212 28.029 339.024 28.029 338.907 27.913L337.026 26.0363C336.888 25.8994 336.917 25.6702 337.084 25.5711L337.303 25.4406C337.855 25.1121 338.485 24.9396 339.133 24.9396Z" fill="white"/>
<path d="M339.133 21.4698C340.724 21.4698 342.251 21.9976 343.495 22.9749L343.671 23.113C343.811 23.2232 343.824 23.4306 343.697 23.5565L342.567 24.6841C342.462 24.7884 342.297 24.8004 342.178 24.7123L342.04 24.6098C341.2 23.9852 340.186 23.6502 339.133 23.6502C338.073 23.6502 337.053 23.9894 336.21 24.6211L336.072 24.7245C335.953 24.8134 335.787 24.8017 335.682 24.6971L334.552 23.5699C334.426 23.4443 334.438 23.2373 334.578 23.127L334.753 22.9888C336 22.0027 337.534 21.4698 339.133 21.4698Z" fill="white"/>
<path d="M339.133 18C341.657 18 344.072 18.8906 345.983 20.5229L346.146 20.6623C346.278 20.7749 346.285 20.9756 346.163 21.098L345.036 22.2219C344.926 22.3308 344.752 22.3385 344.634 22.2395L344.494 22.1228C342.989 20.8647 341.104 20.1804 339.133 20.1804C337.155 20.1804 335.263 20.8694 333.756 22.1354L333.617 22.2527C333.498 22.3521 333.324 22.3447 333.214 22.2356L332.087 21.1118C331.965 20.9895 331.972 20.7892 332.104 20.6765L332.266 20.5371C334.18 18.8959 336.601 18 339.133 18Z" fill="white"/>
<path d="M375 21V21C375.552 21 376 21.4477 376 22V24C376 24.5523 375.552 25 375 25V25V21Z" fill="#EBEBF5" fill-opacity="0.3"/>
<path fill-rule="evenodd" clip-rule="evenodd" d="M354 17H371C372.657 17 374 18.3431 374 20V26C374 27.6569 372.657 29 371 29H354C352.343 29 351 27.6569 351 26V20C351 18.3431 352.343 17 354 17ZM354 18C352.895 18 352 18.8954 352 20V26C352 27.1046 352.895 28 354 28H371C372.105 28 373 27.1046 373 26V20C373 18.8954 372.105 18 371 18H354Z" fill="#EBEBF5" fill-opacity="0.3"/>
<rect x="353" y="19" width="19" height="8" rx="1" fill="white"/>
<path d="M37.8672 28.0889C40.5552 28.0889 42.1519 25.9868 42.1519 22.4272C42.1519 21.0869 41.8955 19.959 41.4048 19.0874C40.6943 17.7324 39.4712 17 37.9258 17C35.626 17 34 18.5454 34 20.7134C34 22.7495 35.4648 24.229 37.479 24.229C38.7168 24.229 39.7202 23.6504 40.2183 22.647H40.2402C40.2402 22.647 40.2695 22.647 40.2769 22.647C40.2915 22.647 40.3428 22.647 40.3428 22.647C40.3428 25.064 39.4272 26.5068 37.8818 26.5068C36.9736 26.5068 36.2705 26.0088 36.0288 25.2104H34.1465C34.4614 26.9463 35.9336 28.0889 37.8672 28.0889ZM37.9331 22.7275C36.7173 22.7275 35.853 21.8633 35.853 20.6548C35.853 19.4756 36.7612 18.5747 37.9404 18.5747C39.1196 18.5747 40.0278 19.4902 40.0278 20.6841C40.0278 21.8633 39.1416 22.7275 37.9331 22.7275Z" fill="white"/>
<path d="M45.243 27.9863C45.9388 27.9863 46.4148 27.4883 46.4148 26.8291C46.4148 26.1626 45.9388 25.6719 45.243 25.6719C44.5545 25.6719 44.0711 26.1626 44.0711 26.8291C44.0711 27.4883 44.5545 27.9863 45.243 27.9863ZM45.243 22.4932C45.9388 22.4932 46.4148 22.0024 46.4148 21.3433C46.4148 20.6768 45.9388 20.186 45.243 20.186C44.5545 20.186 44.0711 20.6768 44.0711 21.3433C44.0711 22.0024 44.5545 22.4932 45.243 22.4932Z" fill="white"/>
<path d="M53.2706 27.8325H55.0797V25.8623H56.5079V24.2656H55.0797V17.2637H52.4137C50.546 20.0762 49.0592 22.4272 48.107 24.1777V25.8623H53.2706V27.8325ZM49.8575 24.1997C51.088 22.0317 52.1866 20.2959 53.1974 18.8018H53.2999V24.3096H49.8575V24.1997Z" fill="white"/>
<path d="M60.5365 27.8325H62.4262V17.2637H60.5438L57.7826 19.1973V21.0137L60.412 19.168H60.5365V27.8325Z" fill="white"/>
<path d="M349 643H41C32.1634 643 25 650.163 25 659V715C25 723.837 32.1634 731 41 731H349C357.837 731 365 723.837 365 715V659C365 650.163 357.837 643 349 643Z" fill="#D9D9D9"/>
<path d="M320.375 702.458C319.84 701.924 319.573 701.243 319.573 700.417C319.573 699.59 319.84 698.91 320.375 698.375L331.75 687L320.375 675.625C319.84 675.09 319.573 674.41 319.573 673.583C319.573 672.757 319.84 672.076 320.375 671.542C320.91 671.007 321.59 670.74 322.417 670.74C323.243 670.74 323.924 671.007 324.458 671.542L337.875 684.958C338.167 685.25 338.374 685.566 338.496 685.906C338.619 686.247 338.679 686.611 338.677 687C338.677 687.389 338.616 687.753 338.493 688.094C338.371 688.434 338.165 688.75 337.875 689.042L324.458 702.458C323.924 702.993 323.243 703.26 322.417 703.26C321.59 703.26 320.91 702.993 320.375 702.458Z" fill="#FF9341"/>
<g style="mix-blend-mode:multiply">
<path d="M167.102 680.551C166.95 679.206 166.325 678.165 165.227 677.426C164.128 676.678 162.746 676.304 161.079 676.304C159.886 676.304 158.853 676.493 157.982 676.872C157.111 677.241 156.434 677.753 155.951 678.406C155.478 679.05 155.241 679.784 155.241 680.608C155.241 681.299 155.402 681.896 155.724 682.398C156.055 682.9 156.486 683.321 157.016 683.662C157.556 683.993 158.134 684.273 158.749 684.5C159.365 684.718 159.957 684.898 160.525 685.04L163.366 685.778C164.294 686.006 165.246 686.313 166.221 686.702C167.196 687.09 168.101 687.601 168.934 688.236C169.767 688.87 170.44 689.656 170.951 690.594C171.472 691.531 171.732 692.653 171.732 693.96C171.732 695.608 171.306 697.071 170.454 698.349C169.611 699.628 168.385 700.636 166.775 701.375C165.174 702.114 163.238 702.483 160.965 702.483C158.787 702.483 156.903 702.137 155.312 701.446C153.721 700.755 152.476 699.775 151.576 698.506C150.676 697.227 150.179 695.712 150.085 693.96H154.488C154.573 695.011 154.914 695.887 155.511 696.588C156.117 697.279 156.888 697.795 157.826 698.136C158.773 698.468 159.81 698.634 160.937 698.634C162.177 698.634 163.281 698.439 164.246 698.051C165.222 697.653 165.989 697.104 166.548 696.403C167.106 695.693 167.386 694.865 167.386 693.918C167.386 693.056 167.139 692.35 166.647 691.801C166.164 691.252 165.506 690.797 164.673 690.438C163.849 690.078 162.916 689.76 161.874 689.486L158.437 688.548C156.107 687.914 154.261 686.981 152.897 685.75C151.543 684.519 150.866 682.89 150.866 680.864C150.866 679.187 151.32 677.724 152.229 676.474C153.138 675.224 154.37 674.254 155.923 673.562C157.476 672.862 159.228 672.511 161.178 672.511C163.148 672.511 164.886 672.857 166.391 673.548C167.906 674.24 169.1 675.191 169.971 676.403C170.842 677.606 171.297 678.989 171.335 680.551H167.102ZM186.821 680.182V683.591H174.903V680.182H186.821ZM178.099 674.955H182.347V695.594C182.347 696.418 182.47 697.038 182.716 697.455C182.962 697.862 183.279 698.141 183.668 698.293C184.065 698.435 184.496 698.506 184.96 698.506C185.301 698.506 185.599 698.482 185.855 698.435C186.111 698.387 186.31 698.349 186.452 698.321L187.219 701.83C186.973 701.924 186.622 702.019 186.168 702.114C185.713 702.218 185.145 702.275 184.463 702.284C183.346 702.303 182.304 702.104 181.338 701.688C180.372 701.271 179.591 700.627 178.994 699.756C178.398 698.884 178.099 697.791 178.099 696.474V674.955ZM197.869 702.483C196.486 702.483 195.236 702.227 194.119 701.716C193.001 701.195 192.116 700.442 191.462 699.457C190.818 698.473 190.496 697.265 190.496 695.835C190.496 694.604 190.733 693.591 191.207 692.795C191.68 692 192.319 691.37 193.124 690.906C193.929 690.442 194.829 690.092 195.823 689.855C196.817 689.618 197.831 689.438 198.863 689.315C200.17 689.164 201.23 689.041 202.045 688.946C202.859 688.842 203.451 688.676 203.82 688.449C204.19 688.222 204.374 687.852 204.374 687.341V687.241C204.374 686.001 204.024 685.04 203.323 684.358C202.632 683.676 201.6 683.335 200.227 683.335C198.797 683.335 197.67 683.652 196.846 684.287C196.031 684.912 195.468 685.608 195.156 686.375L191.164 685.466C191.638 684.14 192.329 683.07 193.238 682.256C194.156 681.432 195.212 680.835 196.406 680.466C197.599 680.087 198.853 679.898 200.17 679.898C201.041 679.898 201.964 680.002 202.94 680.21C203.924 680.409 204.843 680.778 205.695 681.318C206.557 681.858 207.263 682.63 207.812 683.634C208.361 684.628 208.636 685.92 208.636 687.511V702H204.488V699.017H204.317C204.043 699.566 203.631 700.106 203.082 700.636C202.532 701.167 201.827 701.607 200.965 701.957C200.103 702.308 199.071 702.483 197.869 702.483ZM198.792 699.074C199.966 699.074 200.97 698.842 201.803 698.378C202.646 697.914 203.285 697.308 203.721 696.56C204.166 695.802 204.388 694.992 204.388 694.131V691.318C204.237 691.47 203.943 691.612 203.508 691.744C203.082 691.867 202.594 691.976 202.045 692.071C201.496 692.156 200.96 692.237 200.44 692.312C199.919 692.379 199.483 692.436 199.133 692.483C198.309 692.587 197.556 692.762 196.874 693.009C196.202 693.255 195.662 693.61 195.255 694.074C194.857 694.528 194.658 695.134 194.658 695.892C194.658 696.943 195.047 697.739 195.823 698.278C196.6 698.809 197.589 699.074 198.792 699.074ZM214.293 702V680.182H218.398V683.648H218.625C219.023 682.473 219.723 681.55 220.727 680.878C221.741 680.196 222.886 679.855 224.165 679.855C224.43 679.855 224.742 679.865 225.102 679.884C225.472 679.902 225.76 679.926 225.969 679.955V684.017C225.798 683.97 225.495 683.918 225.06 683.861C224.624 683.795 224.188 683.761 223.753 683.761C222.749 683.761 221.854 683.974 221.068 684.401C220.292 684.817 219.676 685.4 219.222 686.148C218.767 686.886 218.54 687.729 218.54 688.676V702H214.293ZM241.118 680.182V683.591H229.2V680.182H241.118ZM232.396 674.955H236.643V695.594C236.643 696.418 236.767 697.038 237.013 697.455C237.259 697.862 237.576 698.141 237.964 698.293C238.362 698.435 238.793 698.506 239.257 698.506C239.598 698.506 239.896 698.482 240.152 698.435C240.408 698.387 240.607 698.349 240.749 698.321L241.516 701.83C241.269 701.924 240.919 702.019 240.464 702.114C240.01 702.218 239.442 702.275 238.76 702.284C237.643 702.303 236.601 702.104 235.635 701.688C234.669 701.271 233.888 700.627 233.291 699.756C232.695 698.884 232.396 697.791 232.396 696.474V674.955Z" fill="#252835"/>
</g>
<path d="M97.7585 158L87.9062 123.091H94.7074L100.997 148.744H101.321L108.037 123.091H114.224L120.957 148.761H121.264L127.554 123.091H134.355L124.503 158H118.264L111.276 133.506H111.003L103.997 158H97.7585ZM147.386 158.511C144.761 158.511 142.494 157.966 140.585 156.875C138.688 155.773 137.227 154.216 136.205 152.205C135.182 150.182 134.67 147.801 134.67 145.062C134.67 142.369 135.182 140.006 136.205 137.972C137.239 135.926 138.682 134.335 140.534 133.199C142.386 132.051 144.562 131.477 147.062 131.477C148.676 131.477 150.199 131.739 151.631 132.261C153.074 132.773 154.347 133.568 155.449 134.648C156.563 135.727 157.438 137.102 158.074 138.773C158.71 140.432 159.028 142.409 159.028 144.705V146.597H137.568V142.438H153.114C153.102 141.256 152.847 140.205 152.347 139.284C151.847 138.352 151.148 137.619 150.25 137.085C149.364 136.551 148.33 136.284 147.148 136.284C145.886 136.284 144.778 136.591 143.824 137.205C142.869 137.807 142.125 138.602 141.591 139.591C141.068 140.568 140.801 141.642 140.79 142.812V146.443C140.79 147.966 141.068 149.273 141.625 150.364C142.182 151.443 142.96 152.273 143.96 152.852C144.96 153.42 146.131 153.705 147.472 153.705C148.369 153.705 149.182 153.58 149.909 153.33C150.636 153.068 151.267 152.688 151.801 152.188C152.335 151.688 152.739 151.068 153.011 150.33L158.773 150.977C158.409 152.5 157.716 153.83 156.693 154.966C155.682 156.091 154.386 156.966 152.807 157.591C151.227 158.205 149.42 158.511 147.386 158.511ZM170.419 123.091V158H164.249V123.091H170.419ZM188.185 158.511C185.571 158.511 183.327 157.938 181.452 156.79C179.588 155.642 178.151 154.057 177.139 152.034C176.139 150 175.639 147.659 175.639 145.011C175.639 142.352 176.151 140.006 177.173 137.972C178.196 135.926 179.639 134.335 181.503 133.199C183.378 132.051 185.594 131.477 188.151 131.477C190.276 131.477 192.156 131.869 193.793 132.653C195.44 133.426 196.753 134.523 197.73 135.943C198.707 137.352 199.264 139 199.401 140.886H193.503C193.264 139.625 192.696 138.574 191.798 137.733C190.912 136.881 189.724 136.455 188.236 136.455C186.974 136.455 185.866 136.795 184.912 137.477C183.957 138.148 183.213 139.114 182.679 140.375C182.156 141.636 181.895 143.148 181.895 144.909C181.895 146.693 182.156 148.227 182.679 149.511C183.202 150.784 183.935 151.767 184.878 152.46C185.832 153.142 186.952 153.483 188.236 153.483C189.145 153.483 189.957 153.312 190.673 152.972C191.401 152.619 192.009 152.114 192.497 151.455C192.986 150.795 193.321 149.994 193.503 149.051H199.401C199.253 150.903 198.707 152.545 197.764 153.977C196.821 155.398 195.537 156.511 193.912 157.318C192.287 158.114 190.378 158.511 188.185 158.511ZM215.888 158.511C213.331 158.511 211.115 157.949 209.24 156.824C207.365 155.699 205.911 154.125 204.876 152.102C203.854 150.08 203.342 147.716 203.342 145.011C203.342 142.307 203.854 139.937 204.876 137.903C205.911 135.869 207.365 134.29 209.24 133.165C211.115 132.04 213.331 131.477 215.888 131.477C218.445 131.477 220.661 132.04 222.536 133.165C224.411 134.29 225.859 135.869 226.882 137.903C227.916 139.937 228.433 142.307 228.433 145.011C228.433 147.716 227.916 150.08 226.882 152.102C225.859 154.125 224.411 155.699 222.536 156.824C220.661 157.949 218.445 158.511 215.888 158.511ZM215.922 153.568C217.308 153.568 218.467 153.187 219.399 152.426C220.331 151.653 221.024 150.619 221.479 149.324C221.945 148.028 222.178 146.585 222.178 144.994C222.178 143.392 221.945 141.943 221.479 140.648C221.024 139.341 220.331 138.301 219.399 137.528C218.467 136.756 217.308 136.369 215.922 136.369C214.501 136.369 213.32 136.756 212.376 137.528C211.445 138.301 210.746 139.341 210.28 140.648C209.825 141.943 209.598 143.392 209.598 144.994C209.598 146.585 209.825 148.028 210.28 149.324C210.746 150.619 211.445 151.653 212.376 152.426C213.32 153.187 214.501 153.568 215.922 153.568ZM233.67 158V131.818H239.568V136.267H239.875C240.42 134.767 241.324 133.597 242.585 132.756C243.847 131.903 245.352 131.477 247.102 131.477C248.875 131.477 250.369 131.909 251.585 132.773C252.813 133.625 253.676 134.79 254.176 136.267H254.449C255.028 134.812 256.006 133.653 257.381 132.79C258.767 131.915 260.409 131.477 262.307 131.477C264.716 131.477 266.682 132.239 268.205 133.761C269.727 135.284 270.489 137.506 270.489 140.426V158H264.301V141.381C264.301 139.756 263.869 138.568 263.006 137.818C262.142 137.057 261.085 136.676 259.835 136.676C258.347 136.676 257.182 137.142 256.341 138.074C255.511 138.994 255.097 140.193 255.097 141.67V158H249.045V141.125C249.045 139.773 248.636 138.693 247.818 137.886C247.011 137.08 245.955 136.676 244.648 136.676C243.761 136.676 242.955 136.903 242.227 137.358C241.5 137.801 240.92 138.432 240.489 139.25C240.057 140.057 239.841 141 239.841 142.08V158H233.67ZM288.339 158.511C285.714 158.511 283.447 157.966 281.538 156.875C279.641 155.773 278.18 154.216 277.158 152.205C276.135 150.182 275.624 147.801 275.624 145.062C275.624 142.369 276.135 140.006 277.158 137.972C278.192 135.926 279.635 134.335 281.487 133.199C283.339 132.051 285.516 131.477 288.016 131.477C289.629 131.477 291.152 131.739 292.584 132.261C294.027 132.773 295.3 133.568 296.402 134.648C297.516 135.727 298.391 137.102 299.027 138.773C299.663 140.432 299.982 142.409 299.982 144.705V146.597H278.521V142.438H294.067C294.055 141.256 293.8 140.205 293.3 139.284C292.8 138.352 292.101 137.619 291.203 137.085C290.317 136.551 289.283 136.284 288.101 136.284C286.839 136.284 285.732 136.591 284.777 137.205C283.822 137.807 283.078 138.602 282.544 139.591C282.021 140.568 281.754 141.642 281.743 142.812V146.443C281.743 147.966 282.021 149.273 282.578 150.364C283.135 151.443 283.913 152.273 284.913 152.852C285.913 153.42 287.084 153.705 288.425 153.705C289.322 153.705 290.135 153.58 290.862 153.33C291.589 153.068 292.22 152.688 292.754 152.188C293.288 151.688 293.692 151.068 293.964 150.33L299.726 150.977C299.362 152.5 298.669 153.83 297.646 154.966C296.635 156.091 295.339 156.966 293.76 157.591C292.18 158.205 290.374 158.511 288.339 158.511ZM189.432 179.545V182.273H179.898V179.545H189.432ZM182.455 175.364H185.852V191.875C185.852 192.534 185.951 193.03 186.148 193.364C186.345 193.689 186.598 193.913 186.909 194.034C187.227 194.148 187.572 194.205 187.943 194.205C188.216 194.205 188.455 194.186 188.659 194.148C188.864 194.11 189.023 194.08 189.136 194.057L189.75 196.864C189.553 196.939 189.273 197.015 188.909 197.091C188.545 197.174 188.091 197.22 187.545 197.227C186.652 197.242 185.818 197.083 185.045 196.75C184.273 196.417 183.648 195.902 183.17 195.205C182.693 194.508 182.455 193.633 182.455 192.58V175.364ZM200.355 197.352C198.719 197.352 197.291 196.977 196.071 196.227C194.851 195.477 193.904 194.428 193.23 193.08C192.556 191.731 192.219 190.155 192.219 188.352C192.219 186.542 192.556 184.958 193.23 183.602C193.904 182.246 194.851 181.193 196.071 180.443C197.291 179.693 198.719 179.318 200.355 179.318C201.991 179.318 203.42 179.693 204.639 180.443C205.859 181.193 206.806 182.246 207.48 183.602C208.154 184.958 208.491 186.542 208.491 188.352C208.491 190.155 208.154 191.731 207.48 193.08C206.806 194.428 205.859 195.477 204.639 196.227C203.42 196.977 201.991 197.352 200.355 197.352ZM200.366 194.5C201.427 194.5 202.306 194.22 203.003 193.659C203.7 193.098 204.215 192.352 204.548 191.42C204.889 190.489 205.06 189.462 205.06 188.341C205.06 187.227 204.889 186.205 204.548 185.273C204.215 184.333 203.7 183.58 203.003 183.011C202.306 182.443 201.427 182.159 200.366 182.159C199.298 182.159 198.412 182.443 197.707 183.011C197.01 183.58 196.491 184.333 196.151 185.273C195.817 186.205 195.651 187.227 195.651 188.341C195.651 189.462 195.817 190.489 196.151 191.42C196.491 192.352 197.01 193.098 197.707 193.659C198.412 194.22 199.298 194.5 200.366 194.5ZM179.776 218.545V221.273H170.241V218.545H179.776ZM172.798 214.364H176.196V230.875C176.196 231.534 176.295 232.03 176.491 232.364C176.688 232.689 176.942 232.913 177.253 233.034C177.571 233.148 177.916 233.205 178.287 233.205C178.56 233.205 178.798 233.186 179.003 233.148C179.207 233.11 179.366 233.08 179.48 233.057L180.094 235.864C179.897 235.939 179.616 236.015 179.253 236.091C178.889 236.174 178.435 236.22 177.889 236.227C176.995 236.242 176.162 236.083 175.389 235.75C174.616 235.417 173.991 234.902 173.514 234.205C173.037 233.508 172.798 232.633 172.798 231.58V214.364ZM187.307 225.636V236H183.909V212.727H187.261V221.386H187.477C187.886 220.447 188.511 219.701 189.352 219.148C190.193 218.595 191.292 218.318 192.648 218.318C193.845 218.318 194.89 218.564 195.784 219.057C196.686 219.549 197.383 220.284 197.875 221.261C198.375 222.231 198.625 223.443 198.625 224.898V236H195.227V225.307C195.227 224.027 194.898 223.034 194.239 222.33C193.58 221.617 192.663 221.261 191.489 221.261C190.686 221.261 189.966 221.432 189.33 221.773C188.701 222.114 188.205 222.614 187.841 223.273C187.485 223.924 187.307 224.712 187.307 225.636ZM210.682 236.352C208.962 236.352 207.481 235.985 206.239 235.25C205.004 234.508 204.049 233.466 203.375 232.125C202.708 230.777 202.375 229.197 202.375 227.386C202.375 225.598 202.708 224.023 203.375 222.659C204.049 221.295 204.989 220.231 206.193 219.466C207.405 218.701 208.822 218.318 210.443 218.318C211.428 218.318 212.383 218.481 213.307 218.807C214.231 219.133 215.061 219.644 215.795 220.341C216.53 221.038 217.11 221.943 217.534 223.057C217.958 224.163 218.17 225.508 218.17 227.091V228.295H204.295V225.75H214.841C214.841 224.856 214.659 224.064 214.295 223.375C213.932 222.678 213.42 222.129 212.761 221.727C212.11 221.326 211.345 221.125 210.466 221.125C209.511 221.125 208.678 221.36 207.966 221.83C207.261 222.292 206.716 222.898 206.33 223.648C205.951 224.39 205.761 225.197 205.761 226.068V228.057C205.761 229.223 205.966 230.216 206.375 231.034C206.792 231.852 207.371 232.477 208.114 232.909C208.856 233.333 209.723 233.545 210.716 233.545C211.36 233.545 211.947 233.455 212.477 233.273C213.008 233.083 213.466 232.803 213.852 232.432C214.239 232.061 214.534 231.602 214.739 231.057L217.955 231.636C217.697 232.583 217.235 233.413 216.568 234.125C215.909 234.83 215.08 235.379 214.08 235.773C213.087 236.159 211.955 236.352 210.682 236.352ZM87.4716 259.091H92.7557V282.051C92.7557 284.494 92.1818 286.659 91.0341 288.545C89.8864 290.42 88.2727 291.898 86.1932 292.977C84.1136 294.045 81.6761 294.58 78.8807 294.58C76.0966 294.58 73.6648 294.045 71.5852 292.977C69.5057 291.898 67.892 290.42 66.7443 288.545C65.5966 286.659 65.0227 284.494 65.0227 282.051V259.091H70.2898V281.625C70.2898 283.205 70.6364 284.608 71.3295 285.835C72.0341 287.062 73.0284 288.028 74.3125 288.733C75.5966 289.426 77.1193 289.773 78.8807 289.773C80.6534 289.773 82.1818 289.426 83.4659 288.733C84.7614 288.028 85.75 287.062 86.4318 285.835C87.125 284.608 87.4716 283.205 87.4716 281.625V259.091ZM105.101 278.455V294H100.004V267.818H104.896V272.08H105.22C105.822 270.693 106.766 269.58 108.05 268.739C109.345 267.898 110.976 267.477 112.942 267.477C114.726 267.477 116.288 267.852 117.629 268.602C118.97 269.341 120.01 270.443 120.749 271.909C121.487 273.375 121.857 275.187 121.857 277.347V294H116.76V277.96C116.76 276.062 116.266 274.58 115.277 273.511C114.288 272.432 112.93 271.892 111.203 271.892C110.021 271.892 108.97 272.148 108.05 272.659C107.141 273.17 106.419 273.92 105.885 274.909C105.362 275.886 105.101 277.068 105.101 278.455ZM128.692 294V267.818H133.788V294H128.692ZM131.266 263.778C130.379 263.778 129.618 263.483 128.982 262.892C128.357 262.29 128.044 261.574 128.044 260.744C128.044 259.903 128.357 259.187 128.982 258.597C129.618 257.994 130.379 257.693 131.266 257.693C132.152 257.693 132.908 257.994 133.533 258.597C134.169 259.187 134.487 259.903 134.487 260.744C134.487 261.574 134.169 262.29 133.533 262.892C132.908 263.483 132.152 263.778 131.266 263.778ZM152.866 267.818V271.909H138.565V267.818H152.866ZM142.401 261.545H147.497V286.312C147.497 287.301 147.645 288.045 147.94 288.545C148.236 289.034 148.616 289.369 149.082 289.551C149.56 289.722 150.077 289.807 150.634 289.807C151.043 289.807 151.401 289.778 151.707 289.722C152.014 289.665 152.253 289.619 152.423 289.585L153.344 293.795C153.048 293.909 152.628 294.023 152.082 294.136C151.537 294.261 150.855 294.33 150.037 294.341C148.696 294.364 147.446 294.125 146.287 293.625C145.128 293.125 144.19 292.352 143.474 291.307C142.759 290.261 142.401 288.949 142.401 287.369V261.545ZM169.507 294.528C166.928 294.528 164.706 293.977 162.842 292.875C160.99 291.761 159.558 290.199 158.547 288.188C157.547 286.165 157.047 283.795 157.047 281.08C157.047 278.398 157.547 276.034 158.547 273.989C159.558 271.943 160.967 270.347 162.774 269.199C164.592 268.051 166.717 267.477 169.149 267.477C170.626 267.477 172.058 267.722 173.445 268.21C174.831 268.699 176.075 269.466 177.178 270.511C178.28 271.557 179.149 272.915 179.786 274.585C180.422 276.244 180.74 278.261 180.74 280.636V282.443H159.928V278.625H175.746C175.746 277.284 175.473 276.097 174.928 275.062C174.382 274.017 173.615 273.193 172.626 272.591C171.649 271.989 170.501 271.688 169.183 271.688C167.751 271.688 166.501 272.04 165.433 272.744C164.376 273.437 163.558 274.347 162.979 275.472C162.411 276.585 162.126 277.795 162.126 279.102V282.085C162.126 283.835 162.433 285.324 163.047 286.551C163.672 287.778 164.541 288.716 165.655 289.364C166.768 290 168.07 290.318 169.558 290.318C170.524 290.318 171.405 290.182 172.2 289.909C172.996 289.625 173.683 289.205 174.263 288.648C174.842 288.091 175.286 287.403 175.592 286.585L180.416 287.455C180.03 288.875 179.337 290.119 178.337 291.188C177.348 292.244 176.104 293.068 174.604 293.659C173.115 294.239 171.416 294.528 169.507 294.528ZM196.196 294.511C194.082 294.511 192.196 293.972 190.537 292.892C188.889 291.801 187.594 290.25 186.651 288.239C185.719 286.216 185.253 283.79 185.253 280.96C185.253 278.131 185.724 275.71 186.668 273.699C187.622 271.687 188.929 270.148 190.588 269.08C192.247 268.011 194.128 267.477 196.23 267.477C197.855 267.477 199.162 267.75 200.151 268.295C201.151 268.83 201.923 269.455 202.469 270.17C203.026 270.886 203.457 271.517 203.764 272.062H204.071V259.091H209.168V294H204.19V289.926H203.764C203.457 290.483 203.014 291.119 202.435 291.835C201.866 292.551 201.082 293.176 200.082 293.71C199.082 294.244 197.787 294.511 196.196 294.511ZM197.321 290.165C198.787 290.165 200.026 289.778 201.037 289.006C202.06 288.222 202.832 287.136 203.355 285.75C203.889 284.364 204.156 282.75 204.156 280.909C204.156 279.091 203.895 277.5 203.372 276.136C202.849 274.773 202.082 273.71 201.071 272.949C200.06 272.187 198.81 271.807 197.321 271.807C195.787 271.807 194.509 272.205 193.486 273C192.463 273.795 191.69 274.881 191.168 276.256C190.656 277.631 190.401 279.182 190.401 280.909C190.401 282.659 190.662 284.233 191.185 285.631C191.707 287.028 192.48 288.136 193.503 288.955C194.537 289.761 195.81 290.165 197.321 290.165ZM229.554 294V259.091H251.202V263.625H234.821V274.261H249.651V278.778H234.821V294H229.554ZM257.27 294V267.818H262.366V294H257.27ZM259.844 263.778C258.957 263.778 258.196 263.483 257.56 262.892C256.935 262.29 256.622 261.574 256.622 260.744C256.622 259.903 256.935 259.187 257.56 258.597C258.196 257.994 258.957 257.693 259.844 257.693C260.73 257.693 261.486 257.994 262.111 258.597C262.747 259.187 263.065 259.903 263.065 260.744C263.065 261.574 262.747 262.29 262.111 262.892C261.486 263.483 260.73 263.778 259.844 263.778ZM269.223 294V267.818H274.149V271.977H274.422C274.899 270.568 275.74 269.46 276.945 268.653C278.161 267.835 279.536 267.426 281.07 267.426C281.388 267.426 281.763 267.437 282.195 267.46C282.638 267.483 282.984 267.511 283.234 267.545V272.42C283.03 272.364 282.666 272.301 282.143 272.233C281.621 272.153 281.098 272.114 280.575 272.114C279.371 272.114 278.297 272.369 277.354 272.881C276.422 273.381 275.683 274.08 275.138 274.977C274.592 275.864 274.32 276.875 274.32 278.011V294H269.223ZM307.264 274.21L302.645 275.028C302.452 274.437 302.145 273.875 301.724 273.341C301.315 272.807 300.759 272.369 300.054 272.028C299.349 271.687 298.469 271.517 297.412 271.517C295.969 271.517 294.764 271.841 293.798 272.489C292.832 273.125 292.349 273.949 292.349 274.96C292.349 275.835 292.673 276.54 293.321 277.074C293.969 277.608 295.014 278.045 296.457 278.386L300.616 279.341C303.026 279.898 304.821 280.756 306.003 281.915C307.185 283.074 307.776 284.58 307.776 286.432C307.776 288 307.321 289.398 306.412 290.625C305.514 291.841 304.259 292.795 302.645 293.489C301.043 294.182 299.185 294.528 297.071 294.528C294.139 294.528 291.747 293.903 289.895 292.653C288.043 291.392 286.906 289.602 286.486 287.284L291.412 286.534C291.719 287.818 292.349 288.79 293.304 289.449C294.259 290.097 295.503 290.42 297.037 290.42C298.707 290.42 300.043 290.074 301.043 289.381C302.043 288.676 302.543 287.818 302.543 286.807C302.543 285.989 302.236 285.301 301.622 284.744C301.02 284.187 300.094 283.767 298.844 283.483L294.412 282.511C291.969 281.955 290.162 281.068 288.991 279.852C287.832 278.636 287.253 277.097 287.253 275.233C287.253 273.687 287.685 272.335 288.548 271.176C289.412 270.017 290.605 269.114 292.128 268.466C293.651 267.807 295.395 267.477 297.361 267.477C300.19 267.477 302.418 268.091 304.043 269.318C305.668 270.534 306.741 272.165 307.264 274.21ZM325.601 267.818V271.909H311.3V267.818H325.601ZM315.135 261.545H320.232V286.312C320.232 287.301 320.379 288.045 320.675 288.545C320.97 289.034 321.351 289.369 321.817 289.551C322.294 289.722 322.811 289.807 323.368 289.807C323.777 289.807 324.135 289.778 324.442 289.722C324.749 289.665 324.987 289.619 325.158 289.585L326.078 293.795C325.783 293.909 325.362 294.023 324.817 294.136C324.271 294.261 323.589 294.33 322.771 294.341C321.43 294.364 320.18 294.125 319.021 293.625C317.862 293.125 316.925 292.352 316.209 291.307C315.493 290.261 315.135 288.949 315.135 287.369V261.545ZM131.285 317.091V352H126.444L108.7 326.398H108.376V352H103.109V317.091H107.984L125.745 342.727H126.069V317.091H131.285ZM146.178 352.58C144.519 352.58 143.019 352.273 141.678 351.659C140.337 351.034 139.275 350.131 138.491 348.949C137.718 347.767 137.332 346.318 137.332 344.602C137.332 343.125 137.616 341.909 138.184 340.955C138.752 340 139.519 339.244 140.485 338.688C141.451 338.131 142.531 337.71 143.724 337.426C144.917 337.142 146.133 336.926 147.371 336.778C148.94 336.597 150.212 336.449 151.19 336.335C152.167 336.21 152.877 336.011 153.32 335.739C153.763 335.466 153.985 335.023 153.985 334.409V334.29C153.985 332.801 153.565 331.648 152.724 330.83C151.894 330.011 150.656 329.602 149.008 329.602C147.292 329.602 145.94 329.983 144.951 330.744C143.974 331.494 143.298 332.33 142.923 333.25L138.133 332.159C138.701 330.568 139.531 329.284 140.621 328.307C141.724 327.318 142.991 326.602 144.423 326.159C145.854 325.705 147.36 325.477 148.94 325.477C149.985 325.477 151.093 325.602 152.263 325.852C153.445 326.091 154.548 326.534 155.57 327.182C156.604 327.83 157.451 328.756 158.11 329.96C158.769 331.153 159.099 332.705 159.099 334.614V352H154.121V348.42H153.917C153.587 349.08 153.093 349.727 152.434 350.364C151.775 351 150.928 351.528 149.894 351.949C148.86 352.369 147.621 352.58 146.178 352.58ZM147.286 348.489C148.695 348.489 149.9 348.21 150.9 347.653C151.911 347.097 152.678 346.369 153.201 345.472C153.735 344.562 154.002 343.591 154.002 342.557V339.182C153.82 339.364 153.468 339.534 152.945 339.693C152.434 339.841 151.849 339.972 151.19 340.085C150.531 340.187 149.888 340.284 149.263 340.375C148.638 340.455 148.116 340.523 147.695 340.58C146.707 340.705 145.803 340.915 144.985 341.21C144.178 341.506 143.531 341.932 143.042 342.489C142.565 343.034 142.326 343.761 142.326 344.67C142.326 345.932 142.792 346.886 143.724 347.534C144.656 348.17 145.843 348.489 147.286 348.489ZM178.109 325.818V329.909H163.808V325.818H178.109ZM167.643 319.545H172.739V344.312C172.739 345.301 172.887 346.045 173.183 346.545C173.478 347.034 173.859 347.369 174.325 347.551C174.802 347.722 175.319 347.807 175.876 347.807C176.285 347.807 176.643 347.778 176.95 347.722C177.256 347.665 177.495 347.619 177.665 347.585L178.586 351.795C178.29 351.909 177.87 352.023 177.325 352.136C176.779 352.261 176.097 352.33 175.279 352.341C173.938 352.364 172.688 352.125 171.529 351.625C170.37 351.125 169.433 350.352 168.717 349.307C168.001 348.261 167.643 346.949 167.643 345.369V319.545ZM183.746 352V325.818H188.843V352H183.746ZM186.32 321.778C185.434 321.778 184.673 321.483 184.036 320.892C183.411 320.29 183.099 319.574 183.099 318.744C183.099 317.903 183.411 317.187 184.036 316.597C184.673 315.994 185.434 315.693 186.32 315.693C187.207 315.693 187.962 315.994 188.587 316.597C189.224 317.187 189.542 317.903 189.542 318.744C189.542 319.574 189.224 320.29 188.587 320.892C187.962 321.483 187.207 321.778 186.32 321.778ZM206.728 352.528C204.273 352.528 202.131 351.966 200.302 350.841C198.472 349.716 197.052 348.142 196.04 346.119C195.029 344.097 194.523 341.733 194.523 339.028C194.523 336.312 195.029 333.937 196.04 331.903C197.052 329.869 198.472 328.29 200.302 327.165C202.131 326.04 204.273 325.477 206.728 325.477C209.183 325.477 211.325 326.04 213.154 327.165C214.984 328.29 216.404 329.869 217.415 331.903C218.427 333.937 218.933 336.312 218.933 339.028C218.933 341.733 218.427 344.097 217.415 346.119C216.404 348.142 214.984 349.716 213.154 350.841C211.325 351.966 209.183 352.528 206.728 352.528ZM206.745 348.25C208.336 348.25 209.654 347.83 210.7 346.989C211.745 346.148 212.518 345.028 213.018 343.631C213.529 342.233 213.785 340.693 213.785 339.011C213.785 337.341 213.529 335.807 213.018 334.409C212.518 333 211.745 331.869 210.7 331.017C209.654 330.165 208.336 329.739 206.745 329.739C205.143 329.739 203.813 330.165 202.756 331.017C201.711 331.869 200.933 333 200.421 334.409C199.921 335.807 199.671 337.341 199.671 339.011C199.671 340.693 199.921 342.233 200.421 343.631C200.933 345.028 201.711 346.148 202.756 346.989C203.813 347.83 205.143 348.25 206.745 348.25ZM229.718 336.455V352H224.621V325.818H229.513V330.08H229.837C230.44 328.693 231.383 327.58 232.667 326.739C233.962 325.898 235.593 325.477 237.559 325.477C239.343 325.477 240.906 325.852 242.246 326.602C243.587 327.341 244.627 328.443 245.366 329.909C246.104 331.375 246.474 333.187 246.474 335.347V352H241.377V335.96C241.377 334.062 240.883 332.58 239.894 331.511C238.906 330.432 237.548 329.892 235.82 329.892C234.638 329.892 233.587 330.148 232.667 330.659C231.758 331.17 231.036 331.92 230.502 332.909C229.979 333.886 229.718 335.068 229.718 336.455ZM272.928 332.21L268.309 333.028C268.116 332.437 267.809 331.875 267.388 331.341C266.979 330.807 266.423 330.369 265.718 330.028C265.013 329.687 264.133 329.517 263.076 329.517C261.633 329.517 260.428 329.841 259.462 330.489C258.496 331.125 258.013 331.949 258.013 332.96C258.013 333.835 258.337 334.54 258.985 335.074C259.633 335.608 260.678 336.045 262.121 336.386L266.281 337.341C268.69 337.898 270.485 338.756 271.667 339.915C272.849 341.074 273.44 342.58 273.44 344.432C273.44 346 272.985 347.398 272.076 348.625C271.178 349.841 269.923 350.795 268.309 351.489C266.707 352.182 264.849 352.528 262.735 352.528C259.803 352.528 257.411 351.903 255.559 350.653C253.707 349.392 252.57 347.602 252.15 345.284L257.076 344.534C257.383 345.818 258.013 346.79 258.968 347.449C259.923 348.097 261.167 348.42 262.701 348.42C264.371 348.42 265.707 348.074 266.707 347.381C267.707 346.676 268.207 345.818 268.207 344.807C268.207 343.989 267.9 343.301 267.286 342.744C266.684 342.187 265.758 341.767 264.508 341.483L260.076 340.511C257.633 339.955 255.826 339.068 254.656 337.852C253.496 336.636 252.917 335.097 252.917 333.233C252.917 331.687 253.349 330.335 254.212 329.176C255.076 328.017 256.269 327.114 257.792 326.466C259.315 325.807 261.059 325.477 263.025 325.477C265.854 325.477 268.082 326.091 269.707 327.318C271.332 328.534 272.406 330.165 272.928 332.21ZM285.469 317.091L285.026 341.96H280.305L279.862 317.091H285.469ZM282.674 352.324C281.731 352.324 280.924 351.994 280.254 351.335C279.583 350.665 279.254 349.858 279.265 348.915C279.254 347.983 279.583 347.187 280.254 346.528C280.924 345.858 281.731 345.523 282.674 345.523C283.594 345.523 284.39 345.858 285.06 346.528C285.731 347.187 286.072 347.983 286.083 348.915C286.072 349.54 285.907 350.114 285.589 350.636C285.282 351.148 284.873 351.557 284.362 351.864C283.85 352.17 283.288 352.324 282.674 352.324Z" fill="#D0D0D0"/>
<path d="M308 534H81C72.1634 534 65 541.163 65 550V585C65 593.837 72.1634 601 81 601H308C316.837 601 324 593.837 324 585V550C324 541.163 316.837 534 308 534Z" fill="#D9D9D9"/>
<path d="M291.611 580.15C291.204 579.742 291 579.224 291 578.595C291 577.966 291.204 577.448 291.611 577.041L300.276 568.38L291.611 559.72C291.204 559.312 291 558.794 291 558.165C291 557.536 291.204 557.018 291.611 556.611C292.018 556.204 292.537 556 293.166 556C293.796 556 294.314 556.204 294.722 556.611L304.942 566.826C305.164 567.048 305.322 567.288 305.415 567.547C305.508 567.806 305.554 568.084 305.553 568.38C305.553 568.676 305.506 568.954 305.413 569.213C305.32 569.472 305.163 569.712 304.942 569.935L294.722 580.15C294.314 580.557 293.796 580.76 293.166 580.76C292.537 580.76 292.018 580.557 291.611 580.15Z" fill="#FF9341"/>
<g style="mix-blend-mode:multiply">
<path d="M84.196 583V553.909H88.5852V579.222H101.767V583H84.196ZM112.783 583.483C111.4 583.483 110.15 583.227 109.033 582.716C107.915 582.195 107.03 581.442 106.376 580.457C105.732 579.473 105.411 578.265 105.411 576.835C105.411 575.604 105.647 574.591 106.121 573.795C106.594 573 107.233 572.37 108.038 571.906C108.843 571.442 109.743 571.092 110.737 570.855C111.732 570.618 112.745 570.438 113.777 570.315C115.084 570.164 116.144 570.041 116.959 569.946C117.773 569.842 118.365 569.676 118.734 569.449C119.104 569.222 119.288 568.852 119.288 568.341V568.241C119.288 567.001 118.938 566.04 118.237 565.358C117.546 564.676 116.514 564.335 115.141 564.335C113.711 564.335 112.584 564.652 111.76 565.287C110.946 565.912 110.382 566.608 110.07 567.375L106.078 566.466C106.552 565.14 107.243 564.07 108.152 563.256C109.071 562.432 110.126 561.835 111.32 561.466C112.513 561.087 113.768 560.898 115.084 560.898C115.955 560.898 116.878 561.002 117.854 561.21C118.839 561.409 119.757 561.778 120.609 562.318C121.471 562.858 122.177 563.63 122.726 564.634C123.275 565.628 123.55 566.92 123.55 568.511V583H119.402V580.017H119.232C118.957 580.566 118.545 581.106 117.996 581.636C117.446 582.167 116.741 582.607 115.879 582.957C115.018 583.308 113.985 583.483 112.783 583.483ZM113.706 580.074C114.88 580.074 115.884 579.842 116.717 579.378C117.56 578.914 118.199 578.308 118.635 577.56C119.08 576.802 119.303 575.992 119.303 575.131V572.318C119.151 572.47 118.857 572.612 118.422 572.744C117.996 572.867 117.508 572.976 116.959 573.071C116.41 573.156 115.875 573.237 115.354 573.312C114.833 573.379 114.397 573.436 114.047 573.483C113.223 573.587 112.47 573.762 111.788 574.009C111.116 574.255 110.576 574.61 110.169 575.074C109.771 575.528 109.572 576.134 109.572 576.892C109.572 577.943 109.961 578.739 110.737 579.278C111.514 579.809 112.503 580.074 113.706 580.074ZM133.454 570.045V583H129.207V561.182H133.283V564.733H133.553C134.055 563.578 134.841 562.65 135.911 561.949C136.991 561.248 138.35 560.898 139.988 560.898C141.475 560.898 142.777 561.21 143.894 561.835C145.012 562.451 145.878 563.369 146.494 564.591C147.109 565.812 147.417 567.323 147.417 569.122V583H143.17V569.634C143.17 568.052 142.758 566.816 141.934 565.926C141.11 565.027 139.978 564.577 138.539 564.577C137.554 564.577 136.678 564.79 135.911 565.216C135.154 565.642 134.552 566.267 134.107 567.091C133.672 567.905 133.454 568.89 133.454 570.045ZM162.261 591.636C160.528 591.636 159.036 591.409 157.786 590.955C156.546 590.5 155.532 589.899 154.746 589.151C153.96 588.402 153.373 587.583 152.985 586.693L156.636 585.188C156.891 585.604 157.232 586.045 157.658 586.509C158.094 586.982 158.681 587.384 159.42 587.716C160.168 588.047 161.129 588.213 162.303 588.213C163.913 588.213 165.244 587.82 166.295 587.034C167.346 586.258 167.871 585.017 167.871 583.312V579.023H167.602C167.346 579.487 166.977 580.003 166.494 580.571C166.02 581.139 165.367 581.632 164.533 582.048C163.7 582.465 162.616 582.673 161.281 582.673C159.557 582.673 158.004 582.271 156.621 581.466C155.248 580.652 154.159 579.454 153.354 577.872C152.559 576.281 152.161 574.326 152.161 572.006C152.161 569.686 152.554 567.697 153.34 566.04C154.136 564.383 155.225 563.114 156.607 562.233C157.99 561.343 159.557 560.898 161.309 560.898C162.663 560.898 163.757 561.125 164.59 561.58C165.424 562.025 166.072 562.545 166.536 563.142C167.01 563.739 167.374 564.264 167.63 564.719H167.942V561.182H172.104V583.483C172.104 585.358 171.669 586.897 170.798 588.099C169.926 589.302 168.747 590.192 167.261 590.77C165.783 591.348 164.117 591.636 162.261 591.636ZM162.218 579.151C163.44 579.151 164.472 578.866 165.315 578.298C166.167 577.721 166.811 576.897 167.246 575.827C167.692 574.747 167.914 573.455 167.914 571.949C167.914 570.481 167.696 569.188 167.261 568.071C166.825 566.954 166.186 566.082 165.343 565.457C164.5 564.823 163.459 564.506 162.218 564.506C160.94 564.506 159.874 564.837 159.022 565.5C158.17 566.153 157.526 567.044 157.09 568.17C156.664 569.297 156.451 570.557 156.451 571.949C156.451 573.379 156.669 574.634 157.104 575.713C157.54 576.793 158.184 577.635 159.036 578.241C159.898 578.848 160.959 579.151 162.218 579.151ZM191.621 573.952V561.182H195.883V583H191.707V579.222H191.479C190.978 580.386 190.173 581.357 189.065 582.134C187.966 582.901 186.598 583.284 184.96 583.284C183.558 583.284 182.317 582.976 181.238 582.361C180.168 581.736 179.325 580.812 178.71 579.591C178.103 578.369 177.8 576.859 177.8 575.06V561.182H182.048V574.548C182.048 576.035 182.46 577.219 183.283 578.099C184.107 578.98 185.177 579.42 186.494 579.42C187.289 579.42 188.08 579.222 188.866 578.824C189.661 578.426 190.319 577.825 190.84 577.02C191.371 576.215 191.631 575.192 191.621 573.952ZM207.939 583.483C206.556 583.483 205.306 583.227 204.189 582.716C203.071 582.195 202.186 581.442 201.533 580.457C200.889 579.473 200.567 578.265 200.567 576.835C200.567 575.604 200.804 574.591 201.277 573.795C201.75 573 202.39 572.37 203.195 571.906C204 571.442 204.899 571.092 205.893 570.855C206.888 570.618 207.901 570.438 208.933 570.315C210.24 570.164 211.301 570.041 212.115 569.946C212.929 569.842 213.521 569.676 213.891 569.449C214.26 569.222 214.445 568.852 214.445 568.341V568.241C214.445 567.001 214.094 566.04 213.393 565.358C212.702 564.676 211.67 564.335 210.297 564.335C208.867 564.335 207.74 564.652 206.916 565.287C206.102 565.912 205.538 566.608 205.226 567.375L201.234 566.466C201.708 565.14 202.399 564.07 203.308 563.256C204.227 562.432 205.283 561.835 206.476 561.466C207.669 561.087 208.924 560.898 210.24 560.898C211.111 560.898 212.035 561.002 213.01 561.21C213.995 561.409 214.913 561.778 215.766 562.318C216.627 562.858 217.333 563.63 217.882 564.634C218.431 565.628 218.706 566.92 218.706 568.511V583H214.558V580.017H214.388C214.113 580.566 213.701 581.106 213.152 581.636C212.603 582.167 211.897 582.607 211.036 582.957C210.174 583.308 209.142 583.483 207.939 583.483ZM208.862 580.074C210.036 580.074 211.04 579.842 211.874 579.378C212.716 578.914 213.356 578.308 213.791 577.56C214.236 576.802 214.459 575.992 214.459 575.131V572.318C214.307 572.47 214.014 572.612 213.578 572.744C213.152 572.867 212.664 572.976 212.115 573.071C211.566 573.156 211.031 573.237 210.51 573.312C209.989 573.379 209.554 573.436 209.203 573.483C208.379 573.587 207.626 573.762 206.945 574.009C206.272 574.255 205.732 574.61 205.325 575.074C204.928 575.528 204.729 576.134 204.729 576.892C204.729 577.943 205.117 578.739 205.893 579.278C206.67 579.809 207.66 580.074 208.862 580.074ZM233.511 591.636C231.778 591.636 230.286 591.409 229.036 590.955C227.796 590.5 226.782 589.899 225.996 589.151C225.21 588.402 224.623 587.583 224.235 586.693L227.886 585.188C228.141 585.604 228.482 586.045 228.908 586.509C229.344 586.982 229.931 587.384 230.67 587.716C231.418 588.047 232.379 588.213 233.553 588.213C235.163 588.213 236.494 587.82 237.545 587.034C238.596 586.258 239.121 585.017 239.121 583.312V579.023H238.852C238.596 579.487 238.227 580.003 237.744 580.571C237.27 581.139 236.617 581.632 235.783 582.048C234.95 582.465 233.866 582.673 232.531 582.673C230.807 582.673 229.254 582.271 227.871 581.466C226.498 580.652 225.409 579.454 224.604 577.872C223.809 576.281 223.411 574.326 223.411 572.006C223.411 569.686 223.804 567.697 224.59 566.04C225.386 564.383 226.475 563.114 227.857 562.233C229.24 561.343 230.807 560.898 232.559 560.898C233.913 560.898 235.007 561.125 235.84 561.58C236.674 562.025 237.322 562.545 237.786 563.142C238.26 563.739 238.624 564.264 238.88 564.719H239.192V561.182H243.354V583.483C243.354 585.358 242.919 586.897 242.048 588.099C241.176 589.302 239.997 590.192 238.511 590.77C237.033 591.348 235.367 591.636 233.511 591.636ZM233.468 579.151C234.69 579.151 235.722 578.866 236.565 578.298C237.417 577.721 238.061 576.897 238.496 575.827C238.942 574.747 239.164 573.455 239.164 571.949C239.164 570.481 238.946 569.188 238.511 568.071C238.075 566.954 237.436 566.082 236.593 565.457C235.75 564.823 234.709 564.506 233.468 564.506C232.19 564.506 231.124 564.837 230.272 565.5C229.42 566.153 228.776 567.044 228.34 568.17C227.914 569.297 227.701 570.557 227.701 571.949C227.701 573.379 227.919 574.634 228.354 575.713C228.79 576.793 229.434 577.635 230.286 578.241C231.148 578.848 232.209 579.151 233.468 579.151ZM258.454 583.44C256.304 583.44 254.453 582.981 252.9 582.062C251.356 581.134 250.163 579.832 249.32 578.156C248.487 576.471 248.07 574.496 248.07 572.233C248.07 569.998 248.487 568.028 249.32 566.324C250.163 564.619 251.337 563.289 252.843 562.332C254.358 561.376 256.129 560.898 258.156 560.898C259.387 560.898 260.58 561.101 261.735 561.509C262.89 561.916 263.927 562.555 264.846 563.426C265.764 564.297 266.489 565.429 267.019 566.821C267.549 568.204 267.815 569.884 267.815 571.864V573.369H250.471V570.188H263.653C263.653 569.07 263.425 568.08 262.971 567.219C262.516 566.348 261.877 565.661 261.053 565.159C260.239 564.657 259.282 564.406 258.184 564.406C256.991 564.406 255.949 564.7 255.059 565.287C254.178 565.865 253.496 566.622 253.013 567.56C252.54 568.488 252.303 569.496 252.303 570.585V573.071C252.303 574.529 252.559 575.77 253.07 576.793C253.591 577.815 254.316 578.597 255.244 579.136C256.172 579.667 257.256 579.932 258.496 579.932C259.301 579.932 260.035 579.818 260.698 579.591C261.361 579.354 261.934 579.004 262.417 578.54C262.9 578.076 263.269 577.503 263.525 576.821L267.545 577.545C267.223 578.729 266.645 579.766 265.812 580.656C264.988 581.537 263.951 582.223 262.701 582.716C261.46 583.199 260.045 583.44 258.454 583.44Z" fill="#252835"/>
</g>
<path d="M223.9 454.988C223.616 454.823 223.304 454.664 222.981 454.509C223.304 454.354 223.616 454.195 223.9 454.029C225.51 453.11 226.922 451.88 228.057 450.41C229.191 448.94 230.025 447.259 230.51 445.464C230.995 443.669 231.122 441.795 230.883 439.951C230.644 438.106 230.045 436.327 229.119 434.716C228.194 433.105 226.96 431.695 225.489 430.565C224.019 429.435 222.34 428.608 220.55 428.133C218.76 427.658 216.895 427.542 215.06 427.794C213.226 428.046 211.46 428.66 209.863 429.601C209.578 429.767 209.284 429.954 208.992 430.162C209.02 429.809 209.038 429.457 209.038 429.104C209.038 425.363 207.559 421.776 204.926 419.131C202.294 416.486 198.723 415 195 415C191.277 415 187.706 416.486 185.074 419.131C182.441 421.776 180.962 425.363 180.962 429.104C180.962 429.435 180.962 429.788 181.008 430.162C180.716 429.961 180.422 429.767 180.137 429.601C178.54 428.66 176.774 428.046 174.94 427.794C173.105 427.542 171.24 427.658 169.45 428.133C167.66 428.608 165.981 429.435 164.511 430.565C163.04 431.695 161.806 433.105 160.881 434.716C159.955 436.327 159.356 438.106 159.117 439.951C158.878 441.795 159.005 443.669 159.49 445.464C159.975 447.259 160.809 448.94 161.943 450.41C163.078 451.88 164.49 453.11 166.1 454.029C166.384 454.195 166.696 454.354 167.019 454.509C166.696 454.664 166.384 454.823 166.1 454.988C164.49 455.908 163.078 457.138 161.943 458.608C160.809 460.078 159.975 461.759 159.49 463.554C159.005 465.349 158.878 467.223 159.117 469.067C159.356 470.912 159.955 472.691 160.881 474.301C161.806 475.912 163.04 477.323 164.511 478.453C165.981 479.583 167.66 480.409 169.45 480.885C171.24 481.36 173.105 481.475 174.94 481.223C176.774 480.971 178.54 480.357 180.137 479.416C180.422 479.251 180.716 479.064 181.008 478.856C180.98 479.208 180.962 479.561 180.962 479.896C180.962 483.637 182.441 487.224 185.074 489.869C187.706 492.514 191.277 494 195 494C198.723 494 202.294 492.514 204.926 489.869C207.559 487.224 209.038 483.637 209.038 479.896C209.038 479.565 209.02 479.212 208.992 478.856C209.284 479.057 209.578 479.251 209.863 479.416C211.989 480.654 214.403 481.306 216.86 481.306C218.095 481.305 219.325 481.141 220.517 480.82C223.199 480.098 225.608 478.593 227.438 476.495C229.269 474.398 230.439 471.802 230.801 469.036C231.163 466.27 230.701 463.459 229.473 460.957C228.244 458.455 226.305 456.376 223.9 454.981V454.988ZM186.577 454.509C186.577 452.835 187.071 451.199 187.997 449.807C188.922 448.416 190.238 447.331 191.777 446.691C193.316 446.05 195.009 445.882 196.643 446.209C198.277 446.536 199.778 447.342 200.956 448.525C202.134 449.708 202.936 451.216 203.261 452.858C203.586 454.499 203.419 456.201 202.782 457.747C202.144 459.294 201.065 460.615 199.679 461.545C198.294 462.475 196.666 462.971 195 462.971C192.766 462.971 190.624 462.08 189.044 460.493C187.465 458.906 186.577 456.753 186.577 454.509ZM212.67 434.485C213.628 433.929 214.686 433.568 215.782 433.423C216.879 433.278 217.993 433.352 219.062 433.639C220.13 433.927 221.132 434.423 222.009 435.1C222.887 435.776 223.623 436.62 224.176 437.582C224.729 438.545 225.088 439.607 225.232 440.709C225.377 441.811 225.304 442.93 225.017 444.004C224.731 445.077 224.237 446.084 223.564 446.965C222.89 447.847 222.051 448.587 221.093 449.142C218.892 450.422 214.562 451.304 208.754 451.677C208.141 448.692 206.582 445.987 204.311 443.966C207.539 439.093 210.47 435.765 212.67 434.485ZM195 420.659C197.234 420.659 199.376 421.551 200.956 423.138C202.535 424.725 203.423 426.877 203.423 429.122C203.423 431.674 202.019 435.888 199.436 441.131C196.557 440.163 193.443 440.163 190.564 441.131C187.981 435.888 186.577 431.674 186.577 429.122C186.577 426.877 187.465 424.725 189.044 423.138C190.624 421.551 192.766 420.659 195 420.659ZM165.822 437.584C166.375 436.621 167.111 435.777 167.989 435.1C168.867 434.424 169.868 433.927 170.937 433.639C172.006 433.351 173.12 433.278 174.217 433.423C175.314 433.568 176.372 433.929 177.33 434.485C179.53 435.765 182.461 439.093 185.689 443.966C183.416 445.989 181.857 448.699 181.246 451.688C175.438 451.314 171.108 450.433 168.907 449.156C167.947 448.601 167.106 447.861 166.432 446.978C165.757 446.096 165.262 445.088 164.976 444.013C164.689 442.938 164.616 441.817 164.762 440.714C164.907 439.611 165.267 438.547 165.822 437.584ZM177.33 474.533C175.395 475.655 173.096 475.959 170.938 475.378C168.781 474.797 166.941 473.379 165.824 471.435C164.707 469.492 164.404 467.182 164.983 465.014C165.561 462.846 166.973 460.998 168.907 459.875C171.108 458.595 175.438 457.714 181.246 457.34C181.859 460.325 183.418 463.031 185.689 465.052C182.461 469.924 179.53 473.253 177.33 474.533ZM195 488.358C192.766 488.358 190.624 487.467 189.044 485.88C187.465 484.293 186.577 482.14 186.577 479.896C186.577 477.343 187.981 473.13 190.564 467.886C193.443 468.855 196.557 468.855 199.436 467.886C202.019 473.13 203.423 477.343 203.423 479.896C203.423 482.14 202.535 484.293 200.956 485.88C199.376 487.467 197.234 488.358 195 488.358ZM224.178 471.434C223.625 472.396 222.889 473.24 222.011 473.917C221.133 474.594 220.132 475.091 219.063 475.378C217.994 475.666 216.88 475.74 215.783 475.595C214.686 475.45 213.628 475.089 212.67 474.533C210.47 473.253 207.539 469.924 204.311 465.052C206.584 463.028 208.143 460.319 208.754 457.33C214.562 457.703 218.892 458.585 221.093 459.861C222.053 460.417 222.894 461.157 223.568 462.04C224.243 462.922 224.738 463.93 225.024 465.005C225.311 466.08 225.384 467.201 225.238 468.304C225.093 469.407 224.733 470.471 224.178 471.434Z" fill="#D0D0D0"/>
</g>
<defs>
<clipPath id="clip0_2_167">
<rect width="390" height="844" fill="white"/>
</clipPath>
</defs>
</svg>
