<svg width="375" height="812" viewBox="0 0 375 812" fill="none" xmlns="http://www.w3.org/2000/svg">
<rect width="375" height="812" rx="30" fill="#0F0F0F"/>
<g filter="url(#filter0_b_233_1629)">
<path d="M341 643H33C24.1634 643 17 650.163 17 659V715C17 723.837 24.1634 731 33 731H341C349.837 731 357 723.837 357 715V659C357 650.163 349.837 643 341 643Z" fill="#D9D9D9"/>
<path d="M312.375 702.458C311.84 701.924 311.573 701.243 311.573 700.417C311.573 699.59 311.84 698.91 312.375 698.375L323.75 687L312.375 675.625C311.84 675.09 311.573 674.41 311.573 673.583C311.573 672.757 311.84 672.076 312.375 671.542C312.91 671.007 313.59 670.74 314.417 670.74C315.243 670.74 315.924 671.007 316.458 671.542L329.875 684.958C330.167 685.25 330.374 685.566 330.496 685.906C330.619 686.247 330.679 686.611 330.677 687C330.677 687.389 330.616 687.753 330.493 688.094C330.371 688.434 330.165 688.75 329.875 689.042L316.458 702.458C315.924 702.993 315.243 703.26 314.417 703.26C313.59 703.26 312.91 702.993 312.375 702.458Z" fill="#FF9341"/>
<g style="mix-blend-mode:multiply">
<path d="M157.995 680.906C157.863 679.666 157.304 678.7 156.319 678.009C155.344 677.317 154.075 676.972 152.512 676.972C151.414 676.972 150.472 677.137 149.686 677.469C148.9 677.8 148.298 678.25 147.882 678.818C147.465 679.386 147.252 680.035 147.243 680.764C147.243 681.37 147.38 681.896 147.654 682.341C147.939 682.786 148.322 683.165 148.805 683.477C149.288 683.78 149.823 684.036 150.41 684.244C150.997 684.453 151.589 684.628 152.186 684.77L154.913 685.452C156.011 685.707 157.067 686.053 158.081 686.489C159.103 686.924 160.017 687.473 160.822 688.136C161.636 688.799 162.28 689.599 162.754 690.537C163.227 691.474 163.464 692.573 163.464 693.832C163.464 695.537 163.029 697.038 162.157 698.335C161.286 699.623 160.027 700.632 158.379 701.361C156.741 702.08 154.757 702.44 152.427 702.44C150.164 702.44 148.199 702.09 146.532 701.389C144.875 700.688 143.578 699.666 142.64 698.321C141.712 696.976 141.21 695.338 141.135 693.406H146.319C146.395 694.42 146.708 695.262 147.257 695.935C147.806 696.607 148.521 697.109 149.402 697.44C150.292 697.772 151.286 697.938 152.385 697.938C153.53 697.938 154.534 697.767 155.396 697.426C156.267 697.076 156.949 696.593 157.441 695.977C157.934 695.352 158.185 694.623 158.194 693.79C158.185 693.032 157.962 692.407 157.527 691.915C157.091 691.413 156.48 690.996 155.694 690.665C154.918 690.324 154.009 690.021 152.967 689.756L149.657 688.903C147.261 688.288 145.368 687.355 143.975 686.105C142.593 684.846 141.902 683.174 141.902 681.091C141.902 679.377 142.366 677.876 143.294 676.588C144.231 675.3 145.505 674.301 147.115 673.591C148.725 672.871 150.547 672.511 152.583 672.511C154.648 672.511 156.457 672.871 158.01 673.591C159.572 674.301 160.798 675.291 161.689 676.56C162.579 677.819 163.038 679.268 163.066 680.906H157.995ZM178.83 680.182V684.159H166.287V680.182H178.83ZM169.384 674.955H174.526V695.438C174.526 696.129 174.63 696.659 174.838 697.028C175.056 697.388 175.34 697.634 175.691 697.767C176.041 697.9 176.429 697.966 176.855 697.966C177.177 697.966 177.471 697.942 177.736 697.895C178.011 697.848 178.219 697.805 178.361 697.767L179.228 701.787C178.953 701.882 178.56 701.986 178.049 702.099C177.547 702.213 176.931 702.279 176.202 702.298C174.914 702.336 173.754 702.142 172.722 701.716C171.69 701.28 170.871 700.608 170.265 699.699C169.668 698.79 169.374 697.653 169.384 696.29V674.955ZM189.409 702.44C188.026 702.44 186.781 702.194 185.673 701.702C184.574 701.2 183.703 700.461 183.059 699.486C182.425 698.51 182.108 697.308 182.108 695.878C182.108 694.647 182.335 693.629 182.789 692.824C183.244 692.019 183.864 691.375 184.65 690.892C185.436 690.409 186.322 690.045 187.306 689.798C188.301 689.543 189.328 689.358 190.389 689.244C191.667 689.112 192.704 688.993 193.5 688.889C194.295 688.776 194.873 688.605 195.233 688.378C195.602 688.141 195.787 687.777 195.787 687.284V687.199C195.787 686.129 195.469 685.3 194.835 684.713C194.2 684.126 193.287 683.832 192.093 683.832C190.834 683.832 189.835 684.107 189.096 684.656C188.367 685.205 187.875 685.854 187.619 686.602L182.818 685.92C183.197 684.595 183.822 683.487 184.693 682.597C185.564 681.697 186.629 681.025 187.889 680.58C189.148 680.125 190.54 679.898 192.065 679.898C193.116 679.898 194.163 680.021 195.204 680.267C196.246 680.513 197.198 680.92 198.059 681.489C198.921 682.047 199.612 682.81 200.133 683.776C200.663 684.741 200.929 685.949 200.929 687.398V702H195.985V699.003H195.815C195.502 699.609 195.062 700.177 194.494 700.707C193.935 701.228 193.23 701.65 192.377 701.972C191.535 702.284 190.545 702.44 189.409 702.44ZM190.744 698.662C191.776 698.662 192.671 698.458 193.429 698.051C194.186 697.634 194.769 697.085 195.176 696.403C195.592 695.722 195.801 694.978 195.801 694.173V691.602C195.64 691.735 195.365 691.858 194.977 691.972C194.598 692.085 194.172 692.185 193.699 692.27C193.225 692.355 192.756 692.431 192.292 692.497C191.828 692.563 191.426 692.62 191.085 692.668C190.318 692.772 189.631 692.942 189.025 693.179C188.419 693.416 187.941 693.747 187.591 694.173C187.24 694.59 187.065 695.13 187.065 695.793C187.065 696.74 187.411 697.455 188.102 697.938C188.793 698.42 189.674 698.662 190.744 698.662ZM206.099 702V680.182H211.085V683.818H211.312C211.71 682.559 212.392 681.588 213.358 680.906C214.333 680.215 215.446 679.869 216.696 679.869C216.98 679.869 217.297 679.884 217.647 679.912C218.007 679.931 218.306 679.964 218.542 680.011V684.741C218.324 684.666 217.979 684.599 217.505 684.543C217.041 684.476 216.592 684.443 216.156 684.443C215.218 684.443 214.376 684.647 213.627 685.054C212.889 685.452 212.306 686.006 211.88 686.716C211.454 687.426 211.241 688.245 211.241 689.173V702H206.099ZM234.025 680.182V684.159H221.483V680.182H234.025ZM224.579 674.955H229.721V695.438C229.721 696.129 229.825 696.659 230.034 697.028C230.252 697.388 230.536 697.634 230.886 697.767C231.236 697.9 231.625 697.966 232.051 697.966C232.373 697.966 232.666 697.942 232.931 697.895C233.206 697.848 233.414 697.805 233.556 697.767L234.423 701.787C234.148 701.882 233.755 701.986 233.244 702.099C232.742 702.213 232.127 702.279 231.397 702.298C230.109 702.336 228.949 702.142 227.917 701.716C226.885 701.28 226.066 700.608 225.46 699.699C224.863 698.79 224.57 697.653 224.579 696.29V674.955Z" fill="#252835"/>
</g>
</g>
<g filter="url(#filter1_b_233_1629)">
<path d="M90.7585 137L80.9062 102.091H87.7074L93.9972 127.744H94.321L101.037 102.091H107.224L113.957 127.761H114.264L120.554 102.091H127.355L117.503 137H111.264L104.276 112.506H104.003L96.9972 137H90.7585ZM140.386 137.511C137.761 137.511 135.494 136.966 133.585 135.875C131.688 134.773 130.227 133.216 129.205 131.205C128.182 129.182 127.67 126.801 127.67 124.062C127.67 121.369 128.182 119.006 129.205 116.972C130.239 114.926 131.682 113.335 133.534 112.199C135.386 111.051 137.562 110.477 140.062 110.477C141.676 110.477 143.199 110.739 144.631 111.261C146.074 111.773 147.347 112.568 148.449 113.648C149.563 114.727 150.438 116.102 151.074 117.773C151.71 119.432 152.028 121.409 152.028 123.705V125.597H130.568V121.438H146.114C146.102 120.256 145.847 119.205 145.347 118.284C144.847 117.352 144.148 116.619 143.25 116.085C142.364 115.551 141.33 115.284 140.148 115.284C138.886 115.284 137.778 115.591 136.824 116.205C135.869 116.807 135.125 117.602 134.591 118.591C134.068 119.568 133.801 120.642 133.79 121.812V125.443C133.79 126.966 134.068 128.273 134.625 129.364C135.182 130.443 135.96 131.273 136.96 131.852C137.96 132.42 139.131 132.705 140.472 132.705C141.369 132.705 142.182 132.58 142.909 132.33C143.636 132.068 144.267 131.688 144.801 131.188C145.335 130.688 145.739 130.068 146.011 129.33L151.773 129.977C151.409 131.5 150.716 132.83 149.693 133.966C148.682 135.091 147.386 135.966 145.807 136.591C144.227 137.205 142.42 137.511 140.386 137.511ZM163.419 102.091V137H157.249V102.091H163.419ZM181.185 137.511C178.571 137.511 176.327 136.938 174.452 135.79C172.588 134.642 171.151 133.057 170.139 131.034C169.139 129 168.639 126.659 168.639 124.011C168.639 121.352 169.151 119.006 170.173 116.972C171.196 114.926 172.639 113.335 174.503 112.199C176.378 111.051 178.594 110.477 181.151 110.477C183.276 110.477 185.156 110.869 186.793 111.653C188.44 112.426 189.753 113.523 190.73 114.943C191.707 116.352 192.264 118 192.401 119.886H186.503C186.264 118.625 185.696 117.574 184.798 116.733C183.912 115.881 182.724 115.455 181.236 115.455C179.974 115.455 178.866 115.795 177.912 116.477C176.957 117.148 176.213 118.114 175.679 119.375C175.156 120.636 174.895 122.148 174.895 123.909C174.895 125.693 175.156 127.227 175.679 128.511C176.202 129.784 176.935 130.767 177.878 131.46C178.832 132.142 179.952 132.483 181.236 132.483C182.145 132.483 182.957 132.312 183.673 131.972C184.401 131.619 185.009 131.114 185.497 130.455C185.986 129.795 186.321 128.994 186.503 128.051H192.401C192.253 129.903 191.707 131.545 190.764 132.977C189.821 134.398 188.537 135.511 186.912 136.318C185.287 137.114 183.378 137.511 181.185 137.511ZM208.888 137.511C206.331 137.511 204.115 136.949 202.24 135.824C200.365 134.699 198.911 133.125 197.876 131.102C196.854 129.08 196.342 126.716 196.342 124.011C196.342 121.307 196.854 118.937 197.876 116.903C198.911 114.869 200.365 113.29 202.24 112.165C204.115 111.04 206.331 110.477 208.888 110.477C211.445 110.477 213.661 111.04 215.536 112.165C217.411 113.29 218.859 114.869 219.882 116.903C220.916 118.937 221.433 121.307 221.433 124.011C221.433 126.716 220.916 129.08 219.882 131.102C218.859 133.125 217.411 134.699 215.536 135.824C213.661 136.949 211.445 137.511 208.888 137.511ZM208.922 132.568C210.308 132.568 211.467 132.187 212.399 131.426C213.331 130.653 214.024 129.619 214.479 128.324C214.945 127.028 215.178 125.585 215.178 123.994C215.178 122.392 214.945 120.943 214.479 119.648C214.024 118.341 213.331 117.301 212.399 116.528C211.467 115.756 210.308 115.369 208.922 115.369C207.501 115.369 206.32 115.756 205.376 116.528C204.445 117.301 203.746 118.341 203.28 119.648C202.825 120.943 202.598 122.392 202.598 123.994C202.598 125.585 202.825 127.028 203.28 128.324C203.746 129.619 204.445 130.653 205.376 131.426C206.32 132.187 207.501 132.568 208.922 132.568ZM226.67 137V110.818H232.568V115.267H232.875C233.42 113.767 234.324 112.597 235.585 111.756C236.847 110.903 238.352 110.477 240.102 110.477C241.875 110.477 243.369 110.909 244.585 111.773C245.813 112.625 246.676 113.79 247.176 115.267H247.449C248.028 113.812 249.006 112.653 250.381 111.79C251.767 110.915 253.409 110.477 255.307 110.477C257.716 110.477 259.682 111.239 261.205 112.761C262.727 114.284 263.489 116.506 263.489 119.426V137H257.301V120.381C257.301 118.756 256.869 117.568 256.006 116.818C255.142 116.057 254.085 115.676 252.835 115.676C251.347 115.676 250.182 116.142 249.341 117.074C248.511 117.994 248.097 119.193 248.097 120.67V137H242.045V120.125C242.045 118.773 241.636 117.693 240.818 116.886C240.011 116.08 238.955 115.676 237.648 115.676C236.761 115.676 235.955 115.903 235.227 116.358C234.5 116.801 233.92 117.432 233.489 118.25C233.057 119.057 232.841 120 232.841 121.08V137H226.67ZM281.339 137.511C278.714 137.511 276.447 136.966 274.538 135.875C272.641 134.773 271.18 133.216 270.158 131.205C269.135 129.182 268.624 126.801 268.624 124.062C268.624 121.369 269.135 119.006 270.158 116.972C271.192 114.926 272.635 113.335 274.487 112.199C276.339 111.051 278.516 110.477 281.016 110.477C282.629 110.477 284.152 110.739 285.584 111.261C287.027 111.773 288.3 112.568 289.402 113.648C290.516 114.727 291.391 116.102 292.027 117.773C292.663 119.432 292.982 121.409 292.982 123.705V125.597H271.521V121.438H287.067C287.055 120.256 286.8 119.205 286.3 118.284C285.8 117.352 285.101 116.619 284.203 116.085C283.317 115.551 282.283 115.284 281.101 115.284C279.839 115.284 278.732 115.591 277.777 116.205C276.822 116.807 276.078 117.602 275.544 118.591C275.021 119.568 274.754 120.642 274.743 121.812V125.443C274.743 126.966 275.021 128.273 275.578 129.364C276.135 130.443 276.913 131.273 277.913 131.852C278.913 132.42 280.084 132.705 281.425 132.705C282.322 132.705 283.135 132.58 283.862 132.33C284.589 132.068 285.22 131.688 285.754 131.188C286.288 130.688 286.692 130.068 286.964 129.33L292.726 129.977C292.362 131.5 291.669 132.83 290.646 133.966C289.635 135.091 288.339 135.966 286.76 136.591C285.18 137.205 283.374 137.511 281.339 137.511ZM182.432 158.545V161.273H172.898V158.545H182.432ZM175.455 154.364H178.852V170.875C178.852 171.534 178.951 172.03 179.148 172.364C179.345 172.689 179.598 172.913 179.909 173.034C180.227 173.148 180.572 173.205 180.943 173.205C181.216 173.205 181.455 173.186 181.659 173.148C181.864 173.11 182.023 173.08 182.136 173.057L182.75 175.864C182.553 175.939 182.273 176.015 181.909 176.091C181.545 176.174 181.091 176.22 180.545 176.227C179.652 176.242 178.818 176.083 178.045 175.75C177.273 175.417 176.648 174.902 176.17 174.205C175.693 173.508 175.455 172.633 175.455 171.58V154.364ZM193.355 176.352C191.719 176.352 190.291 175.977 189.071 175.227C187.851 174.477 186.904 173.428 186.23 172.08C185.556 170.731 185.219 169.155 185.219 167.352C185.219 165.542 185.556 163.958 186.23 162.602C186.904 161.246 187.851 160.193 189.071 159.443C190.291 158.693 191.719 158.318 193.355 158.318C194.991 158.318 196.42 158.693 197.639 159.443C198.859 160.193 199.806 161.246 200.48 162.602C201.154 163.958 201.491 165.542 201.491 167.352C201.491 169.155 201.154 170.731 200.48 172.08C199.806 173.428 198.859 174.477 197.639 175.227C196.42 175.977 194.991 176.352 193.355 176.352ZM193.366 173.5C194.427 173.5 195.306 173.22 196.003 172.659C196.7 172.098 197.215 171.352 197.548 170.42C197.889 169.489 198.06 168.462 198.06 167.341C198.06 166.227 197.889 165.205 197.548 164.273C197.215 163.333 196.7 162.58 196.003 162.011C195.306 161.443 194.427 161.159 193.366 161.159C192.298 161.159 191.412 161.443 190.707 162.011C190.01 162.58 189.491 163.333 189.151 164.273C188.817 165.205 188.651 166.227 188.651 167.341C188.651 168.462 188.817 169.489 189.151 170.42C189.491 171.352 190.01 172.098 190.707 172.659C191.412 173.22 192.298 173.5 193.366 173.5ZM172.776 197.545V200.273H163.241V197.545H172.776ZM165.798 193.364H169.196V209.875C169.196 210.534 169.295 211.03 169.491 211.364C169.688 211.689 169.942 211.913 170.253 212.034C170.571 212.148 170.916 212.205 171.287 212.205C171.56 212.205 171.798 212.186 172.003 212.148C172.207 212.11 172.366 212.08 172.48 212.057L173.094 214.864C172.897 214.939 172.616 215.015 172.253 215.091C171.889 215.174 171.435 215.22 170.889 215.227C169.995 215.242 169.162 215.083 168.389 214.75C167.616 214.417 166.991 213.902 166.514 213.205C166.037 212.508 165.798 211.633 165.798 210.58V193.364ZM180.307 204.636V215H176.909V191.727H180.261V200.386H180.477C180.886 199.447 181.511 198.701 182.352 198.148C183.193 197.595 184.292 197.318 185.648 197.318C186.845 197.318 187.89 197.564 188.784 198.057C189.686 198.549 190.383 199.284 190.875 200.261C191.375 201.231 191.625 202.443 191.625 203.898V215H188.227V204.307C188.227 203.027 187.898 202.034 187.239 201.33C186.58 200.617 185.663 200.261 184.489 200.261C183.686 200.261 182.966 200.432 182.33 200.773C181.701 201.114 181.205 201.614 180.841 202.273C180.485 202.924 180.307 203.712 180.307 204.636ZM203.682 215.352C201.962 215.352 200.481 214.985 199.239 214.25C198.004 213.508 197.049 212.466 196.375 211.125C195.708 209.777 195.375 208.197 195.375 206.386C195.375 204.598 195.708 203.023 196.375 201.659C197.049 200.295 197.989 199.231 199.193 198.466C200.405 197.701 201.822 197.318 203.443 197.318C204.428 197.318 205.383 197.481 206.307 197.807C207.231 198.133 208.061 198.644 208.795 199.341C209.53 200.038 210.11 200.943 210.534 202.057C210.958 203.163 211.17 204.508 211.17 206.091V207.295H197.295V204.75H207.841C207.841 203.856 207.659 203.064 207.295 202.375C206.932 201.678 206.42 201.129 205.761 200.727C205.11 200.326 204.345 200.125 203.466 200.125C202.511 200.125 201.678 200.36 200.966 200.83C200.261 201.292 199.716 201.898 199.33 202.648C198.951 203.39 198.761 204.197 198.761 205.068V207.057C198.761 208.223 198.966 209.216 199.375 210.034C199.792 210.852 200.371 211.477 201.114 211.909C201.856 212.333 202.723 212.545 203.716 212.545C204.36 212.545 204.947 212.455 205.477 212.273C206.008 212.083 206.466 211.803 206.852 211.432C207.239 211.061 207.534 210.602 207.739 210.057L210.955 210.636C210.697 211.583 210.235 212.413 209.568 213.125C208.909 213.83 208.08 214.379 207.08 214.773C206.087 215.159 204.955 215.352 203.682 215.352ZM137.87 238.091H143.154V261.051C143.154 263.494 142.58 265.659 141.433 267.545C140.285 269.42 138.671 270.898 136.592 271.977C134.512 273.045 132.075 273.58 129.279 273.58C126.495 273.58 124.063 273.045 121.984 271.977C119.904 270.898 118.29 269.42 117.143 267.545C115.995 265.659 115.421 263.494 115.421 261.051V238.091H120.688V260.625C120.688 262.205 121.035 263.608 121.728 264.835C122.433 266.062 123.427 267.028 124.711 267.733C125.995 268.426 127.518 268.773 129.279 268.773C131.052 268.773 132.58 268.426 133.864 267.733C135.16 267.028 136.148 266.062 136.83 264.835C137.523 263.608 137.87 262.205 137.87 260.625V238.091ZM155.499 257.455V273H150.403V246.818H155.295V251.08H155.619C156.221 249.693 157.164 248.58 158.448 247.739C159.744 246.898 161.374 246.477 163.34 246.477C165.124 246.477 166.687 246.852 168.028 247.602C169.369 248.341 170.408 249.443 171.147 250.909C171.886 252.375 172.255 254.187 172.255 256.347V273H167.158V256.96C167.158 255.062 166.664 253.58 165.675 252.511C164.687 251.432 163.329 250.892 161.602 250.892C160.42 250.892 159.369 251.148 158.448 251.659C157.539 252.17 156.817 252.92 156.283 253.909C155.761 254.886 155.499 256.068 155.499 257.455ZM179.09 273V246.818H184.187V273H179.09ZM181.664 242.778C180.778 242.778 180.016 242.483 179.38 241.892C178.755 241.29 178.442 240.574 178.442 239.744C178.442 238.903 178.755 238.187 179.38 237.597C180.016 236.994 180.778 236.693 181.664 236.693C182.55 236.693 183.306 236.994 183.931 237.597C184.567 238.187 184.886 238.903 184.886 239.744C184.886 240.574 184.567 241.29 183.931 241.892C183.306 242.483 182.55 242.778 181.664 242.778ZM203.265 246.818V250.909H188.964V246.818H203.265ZM192.799 240.545H197.896V265.312C197.896 266.301 198.043 267.045 198.339 267.545C198.634 268.034 199.015 268.369 199.481 268.551C199.958 268.722 200.475 268.807 201.032 268.807C201.441 268.807 201.799 268.778 202.106 268.722C202.413 268.665 202.651 268.619 202.822 268.585L203.742 272.795C203.447 272.909 203.026 273.023 202.481 273.136C201.935 273.261 201.254 273.33 200.435 273.341C199.094 273.364 197.844 273.125 196.685 272.625C195.526 272.125 194.589 271.352 193.873 270.307C193.157 269.261 192.799 267.949 192.799 266.369V240.545ZM219.906 273.528C217.326 273.528 215.104 272.977 213.241 271.875C211.388 270.761 209.957 269.199 208.945 267.188C207.945 265.165 207.445 262.795 207.445 260.08C207.445 257.398 207.945 255.034 208.945 252.989C209.957 250.943 211.366 249.347 213.173 248.199C214.991 247.051 217.116 246.477 219.548 246.477C221.025 246.477 222.457 246.722 223.843 247.21C225.229 247.699 226.474 248.466 227.576 249.511C228.678 250.557 229.548 251.915 230.184 253.585C230.82 255.244 231.138 257.261 231.138 259.636V261.443H210.326V257.625H226.144C226.144 256.284 225.871 255.097 225.326 254.062C224.781 253.017 224.013 252.193 223.025 251.591C222.048 250.989 220.9 250.688 219.582 250.688C218.15 250.688 216.9 251.04 215.832 251.744C214.775 252.437 213.957 253.347 213.377 254.472C212.809 255.585 212.525 256.795 212.525 258.102V261.085C212.525 262.835 212.832 264.324 213.445 265.551C214.07 266.778 214.94 267.716 216.053 268.364C217.167 269 218.468 269.318 219.957 269.318C220.923 269.318 221.803 269.182 222.599 268.909C223.394 268.625 224.082 268.205 224.661 267.648C225.241 267.091 225.684 266.403 225.991 265.585L230.815 266.455C230.428 267.875 229.735 269.119 228.735 270.188C227.746 271.244 226.502 272.068 225.002 272.659C223.513 273.239 221.815 273.528 219.906 273.528ZM246.594 273.511C244.481 273.511 242.594 272.972 240.935 271.892C239.288 270.801 237.992 269.25 237.049 267.239C236.117 265.216 235.651 262.79 235.651 259.96C235.651 257.131 236.123 254.71 237.066 252.699C238.021 250.687 239.327 249.148 240.987 248.08C242.646 247.011 244.526 246.477 246.629 246.477C248.254 246.477 249.56 246.75 250.549 247.295C251.549 247.83 252.322 248.455 252.867 249.17C253.424 249.886 253.856 250.517 254.163 251.062H254.469V238.091H259.566V273H254.589V268.926H254.163C253.856 269.483 253.413 270.119 252.833 270.835C252.265 271.551 251.481 272.176 250.481 272.71C249.481 273.244 248.185 273.511 246.594 273.511ZM247.719 269.165C249.185 269.165 250.424 268.778 251.435 268.006C252.458 267.222 253.231 266.136 253.754 264.75C254.288 263.364 254.555 261.75 254.555 259.909C254.555 258.091 254.293 256.5 253.771 255.136C253.248 253.773 252.481 252.71 251.469 251.949C250.458 251.187 249.208 250.807 247.719 250.807C246.185 250.807 244.907 251.205 243.884 252C242.862 252.795 242.089 253.881 241.566 255.256C241.055 256.631 240.799 258.182 240.799 259.909C240.799 261.659 241.06 263.233 241.583 264.631C242.106 266.028 242.879 267.136 243.901 267.955C244.935 268.761 246.208 269.165 247.719 269.165ZM38.7102 331V296.091H60.358V300.625H43.9773V311.261H58.8068V315.778H43.9773V331H38.7102ZM66.4261 331V304.818H71.5227V331H66.4261ZM69 300.778C68.1136 300.778 67.3523 300.483 66.7159 299.892C66.0909 299.29 65.7784 298.574 65.7784 297.744C65.7784 296.903 66.0909 296.187 66.7159 295.597C67.3523 294.994 68.1136 294.693 69 294.693C69.8864 294.693 70.642 294.994 71.267 295.597C71.9034 296.187 72.2216 296.903 72.2216 297.744C72.2216 298.574 71.9034 299.29 71.267 299.892C70.642 300.483 69.8864 300.778 69 300.778ZM78.3793 331V304.818H83.3054V308.977H83.5781C84.0554 307.568 84.8963 306.46 86.1009 305.653C87.3168 304.835 88.6918 304.426 90.2259 304.426C90.544 304.426 90.919 304.437 91.3509 304.46C91.794 304.483 92.1406 304.511 92.3906 304.545V309.42C92.1861 309.364 91.8224 309.301 91.2997 309.233C90.777 309.153 90.2543 309.114 89.7315 309.114C88.527 309.114 87.4531 309.369 86.5099 309.881C85.5781 310.381 84.8395 311.08 84.294 311.977C83.7486 312.864 83.4759 313.875 83.4759 315.011V331H78.3793ZM116.42 311.21L111.801 312.028C111.608 311.437 111.301 310.875 110.881 310.341C110.472 309.807 109.915 309.369 109.21 309.028C108.506 308.687 107.625 308.517 106.568 308.517C105.125 308.517 103.92 308.841 102.955 309.489C101.989 310.125 101.506 310.949 101.506 311.96C101.506 312.835 101.83 313.54 102.477 314.074C103.125 314.608 104.17 315.045 105.614 315.386L109.773 316.341C112.182 316.898 113.977 317.756 115.159 318.915C116.341 320.074 116.932 321.58 116.932 323.432C116.932 325 116.477 326.398 115.568 327.625C114.67 328.841 113.415 329.795 111.801 330.489C110.199 331.182 108.341 331.528 106.227 331.528C103.295 331.528 100.903 330.903 99.0511 329.653C97.1989 328.392 96.0625 326.602 95.642 324.284L100.568 323.534C100.875 324.818 101.506 325.79 102.46 326.449C103.415 327.097 104.659 327.42 106.193 327.42C107.864 327.42 109.199 327.074 110.199 326.381C111.199 325.676 111.699 324.818 111.699 323.807C111.699 322.989 111.392 322.301 110.778 321.744C110.176 321.187 109.25 320.767 108 320.483L103.568 319.511C101.125 318.955 99.3182 318.068 98.1477 316.852C96.9886 315.636 96.4091 314.097 96.4091 312.233C96.4091 310.687 96.8409 309.335 97.7045 308.176C98.5682 307.017 99.7614 306.114 101.284 305.466C102.807 304.807 104.551 304.477 106.517 304.477C109.347 304.477 111.574 305.091 113.199 306.318C114.824 307.534 115.898 309.165 116.42 311.21ZM134.757 304.818V308.909H120.456V304.818H134.757ZM124.291 298.545H129.388V323.312C129.388 324.301 129.536 325.045 129.831 325.545C130.126 326.034 130.507 326.369 130.973 326.551C131.45 326.722 131.967 326.807 132.524 326.807C132.933 326.807 133.291 326.778 133.598 326.722C133.905 326.665 134.143 326.619 134.314 326.585L135.234 330.795C134.939 330.909 134.518 331.023 133.973 331.136C133.428 331.261 132.746 331.33 131.928 331.341C130.587 331.364 129.337 331.125 128.178 330.625C127.018 330.125 126.081 329.352 125.365 328.307C124.649 327.261 124.291 325.949 124.291 324.369V298.545ZM181.683 296.091V331H176.842L159.098 305.398H158.774V331H153.507V296.091H158.382L176.143 321.727H176.467V296.091H181.683ZM196.577 331.58C194.918 331.58 193.418 331.273 192.077 330.659C190.736 330.034 189.673 329.131 188.889 327.949C188.116 326.767 187.73 325.318 187.73 323.602C187.73 322.125 188.014 320.909 188.582 319.955C189.151 319 189.918 318.244 190.884 317.688C191.849 317.131 192.929 316.71 194.122 316.426C195.315 316.142 196.531 315.926 197.77 315.778C199.338 315.597 200.611 315.449 201.588 315.335C202.565 315.21 203.276 315.011 203.719 314.739C204.162 314.466 204.384 314.023 204.384 313.409V313.29C204.384 311.801 203.963 310.648 203.122 309.83C202.293 309.011 201.054 308.602 199.406 308.602C197.69 308.602 196.338 308.983 195.349 309.744C194.372 310.494 193.696 311.33 193.321 312.25L188.531 311.159C189.099 309.568 189.929 308.284 191.02 307.307C192.122 306.318 193.389 305.602 194.821 305.159C196.253 304.705 197.759 304.477 199.338 304.477C200.384 304.477 201.491 304.602 202.662 304.852C203.844 305.091 204.946 305.534 205.969 306.182C207.003 306.83 207.849 307.756 208.509 308.96C209.168 310.153 209.497 311.705 209.497 313.614V331H204.52V327.42H204.315C203.986 328.08 203.491 328.727 202.832 329.364C202.173 330 201.327 330.528 200.293 330.949C199.259 331.369 198.02 331.58 196.577 331.58ZM197.685 327.489C199.094 327.489 200.298 327.21 201.298 326.653C202.31 326.097 203.077 325.369 203.599 324.472C204.134 323.562 204.401 322.591 204.401 321.557V318.182C204.219 318.364 203.866 318.534 203.344 318.693C202.832 318.841 202.247 318.972 201.588 319.085C200.929 319.187 200.287 319.284 199.662 319.375C199.037 319.455 198.514 319.523 198.094 319.58C197.105 319.705 196.202 319.915 195.384 320.21C194.577 320.506 193.929 320.932 193.44 321.489C192.963 322.034 192.724 322.761 192.724 323.67C192.724 324.932 193.19 325.886 194.122 326.534C195.054 327.17 196.241 327.489 197.685 327.489ZM228.507 304.818V308.909H214.206V304.818H228.507ZM218.041 298.545H223.138V323.312C223.138 324.301 223.286 325.045 223.581 325.545C223.876 326.034 224.257 326.369 224.723 326.551C225.2 326.722 225.717 326.807 226.274 326.807C226.683 326.807 227.041 326.778 227.348 326.722C227.655 326.665 227.893 326.619 228.064 326.585L228.984 330.795C228.689 330.909 228.268 331.023 227.723 331.136C227.178 331.261 226.496 331.33 225.678 331.341C224.337 331.364 223.087 331.125 221.928 330.625C220.768 330.125 219.831 329.352 219.115 328.307C218.399 327.261 218.041 325.949 218.041 324.369V298.545ZM234.145 331V304.818H239.241V331H234.145ZM236.719 300.778C235.832 300.778 235.071 300.483 234.435 299.892C233.81 299.29 233.497 298.574 233.497 297.744C233.497 296.903 233.81 296.187 234.435 295.597C235.071 294.994 235.832 294.693 236.719 294.693C237.605 294.693 238.361 294.994 238.986 295.597C239.622 296.187 239.94 296.903 239.94 297.744C239.94 298.574 239.622 299.29 238.986 299.892C238.361 300.483 237.605 300.778 236.719 300.778ZM257.126 331.528C254.672 331.528 252.53 330.966 250.7 329.841C248.871 328.716 247.45 327.142 246.439 325.119C245.428 323.097 244.922 320.733 244.922 318.028C244.922 315.312 245.428 312.937 246.439 310.903C247.45 308.869 248.871 307.29 250.7 306.165C252.53 305.04 254.672 304.477 257.126 304.477C259.581 304.477 261.723 305.04 263.553 306.165C265.382 307.29 266.803 308.869 267.814 310.903C268.825 312.937 269.331 315.312 269.331 318.028C269.331 320.733 268.825 323.097 267.814 325.119C266.803 327.142 265.382 328.716 263.553 329.841C261.723 330.966 259.581 331.528 257.126 331.528ZM257.143 327.25C258.734 327.25 260.053 326.83 261.098 325.989C262.143 325.148 262.916 324.028 263.416 322.631C263.928 321.233 264.183 319.693 264.183 318.011C264.183 316.341 263.928 314.807 263.416 313.409C262.916 312 262.143 310.869 261.098 310.017C260.053 309.165 258.734 308.739 257.143 308.739C255.541 308.739 254.212 309.165 253.155 310.017C252.109 310.869 251.331 312 250.82 313.409C250.32 314.807 250.07 316.341 250.07 318.011C250.07 319.693 250.32 321.233 250.82 322.631C251.331 324.028 252.109 325.148 253.155 325.989C254.212 326.83 255.541 327.25 257.143 327.25ZM280.116 315.455V331H275.02V304.818H279.912V309.08H280.236C280.838 307.693 281.781 306.58 283.065 305.739C284.361 304.898 285.991 304.477 287.957 304.477C289.741 304.477 291.304 304.852 292.645 305.602C293.986 306.341 295.026 307.443 295.764 308.909C296.503 310.375 296.872 312.187 296.872 314.347V331H291.776V314.96C291.776 313.062 291.281 311.58 290.293 310.511C289.304 309.432 287.946 308.892 286.219 308.892C285.037 308.892 283.986 309.148 283.065 309.659C282.156 310.17 281.435 310.92 280.901 311.909C280.378 312.886 280.116 314.068 280.116 315.455ZM323.327 311.21L318.707 312.028C318.514 311.437 318.207 310.875 317.787 310.341C317.378 309.807 316.821 309.369 316.116 309.028C315.412 308.687 314.531 308.517 313.474 308.517C312.031 308.517 310.827 308.841 309.861 309.489C308.895 310.125 308.412 310.949 308.412 311.96C308.412 312.835 308.736 313.54 309.384 314.074C310.031 314.608 311.077 315.045 312.52 315.386L316.679 316.341C319.088 316.898 320.884 317.756 322.065 318.915C323.247 320.074 323.838 321.58 323.838 323.432C323.838 325 323.384 326.398 322.474 327.625C321.577 328.841 320.321 329.795 318.707 330.489C317.105 331.182 315.247 331.528 313.134 331.528C310.202 331.528 307.81 330.903 305.957 329.653C304.105 328.392 302.969 326.602 302.548 324.284L307.474 323.534C307.781 324.818 308.412 325.79 309.366 326.449C310.321 327.097 311.565 327.42 313.099 327.42C314.77 327.42 316.105 327.074 317.105 326.381C318.105 325.676 318.605 324.818 318.605 323.807C318.605 322.989 318.298 322.301 317.685 321.744C317.082 321.187 316.156 320.767 314.906 320.483L310.474 319.511C308.031 318.955 306.224 318.068 305.054 316.852C303.895 315.636 303.315 314.097 303.315 312.233C303.315 310.687 303.747 309.335 304.611 308.176C305.474 307.017 306.668 306.114 308.19 305.466C309.713 304.807 311.457 304.477 313.423 304.477C316.253 304.477 318.48 305.091 320.105 306.318C321.73 307.534 322.804 309.165 323.327 311.21ZM335.868 296.091L335.425 320.96H330.703L330.26 296.091H335.868ZM333.072 331.324C332.129 331.324 331.322 330.994 330.652 330.335C329.982 329.665 329.652 328.858 329.663 327.915C329.652 326.983 329.982 326.187 330.652 325.528C331.322 324.858 332.129 324.523 333.072 324.523C333.993 324.523 334.788 324.858 335.459 325.528C336.129 326.187 336.47 326.983 336.482 327.915C336.47 328.54 336.305 329.114 335.987 329.636C335.68 330.148 335.271 330.557 334.76 330.864C334.249 331.17 333.686 331.324 333.072 331.324Z" fill="#D0D0D0"/>
</g>
<g filter="url(#filter2_b_233_1629)">
<path d="M301 534H74C65.1634 534 58 541.163 58 550V585C58 593.837 65.1634 601 74 601H301C309.837 601 317 593.837 317 585V550C317 541.163 309.837 534 301 534Z" fill="#D9D9D9"/>
<path d="M284.611 580.15C284.204 579.742 284 579.224 284 578.595C284 577.966 284.204 577.448 284.611 577.041L293.276 568.38L284.611 559.72C284.204 559.312 284 558.794 284 558.165C284 557.536 284.204 557.018 284.611 556.611C285.018 556.204 285.537 556 286.166 556C286.796 556 287.314 556.204 287.722 556.611L297.942 566.826C298.164 567.048 298.322 567.288 298.415 567.547C298.508 567.806 298.554 568.084 298.553 568.38C298.553 568.676 298.506 568.954 298.413 569.213C298.32 569.472 298.163 569.712 297.942 569.935L287.722 580.15C287.314 580.557 286.796 580.76 286.166 580.76C285.537 580.76 285.018 580.557 284.611 580.15Z" fill="#FF9341"/>
<g style="mix-blend-mode:multiply">
<path d="M91.9741 581V554.818H95.9244V577.599H107.788V581H91.9741ZM117.702 581.435C116.458 581.435 115.333 581.205 114.327 580.744C113.321 580.276 112.525 579.598 111.936 578.712C111.357 577.825 111.067 576.739 111.067 575.452C111.067 574.344 111.28 573.432 111.706 572.716C112.132 572 112.708 571.433 113.432 571.016C114.157 570.598 114.966 570.283 115.861 570.07C116.756 569.857 117.668 569.695 118.597 569.584C119.773 569.447 120.728 569.337 121.461 569.251C122.194 569.158 122.726 569.009 123.059 568.804C123.391 568.599 123.557 568.267 123.557 567.807V567.717C123.557 566.601 123.242 565.736 122.611 565.122C121.989 564.509 121.06 564.202 119.824 564.202C118.537 564.202 117.523 564.487 116.782 565.058C116.049 565.621 115.542 566.247 115.26 566.938L111.668 566.119C112.094 564.926 112.716 563.963 113.534 563.23C114.361 562.489 115.311 561.952 116.385 561.619C117.459 561.278 118.588 561.108 119.773 561.108C120.557 561.108 121.388 561.202 122.266 561.389C123.152 561.568 123.979 561.901 124.746 562.386C125.522 562.872 126.157 563.567 126.651 564.47C127.145 565.365 127.392 566.528 127.392 567.96V581H123.659V578.315H123.506C123.259 578.81 122.888 579.295 122.394 579.773C121.9 580.25 121.265 580.646 120.489 580.962C119.713 581.277 118.784 581.435 117.702 581.435ZM118.533 578.366C119.59 578.366 120.493 578.158 121.243 577.74C122.002 577.322 122.577 576.777 122.969 576.104C123.37 575.422 123.57 574.693 123.57 573.918V571.386C123.434 571.523 123.169 571.651 122.777 571.77C122.394 571.881 121.955 571.979 121.461 572.064C120.966 572.141 120.485 572.213 120.016 572.281C119.547 572.341 119.155 572.392 118.84 572.435C118.098 572.528 117.421 572.686 116.807 572.908C116.202 573.129 115.716 573.449 115.35 573.866C114.992 574.276 114.813 574.821 114.813 575.503C114.813 576.449 115.162 577.165 115.861 577.651C116.56 578.128 117.451 578.366 118.533 578.366ZM136.306 569.341V581H132.484V561.364H136.153V564.56H136.396C136.847 563.52 137.555 562.685 138.518 562.054C139.489 561.423 140.712 561.108 142.187 561.108C143.525 561.108 144.697 561.389 145.702 561.952C146.708 562.506 147.488 563.332 148.042 564.432C148.596 565.531 148.873 566.891 148.873 568.51V581H145.05V568.97C145.05 567.547 144.68 566.435 143.938 565.634C143.197 564.824 142.178 564.419 140.883 564.419C139.996 564.419 139.208 564.611 138.518 564.994C137.836 565.378 137.295 565.94 136.894 566.682C136.502 567.415 136.306 568.301 136.306 569.341ZM162.232 588.773C160.673 588.773 159.33 588.568 158.205 588.159C157.089 587.75 156.177 587.209 155.469 586.536C154.762 585.862 154.234 585.125 153.884 584.324L157.17 582.969C157.4 583.344 157.707 583.74 158.09 584.158C158.482 584.584 159.011 584.946 159.675 585.244C160.349 585.543 161.214 585.692 162.271 585.692C163.719 585.692 164.917 585.338 165.863 584.631C166.809 583.932 167.282 582.815 167.282 581.281V577.42H167.039C166.809 577.838 166.477 578.303 166.042 578.814C165.616 579.325 165.028 579.768 164.278 580.143C163.528 580.518 162.552 580.706 161.35 580.706C159.799 580.706 158.401 580.344 157.157 579.619C155.921 578.886 154.941 577.808 154.217 576.385C153.501 574.953 153.143 573.193 153.143 571.105C153.143 569.017 153.496 567.227 154.204 565.736C154.92 564.244 155.9 563.102 157.144 562.31C158.388 561.509 159.799 561.108 161.376 561.108C162.594 561.108 163.579 561.312 164.329 561.722C165.079 562.122 165.663 562.591 166.08 563.128C166.506 563.665 166.835 564.138 167.065 564.547H167.346V561.364H171.092V581.435C171.092 583.122 170.7 584.507 169.915 585.589C169.131 586.672 168.07 587.473 166.732 587.993C165.403 588.513 163.903 588.773 162.232 588.773ZM162.194 577.536C163.293 577.536 164.222 577.28 164.981 576.768C165.748 576.249 166.327 575.507 166.719 574.544C167.12 573.572 167.32 572.409 167.32 571.054C167.32 569.733 167.124 568.57 166.732 567.564C166.34 566.558 165.765 565.774 165.006 565.212C164.248 564.641 163.31 564.355 162.194 564.355C161.043 564.355 160.085 564.653 159.317 565.25C158.55 565.838 157.971 566.639 157.579 567.653C157.195 568.668 157.004 569.801 157.004 571.054C157.004 572.341 157.2 573.47 157.592 574.442C157.984 575.413 158.563 576.172 159.33 576.717C160.106 577.263 161.06 577.536 162.194 577.536ZM188.657 572.857V561.364H192.492V581H188.734V577.599H188.529C188.077 578.648 187.353 579.521 186.356 580.22C185.367 580.911 184.136 581.256 182.661 581.256C181.4 581.256 180.283 580.979 179.312 580.425C178.349 579.862 177.59 579.031 177.036 577.932C176.491 576.832 176.218 575.473 176.218 573.854V561.364H180.04V573.393C180.04 574.732 180.411 575.797 181.153 576.589C181.894 577.382 182.857 577.778 184.042 577.778C184.758 577.778 185.469 577.599 186.177 577.241C186.893 576.884 187.485 576.342 187.954 575.618C188.431 574.893 188.665 573.973 188.657 572.857ZM203.343 581.435C202.098 581.435 200.973 581.205 199.968 580.744C198.962 580.276 198.165 579.598 197.577 578.712C196.998 577.825 196.708 576.739 196.708 575.452C196.708 574.344 196.921 573.432 197.347 572.716C197.773 572 198.348 571.433 199.073 571.016C199.797 570.598 200.607 570.283 201.502 570.07C202.397 569.857 203.309 569.695 204.238 569.584C205.414 569.447 206.368 569.337 207.101 569.251C207.834 569.158 208.367 569.009 208.699 568.804C209.032 568.599 209.198 568.267 209.198 567.807V567.717C209.198 566.601 208.882 565.736 208.252 565.122C207.63 564.509 206.701 564.202 205.465 564.202C204.178 564.202 203.164 564.487 202.422 565.058C201.689 565.621 201.182 566.247 200.901 566.938L197.309 566.119C197.735 564.926 198.357 563.963 199.175 563.23C200.002 562.489 200.952 561.952 202.026 561.619C203.1 561.278 204.229 561.108 205.414 561.108C206.198 561.108 207.029 561.202 207.907 561.389C208.793 561.568 209.62 561.901 210.387 562.386C211.162 562.872 211.797 563.567 212.292 564.47C212.786 565.365 213.033 566.528 213.033 567.96V581H209.3V578.315H209.147C208.9 578.81 208.529 579.295 208.034 579.773C207.54 580.25 206.905 580.646 206.13 580.962C205.354 581.277 204.425 581.435 203.343 581.435ZM204.174 578.366C205.23 578.366 206.134 578.158 206.884 577.74C207.642 577.322 208.218 576.777 208.61 576.104C209.01 575.422 209.211 574.693 209.211 573.918V571.386C209.074 571.523 208.81 571.651 208.418 571.77C208.034 571.881 207.596 571.979 207.101 572.064C206.607 572.141 206.125 572.213 205.657 572.281C205.188 572.341 204.796 572.392 204.48 572.435C203.739 572.528 203.061 572.686 202.448 572.908C201.843 573.129 201.357 573.449 200.99 573.866C200.632 574.276 200.453 574.821 200.453 575.503C200.453 576.449 200.803 577.165 201.502 577.651C202.201 578.128 203.091 578.366 204.174 578.366ZM226.357 588.773C224.798 588.773 223.455 588.568 222.33 588.159C221.214 587.75 220.302 587.209 219.594 586.536C218.887 585.862 218.359 585.125 218.009 584.324L221.295 582.969C221.525 583.344 221.832 583.74 222.215 584.158C222.607 584.584 223.136 584.946 223.8 585.244C224.474 585.543 225.339 585.692 226.396 585.692C227.844 585.692 229.042 585.338 229.988 584.631C230.934 583.932 231.407 582.815 231.407 581.281V577.42H231.164C230.934 577.838 230.602 578.303 230.167 578.814C229.741 579.325 229.153 579.768 228.403 580.143C227.653 580.518 226.677 580.706 225.475 580.706C223.924 580.706 222.526 580.344 221.282 579.619C220.046 578.886 219.066 577.808 218.342 576.385C217.626 574.953 217.268 573.193 217.268 571.105C217.268 569.017 217.621 567.227 218.329 565.736C219.045 564.244 220.025 563.102 221.269 562.31C222.513 561.509 223.924 561.108 225.501 561.108C226.719 561.108 227.704 561.312 228.454 561.722C229.204 562.122 229.788 562.591 230.205 563.128C230.631 563.665 230.96 564.138 231.19 564.547H231.471V561.364H235.217V581.435C235.217 583.122 234.825 584.507 234.04 585.589C233.256 586.672 232.195 587.473 230.857 587.993C229.528 588.513 228.028 588.773 226.357 588.773ZM226.319 577.536C227.418 577.536 228.347 577.28 229.106 576.768C229.873 576.249 230.452 575.507 230.844 574.544C231.245 573.572 231.445 572.409 231.445 571.054C231.445 569.733 231.249 568.57 230.857 567.564C230.465 566.558 229.89 565.774 229.131 565.212C228.373 564.641 227.435 564.355 226.319 564.355C225.168 564.355 224.21 564.653 223.442 565.25C222.675 565.838 222.096 566.639 221.704 567.653C221.32 568.668 221.129 569.801 221.129 571.054C221.129 572.341 221.325 573.47 221.717 574.442C222.109 575.413 222.688 576.172 223.455 576.717C224.231 577.263 225.185 577.536 226.319 577.536ZM248.806 581.396C246.871 581.396 245.205 580.983 243.808 580.156C242.418 579.321 241.344 578.149 240.586 576.641C239.836 575.124 239.461 573.347 239.461 571.31C239.461 569.298 239.836 567.526 240.586 565.991C241.344 564.457 242.401 563.26 243.756 562.399C245.12 561.538 246.714 561.108 248.538 561.108C249.646 561.108 250.719 561.291 251.759 561.658C252.799 562.024 253.732 562.599 254.559 563.384C255.386 564.168 256.038 565.186 256.515 566.439C256.992 567.683 257.231 569.196 257.231 570.977V572.332H241.621V569.469H253.485C253.485 568.463 253.281 567.572 252.871 566.797C252.462 566.013 251.887 565.395 251.146 564.943C250.413 564.491 249.552 564.266 248.563 564.266C247.489 564.266 246.552 564.53 245.751 565.058C244.958 565.578 244.344 566.26 243.91 567.104C243.484 567.939 243.271 568.847 243.271 569.827V572.064C243.271 573.376 243.501 574.493 243.961 575.413C244.43 576.334 245.082 577.037 245.917 577.523C246.752 578 247.728 578.239 248.844 578.239C249.569 578.239 250.229 578.136 250.826 577.932C251.423 577.719 251.938 577.403 252.373 576.986C252.808 576.568 253.14 576.053 253.37 575.439L256.988 576.091C256.698 577.156 256.178 578.089 255.428 578.891C254.687 579.683 253.754 580.301 252.629 580.744C251.512 581.179 250.238 581.396 248.806 581.396Z" fill="#252835"/>
</g>
</g>
<g filter="url(#filter3_b_233_1629)">
<path d="M225.534 439.318C225.155 439.097 224.738 438.885 224.308 438.678C224.738 438.472 225.155 438.26 225.534 438.039C227.68 436.813 229.563 435.173 231.075 433.213C232.588 431.253 233.699 429.012 234.346 426.618C234.993 424.225 235.162 421.727 234.844 419.267C234.526 416.808 233.727 414.436 232.492 412.288C231.258 410.141 229.613 408.259 227.652 406.753C225.691 405.246 223.453 404.145 221.067 403.511C218.681 402.877 216.193 402.723 213.747 403.059C211.302 403.395 208.946 404.214 206.817 405.468C206.438 405.689 206.045 405.938 205.656 406.216C205.694 405.746 205.717 405.275 205.717 404.805C205.717 399.818 203.745 395.035 200.235 391.508C196.725 387.981 191.964 386 187 386C182.036 386 177.275 387.981 173.765 391.508C170.255 395.035 168.283 399.818 168.283 404.805C168.283 405.247 168.283 405.717 168.344 406.216C167.955 405.948 167.562 405.689 167.183 405.468C165.054 404.214 162.698 403.395 160.253 403.059C157.807 402.723 155.319 402.877 152.933 403.511C150.547 404.145 148.309 405.246 146.348 406.753C144.387 408.259 142.742 410.141 141.508 412.288C140.274 414.436 139.474 416.808 139.156 419.267C138.838 421.727 139.007 424.225 139.654 426.618C140.301 429.012 141.412 431.253 142.925 433.213C144.437 435.173 146.32 436.813 148.466 438.039C148.845 438.26 149.262 438.472 149.692 438.678C149.262 438.885 148.845 439.097 148.466 439.318C146.32 440.544 144.437 442.184 142.925 444.144C141.412 446.104 140.301 448.345 139.654 450.738C139.007 453.132 138.838 455.63 139.156 458.089C139.474 460.549 140.274 462.921 141.508 465.068C142.742 467.216 144.387 469.097 146.348 470.604C148.309 472.11 150.547 473.212 152.933 473.846C155.319 474.48 157.807 474.634 160.253 474.298C162.698 473.962 165.054 473.143 167.183 471.889C167.562 471.668 167.955 471.418 168.344 471.141C168.306 471.611 168.283 472.081 168.283 472.528C168.283 477.515 170.255 482.299 173.765 485.825C177.275 489.352 182.036 491.333 187 491.333C191.964 491.333 196.725 489.352 200.235 485.825C203.745 482.299 205.717 477.515 205.717 472.528C205.717 472.086 205.694 471.616 205.656 471.141C206.045 471.409 206.438 471.668 206.817 471.889C209.652 473.539 212.871 474.408 216.147 474.409C217.794 474.406 219.433 474.188 221.023 473.76C224.599 472.797 227.81 470.79 230.251 467.994C232.691 465.197 234.252 461.736 234.735 458.048C235.218 454.361 234.601 450.612 232.963 447.276C231.326 443.941 228.74 441.168 225.534 439.308V439.318ZM175.77 438.678C175.77 436.447 176.428 434.265 177.662 432.41C178.896 430.554 180.65 429.108 182.702 428.254C184.754 427.4 187.012 427.177 189.191 427.612C191.369 428.047 193.37 429.122 194.941 430.7C196.512 432.278 197.581 434.288 198.014 436.477C198.448 438.666 198.225 440.935 197.375 442.996C196.525 445.058 195.086 446.82 193.239 448.06C191.392 449.3 189.221 449.962 187 449.962C184.022 449.962 181.165 448.773 179.059 446.657C176.953 444.541 175.77 441.671 175.77 438.678ZM210.56 411.98C211.837 411.239 213.247 410.758 214.71 410.564C216.172 410.371 217.658 410.469 219.082 410.852C220.507 411.236 221.842 411.898 223.012 412.8C224.182 413.702 225.164 414.826 225.901 416.11C226.639 417.393 227.117 418.81 227.31 420.279C227.502 421.748 227.405 423.24 227.023 424.672C226.641 426.103 225.983 427.445 225.085 428.62C224.187 429.796 223.068 430.782 221.79 431.523C218.857 433.23 213.082 434.405 205.338 434.903C204.521 430.923 202.443 427.316 199.414 424.621C203.719 418.124 207.626 413.686 210.56 411.98ZM187 393.546C189.978 393.546 192.835 394.734 194.941 396.85C197.047 398.966 198.23 401.836 198.23 404.829C198.23 408.233 196.359 413.851 192.915 420.842C189.076 419.55 184.924 419.55 181.085 420.842C177.641 413.851 175.77 408.233 175.77 404.829C175.77 401.836 176.953 398.966 179.059 396.85C181.165 394.734 184.022 393.546 187 393.546ZM148.096 416.112C148.834 414.828 149.815 413.703 150.985 412.801C152.156 411.898 153.491 411.236 154.916 410.852C156.341 410.468 157.827 410.371 159.29 410.564C160.752 410.757 162.162 411.238 163.44 411.98C166.374 413.686 170.281 418.124 174.586 424.621C171.555 427.319 169.476 430.932 168.662 434.917C160.918 434.419 155.143 433.244 152.21 431.542C150.93 430.801 149.808 429.814 148.909 428.637C148.009 427.461 147.35 426.117 146.968 424.684C146.586 423.251 146.489 421.756 146.682 420.285C146.876 418.814 147.357 417.396 148.096 416.112ZM163.44 465.377C160.86 466.874 157.795 467.279 154.918 466.504C152.041 465.73 149.588 463.839 148.099 461.247C146.61 458.656 146.206 455.576 146.977 452.685C147.748 449.795 149.63 447.33 152.21 445.834C155.143 444.127 160.918 442.952 168.662 442.454C169.479 446.434 171.557 450.041 174.586 452.735C170.281 459.233 166.374 463.671 163.44 465.377ZM187 483.811C184.022 483.811 181.165 482.622 179.059 480.506C176.953 478.39 175.77 475.52 175.77 472.528C175.77 469.124 177.641 463.506 181.085 456.515C184.924 457.807 189.076 457.807 192.915 456.515C196.359 463.506 198.23 469.124 198.23 472.528C198.23 475.52 197.047 478.39 194.941 480.506C192.835 482.622 189.978 483.811 187 483.811ZM225.904 461.245C225.166 462.529 224.185 463.654 223.015 464.556C221.844 465.459 220.509 466.121 219.084 466.505C217.659 466.888 216.173 466.986 214.71 466.793C213.248 466.599 211.838 466.118 210.56 465.377C207.626 463.671 203.719 459.233 199.414 452.735C202.445 450.038 204.524 446.425 205.338 442.439C213.082 442.938 218.857 444.113 221.79 445.815C223.07 446.556 224.192 447.543 225.091 448.719C225.991 449.896 226.65 451.24 227.032 452.673C227.414 454.106 227.511 455.601 227.318 457.072C227.124 458.543 226.643 459.961 225.904 461.245Z" fill="#D0D0D0"/>
</g>
<defs>
<filter id="filter0_b_233_1629" x="13" y="639" width="348" height="96" filterUnits="userSpaceOnUse" color-interpolation-filters="sRGB">
<feFlood flood-opacity="0" result="BackgroundImageFix"/>
<feGaussianBlur in="BackgroundImageFix" stdDeviation="2"/>
<feComposite in2="SourceAlpha" operator="in" result="effect1_backgroundBlur_233_1629"/>
<feBlend mode="normal" in="SourceGraphic" in2="effect1_backgroundBlur_233_1629" result="shape"/>
</filter>
<filter id="filter1_b_233_1629" x="34.7102" y="98.0909" width="305.771" height="237.489" filterUnits="userSpaceOnUse" color-interpolation-filters="sRGB">
<feFlood flood-opacity="0" result="BackgroundImageFix"/>
<feGaussianBlur in="BackgroundImageFix" stdDeviation="2"/>
<feComposite in2="SourceAlpha" operator="in" result="effect1_backgroundBlur_233_1629"/>
<feBlend mode="normal" in="SourceGraphic" in2="effect1_backgroundBlur_233_1629" result="shape"/>
</filter>
<filter id="filter2_b_233_1629" x="54" y="530" width="267" height="75" filterUnits="userSpaceOnUse" color-interpolation-filters="sRGB">
<feFlood flood-opacity="0" result="BackgroundImageFix"/>
<feGaussianBlur in="BackgroundImageFix" stdDeviation="2"/>
<feComposite in2="SourceAlpha" operator="in" result="effect1_backgroundBlur_233_1629"/>
<feBlend mode="normal" in="SourceGraphic" in2="effect1_backgroundBlur_233_1629" result="shape"/>
</filter>
<filter id="filter3_b_233_1629" x="135" y="382" width="104" height="113.333" filterUnits="userSpaceOnUse" color-interpolation-filters="sRGB">
<feFlood flood-opacity="0" result="BackgroundImageFix"/>
<feGaussianBlur in="BackgroundImageFix" stdDeviation="2"/>
<feComposite in2="SourceAlpha" operator="in" result="effect1_backgroundBlur_233_1629"/>
<feBlend mode="normal" in="SourceGraphic" in2="effect1_backgroundBlur_233_1629" result="shape"/>
</filter>
</defs>
</svg>
