<svg width="52" height="57" viewBox="0 0 52 57" fill="none" xmlns="http://www.w3.org/2000/svg">
<path d="M46.5876 29.34C46.3851 29.2225 46.1625 29.11 45.9325 29C46.1625 28.89 46.3851 28.7775 46.5876 28.66C47.734 28.0082 48.7402 27.136 49.5482 26.0937C50.3562 25.0515 50.9501 23.8597 51.2957 22.5869C51.6412 21.3142 51.7316 19.9857 51.5616 18.6779C51.3916 17.3701 50.9646 16.1088 50.3052 14.9667C49.6458 13.8246 48.767 12.8242 47.7193 12.0231C46.6717 11.2221 45.476 10.6361 44.201 10.299C42.926 9.96192 41.5969 9.88036 40.2903 10.059C38.9837 10.2377 37.7253 10.673 36.5876 11.34C36.3851 11.4575 36.175 11.59 35.9675 11.7375C35.9875 11.4875 36 11.2375 36 10.9875C36 8.33534 34.9465 5.7918 33.0711 3.91643C31.1958 2.04107 28.6522 0.9875 26 0.9875C23.3479 0.9875 20.8043 2.04107 18.929 3.91643C17.0536 5.7918 16 8.33534 16 10.9875C16 11.2225 16 11.4725 16.0325 11.7375C15.825 11.595 15.615 11.4575 15.4125 11.34C14.2748 10.673 13.0164 10.2377 11.7098 10.059C10.4032 9.88036 9.07408 9.96192 7.79909 10.299C6.52409 10.6361 5.32837 11.2221 4.28075 12.0231C3.23314 12.8242 2.35433 13.8246 1.69491 14.9667C1.0355 16.1088 0.608506 17.3701 0.43852 18.6779C0.268534 19.9857 0.358911 21.3142 0.704449 22.5869C1.04999 23.8597 1.64386 25.0515 2.45187 26.0937C3.25989 27.136 4.26609 28.0082 5.41255 28.66C5.61505 28.7775 5.83755 28.89 6.06755 29C5.83755 29.11 5.61505 29.2225 5.41255 29.34C4.26609 29.9918 3.25989 30.864 2.45187 31.9063C1.64386 32.9485 1.04999 34.1404 0.704449 35.4131C0.358911 36.6858 0.268534 38.0143 0.43852 39.3221C0.608506 40.6299 1.0355 41.8912 1.69491 43.0333C2.35433 44.1754 3.23314 45.1758 4.28075 45.9769C5.32837 46.7779 6.52409 47.3639 7.79909 47.701C9.07408 48.0381 10.4032 48.1196 11.7098 47.941C13.0164 47.7623 14.2748 47.327 15.4125 46.66C15.615 46.5425 15.825 46.41 16.0325 46.2625C16.0125 46.5125 16 46.7625 16 47C16 49.6522 17.0536 52.1957 18.929 54.0711C20.8043 55.9464 23.3479 57 26 57C28.6522 57 31.1958 55.9464 33.0711 54.0711C34.9465 52.1957 36 49.6522 36 47C36 46.765 35.9875 46.515 35.9675 46.2625C36.175 46.405 36.3851 46.5425 36.5876 46.66C38.1024 47.5375 39.8219 47.9998 41.5725 48C42.4522 47.9988 43.3279 47.8829 44.1776 47.655C46.088 47.143 47.8037 46.0759 49.1077 44.5887C50.4116 43.1016 51.2453 41.2612 51.5033 39.3002C51.7612 37.3392 51.4319 35.3458 50.5569 33.572C49.6819 31.7982 48.3006 30.3237 46.5876 29.335V29.34ZM20 29C20 27.8133 20.3519 26.6533 21.0112 25.6666C21.6705 24.6799 22.6076 23.9108 23.7039 23.4567C24.8003 23.0026 26.0067 22.8838 27.1706 23.1153C28.3345 23.3468 29.4036 23.9182 30.2427 24.7574C31.0818 25.5965 31.6532 26.6656 31.8848 27.8295C32.1163 28.9933 31.9975 30.1997 31.5433 31.2961C31.0892 32.3925 30.3202 33.3295 29.3335 33.9888C28.3468 34.6481 27.1867 35 26 35C24.4087 35 22.8826 34.3679 21.7574 33.2426C20.6322 32.1174 20 30.5913 20 29ZM38.5876 14.8025C39.2699 14.4085 40.0232 14.1528 40.8044 14.05C41.5856 13.9471 42.3794 13.9992 43.1405 14.2031C43.9016 14.4071 44.6151 14.7589 45.2402 15.2386C45.8653 15.7183 46.3898 16.3164 46.7838 16.9988C47.1778 17.6811 47.4335 18.4344 47.5363 19.2156C47.6391 19.9968 47.5871 20.7906 47.3832 21.5517C47.1792 22.3128 46.8274 23.0263 46.3477 23.6514C45.868 24.2765 45.2699 24.801 44.5876 25.195C43.0201 26.1025 39.9351 26.7275 35.7976 26.9925C35.3611 24.8759 34.2506 22.9576 32.6325 21.525C34.9325 18.07 37.0201 15.71 38.5876 14.8025ZM26 5C27.5913 5 29.1175 5.63214 30.2427 6.75736C31.3679 7.88258 32 9.4087 32 11C32 12.81 31 15.7975 29.16 19.515C27.1093 18.8284 24.8908 18.8284 22.84 19.515C21 15.7975 20 12.81 20 11C20 9.4087 20.6322 7.88258 21.7574 6.75736C22.8826 5.63214 24.4087 5 26 5ZM5.21505 17C5.6089 16.3173 6.13339 15.719 6.75855 15.2391C7.38372 14.7591 8.09731 14.4071 8.85856 14.203C9.61981 13.999 10.4138 13.9469 11.1952 14.0497C11.9766 14.1526 12.73 14.4084 13.4125 14.8025C14.98 15.71 17.0675 18.07 19.3675 21.525C17.7481 22.9596 16.6375 24.8807 16.2025 27C12.065 26.735 8.98005 26.11 7.41255 25.205C6.7289 24.8111 6.12963 24.2863 5.64907 23.6606C5.16851 23.0348 4.81608 22.3204 4.61197 21.5583C4.40785 20.7962 4.35605 20.0013 4.45954 19.2191C4.56302 18.4369 4.81976 17.6828 5.21505 17ZM13.4125 43.1975C12.0344 43.9931 10.3967 44.2088 8.85956 43.7969C7.32247 43.385 6.01195 42.3794 5.2163 41.0013C4.42065 39.6231 4.20505 37.9854 4.61692 36.4483C5.0288 34.9112 6.03442 33.6007 7.41255 32.805C8.98005 31.8975 12.065 31.2725 16.2025 31.0075C16.639 33.1241 17.7495 35.0424 19.3675 36.475C17.0675 39.93 14.98 42.29 13.4125 43.1975ZM26 53C24.4087 53 22.8826 52.3679 21.7574 51.2426C20.6322 50.1174 20 48.5913 20 47C20 45.19 21 42.2025 22.84 38.485C24.8908 39.1717 27.1093 39.1717 29.16 38.485C31 42.2025 32 45.19 32 47C32 48.5913 31.3679 50.1174 30.2427 51.2426C29.1175 52.3679 27.5913 53 26 53ZM46.785 41C46.3912 41.6827 45.8667 42.281 45.2415 42.7609C44.6164 43.2409 43.9028 43.5929 43.1415 43.797C42.3803 44.001 41.5863 44.0531 40.8049 43.9503C40.0235 43.8474 39.2701 43.5916 38.5876 43.1975C37.0201 42.29 34.9325 39.93 32.6325 36.475C34.252 35.0404 35.3626 33.1193 35.7976 31C39.9351 31.265 43.0201 31.89 44.5876 32.795C45.2712 33.1889 45.8705 33.7137 46.351 34.3394C46.8316 34.9652 47.184 35.6796 47.3881 36.4417C47.5922 37.2038 47.644 37.9987 47.5406 38.7809C47.4371 39.5631 47.1803 40.3172 46.785 41Z" fill="white"/>
</svg>
