<svg width="390" height="844" viewBox="0 0 390 844" fill="none" xmlns="http://www.w3.org/2000/svg">
<g clip-path="url(#clip0_1_4)">
<rect width="390" height="844" fill="#F5F5F5"/>
<rect width="390" height="33.2558" transform="translate(0 811)" fill="#F5F5F5"/>
<rect x="125.84" y="832.824" width="139" height="5" rx="2.5" fill="black"/>
<rect width="94" height="94" transform="translate(278 677)" fill="#F5F5F5"/>
<path d="M325 688.75C305.563 688.75 289.75 704.563 289.75 724C289.75 743.437 305.563 759.25 325 759.25C344.437 759.25 360.25 743.437 360.25 724C360.25 704.563 344.437 688.75 325 688.75ZM341.764 740.764C341.213 741.314 340.466 741.624 339.688 741.624C338.909 741.624 338.162 741.314 337.611 740.764L329.746 732.901C326.423 735.187 322.366 736.149 318.37 735.598C314.375 735.047 310.729 733.023 308.149 729.923C305.569 726.823 304.241 722.87 304.425 718.841C304.609 714.811 306.292 710.996 309.144 708.144C311.996 705.292 315.811 703.609 319.841 703.425C323.87 703.241 327.823 704.569 330.923 707.149C334.023 709.729 336.047 713.375 336.598 717.37C337.149 721.366 336.187 725.423 333.901 728.746L341.764 736.611C342.314 737.162 342.624 737.909 342.624 738.688C342.624 739.466 342.314 740.213 341.764 740.764Z" fill="#252835"/>
<path d="M320.594 729.875C326.272 729.875 330.875 725.272 330.875 719.594C330.875 713.916 326.272 709.312 320.594 709.312C314.916 709.312 310.312 713.916 310.312 719.594C310.312 725.272 314.916 729.875 320.594 729.875Z" fill="#252835"/>
<path d="M27.988 381V356.052H43.756V359.904H32.524V366.276H42.496V370.128H32.524V381H27.988ZM51.9921 381H47.6361V362.172H51.9921V381ZM52.4601 356.664C52.4601 357.48 52.1961 358.128 51.6681 358.608C51.1401 359.088 50.5161 359.328 49.7961 359.328C49.0521 359.328 48.4161 359.088 47.8881 358.608C47.3601 358.128 47.0961 357.48 47.0961 356.664C47.0961 355.824 47.3601 355.164 47.8881 354.684C48.4161 354.204 49.0521 353.964 49.7961 353.964C50.5161 353.964 51.1401 354.204 51.6681 354.684C52.1961 355.164 52.4601 355.824 52.4601 356.664ZM57.5493 362.784C58.3893 362.544 59.4813 362.316 60.8253 362.1C62.1693 361.884 63.6573 361.776 65.2893 361.776C66.8253 361.776 68.1093 361.992 69.1413 362.424C70.1733 362.832 70.9893 363.42 71.5893 364.188C72.2133 364.932 72.6453 365.844 72.8853 366.924C73.1493 367.98 73.2813 369.144 73.2813 370.416V381H68.9253V371.1C68.9253 370.092 68.8533 369.24 68.7093 368.544C68.5893 367.824 68.3733 367.248 68.0613 366.816C67.7733 366.36 67.3653 366.036 66.8373 365.844C66.3333 365.628 65.7093 365.52 64.9653 365.52C64.4133 365.52 63.8373 365.556 63.2373 365.628C62.6373 365.7 62.1933 365.76 61.9053 365.808V381H57.5493V362.784ZM85.2319 377.94C86.5759 377.94 87.5959 377.868 88.2919 377.724V372.9C88.0519 372.828 87.7039 372.756 87.2479 372.684C86.7919 372.612 86.2879 372.576 85.7359 372.576C85.2559 372.576 84.7639 372.612 84.2599 372.684C83.7799 372.756 83.3359 372.888 82.9279 373.08C82.5439 373.272 82.2319 373.548 81.9919 373.908C81.7519 374.244 81.6319 374.676 81.6319 375.204C81.6319 376.236 81.9559 376.956 82.6039 377.364C83.2519 377.748 84.1279 377.94 85.2319 377.94ZM84.8719 361.704C86.3119 361.704 87.5239 361.884 88.5079 362.244C89.4919 362.604 90.2719 363.108 90.8479 363.756C91.4479 364.404 91.8679 365.196 92.1079 366.132C92.3719 367.044 92.5039 368.052 92.5039 369.156V380.568C91.8319 380.712 90.8119 380.88 89.4439 381.072C88.0999 381.288 86.5759 381.396 84.8719 381.396C83.7439 381.396 82.7119 381.288 81.7759 381.072C80.8399 380.856 80.0359 380.508 79.3639 380.028C78.7159 379.548 78.1999 378.924 77.8159 378.156C77.4559 377.388 77.2759 376.44 77.2759 375.312C77.2759 374.232 77.4799 373.32 77.8879 372.576C78.3199 371.832 78.8959 371.232 79.6159 370.776C80.3359 370.296 81.1639 369.96 82.0999 369.768C83.0599 369.552 84.0559 369.444 85.0879 369.444C85.5679 369.444 86.0719 369.48 86.5999 369.552C87.1279 369.6 87.6919 369.696 88.2919 369.84V369.12C88.2919 368.616 88.2319 368.136 88.1119 367.68C87.9919 367.224 87.7759 366.828 87.4639 366.492C87.1759 366.132 86.7799 365.856 86.2759 365.664C85.7959 365.472 85.1839 365.376 84.4399 365.376C83.4319 365.376 82.5079 365.448 81.6679 365.592C80.8279 365.736 80.1439 365.904 79.6159 366.096L79.0759 362.568C79.6279 362.376 80.4319 362.184 81.4879 361.992C82.5439 361.8 83.6719 361.704 84.8719 361.704ZM97.8384 362.784C98.6784 362.544 99.7704 362.316 101.114 362.1C102.458 361.884 103.946 361.776 105.578 361.776C107.114 361.776 108.398 361.992 109.43 362.424C110.462 362.832 111.278 363.42 111.878 364.188C112.502 364.932 112.934 365.844 113.174 366.924C113.438 367.98 113.57 369.144 113.57 370.416V381H109.214V371.1C109.214 370.092 109.142 369.24 108.998 368.544C108.878 367.824 108.662 367.248 108.35 366.816C108.062 366.36 107.654 366.036 107.126 365.844C106.622 365.628 105.998 365.52 105.254 365.52C104.702 365.52 104.126 365.556 103.526 365.628C102.926 365.7 102.482 365.76 102.194 365.808V381H97.8384V362.784ZM117.853 371.604C117.853 370.212 118.069 368.916 118.501 367.716C118.933 366.492 119.545 365.436 120.337 364.548C121.153 363.66 122.137 362.964 123.289 362.46C124.441 361.956 125.737 361.704 127.177 361.704C128.953 361.704 130.633 362.028 132.217 362.676L131.281 366.24C130.777 366.024 130.201 365.844 129.553 365.7C128.929 365.556 128.257 365.484 127.537 365.484C125.833 365.484 124.537 366.024 123.649 367.104C122.761 368.16 122.317 369.66 122.317 371.604C122.317 373.476 122.737 374.964 123.577 376.068C124.417 377.148 125.833 377.688 127.825 377.688C128.569 377.688 129.301 377.616 130.021 377.472C130.741 377.328 131.365 377.148 131.893 376.932L132.505 380.532C132.025 380.772 131.293 380.988 130.309 381.18C129.349 381.372 128.353 381.468 127.321 381.468C125.713 381.468 124.309 381.228 123.109 380.748C121.933 380.244 120.949 379.56 120.157 378.696C119.389 377.808 118.813 376.764 118.429 375.564C118.045 374.34 117.853 373.02 117.853 371.604ZM140.269 381H135.913V362.172H140.269V381ZM140.737 356.664C140.737 357.48 140.473 358.128 139.945 358.608C139.417 359.088 138.793 359.328 138.073 359.328C137.329 359.328 136.693 359.088 136.165 358.608C135.637 358.128 135.373 357.48 135.373 356.664C135.373 355.824 135.637 355.164 136.165 354.684C136.693 354.204 137.329 353.964 138.073 353.964C138.793 353.964 139.417 354.204 139.945 354.684C140.473 355.164 140.737 355.824 140.737 356.664ZM152.451 377.94C153.795 377.94 154.815 377.868 155.511 377.724V372.9C155.271 372.828 154.923 372.756 154.467 372.684C154.011 372.612 153.507 372.576 152.955 372.576C152.475 372.576 151.983 372.612 151.479 372.684C150.999 372.756 150.555 372.888 150.147 373.08C149.763 373.272 149.451 373.548 149.211 373.908C148.971 374.244 148.851 374.676 148.851 375.204C148.851 376.236 149.175 376.956 149.823 377.364C150.471 377.748 151.347 377.94 152.451 377.94ZM152.091 361.704C153.531 361.704 154.743 361.884 155.727 362.244C156.711 362.604 157.491 363.108 158.067 363.756C158.667 364.404 159.087 365.196 159.327 366.132C159.591 367.044 159.723 368.052 159.723 369.156V380.568C159.051 380.712 158.031 380.88 156.663 381.072C155.319 381.288 153.795 381.396 152.091 381.396C150.963 381.396 149.931 381.288 148.995 381.072C148.059 380.856 147.255 380.508 146.583 380.028C145.935 379.548 145.419 378.924 145.035 378.156C144.675 377.388 144.495 376.44 144.495 375.312C144.495 374.232 144.699 373.32 145.107 372.576C145.539 371.832 146.115 371.232 146.835 370.776C147.555 370.296 148.383 369.96 149.319 369.768C150.279 369.552 151.275 369.444 152.307 369.444C152.787 369.444 153.291 369.48 153.819 369.552C154.347 369.6 154.911 369.696 155.511 369.84V369.12C155.511 368.616 155.451 368.136 155.331 367.68C155.211 367.224 154.995 366.828 154.683 366.492C154.395 366.132 153.999 365.856 153.495 365.664C153.015 365.472 152.403 365.376 151.659 365.376C150.651 365.376 149.727 365.448 148.887 365.592C148.047 365.736 147.363 365.904 146.835 366.096L146.295 362.568C146.847 362.376 147.651 362.184 148.707 361.992C149.763 361.8 150.891 361.704 152.091 361.704ZM171.609 381.36C170.313 381.336 169.233 381.192 168.369 380.928C167.529 380.664 166.857 380.292 166.353 379.812C165.849 379.308 165.489 378.696 165.273 377.976C165.081 377.232 164.985 376.392 164.985 375.456V353.784L169.341 353.064V374.628C169.341 375.156 169.377 375.6 169.449 375.96C169.545 376.32 169.701 376.632 169.917 376.896C170.133 377.136 170.421 377.328 170.781 377.472C171.165 377.592 171.645 377.688 172.221 377.76L171.609 381.36ZM200.347 358.86C200.731 360.156 201.139 361.512 201.571 362.928C202.003 364.32 202.447 365.724 202.903 367.14C203.383 368.532 203.851 369.912 204.307 371.28C204.787 372.624 205.243 373.896 205.675 375.096C206.035 373.8 206.383 372.396 206.719 370.884C207.055 369.348 207.391 367.764 207.727 366.132C208.063 364.476 208.387 362.796 208.699 361.092C209.035 359.388 209.347 357.708 209.635 356.052H214.315C213.475 360.564 212.539 364.908 211.507 369.084C210.475 373.236 209.323 377.208 208.051 381H203.731C201.859 376.152 200.047 370.86 198.295 365.124C197.407 368.028 196.507 370.788 195.595 373.404C194.683 376.02 193.771 378.552 192.859 381H188.539C187.243 377.208 186.079 373.236 185.047 369.084C184.039 364.908 183.115 360.564 182.275 356.052H187.135C187.423 357.684 187.723 359.352 188.035 361.056C188.371 362.76 188.707 364.44 189.043 366.096C189.403 367.728 189.763 369.312 190.123 370.848C190.483 372.384 190.843 373.8 191.203 375.096C191.659 373.872 192.115 372.588 192.571 371.244C193.051 369.876 193.519 368.496 193.975 367.104C194.431 365.688 194.863 364.284 195.271 362.892C195.703 361.5 196.099 360.156 196.459 358.86H200.347ZM216.22 371.676C216.22 370.02 216.46 368.568 216.94 367.32C217.444 366.072 218.104 365.04 218.92 364.224C219.736 363.384 220.672 362.76 221.728 362.352C222.784 361.92 223.864 361.704 224.968 361.704C227.56 361.704 229.576 362.508 231.016 364.116C232.48 365.724 233.212 368.124 233.212 371.316C233.212 371.556 233.2 371.832 233.176 372.144C233.176 372.432 233.164 372.696 233.14 372.936H220.72C220.84 374.448 221.368 375.624 222.304 376.464C223.264 377.28 224.644 377.688 226.444 377.688C227.5 377.688 228.46 377.592 229.324 377.4C230.212 377.208 230.908 377.004 231.412 376.788L231.988 380.352C231.748 380.472 231.412 380.604 230.98 380.748C230.572 380.868 230.092 380.976 229.54 381.072C229.012 381.192 228.436 381.288 227.812 381.36C227.188 381.432 226.552 381.468 225.904 381.468C224.248 381.468 222.808 381.228 221.584 380.748C220.36 380.244 219.352 379.56 218.56 378.696C217.768 377.808 217.18 376.776 216.796 375.6C216.412 374.4 216.22 373.092 216.22 371.676ZM228.856 369.732C228.856 369.132 228.772 368.568 228.604 368.04C228.436 367.488 228.184 367.02 227.848 366.636C227.536 366.228 227.14 365.916 226.66 365.7C226.204 365.46 225.652 365.34 225.004 365.34C224.332 365.34 223.744 365.472 223.24 365.736C222.736 365.976 222.304 366.3 221.944 366.708C221.608 367.116 221.344 367.584 221.152 368.112C220.96 368.64 220.828 369.18 220.756 369.732H228.856ZM244.383 381.36C243.087 381.336 242.007 381.192 241.143 380.928C240.303 380.664 239.631 380.292 239.127 379.812C238.623 379.308 238.263 378.696 238.047 377.976C237.855 377.232 237.759 376.392 237.759 375.456V353.784L242.115 353.064V374.628C242.115 375.156 242.151 375.6 242.223 375.96C242.319 376.32 242.475 376.632 242.691 376.896C242.907 377.136 243.195 377.328 243.555 377.472C243.939 377.592 244.419 377.688 244.995 377.76L244.383 381.36ZM255.07 381.36C253.774 381.336 252.694 381.192 251.83 380.928C250.99 380.664 250.318 380.292 249.814 379.812C249.31 379.308 248.95 378.696 248.734 377.976C248.542 377.232 248.446 376.392 248.446 375.456V353.784L252.802 353.064V374.628C252.802 375.156 252.838 375.6 252.91 375.96C253.006 376.32 253.162 376.632 253.378 376.896C253.594 377.136 253.882 377.328 254.242 377.472C254.626 377.592 255.106 377.688 255.682 377.76L255.07 381.36ZM257.262 368.724H266.946V372.72H257.262V368.724ZM283.053 371.532C283.053 369.684 282.681 368.22 281.937 367.14C281.217 366.06 280.065 365.52 278.481 365.52C277.761 365.52 277.077 365.628 276.429 365.844C275.805 366.06 275.301 366.3 274.917 366.564V377.4C275.229 377.472 275.625 377.544 276.105 377.616C276.609 377.664 277.209 377.688 277.905 377.688C279.513 377.688 280.773 377.148 281.685 376.068C282.597 374.964 283.053 373.452 283.053 371.532ZM287.517 371.604C287.517 373.116 287.289 374.484 286.833 375.708C286.401 376.908 285.765 377.94 284.925 378.804C284.109 379.668 283.113 380.328 281.937 380.784C280.761 381.24 279.429 381.468 277.941 381.468C276.501 381.468 275.121 381.36 273.801 381.144C272.505 380.928 271.425 380.688 270.561 380.424V353.784L274.917 353.064V362.82C275.421 362.556 276.033 362.316 276.753 362.1C277.497 361.884 278.313 361.776 279.201 361.776C280.521 361.776 281.697 362.016 282.729 362.496C283.785 362.952 284.661 363.612 285.357 364.476C286.053 365.34 286.581 366.384 286.941 367.608C287.325 368.808 287.517 370.14 287.517 371.604ZM290.962 371.676C290.962 370.02 291.202 368.568 291.682 367.32C292.186 366.072 292.846 365.04 293.662 364.224C294.478 363.384 295.414 362.76 296.47 362.352C297.526 361.92 298.606 361.704 299.71 361.704C302.302 361.704 304.318 362.508 305.758 364.116C307.222 365.724 307.954 368.124 307.954 371.316C307.954 371.556 307.942 371.832 307.918 372.144C307.918 372.432 307.906 372.696 307.882 372.936H295.462C295.582 374.448 296.11 375.624 297.046 376.464C298.006 377.28 299.386 377.688 301.186 377.688C302.242 377.688 303.202 377.592 304.066 377.4C304.954 377.208 305.65 377.004 306.154 376.788L306.73 380.352C306.49 380.472 306.154 380.604 305.722 380.748C305.314 380.868 304.834 380.976 304.282 381.072C303.754 381.192 303.178 381.288 302.554 381.36C301.93 381.432 301.294 381.468 300.646 381.468C298.99 381.468 297.55 381.228 296.326 380.748C295.102 380.244 294.094 379.56 293.302 378.696C292.51 377.808 291.922 376.776 291.538 375.6C291.154 374.4 290.962 373.092 290.962 371.676ZM303.598 369.732C303.598 369.132 303.514 368.568 303.346 368.04C303.178 367.488 302.926 367.02 302.59 366.636C302.278 366.228 301.882 365.916 301.402 365.7C300.946 365.46 300.394 365.34 299.746 365.34C299.074 365.34 298.486 365.472 297.982 365.736C297.478 365.976 297.046 366.3 296.686 366.708C296.35 367.116 296.086 367.584 295.894 368.112C295.702 368.64 295.57 369.18 295.498 369.732H303.598ZM316.965 381H312.609V362.172H316.965V381ZM317.433 356.664C317.433 357.48 317.169 358.128 316.641 358.608C316.113 359.088 315.489 359.328 314.769 359.328C314.025 359.328 313.389 359.088 312.861 358.608C312.333 358.128 312.069 357.48 312.069 356.664C312.069 355.824 312.333 355.164 312.861 354.684C313.389 354.204 314.025 353.964 314.769 353.964C315.489 353.964 316.113 354.204 316.641 354.684C317.169 355.164 317.433 355.824 317.433 356.664ZM322.522 362.784C323.362 362.544 324.454 362.316 325.798 362.1C327.142 361.884 328.63 361.776 330.262 361.776C331.798 361.776 333.082 361.992 334.114 362.424C335.146 362.832 335.962 363.42 336.562 364.188C337.186 364.932 337.618 365.844 337.858 366.924C338.122 367.98 338.254 369.144 338.254 370.416V381H333.898V371.1C333.898 370.092 333.826 369.24 333.682 368.544C333.562 367.824 333.346 367.248 333.034 366.816C332.746 366.36 332.338 366.036 331.81 365.844C331.306 365.628 330.682 365.52 329.938 365.52C329.386 365.52 328.81 365.556 328.21 365.628C327.61 365.7 327.166 365.76 326.878 365.808V381H322.522V362.784ZM347.001 371.1C347.001 372.948 347.397 374.304 348.189 375.168C349.005 376.008 350.049 376.428 351.321 376.428C352.017 376.428 352.665 376.332 353.265 376.14C353.889 375.948 354.393 375.72 354.777 375.456V365.7C354.465 365.628 354.081 365.568 353.625 365.52C353.169 365.448 352.593 365.412 351.897 365.412C350.313 365.412 349.101 365.94 348.261 366.996C347.421 368.028 347.001 369.396 347.001 371.1ZM359.133 379.092C359.133 382.092 358.365 384.288 356.829 385.68C355.317 387.072 352.989 387.768 349.845 387.768C348.693 387.768 347.565 387.672 346.461 387.48C345.381 387.288 344.397 387.036 343.509 386.724L344.301 383.016C345.045 383.328 345.885 383.58 346.821 383.772C347.781 383.964 348.813 384.06 349.917 384.06C351.669 384.06 352.917 383.7 353.661 382.98C354.405 382.26 354.777 381.192 354.777 379.776V379.056C354.345 379.272 353.769 379.488 353.049 379.704C352.353 379.92 351.549 380.028 350.637 380.028C349.437 380.028 348.333 379.836 347.325 379.452C346.341 379.068 345.489 378.504 344.769 377.76C344.073 377.016 343.521 376.092 343.113 374.988C342.729 373.86 342.537 372.564 342.537 371.1C342.537 369.732 342.741 368.472 343.149 367.32C343.581 366.168 344.193 365.184 344.985 364.368C345.801 363.552 346.785 362.916 347.937 362.46C349.089 362.004 350.397 361.776 351.861 361.776C353.277 361.776 354.621 361.884 355.893 362.1C357.165 362.316 358.245 362.544 359.133 362.784V379.092Z" fill="#252835"/>
<path d="M349 389H41C32.1634 389 25 396.163 25 405V461C25 469.837 32.1634 477 41 477H349C357.837 477 365 469.837 365 461V405C365 396.163 357.837 389 349 389Z" fill="#D9D9D9"/>
<path d="M320.375 448.458C319.84 447.924 319.573 447.243 319.573 446.417C319.573 445.59 319.84 444.91 320.375 444.375L331.75 433L320.375 421.625C319.84 421.09 319.573 420.41 319.573 419.583C319.573 418.757 319.84 418.076 320.375 417.542C320.91 417.007 321.59 416.74 322.417 416.74C323.243 416.74 323.924 417.007 324.458 417.542L337.875 430.958C338.167 431.25 338.374 431.566 338.496 431.906C338.619 432.247 338.679 432.611 338.677 433C338.677 433.389 338.616 433.753 338.493 434.094C338.371 434.434 338.165 434.75 337.875 435.042L324.458 448.458C323.924 448.993 323.243 449.26 322.417 449.26C321.59 449.26 320.91 448.993 320.375 448.458Z" fill="#FF9341"/>
<g style="mix-blend-mode:multiply">
<path d="M145.388 448L137.32 418.909H141.936L147.604 441.438H147.874L153.769 418.909H158.343L164.238 441.452H164.507L170.161 418.909H174.792L166.709 448H162.292L156.169 426.21H155.942L149.82 448H145.388ZM182.654 448.483C181.271 448.483 180.021 448.227 178.904 447.716C177.786 447.195 176.901 446.442 176.248 445.457C175.604 444.473 175.282 443.265 175.282 441.835C175.282 440.604 175.518 439.591 175.992 438.795C176.465 438 177.105 437.37 177.909 436.906C178.714 436.442 179.614 436.092 180.608 435.855C181.603 435.618 182.616 435.438 183.648 435.315C184.955 435.164 186.016 435.041 186.83 434.946C187.644 434.842 188.236 434.676 188.605 434.449C188.975 434.222 189.159 433.852 189.159 433.341V433.241C189.159 432.001 188.809 431.04 188.108 430.358C187.417 429.676 186.385 429.335 185.012 429.335C183.582 429.335 182.455 429.652 181.631 430.287C180.817 430.912 180.253 431.608 179.941 432.375L175.949 431.466C176.423 430.14 177.114 429.07 178.023 428.256C178.942 427.432 179.998 426.835 181.191 426.466C182.384 426.087 183.639 425.898 184.955 425.898C185.826 425.898 186.749 426.002 187.725 426.21C188.71 426.409 189.628 426.778 190.48 427.318C191.342 427.858 192.048 428.63 192.597 429.634C193.146 430.628 193.421 431.92 193.421 433.511V448H189.273V445.017H189.103C188.828 445.566 188.416 446.106 187.867 446.636C187.318 447.167 186.612 447.607 185.75 447.957C184.889 448.308 183.856 448.483 182.654 448.483ZM183.577 445.074C184.751 445.074 185.755 444.842 186.588 444.378C187.431 443.914 188.07 443.308 188.506 442.56C188.951 441.802 189.174 440.992 189.174 440.131V437.318C189.022 437.47 188.729 437.612 188.293 437.744C187.867 437.867 187.379 437.976 186.83 438.071C186.281 438.156 185.746 438.237 185.225 438.312C184.704 438.379 184.268 438.436 183.918 438.483C183.094 438.587 182.341 438.762 181.659 439.009C180.987 439.255 180.447 439.61 180.04 440.074C179.642 440.528 179.444 441.134 179.444 441.892C179.444 442.943 179.832 443.739 180.608 444.278C181.385 444.809 182.374 445.074 183.577 445.074ZM203.325 418.909V448H199.078V418.909H203.325ZM213.286 418.909V448H209.039V418.909H213.286ZM228.403 448.44C226.253 448.44 224.402 447.981 222.849 447.062C221.306 446.134 220.112 444.832 219.27 443.156C218.436 441.471 218.02 439.496 218.02 437.233C218.02 434.998 218.436 433.028 219.27 431.324C220.112 429.619 221.287 428.289 222.792 427.332C224.307 426.376 226.078 425.898 228.105 425.898C229.336 425.898 230.529 426.101 231.684 426.509C232.84 426.916 233.877 427.555 234.795 428.426C235.714 429.297 236.438 430.429 236.968 431.821C237.499 433.204 237.764 434.884 237.764 436.864V438.369H220.42V435.188H233.602C233.602 434.07 233.375 433.08 232.92 432.219C232.466 431.348 231.826 430.661 231.002 430.159C230.188 429.657 229.232 429.406 228.133 429.406C226.94 429.406 225.898 429.7 225.008 430.287C224.127 430.865 223.446 431.622 222.963 432.56C222.489 433.488 222.252 434.496 222.252 435.585V438.071C222.252 439.529 222.508 440.77 223.02 441.793C223.54 442.815 224.265 443.597 225.193 444.136C226.121 444.667 227.205 444.932 228.446 444.932C229.251 444.932 229.984 444.818 230.647 444.591C231.31 444.354 231.883 444.004 232.366 443.54C232.849 443.076 233.218 442.503 233.474 441.821L237.494 442.545C237.172 443.729 236.594 444.766 235.761 445.656C234.937 446.537 233.9 447.223 232.65 447.716C231.41 448.199 229.994 448.44 228.403 448.44ZM252.661 426.182V429.591H240.743V426.182H252.661ZM243.939 420.955H248.186V441.594C248.186 442.418 248.31 443.038 248.556 443.455C248.802 443.862 249.119 444.141 249.507 444.293C249.905 444.435 250.336 444.506 250.8 444.506C251.141 444.506 251.439 444.482 251.695 444.435C251.951 444.387 252.15 444.349 252.292 444.321L253.059 447.83C252.812 447.924 252.462 448.019 252.007 448.114C251.553 448.218 250.985 448.275 250.303 448.284C249.185 448.303 248.144 448.104 247.178 447.688C246.212 447.271 245.431 446.627 244.834 445.756C244.238 444.884 243.939 443.791 243.939 442.474V420.955Z" fill="#252835"/>
</g>
<path d="M70 459.467H69.3333C69.1111 459.467 68.9111 459.422 68.7333 459.333C62.9111 457.511 58.1111 453.9 54.3333 448.499C50.5555 443.098 48.6667 437.132 48.6667 430.6V418C48.6667 416.889 48.9893 415.889 49.6347 415C50.28 414.111 51.1129 413.467 52.1333 413.067L68.1333 407.067C68.7555 406.844 69.3778 406.733 70 406.733C70.6222 406.733 71.2444 406.844 71.8667 407.067L87.8667 413.067C88.8889 413.467 89.7227 414.111 90.368 415C91.0133 415.889 91.3351 416.889 91.3333 418V430.6C91.3333 437.133 89.4444 443.1 85.6667 448.501C81.8889 453.902 77.0889 457.513 71.2667 459.333C71.0444 459.422 70.6222 459.467 70 459.467ZM70 454.067C74.6222 452.6 78.4444 449.667 81.4667 445.267C84.4889 440.867 86 435.978 86 430.6V418L70 412L54 418V430.6C54 435.978 55.5111 440.867 58.5333 445.267C61.5555 449.667 65.3778 452.6 70 454.067Z" fill="#252835"/>
<path d="M43.36 521.052H47.896V546H43.36V534.948H32.524V546H27.988V521.052H32.524V531.024H43.36V521.052ZM52.603 536.676C52.603 535.02 52.843 533.568 53.323 532.32C53.827 531.072 54.487 530.04 55.303 529.224C56.119 528.384 57.055 527.76 58.111 527.352C59.167 526.92 60.247 526.704 61.351 526.704C63.943 526.704 65.959 527.508 67.399 529.116C68.863 530.724 69.595 533.124 69.595 536.316C69.595 536.556 69.583 536.832 69.559 537.144C69.559 537.432 69.547 537.696 69.523 537.936H57.103C57.223 539.448 57.751 540.624 58.687 541.464C59.647 542.28 61.027 542.688 62.827 542.688C63.883 542.688 64.843 542.592 65.707 542.4C66.595 542.208 67.291 542.004 67.795 541.788L68.371 545.352C68.131 545.472 67.795 545.604 67.363 545.748C66.955 545.868 66.475 545.976 65.923 546.072C65.395 546.192 64.819 546.288 64.195 546.36C63.571 546.432 62.935 546.468 62.287 546.468C60.631 546.468 59.191 546.228 57.967 545.748C56.743 545.244 55.735 544.56 54.943 543.696C54.151 542.808 53.563 541.776 53.179 540.6C52.795 539.4 52.603 538.092 52.603 536.676ZM65.239 534.732C65.239 534.132 65.155 533.568 64.987 533.04C64.819 532.488 64.567 532.02 64.231 531.636C63.919 531.228 63.523 530.916 63.043 530.7C62.587 530.46 62.035 530.34 61.387 530.34C60.715 530.34 60.127 530.472 59.623 530.736C59.119 530.976 58.687 531.3 58.327 531.708C57.991 532.116 57.727 532.584 57.535 533.112C57.343 533.64 57.211 534.18 57.139 534.732H65.239ZM80.8374 542.94C82.1814 542.94 83.2014 542.868 83.8974 542.724V537.9C83.6574 537.828 83.3094 537.756 82.8534 537.684C82.3974 537.612 81.8934 537.576 81.3414 537.576C80.8614 537.576 80.3694 537.612 79.8654 537.684C79.3854 537.756 78.9414 537.888 78.5334 538.08C78.1494 538.272 77.8374 538.548 77.5974 538.908C77.3574 539.244 77.2374 539.676 77.2374 540.204C77.2374 541.236 77.5614 541.956 78.2094 542.364C78.8574 542.748 79.7334 542.94 80.8374 542.94ZM80.4774 526.704C81.9174 526.704 83.1294 526.884 84.1134 527.244C85.0974 527.604 85.8774 528.108 86.4534 528.756C87.0534 529.404 87.4734 530.196 87.7134 531.132C87.9774 532.044 88.1094 533.052 88.1094 534.156V545.568C87.4374 545.712 86.4174 545.88 85.0494 546.072C83.7054 546.288 82.1814 546.396 80.4774 546.396C79.3494 546.396 78.3174 546.288 77.3814 546.072C76.4454 545.856 75.6414 545.508 74.9694 545.028C74.3214 544.548 73.8054 543.924 73.4214 543.156C73.0614 542.388 72.8814 541.44 72.8814 540.312C72.8814 539.232 73.0854 538.32 73.4934 537.576C73.9254 536.832 74.5014 536.232 75.2214 535.776C75.9414 535.296 76.7694 534.96 77.7054 534.768C78.6654 534.552 79.6614 534.444 80.6934 534.444C81.1734 534.444 81.6774 534.48 82.2054 534.552C82.7334 534.6 83.2974 534.696 83.8974 534.84V534.12C83.8974 533.616 83.8374 533.136 83.7174 532.68C83.5974 532.224 83.3814 531.828 83.0694 531.492C82.7814 531.132 82.3854 530.856 81.8814 530.664C81.4014 530.472 80.7894 530.376 80.0454 530.376C79.0374 530.376 78.1134 530.448 77.2734 530.592C76.4334 530.736 75.7494 530.904 75.2214 531.096L74.6814 527.568C75.2334 527.376 76.0374 527.184 77.0934 526.992C78.1494 526.8 79.2774 526.704 80.4774 526.704ZM99.9959 546.36C98.6999 546.336 97.6199 546.192 96.7559 545.928C95.9159 545.664 95.2439 545.292 94.7399 544.812C94.2359 544.308 93.8759 543.696 93.6599 542.976C93.4679 542.232 93.3719 541.392 93.3719 540.456V518.784L97.7279 518.064V539.628C97.7279 540.156 97.7639 540.6 97.8359 540.96C97.9319 541.32 98.0879 541.632 98.3039 541.896C98.5199 542.136 98.8079 542.328 99.1679 542.472C99.5519 542.592 100.032 542.688 100.608 542.76L99.9959 546.36ZM103.915 522.204L108.271 521.484V527.172H114.967V530.808H108.271V538.476C108.271 539.988 108.511 541.068 108.991 541.716C109.471 542.364 110.287 542.688 111.439 542.688C112.231 542.688 112.927 542.604 113.527 542.436C114.151 542.268 114.643 542.112 115.003 541.968L115.723 545.424C115.219 545.64 114.559 545.856 113.743 546.072C112.927 546.312 111.967 546.432 110.863 546.432C109.519 546.432 108.391 546.252 107.479 545.892C106.591 545.532 105.883 545.016 105.355 544.344C104.827 543.648 104.455 542.82 104.239 541.86C104.023 540.876 103.915 539.76 103.915 538.512V522.204ZM119.178 546V518.784L123.534 518.064V527.388C124.014 527.22 124.566 527.076 125.19 526.956C125.838 526.836 126.474 526.776 127.098 526.776C128.61 526.776 129.858 526.992 130.842 527.424C131.85 527.832 132.654 528.42 133.254 529.188C133.854 529.932 134.274 530.832 134.514 531.888C134.778 532.944 134.91 534.12 134.91 535.416V546H130.554V536.1C130.554 535.092 130.482 534.24 130.338 533.544C130.218 532.824 130.002 532.248 129.69 531.816C129.402 531.36 129.006 531.036 128.502 530.844C127.998 530.628 127.374 530.52 126.63 530.52C126.054 530.52 125.466 530.58 124.866 530.7C124.266 530.82 123.822 530.928 123.534 531.024V546H119.178ZM155.158 542.94C156.502 542.94 157.522 542.868 158.218 542.724V537.9C157.978 537.828 157.63 537.756 157.174 537.684C156.718 537.612 156.214 537.576 155.662 537.576C155.182 537.576 154.69 537.612 154.186 537.684C153.706 537.756 153.262 537.888 152.854 538.08C152.47 538.272 152.158 538.548 151.918 538.908C151.678 539.244 151.558 539.676 151.558 540.204C151.558 541.236 151.882 541.956 152.53 542.364C153.178 542.748 154.054 542.94 155.158 542.94ZM154.798 526.704C156.238 526.704 157.45 526.884 158.434 527.244C159.418 527.604 160.198 528.108 160.774 528.756C161.374 529.404 161.794 530.196 162.034 531.132C162.298 532.044 162.43 533.052 162.43 534.156V545.568C161.758 545.712 160.738 545.88 159.37 546.072C158.026 546.288 156.502 546.396 154.798 546.396C153.67 546.396 152.638 546.288 151.702 546.072C150.766 545.856 149.962 545.508 149.29 545.028C148.642 544.548 148.126 543.924 147.742 543.156C147.382 542.388 147.202 541.44 147.202 540.312C147.202 539.232 147.406 538.32 147.814 537.576C148.246 536.832 148.822 536.232 149.542 535.776C150.262 535.296 151.09 534.96 152.026 534.768C152.986 534.552 153.982 534.444 155.014 534.444C155.494 534.444 155.998 534.48 156.526 534.552C157.054 534.6 157.618 534.696 158.218 534.84V534.12C158.218 533.616 158.158 533.136 158.038 532.68C157.918 532.224 157.702 531.828 157.39 531.492C157.102 531.132 156.706 530.856 156.202 530.664C155.722 530.472 155.11 530.376 154.366 530.376C153.358 530.376 152.434 530.448 151.594 530.592C150.754 530.736 150.07 530.904 149.542 531.096L149.002 527.568C149.554 527.376 150.358 527.184 151.414 526.992C152.47 526.8 153.598 526.704 154.798 526.704ZM167.764 527.784C168.604 527.544 169.696 527.316 171.04 527.1C172.384 526.884 173.872 526.776 175.504 526.776C177.04 526.776 178.324 526.992 179.356 527.424C180.388 527.832 181.204 528.42 181.804 529.188C182.428 529.932 182.86 530.844 183.1 531.924C183.364 532.98 183.496 534.144 183.496 535.416V546H179.14V536.1C179.14 535.092 179.068 534.24 178.924 533.544C178.804 532.824 178.588 532.248 178.276 531.816C177.988 531.36 177.58 531.036 177.052 530.844C176.548 530.628 175.924 530.52 175.18 530.52C174.628 530.52 174.052 530.556 173.452 530.628C172.852 530.7 172.408 530.76 172.12 530.808V546H167.764V527.784ZM192.243 536.532C192.243 538.452 192.699 539.964 193.611 541.068C194.523 542.148 195.783 542.688 197.391 542.688C198.087 542.688 198.675 542.664 199.155 542.616C199.659 542.544 200.067 542.472 200.379 542.4V531.6C199.995 531.336 199.479 531.096 198.831 530.88C198.207 530.64 197.535 530.52 196.815 530.52C195.231 530.52 194.067 531.06 193.323 532.14C192.603 533.22 192.243 534.684 192.243 536.532ZM204.735 545.424C203.871 545.688 202.779 545.928 201.459 546.144C200.163 546.36 198.795 546.468 197.355 546.468C195.867 546.468 194.535 546.24 193.359 545.784C192.183 545.328 191.175 544.68 190.335 543.84C189.519 542.976 188.883 541.944 188.427 540.744C187.995 539.52 187.779 538.152 187.779 536.64C187.779 535.152 187.959 533.808 188.319 532.608C188.703 531.384 189.255 530.34 189.975 529.476C190.695 528.612 191.571 527.952 192.603 527.496C193.635 527.016 194.823 526.776 196.167 526.776C197.079 526.776 197.883 526.884 198.579 527.1C199.275 527.316 199.875 527.556 200.379 527.82V518.784L204.735 518.064V545.424ZM229.974 546.54C228.102 546.54 226.422 546.252 224.934 545.676C223.446 545.1 222.186 544.26 221.154 543.156C220.122 542.028 219.33 540.66 218.778 539.052C218.226 537.444 217.95 535.596 217.95 533.508C217.95 531.42 218.262 529.572 218.886 527.964C219.534 526.356 220.41 525 221.514 523.896C222.618 522.768 223.914 521.916 225.402 521.34C226.89 520.764 228.486 520.476 230.19 520.476C231.222 520.476 232.158 520.56 232.998 520.728C233.838 520.872 234.57 521.04 235.194 521.232C235.818 521.424 236.334 521.628 236.742 521.844C237.15 522.06 237.438 522.216 237.606 522.312L236.274 526.02C235.698 525.66 234.87 525.324 233.79 525.012C232.734 524.676 231.582 524.508 230.334 524.508C229.254 524.508 228.246 524.7 227.31 525.084C226.374 525.444 225.558 525.996 224.862 526.74C224.19 527.484 223.662 528.42 223.278 529.548C222.894 530.676 222.702 531.984 222.702 533.472C222.702 534.792 222.846 536.004 223.134 537.108C223.446 538.212 223.914 539.172 224.538 539.988C225.162 540.78 225.954 541.404 226.914 541.86C227.874 542.292 229.026 542.508 230.37 542.508C231.978 542.508 233.286 542.352 234.294 542.04C235.302 541.704 236.082 541.392 236.634 541.104L237.858 544.812C237.57 545.004 237.174 545.196 236.67 545.388C236.19 545.58 235.614 545.772 234.942 545.964C234.27 546.132 233.514 546.264 232.674 546.36C231.834 546.48 230.934 546.54 229.974 546.54ZM248.251 542.94C249.595 542.94 250.615 542.868 251.311 542.724V537.9C251.071 537.828 250.723 537.756 250.267 537.684C249.811 537.612 249.307 537.576 248.755 537.576C248.275 537.576 247.783 537.612 247.279 537.684C246.799 537.756 246.355 537.888 245.947 538.08C245.563 538.272 245.251 538.548 245.011 538.908C244.771 539.244 244.651 539.676 244.651 540.204C244.651 541.236 244.975 541.956 245.623 542.364C246.271 542.748 247.147 542.94 248.251 542.94ZM247.891 526.704C249.331 526.704 250.543 526.884 251.527 527.244C252.511 527.604 253.291 528.108 253.867 528.756C254.467 529.404 254.887 530.196 255.127 531.132C255.391 532.044 255.523 533.052 255.523 534.156V545.568C254.851 545.712 253.831 545.88 252.463 546.072C251.119 546.288 249.595 546.396 247.891 546.396C246.763 546.396 245.731 546.288 244.795 546.072C243.859 545.856 243.055 545.508 242.383 545.028C241.735 544.548 241.219 543.924 240.835 543.156C240.475 542.388 240.295 541.44 240.295 540.312C240.295 539.232 240.499 538.32 240.907 537.576C241.339 536.832 241.915 536.232 242.635 535.776C243.355 535.296 244.183 534.96 245.119 534.768C246.079 534.552 247.075 534.444 248.107 534.444C248.587 534.444 249.091 534.48 249.619 534.552C250.147 534.6 250.711 534.696 251.311 534.84V534.12C251.311 533.616 251.251 533.136 251.131 532.68C251.011 532.224 250.795 531.828 250.483 531.492C250.195 531.132 249.799 530.856 249.295 530.664C248.815 530.472 248.203 530.376 247.459 530.376C246.451 530.376 245.527 530.448 244.687 530.592C243.847 530.736 243.163 530.904 242.635 531.096L242.095 527.568C242.647 527.376 243.451 527.184 244.507 526.992C245.563 526.8 246.691 526.704 247.891 526.704ZM271.586 531.096C271.226 530.976 270.722 530.856 270.074 530.736C269.45 530.592 268.718 530.52 267.878 530.52C267.398 530.52 266.882 530.568 266.33 530.664C265.802 530.76 265.43 530.844 265.214 530.916V546H260.858V528.072C261.698 527.76 262.742 527.472 263.99 527.208C265.262 526.92 266.666 526.776 268.202 526.776C268.49 526.776 268.826 526.8 269.21 526.848C269.594 526.872 269.978 526.92 270.362 526.992C270.746 527.04 271.118 527.112 271.478 527.208C271.838 527.28 272.126 527.352 272.342 527.424L271.586 531.096ZM274.333 536.676C274.333 535.02 274.573 533.568 275.053 532.32C275.557 531.072 276.217 530.04 277.033 529.224C277.849 528.384 278.785 527.76 279.841 527.352C280.897 526.92 281.977 526.704 283.081 526.704C285.673 526.704 287.689 527.508 289.129 529.116C290.593 530.724 291.325 533.124 291.325 536.316C291.325 536.556 291.313 536.832 291.289 537.144C291.289 537.432 291.277 537.696 291.253 537.936H278.833C278.953 539.448 279.481 540.624 280.417 541.464C281.377 542.28 282.757 542.688 284.557 542.688C285.613 542.688 286.573 542.592 287.437 542.4C288.325 542.208 289.021 542.004 289.525 541.788L290.101 545.352C289.861 545.472 289.525 545.604 289.093 545.748C288.685 545.868 288.205 545.976 287.653 546.072C287.125 546.192 286.549 546.288 285.925 546.36C285.301 546.432 284.665 546.468 284.017 546.468C282.361 546.468 280.921 546.228 279.697 545.748C278.473 545.244 277.465 544.56 276.673 543.696C275.881 542.808 275.293 541.776 274.909 540.6C274.525 539.4 274.333 538.092 274.333 536.676ZM286.969 534.732C286.969 534.132 286.885 533.568 286.717 533.04C286.549 532.488 286.297 532.02 285.961 531.636C285.649 531.228 285.253 530.916 284.773 530.7C284.317 530.46 283.765 530.34 283.117 530.34C282.445 530.34 281.857 530.472 281.353 530.736C280.849 530.976 280.417 531.3 280.057 531.708C279.721 532.116 279.457 532.584 279.265 533.112C279.073 533.64 278.941 534.18 278.869 534.732H286.969Z" fill="#252835"/>
<path d="M349 554H41C32.1634 554 25 561.163 25 570V626C25 634.837 32.1634 642 41 642H349C357.837 642 365 634.837 365 626V570C365 561.163 357.837 554 349 554Z" fill="#D9D9D9"/>
<path d="M320.375 613.458C319.84 612.924 319.573 612.243 319.573 611.417C319.573 610.59 319.84 609.91 320.375 609.375L331.75 598L320.375 586.625C319.84 586.09 319.573 585.41 319.573 584.583C319.573 583.757 319.84 583.076 320.375 582.542C320.91 582.007 321.59 581.74 322.417 581.74C323.243 581.74 323.924 582.007 324.458 582.542L337.875 595.958C338.167 596.25 338.374 596.566 338.496 596.906C338.619 597.247 338.679 597.611 338.677 598C338.677 598.389 338.616 598.753 338.493 599.094C338.371 599.434 338.165 599.75 337.875 600.042L324.458 613.458C323.924 613.993 323.243 614.26 322.417 614.26C321.59 614.26 320.91 613.993 320.375 613.458Z" fill="#FF9341"/>
<g style="mix-blend-mode:multiply">
<path d="M131.328 591.551C131.177 590.206 130.552 589.165 129.453 588.426C128.355 587.678 126.972 587.304 125.305 587.304C124.112 587.304 123.08 587.493 122.209 587.872C121.338 588.241 120.661 588.753 120.178 589.406C119.704 590.05 119.467 590.784 119.467 591.608C119.467 592.299 119.628 592.896 119.95 593.398C120.282 593.9 120.713 594.321 121.243 594.662C121.783 594.993 122.36 595.273 122.976 595.5C123.591 595.718 124.183 595.898 124.751 596.04L127.592 596.778C128.52 597.006 129.472 597.313 130.447 597.702C131.423 598.09 132.327 598.601 133.161 599.236C133.994 599.87 134.666 600.656 135.178 601.594C135.698 602.531 135.959 603.653 135.959 604.96C135.959 606.608 135.533 608.071 134.68 609.349C133.838 610.628 132.611 611.636 131.001 612.375C129.401 613.114 127.464 613.483 125.192 613.483C123.014 613.483 121.129 613.137 119.538 612.446C117.947 611.755 116.702 610.775 115.803 609.506C114.903 608.227 114.406 606.712 114.311 604.96H118.714C118.8 606.011 119.141 606.887 119.737 607.588C120.343 608.279 121.115 608.795 122.053 609.136C123 609.468 124.036 609.634 125.163 609.634C126.404 609.634 127.507 609.439 128.473 609.051C129.448 608.653 130.215 608.104 130.774 607.403C131.333 606.693 131.612 605.865 131.612 604.918C131.612 604.056 131.366 603.35 130.874 602.801C130.391 602.252 129.732 601.797 128.899 601.438C128.075 601.078 127.143 600.76 126.101 600.486L122.663 599.548C120.334 598.914 118.487 597.981 117.124 596.75C115.769 595.519 115.092 593.89 115.092 591.864C115.092 590.187 115.547 588.724 116.456 587.474C117.365 586.224 118.596 585.254 120.149 584.562C121.702 583.862 123.454 583.511 125.405 583.511C127.375 583.511 129.112 583.857 130.618 584.548C132.133 585.24 133.326 586.191 134.197 587.403C135.069 588.606 135.523 589.989 135.561 591.551H131.328ZM150.266 613.44C148.117 613.44 146.265 612.981 144.712 612.062C143.169 611.134 141.976 609.832 141.133 608.156C140.299 606.471 139.883 604.496 139.883 602.233C139.883 599.998 140.299 598.028 141.133 596.324C141.976 594.619 143.15 593.289 144.656 592.332C146.171 591.376 147.942 590.898 149.968 590.898C151.199 590.898 152.392 591.101 153.548 591.509C154.703 591.916 155.74 592.555 156.658 593.426C157.577 594.297 158.301 595.429 158.832 596.821C159.362 598.204 159.627 599.884 159.627 601.864V603.369H142.283V600.188H155.465C155.465 599.07 155.238 598.08 154.783 597.219C154.329 596.348 153.69 595.661 152.866 595.159C152.051 594.657 151.095 594.406 149.996 594.406C148.803 594.406 147.762 594.7 146.871 595.287C145.991 595.865 145.309 596.622 144.826 597.56C144.353 598.488 144.116 599.496 144.116 600.585V603.071C144.116 604.529 144.371 605.77 144.883 606.793C145.404 607.815 146.128 608.597 147.056 609.136C147.984 609.667 149.068 609.932 150.309 609.932C151.114 609.932 151.848 609.818 152.511 609.591C153.174 609.354 153.746 609.004 154.229 608.54C154.712 608.076 155.082 607.503 155.337 606.821L159.357 607.545C159.035 608.729 158.458 609.766 157.624 610.656C156.8 611.537 155.763 612.223 154.513 612.716C153.273 613.199 151.857 613.44 150.266 613.44ZM164.339 613V591.182H168.445V594.648H168.672C169.07 593.473 169.77 592.55 170.774 591.878C171.787 591.196 172.933 590.855 174.212 590.855C174.477 590.855 174.789 590.865 175.149 590.884C175.518 590.902 175.807 590.926 176.016 590.955V595.017C175.845 594.97 175.542 594.918 175.107 594.861C174.671 594.795 174.235 594.761 173.8 594.761C172.796 594.761 171.901 594.974 171.115 595.401C170.339 595.817 169.723 596.4 169.268 597.148C168.814 597.886 168.587 598.729 168.587 599.676V613H164.339ZM199.02 591.182L191.108 613H186.562L178.636 591.182H183.196L188.722 607.972H188.949L194.46 591.182H199.02ZM203.011 613V591.182H207.259V613H203.011ZM205.156 587.815C204.418 587.815 203.783 587.569 203.253 587.077C202.732 586.575 202.472 585.978 202.472 585.287C202.472 584.586 202.732 583.99 203.253 583.497C203.783 582.995 204.418 582.744 205.156 582.744C205.895 582.744 206.525 582.995 207.045 583.497C207.576 583.99 207.841 584.586 207.841 585.287C207.841 585.978 207.576 586.575 207.045 587.077C206.525 587.569 205.895 587.815 205.156 587.815ZM222.163 613.44C220.051 613.44 218.233 612.962 216.708 612.006C215.193 611.04 214.028 609.709 213.214 608.014C212.399 606.319 211.992 604.378 211.992 602.19C211.992 599.974 212.409 598.019 213.242 596.324C214.076 594.619 215.25 593.289 216.765 592.332C218.28 591.376 220.065 590.898 222.12 590.898C223.777 590.898 225.254 591.205 226.552 591.821C227.849 592.427 228.896 593.279 229.691 594.378C230.496 595.476 230.974 596.759 231.126 598.227H226.992C226.765 597.205 226.244 596.324 225.43 595.585C224.625 594.847 223.545 594.477 222.191 594.477C221.007 594.477 219.97 594.79 219.08 595.415C218.2 596.03 217.513 596.911 217.021 598.057C216.528 599.193 216.282 600.538 216.282 602.091C216.282 603.682 216.523 605.055 217.006 606.21C217.489 607.366 218.171 608.26 219.052 608.895C219.942 609.529 220.988 609.847 222.191 609.847C222.996 609.847 223.725 609.7 224.379 609.406C225.041 609.103 225.595 608.672 226.04 608.114C226.495 607.555 226.812 606.883 226.992 606.097H231.126C230.974 607.508 230.515 608.767 229.748 609.875C228.981 610.983 227.953 611.854 226.665 612.489C225.387 613.123 223.886 613.44 222.163 613.44ZM245.071 613.44C242.921 613.44 241.07 612.981 239.517 612.062C237.973 611.134 236.78 609.832 235.938 608.156C235.104 606.471 234.688 604.496 234.688 602.233C234.688 599.998 235.104 598.028 235.938 596.324C236.78 594.619 237.955 593.289 239.46 592.332C240.975 591.376 242.746 590.898 244.773 590.898C246.004 590.898 247.197 591.101 248.352 591.509C249.508 591.916 250.545 592.555 251.463 593.426C252.382 594.297 253.106 595.429 253.636 596.821C254.167 598.204 254.432 599.884 254.432 601.864V603.369H237.088V600.188H250.27C250.27 599.07 250.043 598.08 249.588 597.219C249.134 596.348 248.494 595.661 247.67 595.159C246.856 594.657 245.9 594.406 244.801 594.406C243.608 594.406 242.566 594.7 241.676 595.287C240.795 595.865 240.114 596.622 239.631 597.56C239.157 598.488 238.92 599.496 238.92 600.585V603.071C238.92 604.529 239.176 605.77 239.688 606.793C240.208 607.815 240.933 608.597 241.861 609.136C242.789 609.667 243.873 609.932 245.114 609.932C245.919 609.932 246.652 609.818 247.315 609.591C247.978 609.354 248.551 609.004 249.034 608.54C249.517 608.076 249.886 607.503 250.142 606.821L254.162 607.545C253.84 608.729 253.262 609.766 252.429 610.656C251.605 611.537 250.568 612.223 249.318 612.716C248.078 613.199 246.662 613.44 245.071 613.44ZM275.494 596.509L271.644 597.19C271.483 596.698 271.228 596.229 270.877 595.784C270.536 595.339 270.072 594.974 269.485 594.69C268.898 594.406 268.164 594.264 267.283 594.264C266.081 594.264 265.077 594.534 264.272 595.074C263.467 595.604 263.065 596.291 263.065 597.134C263.065 597.863 263.335 598.45 263.874 598.895C264.414 599.34 265.285 599.705 266.488 599.989L269.954 600.784C271.961 601.248 273.458 601.963 274.442 602.929C275.427 603.895 275.92 605.15 275.92 606.693C275.92 608 275.541 609.165 274.783 610.188C274.035 611.201 272.989 611.996 271.644 612.574C270.309 613.152 268.761 613.44 266.999 613.44C264.556 613.44 262.563 612.92 261.019 611.878C259.476 610.827 258.529 609.335 258.178 607.403L262.283 606.778C262.539 607.848 263.065 608.658 263.86 609.207C264.656 609.747 265.692 610.017 266.971 610.017C268.363 610.017 269.476 609.728 270.309 609.151C271.142 608.563 271.559 607.848 271.559 607.006C271.559 606.324 271.303 605.751 270.792 605.287C270.29 604.823 269.518 604.473 268.477 604.236L264.783 603.426C262.747 602.962 261.242 602.223 260.266 601.21C259.3 600.197 258.817 598.914 258.817 597.361C258.817 596.073 259.177 594.946 259.897 593.98C260.617 593.014 261.611 592.261 262.88 591.722C264.149 591.172 265.603 590.898 267.241 590.898C269.599 590.898 271.455 591.409 272.809 592.432C274.163 593.445 275.058 594.804 275.494 596.509Z" fill="#252835"/>
</g>
<path d="M86 603.667H75.3333V614.333H64.6667V603.667H54V593H64.6667V582.333H75.3333V593H86M88.6667 574.333H51.3333C48.3733 574.333 46 576.707 46 579.667V617C46 618.414 46.5619 619.771 47.5621 620.771C48.5623 621.771 49.9188 622.333 51.3333 622.333H88.6667C90.0812 622.333 91.4377 621.771 92.4379 620.771C93.4381 619.771 94 618.414 94 617V579.667C94 578.252 93.4381 576.896 92.4379 575.895C91.4377 574.895 90.0812 574.333 88.6667 574.333Z" fill="#D60000"/>
<path d="M34.036 209.616C35.668 209.616 36.856 209.34 37.6 208.788C38.344 208.236 38.716 207.456 38.716 206.448C38.716 205.848 38.584 205.332 38.32 204.9C38.08 204.468 37.72 204.084 37.24 203.748C36.784 203.388 36.22 203.064 35.548 202.776C34.876 202.464 34.108 202.164 33.244 201.876C32.38 201.564 31.54 201.228 30.724 200.868C29.932 200.484 29.224 200.016 28.6 199.464C28 198.912 27.508 198.252 27.124 197.484C26.764 196.716 26.584 195.792 26.584 194.712C26.584 192.456 27.364 190.692 28.924 189.42C30.484 188.124 32.608 187.476 35.296 187.476C36.856 187.476 38.236 187.656 39.436 188.016C40.66 188.352 41.62 188.724 42.316 189.132L40.912 192.804C40.096 192.348 39.196 192 38.212 191.76C37.252 191.52 36.256 191.4 35.224 191.4C34 191.4 33.04 191.652 32.344 192.156C31.672 192.66 31.336 193.368 31.336 194.28C31.336 194.832 31.444 195.312 31.66 195.72C31.9 196.104 32.224 196.452 32.632 196.764C33.064 197.076 33.556 197.364 34.108 197.628C34.684 197.892 35.308 198.144 35.98 198.384C37.156 198.816 38.2 199.26 39.112 199.716C40.048 200.148 40.828 200.676 41.452 201.3C42.1 201.9 42.592 202.62 42.928 203.46C43.264 204.276 43.432 205.272 43.432 206.448C43.432 208.704 42.628 210.456 41.02 211.704C39.436 212.928 37.108 213.54 34.036 213.54C33.004 213.54 32.056 213.468 31.192 213.324C30.352 213.204 29.596 213.048 28.924 212.856C28.276 212.664 27.712 212.472 27.232 212.28C26.752 212.064 26.368 211.872 26.08 211.704L27.412 207.996C28.06 208.356 28.936 208.716 30.04 209.076C31.144 209.436 32.476 209.616 34.036 209.616ZM53.8374 209.94C55.1814 209.94 56.2014 209.868 56.8974 209.724V204.9C56.6574 204.828 56.3094 204.756 55.8534 204.684C55.3974 204.612 54.8934 204.576 54.3414 204.576C53.8614 204.576 53.3694 204.612 52.8654 204.684C52.3854 204.756 51.9414 204.888 51.5334 205.08C51.1494 205.272 50.8374 205.548 50.5974 205.908C50.3574 206.244 50.2374 206.676 50.2374 207.204C50.2374 208.236 50.5614 208.956 51.2094 209.364C51.8574 209.748 52.7334 209.94 53.8374 209.94ZM53.4774 193.704C54.9174 193.704 56.1294 193.884 57.1134 194.244C58.0974 194.604 58.8774 195.108 59.4534 195.756C60.0534 196.404 60.4734 197.196 60.7134 198.132C60.9774 199.044 61.1094 200.052 61.1094 201.156V212.568C60.4374 212.712 59.4174 212.88 58.0494 213.072C56.7054 213.288 55.1814 213.396 53.4774 213.396C52.3494 213.396 51.3174 213.288 50.3814 213.072C49.4454 212.856 48.6414 212.508 47.9694 212.028C47.3214 211.548 46.8054 210.924 46.4214 210.156C46.0614 209.388 45.8814 208.44 45.8814 207.312C45.8814 206.232 46.0854 205.32 46.4934 204.576C46.9254 203.832 47.5014 203.232 48.2214 202.776C48.9414 202.296 49.7694 201.96 50.7054 201.768C51.6654 201.552 52.6614 201.444 53.6934 201.444C54.1734 201.444 54.6774 201.48 55.2054 201.552C55.7334 201.6 56.2974 201.696 56.8974 201.84V201.12C56.8974 200.616 56.8374 200.136 56.7174 199.68C56.5974 199.224 56.3814 198.828 56.0694 198.492C55.7814 198.132 55.3854 197.856 54.8814 197.664C54.4014 197.472 53.7894 197.376 53.0454 197.376C52.0374 197.376 51.1134 197.448 50.2734 197.592C49.4334 197.736 48.7494 197.904 48.2214 198.096L47.6814 194.568C48.2334 194.376 49.0374 194.184 50.0934 193.992C51.1494 193.8 52.2774 193.704 53.4774 193.704ZM74.1119 185.064C75.1199 185.064 76.0079 185.16 76.7759 185.352C77.5439 185.52 78.1199 185.676 78.5039 185.82L77.6759 189.42C77.2679 189.228 76.7879 189.072 76.2359 188.952C75.7079 188.832 75.1319 188.772 74.5079 188.772C73.8119 188.772 73.2239 188.88 72.7439 189.096C72.2639 189.288 71.8799 189.564 71.5919 189.924C71.3039 190.284 71.0999 190.728 70.9799 191.256C70.8599 191.76 70.7999 192.312 70.7999 192.912V194.172H77.6399V197.808H70.7999V213H66.4439V192.84C66.4439 190.416 67.0799 188.52 68.3519 187.152C69.6239 185.76 71.5439 185.064 74.1119 185.064ZM79.4624 203.676C79.4624 202.02 79.7024 200.568 80.1824 199.32C80.6864 198.072 81.3464 197.04 82.1624 196.224C82.9784 195.384 83.9144 194.76 84.9704 194.352C86.0264 193.92 87.1064 193.704 88.2104 193.704C90.8024 193.704 92.8184 194.508 94.2584 196.116C95.7224 197.724 96.4544 200.124 96.4544 203.316C96.4544 203.556 96.4424 203.832 96.4184 204.144C96.4184 204.432 96.4064 204.696 96.3824 204.936H83.9624C84.0824 206.448 84.6104 207.624 85.5464 208.464C86.5064 209.28 87.8864 209.688 89.6864 209.688C90.7424 209.688 91.7024 209.592 92.5664 209.4C93.4544 209.208 94.1504 209.004 94.6544 208.788L95.2304 212.352C94.9904 212.472 94.6544 212.604 94.2224 212.748C93.8144 212.868 93.3344 212.976 92.7824 213.072C92.2544 213.192 91.6784 213.288 91.0544 213.36C90.4304 213.432 89.7944 213.468 89.1464 213.468C87.4904 213.468 86.0504 213.228 84.8264 212.748C83.6024 212.244 82.5944 211.56 81.8024 210.696C81.0104 209.808 80.4224 208.776 80.0384 207.6C79.6544 206.4 79.4624 205.092 79.4624 203.676ZM92.0984 201.732C92.0984 201.132 92.0144 200.568 91.8464 200.04C91.6784 199.488 91.4264 199.02 91.0904 198.636C90.7784 198.228 90.3824 197.916 89.9024 197.7C89.4464 197.46 88.8944 197.34 88.2464 197.34C87.5744 197.34 86.9864 197.472 86.4824 197.736C85.9784 197.976 85.5464 198.3 85.1864 198.708C84.8504 199.116 84.5864 199.584 84.3944 200.112C84.2024 200.64 84.0704 201.18 83.9984 201.732H92.0984ZM100.857 189.204L105.213 188.484V194.172H111.909V197.808H105.213V205.476C105.213 206.988 105.453 208.068 105.933 208.716C106.413 209.364 107.229 209.688 108.381 209.688C109.173 209.688 109.869 209.604 110.469 209.436C111.093 209.268 111.585 209.112 111.945 208.968L112.665 212.424C112.161 212.64 111.501 212.856 110.685 213.072C109.869 213.312 108.909 213.432 107.805 213.432C106.461 213.432 105.333 213.252 104.421 212.892C103.533 212.532 102.825 212.016 102.297 211.344C101.769 210.648 101.397 209.82 101.181 208.86C100.965 207.876 100.857 206.76 100.857 205.512V189.204ZM131.492 194.172C129.548 201.324 127.292 207.804 124.724 213.612C124.244 214.692 123.752 215.616 123.248 216.384C122.744 217.152 122.18 217.788 121.556 218.292C120.932 218.796 120.236 219.156 119.468 219.372C118.7 219.612 117.812 219.732 116.804 219.732C116.132 219.732 115.46 219.66 114.788 219.516C114.14 219.372 113.648 219.216 113.312 219.048L114.104 215.556C114.968 215.892 115.82 216.06 116.66 216.06C117.788 216.06 118.664 215.784 119.288 215.232C119.936 214.704 120.5 213.876 120.98 212.748C119.612 210.108 118.292 207.228 117.02 204.108C115.772 200.988 114.656 197.676 113.672 194.172H118.316C118.556 195.18 118.844 196.272 119.18 197.448C119.54 198.624 119.924 199.824 120.332 201.048C120.74 202.248 121.172 203.448 121.628 204.648C122.084 205.848 122.54 206.964 122.996 207.996C123.764 205.86 124.484 203.592 125.156 201.192C125.828 198.768 126.44 196.428 126.992 194.172H131.492Z" fill="#252835"/>
<path d="M349 223H41C32.1634 223 25 230.163 25 239V295C25 303.837 32.1634 311 41 311H349C357.837 311 365 303.837 365 295V239C365 230.163 357.837 223 349 223Z" fill="#D9D9D9"/>
<path d="M320.375 282.458C319.84 281.924 319.573 281.243 319.573 280.417C319.573 279.59 319.84 278.91 320.375 278.375L331.75 267L320.375 255.625C319.84 255.09 319.573 254.41 319.573 253.583C319.573 252.757 319.84 252.076 320.375 251.542C320.91 251.007 321.59 250.74 322.417 250.74C323.243 250.74 323.924 251.007 324.458 251.542L337.875 264.958C338.167 265.25 338.374 265.566 338.496 265.906C338.619 266.247 338.679 266.611 338.677 267C338.677 267.389 338.616 267.753 338.493 268.094C338.371 268.434 338.165 268.75 337.875 269.042L324.458 282.458C323.924 282.993 323.243 283.26 322.417 283.26C321.59 283.26 320.91 282.993 320.375 282.458Z" fill="#FF9341"/>
<g style="mix-blend-mode:multiply">
<path d="M182.761 252.909V282H178.372V252.909H182.761ZM198.571 282H189.153V252.909H198.869C201.719 252.909 204.167 253.491 206.213 254.656C208.258 255.812 209.825 257.473 210.914 259.642C212.013 261.801 212.562 264.391 212.562 267.412C212.562 270.442 212.008 273.046 210.9 275.224C209.802 277.402 208.211 279.079 206.127 280.253C204.044 281.418 201.525 282 198.571 282ZM193.542 278.165H198.329C200.545 278.165 202.387 277.748 203.855 276.915C205.323 276.072 206.421 274.855 207.15 273.264C207.879 271.664 208.244 269.713 208.244 267.412C208.244 265.13 207.879 263.193 207.15 261.602C206.431 260.011 205.356 258.804 203.926 257.98C202.496 257.156 200.72 256.744 198.599 256.744H193.542V278.165Z" fill="#252835"/>
</g>
<path d="M349 223H41C32.1634 223 25 230.163 25 239V295C25 303.837 32.1634 311 41 311H349C357.837 311 365 303.837 365 295V239C365 230.163 357.837 223 349 223Z" fill="#D9D9D9"/>
<path d="M320.375 282.458C319.84 281.924 319.573 281.243 319.573 280.417C319.573 279.59 319.84 278.91 320.375 278.375L331.75 267L320.375 255.625C319.84 255.09 319.573 254.41 319.573 253.583C319.573 252.757 319.84 252.076 320.375 251.542C320.91 251.007 321.59 250.74 322.417 250.74C323.243 250.74 323.924 251.007 324.458 251.542L337.875 264.958C338.167 265.25 338.374 265.566 338.496 265.906C338.619 266.247 338.679 266.611 338.677 267C338.677 267.389 338.616 267.753 338.493 268.094C338.371 268.434 338.165 268.75 337.875 269.042L324.458 282.458C323.924 282.993 323.243 283.26 322.417 283.26C321.59 283.26 320.91 282.993 320.375 282.458Z" fill="#FF9341"/>
<g style="mix-blend-mode:multiply">
<path d="M182.761 252.909V282H178.372V252.909H182.761ZM198.571 282H189.153V252.909H198.869C201.719 252.909 204.167 253.491 206.213 254.656C208.258 255.812 209.825 257.473 210.914 259.642C212.013 261.801 212.562 264.391 212.562 267.412C212.562 270.442 212.008 273.046 210.9 275.224C209.802 277.402 208.211 279.079 206.127 280.253C204.044 281.418 201.525 282 198.571 282ZM193.542 278.165H198.329C200.545 278.165 202.387 277.748 203.855 276.915C205.323 276.072 206.421 274.855 207.15 273.264C207.879 271.664 208.244 269.713 208.244 267.412C208.244 265.13 207.879 263.193 207.15 261.602C206.431 260.011 205.356 258.804 203.926 257.98C202.496 257.156 200.72 256.744 198.599 256.744H193.542V278.165Z" fill="#252835"/>
</g>
<path d="M70.3333 267.333C67.4 267.333 64.8889 266.289 62.8 264.2C60.7111 262.111 59.6667 259.6 59.6667 256.667C59.6667 253.733 60.7111 251.222 62.8 249.133C64.8889 247.044 67.4 246 70.3333 246C73.2667 246 75.7778 247.044 77.8667 249.133C79.9556 251.222 81 253.733 81 256.667C81 259.6 79.9556 262.111 77.8667 264.2C75.7778 266.289 73.2667 267.333 70.3333 267.333ZM54.3333 288.667C52.8667 288.667 51.6107 288.144 50.5653 287.099C49.52 286.053 48.9982 284.798 49 283.333V281.2C49 279.689 49.3893 278.3 50.168 277.032C50.9467 275.764 51.9796 274.798 53.2667 274.133C56.0222 272.756 58.8222 271.722 61.6667 271.032C64.5111 270.342 67.4 269.998 70.3333 270C73.2667 270 76.1556 270.345 79 271.035C81.8445 271.724 84.6444 272.757 87.4 274.133C88.6889 274.8 89.7227 275.767 90.5013 277.035C91.28 278.302 91.6685 279.691 91.6667 281.2V283.333C91.6667 284.8 91.144 286.056 90.0987 287.101C89.0533 288.147 87.7982 288.668 86.3333 288.667H54.3333Z" fill="#252835"/>
<rect x="10" y="72" width="370" height="87" rx="16" fill="#D0D0D0"/>
<path d="M338.929 119.967C337.788 123.691 335.503 126.96 332.397 129.309C329.671 131.361 326.427 132.613 323.029 132.924C319.63 133.234 316.213 132.592 313.16 131.067C310.107 129.543 307.539 127.198 305.744 124.295C303.949 121.392 302.999 118.047 303 114.634C302.988 110.65 304.283 106.772 306.686 103.595C309.034 100.489 312.303 98.2032 316.025 97.0625C316.271 96.987 316.532 96.9797 316.781 97.0416C317.03 97.1035 317.258 97.2321 317.439 97.4137C317.621 97.5953 317.75 97.8229 317.811 98.0721C317.873 98.3213 317.866 98.5827 317.791 98.8281C316.977 101.521 316.908 104.385 317.593 107.114C318.278 109.843 319.69 112.335 321.679 114.325C323.668 116.314 326.16 117.727 328.888 118.412C331.617 119.097 334.48 119.028 337.172 118.214C337.418 118.139 337.679 118.131 337.928 118.193C338.177 118.255 338.405 118.384 338.586 118.565C338.768 118.747 338.897 118.975 338.958 119.224C339.02 119.473 339.013 119.734 338.937 119.98L338.929 119.967Z" fill="#252835"/>
<path d="M53.9583 127.5C53.4035 127.5 52.938 127.312 52.562 126.936C52.186 126.56 51.9987 126.095 52 125.542C52 124.987 52.188 124.521 52.564 124.145C52.94 123.769 53.4048 123.582 53.9583 123.583H85.2917C85.8465 123.583 86.312 123.771 86.688 124.147C87.064 124.523 87.2513 124.988 87.25 125.542C87.25 126.097 87.062 126.562 86.686 126.938C86.31 127.314 85.8452 127.501 85.2917 127.5H53.9583ZM53.9583 117.708C53.4035 117.708 52.938 117.52 52.562 117.144C52.186 116.768 51.9987 116.304 52 115.75C52 115.195 52.188 114.73 52.564 114.354C52.94 113.978 53.4048 113.79 53.9583 113.792H85.2917C85.8465 113.792 86.312 113.98 86.688 114.356C87.064 114.732 87.2513 115.196 87.25 115.75C87.25 116.305 87.062 116.77 86.686 117.146C86.31 117.522 85.8452 117.71 85.2917 117.708H53.9583ZM53.9583 107.917C53.4035 107.917 52.938 107.729 52.562 107.353C52.186 106.977 51.9987 106.512 52 105.958C52 105.403 52.188 104.938 52.564 104.562C52.94 104.186 53.4048 103.999 53.9583 104H85.2917C85.8465 104 86.312 104.188 86.688 104.564C87.064 104.94 87.2513 105.405 87.25 105.958C87.25 106.513 87.062 106.979 86.686 107.355C86.31 107.731 85.8452 107.918 85.2917 107.917H53.9583Z" fill="#0F0F0F"/>
<path d="M214.587 115.34C214.385 115.222 214.162 115.11 213.932 115C214.162 114.89 214.385 114.777 214.587 114.66C215.734 114.008 216.74 113.136 217.548 112.094C218.356 111.051 218.95 109.86 219.296 108.587C219.641 107.314 219.732 105.986 219.562 104.678C219.392 103.37 218.965 102.109 218.305 100.967C217.646 99.8246 216.767 98.8242 215.719 98.0231C214.672 97.222 213.476 96.6361 212.201 96.299C210.926 95.9619 209.597 95.8803 208.29 96.059C206.984 96.2377 205.725 96.673 204.587 97.34C204.385 97.4575 204.175 97.59 203.967 97.7375C203.987 97.4875 204 97.2375 204 96.9875C204 94.3353 202.946 91.7918 201.071 89.9164C199.196 88.0411 196.652 86.9875 194 86.9875C191.348 86.9875 188.804 88.0411 186.929 89.9164C185.054 91.7918 184 94.3353 184 96.9875C184 97.2225 184 97.4725 184.032 97.7375C183.825 97.595 183.615 97.4575 183.412 97.34C182.275 96.673 181.016 96.2377 179.71 96.059C178.403 95.8803 177.074 95.9619 175.799 96.299C174.524 96.6361 173.328 97.222 172.281 98.0231C171.233 98.8242 170.354 99.8246 169.695 100.967C169.035 102.109 168.608 103.37 168.438 104.678C168.268 105.986 168.359 107.314 168.704 108.587C169.05 109.86 169.644 111.051 170.452 112.094C171.26 113.136 172.266 114.008 173.412 114.66C173.615 114.777 173.837 114.89 174.067 115C173.837 115.11 173.615 115.222 173.412 115.34C172.266 115.992 171.26 116.864 170.452 117.906C169.644 118.949 169.05 120.14 168.704 121.413C168.359 122.686 168.268 124.014 168.438 125.322C168.608 126.63 169.035 127.891 169.695 129.033C170.354 130.175 171.233 131.176 172.281 131.977C173.328 132.778 174.524 133.364 175.799 133.701C177.074 134.038 178.403 134.12 179.71 133.941C181.016 133.762 182.275 133.327 183.412 132.66C183.615 132.542 183.825 132.41 184.032 132.262C184.012 132.512 184 132.762 184 133C184 135.652 185.054 138.196 186.929 140.071C188.804 141.946 191.348 143 194 143C196.652 143 199.196 141.946 201.071 140.071C202.946 138.196 204 135.652 204 133C204 132.765 203.987 132.515 203.967 132.262C204.175 132.405 204.385 132.542 204.587 132.66C206.102 133.538 207.822 134 209.572 134C210.452 133.999 211.328 133.883 212.177 133.655C214.088 133.143 215.804 132.076 217.108 130.589C218.412 129.102 219.245 127.261 219.503 125.3C219.761 123.339 219.432 121.346 218.557 119.572C217.682 117.798 216.301 116.324 214.587 115.335V115.34ZM188 115C188 113.813 188.352 112.653 189.011 111.667C189.67 110.68 190.608 109.911 191.704 109.457C192.8 109.003 194.007 108.884 195.171 109.115C196.334 109.347 197.404 109.918 198.243 110.757C199.082 111.596 199.653 112.666 199.885 113.829C200.116 114.993 199.997 116.2 199.543 117.296C199.089 118.392 198.32 119.33 197.333 119.989C196.347 120.648 195.187 121 194 121C192.409 121 190.883 120.368 189.757 119.243C188.632 118.117 188 116.591 188 115ZM206.587 100.802C207.27 100.409 208.023 100.153 208.804 100.05C209.586 99.9471 210.379 99.9992 211.14 100.203C211.902 100.407 212.615 100.759 213.24 101.239C213.865 101.718 214.39 102.316 214.784 102.999C215.178 103.681 215.433 104.434 215.536 105.216C215.639 105.997 215.587 106.791 215.383 107.552C215.179 108.313 214.827 109.026 214.348 109.651C213.868 110.277 213.27 110.801 212.587 111.195C211.02 112.102 207.935 112.727 203.797 112.992C203.361 110.876 202.251 108.958 200.632 107.525C202.932 104.07 205.02 101.71 206.587 100.802ZM194 91C195.591 91 197.117 91.6321 198.243 92.7573C199.368 93.8826 200 95.4087 200 97C200 98.81 199 101.797 197.16 105.515C195.109 104.828 192.891 104.828 190.84 105.515C189 101.797 188 98.81 188 97C188 95.4087 188.632 93.8826 189.757 92.7573C190.883 91.6321 192.409 91 194 91ZM173.215 103C173.609 102.317 174.133 101.719 174.758 101.239C175.384 100.759 176.097 100.407 176.858 100.203C177.62 99.9989 178.414 99.9469 179.195 100.05C179.977 100.153 180.73 100.408 181.412 100.802C182.98 101.71 185.067 104.07 187.367 107.525C185.748 108.96 184.637 110.881 184.202 113C180.065 112.735 176.98 112.11 175.412 111.205C174.729 110.811 174.13 110.286 173.649 109.661C173.168 109.035 172.816 108.32 172.612 107.558C172.408 106.796 172.356 106.001 172.459 105.219C172.563 104.437 172.82 103.683 173.215 103ZM181.412 129.197C180.034 129.993 178.397 130.209 176.86 129.797C175.322 129.385 174.012 128.379 173.216 127.001C172.421 125.623 172.205 123.985 172.617 122.448C173.029 120.911 174.034 119.601 175.412 118.805C176.98 117.897 180.065 117.272 184.202 117.007C184.639 119.124 185.749 121.042 187.367 122.475C185.067 125.93 182.98 128.29 181.412 129.197ZM194 139C192.409 139 190.883 138.368 189.757 137.243C188.632 136.117 188 134.591 188 133C188 131.19 189 128.202 190.84 124.485C192.891 125.172 195.109 125.172 197.16 124.485C199 128.202 200 131.19 200 133C200 134.591 199.368 136.117 198.243 137.243C197.117 138.368 195.591 139 194 139ZM214.785 127C214.391 127.683 213.867 128.281 213.241 128.761C212.616 129.241 211.903 129.593 211.141 129.797C210.38 130.001 209.586 130.053 208.805 129.95C208.023 129.847 207.27 129.592 206.587 129.197C205.02 128.29 202.932 125.93 200.632 122.475C202.252 121.04 203.363 119.119 203.797 117C207.935 117.265 211.02 117.89 212.587 118.795C213.271 119.189 213.87 119.714 214.351 120.339C214.832 120.965 215.184 121.68 215.388 122.442C215.592 123.204 215.644 123.999 215.541 124.781C215.437 125.563 215.18 126.317 214.785 127Z" fill="#252835"/>
<path d="M361.208 181.594L352.354 172.844L355.271 169.927C356.069 169.128 357.051 168.729 358.215 168.729C359.378 168.729 360.359 169.128 361.156 169.927L364.073 172.844C364.872 173.642 365.288 174.606 365.323 175.735C365.358 176.865 364.976 177.828 364.177 178.625L361.208 181.594ZM329.333 206.75C328.743 206.75 328.248 206.55 327.848 206.15C327.448 205.75 327.249 205.256 327.25 204.667V198.781C327.25 198.503 327.302 198.234 327.406 197.973C327.51 197.712 327.667 197.478 327.875 197.271L349.333 175.813L358.187 184.667L336.729 206.125C336.521 206.333 336.287 206.49 336.027 206.594C335.767 206.698 335.498 206.75 335.219 206.75H329.333Z" fill="#252835"/>
<rect width="390" height="45.7653" fill="#F5F5F5"/>
<path fill-rule="evenodd" clip-rule="evenodd" d="M319 20H320C320.552 20 321 20.4477 321 21V27C321 27.5523 320.552 28 320 28H319C318.448 28 318 27.5523 318 27V21C318 20.4477 318.448 20 319 20Z" fill="#F9F9F9"/>
<path fill-rule="evenodd" clip-rule="evenodd" d="M314.5 22H315.5C316.052 22 316.5 22.4477 316.5 23V27C316.5 27.5523 316.052 28 315.5 28H314.5C313.948 28 313.5 27.5523 313.5 27V23C313.5 22.4477 313.948 22 314.5 22Z" fill="#F9F9F9"/>
<path fill-rule="evenodd" clip-rule="evenodd" d="M310 23.5H311C311.552 23.5 312 23.9477 312 24.5V27C312 27.5523 311.552 28 311 28H310C309.448 28 309 27.5523 309 27V24.5C309 23.9477 309.448 23.5 310 23.5Z" fill="#F9F9F9"/>
<path fill-rule="evenodd" clip-rule="evenodd" d="M323.5 18H324.5C325.052 18 325.5 18.4477 325.5 19V27C325.5 27.5523 325.052 28 324.5 28H323.5C322.948 28 322.5 27.5523 322.5 27V19C322.5 18.4477 322.948 18 323.5 18Z" fill="#3C3C43" fill-opacity="0.18"/>
<path fill-rule="evenodd" clip-rule="evenodd" d="M319 20H320C320.552 20 321 20.4477 321 21V27C321 27.5523 320.552 28 320 28H319C318.448 28 318 27.5523 318 27V21C318 20.4477 318.448 20 319 20Z" fill="black"/>
<path fill-rule="evenodd" clip-rule="evenodd" d="M314.5 22H315.5C316.052 22 316.5 22.4477 316.5 23V27C316.5 27.5523 316.052 28 315.5 28H314.5C313.948 28 313.5 27.5523 313.5 27V23C313.5 22.4477 313.948 22 314.5 22Z" fill="black"/>
<path fill-rule="evenodd" clip-rule="evenodd" d="M310 23.5H311C311.552 23.5 312 23.9477 312 24.5V27C312 27.5523 311.552 28 311 28H310C309.448 28 309 27.5523 309 27V24.5C309 23.9477 309.448 23.5 310 23.5Z" fill="black"/>
<path d="M339.133 24.9396C339.772 24.9396 340.394 25.1076 340.941 25.428L341.163 25.5579C341.331 25.6563 341.361 25.8866 341.223 26.0242L339.329 27.913C339.212 28.029 339.024 28.029 338.907 27.913L337.026 26.0363C336.888 25.8994 336.917 25.6702 337.084 25.5711L337.303 25.4406C337.855 25.1121 338.485 24.9396 339.133 24.9396Z" fill="black"/>
<path d="M339.133 21.4698C340.724 21.4698 342.251 21.9976 343.495 22.9749L343.671 23.113C343.811 23.2232 343.824 23.4306 343.697 23.5565L342.567 24.6841C342.462 24.7884 342.297 24.8004 342.178 24.7123L342.04 24.6098C341.2 23.9852 340.186 23.6502 339.133 23.6502C338.073 23.6502 337.053 23.9894 336.21 24.6211L336.072 24.7245C335.953 24.8134 335.787 24.8017 335.682 24.6971L334.552 23.5699C334.426 23.4443 334.438 23.2373 334.578 23.127L334.753 22.9888C336 22.0027 337.534 21.4698 339.133 21.4698Z" fill="black"/>
<path d="M339.133 18C341.657 18 344.072 18.8906 345.983 20.5229L346.146 20.6623C346.278 20.7749 346.285 20.9756 346.163 21.098L345.036 22.2219C344.926 22.3308 344.752 22.3385 344.634 22.2395L344.494 22.1228C342.989 20.8647 341.104 20.1804 339.133 20.1804C337.155 20.1804 335.263 20.8694 333.756 22.1354L333.617 22.2527C333.498 22.3521 333.324 22.3447 333.214 22.2356L332.087 21.1118C331.965 20.9895 331.972 20.7892 332.104 20.6765L332.266 20.5371C334.18 18.8959 336.601 18 339.133 18Z" fill="black"/>
<path d="M375 21V21C375.552 21 376 21.4477 376 22V24C376 24.5523 375.552 25 375 25V25V21Z" fill="#3C3C43" fill-opacity="0.6"/>
<path fill-rule="evenodd" clip-rule="evenodd" d="M354 17H371C372.657 17 374 18.3431 374 20V26C374 27.6569 372.657 29 371 29H354C352.343 29 351 27.6569 351 26V20C351 18.3431 352.343 17 354 17ZM354 18C352.895 18 352 18.8954 352 20V26C352 27.1046 352.895 28 354 28H371C372.105 28 373 27.1046 373 26V20C373 18.8954 372.105 18 371 18H354Z" fill="#3C3C43" fill-opacity="0.6"/>
<rect x="353" y="19" width="19" height="8" rx="1" fill="black"/>
<path d="M37.8672 28.0889C40.5552 28.0889 42.1519 25.9868 42.1519 22.4272C42.1519 21.0869 41.8955 19.959 41.4048 19.0874C40.6943 17.7324 39.4712 17 37.9258 17C35.626 17 34 18.5454 34 20.7134C34 22.7495 35.4648 24.229 37.479 24.229C38.7168 24.229 39.7202 23.6504 40.2183 22.647H40.2402C40.2402 22.647 40.2695 22.647 40.2769 22.647C40.2915 22.647 40.3428 22.647 40.3428 22.647C40.3428 25.064 39.4272 26.5068 37.8818 26.5068C36.9736 26.5068 36.2705 26.0088 36.0288 25.2104H34.1465C34.4614 26.9463 35.9336 28.0889 37.8672 28.0889ZM37.9331 22.7275C36.7173 22.7275 35.853 21.8633 35.853 20.6548C35.853 19.4756 36.7612 18.5747 37.9404 18.5747C39.1196 18.5747 40.0278 19.4902 40.0278 20.6841C40.0278 21.8633 39.1416 22.7275 37.9331 22.7275Z" fill="black"/>
<path d="M45.243 27.9863C45.9388 27.9863 46.4148 27.4883 46.4148 26.8291C46.4148 26.1626 45.9388 25.6719 45.243 25.6719C44.5545 25.6719 44.0711 26.1626 44.0711 26.8291C44.0711 27.4883 44.5545 27.9863 45.243 27.9863ZM45.243 22.4932C45.9388 22.4932 46.4148 22.0024 46.4148 21.3433C46.4148 20.6768 45.9388 20.186 45.243 20.186C44.5545 20.186 44.0711 20.6768 44.0711 21.3433C44.0711 22.0024 44.5545 22.4932 45.243 22.4932Z" fill="black"/>
<path d="M53.2706 27.8325H55.0797V25.8623H56.5079V24.2656H55.0797V17.2637H52.4137C50.546 20.0762 49.0592 22.4272 48.107 24.1777V25.8623H53.2706V27.8325ZM49.8575 24.1997C51.088 22.0317 52.1866 20.2959 53.1974 18.8018H53.2999V24.3096H49.8575V24.1997Z" fill="black"/>
<path d="M60.5365 27.8325H62.4262V17.2637H60.5438L57.7826 19.1973V21.0137L60.412 19.168H60.5365V27.8325Z" fill="black"/>
</g>
<defs>
<clipPath id="clip0_1_4">
<rect width="390" height="844" fill="white"/>
</clipPath>
</defs>
</svg>
